<svg width="24" height="29" viewBox="0 0 24 29" fill="none" xmlns="http://www.w3.org/2000/svg">
<path d="M8.44091 6.89822C8.81422 5.00412 10.266 3.5918 12 3.5918C13.734 3.5918 15.1858 5.00412 15.5591 6.89822L15.7151 6.93623C18.1003 7.51748 19.9998 9.62399 20.6215 12.3774C21.1262 14.6125 21.1262 16.9624 20.6215 19.1975C19.9998 21.9509 18.1003 24.0574 15.7151 24.6386L15.2593 24.7497C13.1095 25.2735 10.8905 25.2735 8.74072 24.7497L8.28493 24.6386C5.89969 24.0574 4.0002 21.9509 3.3785 19.1975C2.87383 16.9624 2.87383 14.6125 3.3785 12.3774C4.0002 9.62398 5.89968 7.51748 8.28493 6.93623L8.44091 6.89822Z" stroke="#363853" stroke-width="1.5" stroke-linejoin="round"/>
<path d="M9.5 15.5645C9.5 13.9114 10.6193 12.5713 12 12.5713C13.3807 12.5713 14.5 13.9114 14.5 15.5645C14.5 17.2175 13.3807 18.5576 12 18.5576C10.6193 18.5576 9.5 17.2175 9.5 15.5645Z" stroke="#363853" stroke-width="1.5"/>
</svg>
