<svg width="36" height="36" viewBox="0 0 36 36" fill="none" xmlns="http://www.w3.org/2000/svg">
<path d="M33.9413 13.5226C33.7588 13.2012 33.5132 12.9199 33.2194 12.6957C32.9256 12.4714 32.5895 12.3088 32.2312 12.2176L10.4962 6.39013C9.77451 6.19874 9.00641 6.29981 8.35875 6.67138C7.7175 7.04263 7.245 7.66139 7.05375 8.37014L6.17625 11.6326L6.13125 11.8014H4.5C3.74625 11.8014 3.0375 12.0939 2.50875 12.6226C1.98 13.1514 1.6875 13.8714 1.6875 14.6139V20.2389C1.6875 20.5539 1.935 20.8014 2.25 20.8014C2.565 20.8014 2.8125 20.5539 2.8125 20.2389V18.5514H28.6875V26.9889C28.6875 27.4276 28.5075 27.8664 28.1925 28.1814C27.8775 28.4964 27.4387 28.6764 27 28.6764H4.5C4.06125 28.6764 3.6225 28.4964 3.3075 28.1814C2.9925 27.8664 2.8125 27.4276 2.8125 26.9889V24.7389C2.8125 24.4239 2.565 24.1764 2.25 24.1764C1.935 24.1764 1.6875 24.4239 1.6875 24.7389V26.9889C1.6875 27.7314 1.99125 28.4514 2.50875 28.9801C3.0375 29.5089 3.74625 29.8014 4.5 29.8014H27C27.3038 29.8014 27.6075 29.7451 27.8888 29.6439C28.0238 29.6664 28.1587 29.6889 28.2937 29.6889C28.7887 29.6889 29.2725 29.5651 29.7 29.3064C30.3412 28.9351 30.825 28.3164 31.0162 27.5964L33.345 18.9114L34.2225 15.6489C34.4138 14.9289 34.3125 14.1526 33.9413 13.5114V13.5226ZM32.4112 18.0789L29.8238 17.3814V15.0526L32.9962 15.9076L32.4112 18.0789ZM32.9737 14.0851C33.0975 14.2989 33.165 14.5464 33.1875 14.7939L29.7112 13.8601C29.5762 13.3989 29.3513 12.9714 29.0025 12.6226C28.935 12.5551 28.8563 12.4989 28.7888 12.4426L31.95 13.2864C32.3887 13.3989 32.7487 13.6801 32.9737 14.0739V14.0851ZM8.92125 7.65014C9.30375 7.42514 9.77625 7.36889 10.2037 7.48139L26.37 11.8126H21.9937L8.38125 8.15639C8.5275 7.95389 8.7075 7.77389 8.92125 7.65014ZM8.9775 11.8126L7.425 11.3964L8.01 9.22513L17.6962 11.8239H8.9775V11.8126ZM4.5 12.9376H27C27.45 12.9376 27.8775 13.1176 28.1925 13.4326C28.3725 13.6126 28.4962 13.8264 28.5862 14.0626H2.91375C3.02966 13.7343 3.24436 13.4499 3.52838 13.2485C3.8124 13.047 4.1518 12.9385 4.5 12.9376ZM2.8125 17.4376V15.1876H28.6875V17.4376H2.8125ZM29.925 27.3264C29.8688 27.5289 29.7788 27.7201 29.655 27.8776C29.745 27.5964 29.8125 27.2926 29.8125 27.0001V18.5626L32.1075 19.1814L29.925 27.3264Z" fill="black"/>
<path d="M6.1875 27.5625C6.8625 27.5625 7.45875 27.2587 7.875 26.7862C8.29125 27.2587 8.8875 27.5625 9.5625 27.5625C10.8 27.5625 11.8125 26.55 11.8125 25.3125C11.8125 24.075 10.8 23.0625 9.5625 23.0625C8.8875 23.0625 8.29125 23.3663 7.875 23.8388C7.45875 23.3663 6.8625 23.0625 6.1875 23.0625C4.95 23.0625 3.9375 24.075 3.9375 25.3125C3.9375 26.55 4.95 27.5625 6.1875 27.5625ZM9.5625 24.1875C10.1813 24.1875 10.6875 24.6937 10.6875 25.3125C10.6875 25.9313 10.1813 26.4375 9.5625 26.4375C8.94375 26.4375 8.4375 25.9313 8.4375 25.3125C8.4375 24.6937 8.94375 24.1875 9.5625 24.1875ZM6.1875 24.1875C6.80625 24.1875 7.3125 24.6937 7.3125 25.3125C7.3125 25.9313 6.80625 26.4375 6.1875 26.4375C5.56875 26.4375 5.0625 25.9313 5.0625 25.3125C5.0625 24.6937 5.56875 24.1875 6.1875 24.1875Z" fill="black"/>
<path d="M2.25 23.0625C2.56066 23.0625 2.8125 22.8107 2.8125 22.5C2.8125 22.1893 2.56066 21.9375 2.25 21.9375C1.93934 21.9375 1.6875 22.1893 1.6875 22.5C1.6875 22.8107 1.93934 23.0625 2.25 23.0625Z" fill="black"/>
</svg>
