<svg width="25" height="30" viewBox="0 0 25 30" fill="none" xmlns="http://www.w3.org/2000/svg">
<g filter="url(#filter0_d_508_9887)">
<mask id="path-1-outside-1_508_9887" maskUnits="userSpaceOnUse" x="4" y="4.5" width="17" height="17" fill="black">
<rect fill="white" x="4" y="4.5" width="17" height="17"/>
<path d="M14.5858 7.91421L7.39171 15.1083C7.19706 15.3029 7.09974 15.4003 7.03276 15.5186C6.96579 15.6368 6.93241 15.7704 6.86564 16.0374L6.20211 18.6915C6.11186 19.0526 6.06673 19.2331 6.16682 19.3332C6.2669 19.4333 6.44742 19.3881 6.80844 19.2979L6.80845 19.2979L9.46257 18.6344C9.72963 18.5676 9.86316 18.5342 9.98145 18.4672C10.0997 18.4003 10.1971 18.3029 10.3917 18.1083L17.5858 10.9142L17.5858 10.9142C18.2525 10.2475 18.5858 9.91421 18.5858 9.5C18.5858 9.08579 18.2525 8.75245 17.5858 8.08579L17.4142 7.91421C16.7475 7.24755 16.4142 6.91421 16 6.91421C15.5858 6.91421 15.2525 7.24755 14.5858 7.91421Z"/>
</mask>
<path d="M7.39171 15.1083L8.80593 16.5225L8.80593 16.5225L7.39171 15.1083ZM14.5858 7.91421L13.1716 6.5L13.1716 6.5L14.5858 7.91421ZM17.4142 7.91421L16 9.32843L16 9.32843L17.4142 7.91421ZM17.5858 8.08579L19 6.67157L19 6.67157L17.5858 8.08579ZM17.5858 10.9142L19 12.3284L17.5858 10.9142ZM10.3917 18.1083L8.9775 16.6941L8.9775 16.6941L10.3917 18.1083ZM6.86564 16.0374L8.80593 16.5225L8.80593 16.5225L6.86564 16.0374ZM6.20211 18.6915L4.26183 18.2065H4.26183L6.20211 18.6915ZM6.80845 19.2979L6.32338 17.3576L6.23624 17.3794L6.15141 17.4089L6.80845 19.2979ZM9.46257 18.6344L8.97751 16.6941L8.9775 16.6941L9.46257 18.6344ZM6.16682 19.3332L7.58103 17.919L7.58103 17.919L6.16682 19.3332ZM6.80844 19.2979L7.29351 21.2382L7.38065 21.2164L7.46549 21.1869L6.80844 19.2979ZM9.98145 18.4672L8.99605 16.7268L8.99605 16.7268L9.98145 18.4672ZM17.5858 10.9142L19 12.3284L19 12.3284L17.5858 10.9142ZM7.03276 15.5186L5.29236 14.5332L5.29236 14.5332L7.03276 15.5186ZM8.80593 16.5225L16 9.32843L13.1716 6.5L5.9775 13.6941L8.80593 16.5225ZM16 9.32843L16.1716 9.5L19 6.67157L18.8284 6.5L16 9.32843ZM16.1716 9.5L8.9775 16.6941L11.8059 19.5225L19 12.3284L16.1716 9.5ZM4.92536 15.5524L4.26183 18.2065L8.1424 19.1766L8.80593 16.5225L4.92536 15.5524ZM7.29352 21.2382L9.94764 20.5746L8.9775 16.6941L6.32338 17.3576L7.29352 21.2382ZM4.26183 18.2065C4.233 18.3218 4.15055 18.6296 4.12259 18.9155C4.0922 19.2261 4.06509 20.0599 4.7526 20.7474L7.58103 17.919C7.84671 18.1847 7.99914 18.5005 8.06644 18.7928C8.12513 19.0478 8.10965 19.2429 8.10358 19.3049C8.09699 19.3724 8.08792 19.404 8.097 19.3631C8.10537 19.3253 8.11788 19.2747 8.1424 19.1766L4.26183 18.2065ZM6.15141 17.4089L6.1514 17.4089L7.46549 21.1869L7.46549 21.1869L6.15141 17.4089ZM6.32338 17.3576C6.22531 17.3821 6.17467 17.3946 6.13694 17.403C6.09595 17.4121 6.12762 17.403 6.19506 17.3964C6.25712 17.3903 6.45223 17.3749 6.70717 17.4336C6.99955 17.5009 7.31535 17.6533 7.58103 17.919L4.7526 20.7474C5.44011 21.4349 6.27387 21.4078 6.58449 21.3774C6.87039 21.3494 7.17822 21.267 7.29351 21.2382L6.32338 17.3576ZM8.9775 16.6941C8.95279 16.7188 8.9317 16.7399 8.91214 16.7593C8.89271 16.7787 8.87671 16.7945 8.86293 16.808C8.84916 16.8215 8.83911 16.8312 8.83172 16.8382C8.82812 16.8416 8.82545 16.8441 8.8236 16.8458C8.82176 16.8475 8.8209 16.8483 8.82092 16.8482C8.82094 16.8482 8.82198 16.8473 8.82395 16.8456C8.82592 16.8439 8.82893 16.8413 8.83291 16.838C8.84086 16.8314 8.85292 16.8216 8.86866 16.8098C8.88455 16.7979 8.90362 16.7843 8.92564 16.7699C8.94776 16.7553 8.97131 16.7408 8.99605 16.7268L10.9668 20.2076C11.376 19.976 11.6864 19.6421 11.8059 19.5225L8.9775 16.6941ZM9.94764 20.5746C10.1117 20.5336 10.5577 20.4393 10.9669 20.2076L8.99605 16.7268C9.02079 16.7128 9.0453 16.7001 9.06917 16.6886C9.09292 16.6772 9.11438 16.6678 9.13277 16.6603C9.15098 16.6529 9.16553 16.6475 9.17529 16.6441C9.18017 16.6424 9.18394 16.6412 9.18642 16.6404C9.1889 16.6395 9.19024 16.6391 9.19026 16.6391C9.19028 16.6391 9.18918 16.6395 9.18677 16.6402C9.18435 16.6409 9.18084 16.6419 9.17606 16.6432C9.16625 16.6459 9.15278 16.6496 9.13414 16.6544C9.11548 16.6593 9.09368 16.6649 9.0671 16.6716C9.04034 16.6784 9.0114 16.6856 8.97751 16.6941L9.94764 20.5746ZM16.1716 9.5C16.3435 9.67192 16.4698 9.79842 16.5738 9.90785C16.6786 10.018 16.7263 10.0752 16.7457 10.1007C16.7644 10.1252 16.7226 10.0764 16.6774 9.96782C16.6254 9.84332 16.5858 9.68102 16.5858 9.5H20.5858C20.5858 8.67978 20.2282 8.07075 19.9258 7.6744C19.6586 7.32421 19.2934 6.96493 19 6.67157L16.1716 9.5ZM19 12.3284L19 12.3284L16.1716 9.49999L16.1716 9.5L19 12.3284ZM19 12.3284C19.2934 12.0351 19.6586 11.6758 19.9258 11.3256C20.2282 10.9292 20.5858 10.3202 20.5858 9.5H16.5858C16.5858 9.31898 16.6254 9.15668 16.6774 9.03218C16.7226 8.92362 16.7644 8.87476 16.7457 8.89927C16.7263 8.92482 16.6786 8.982 16.5738 9.09215C16.4698 9.20157 16.3435 9.32807 16.1716 9.5L19 12.3284ZM16 9.32843C16.1719 9.1565 16.2984 9.03019 16.4078 8.92615C16.518 8.82142 16.5752 8.77375 16.6007 8.75426C16.6252 8.73555 16.5764 8.77736 16.4678 8.82264C16.3433 8.87455 16.181 8.91421 16 8.91421V4.91421C15.1798 4.91421 14.5707 5.27177 14.1744 5.57417C13.8242 5.84136 13.4649 6.20664 13.1716 6.5L16 9.32843ZM18.8284 6.5C18.5351 6.20665 18.1758 5.84136 17.8256 5.57417C17.4293 5.27177 16.8202 4.91421 16 4.91421V8.91421C15.819 8.91421 15.6567 8.87455 15.5322 8.82264C15.4236 8.77736 15.3748 8.73555 15.3993 8.75426C15.4248 8.77375 15.482 8.82142 15.5922 8.92615C15.7016 9.03019 15.8281 9.1565 16 9.32843L18.8284 6.5ZM5.9775 13.6941C5.85793 13.8136 5.52401 14.124 5.29236 14.5332L8.77316 16.5039C8.75915 16.5287 8.7447 16.5522 8.73014 16.5744C8.71565 16.5964 8.70207 16.6155 8.69016 16.6313C8.67837 16.6471 8.66863 16.6591 8.66202 16.6671C8.65871 16.6711 8.65613 16.6741 8.65442 16.6761C8.65271 16.678 8.65178 16.6791 8.65176 16.6791C8.65174 16.6791 8.65252 16.6782 8.65422 16.6764C8.65593 16.6745 8.65842 16.6719 8.66184 16.6683C8.66884 16.6609 8.67852 16.6508 8.692 16.6371C8.7055 16.6233 8.72132 16.6073 8.74066 16.5879C8.76013 16.5683 8.78122 16.5472 8.80593 16.5225L5.9775 13.6941ZM8.80593 16.5225C8.8144 16.4886 8.82164 16.4597 8.82839 16.4329C8.8351 16.4063 8.84068 16.3845 8.84556 16.3659C8.85043 16.3472 8.85407 16.3337 8.8568 16.3239C8.85813 16.3192 8.85914 16.3157 8.85984 16.3132C8.86054 16.3108 8.86088 16.3097 8.86088 16.3097C8.86087 16.3098 8.86046 16.3111 8.85965 16.3136C8.85884 16.3161 8.85758 16.3198 8.85588 16.3247C8.85246 16.3345 8.84713 16.349 8.8397 16.3672C8.8322 16.3856 8.82284 16.4071 8.81141 16.4308C8.79993 16.4547 8.78717 16.4792 8.77316 16.5039L5.29236 14.5332C5.06071 14.9423 4.96637 15.3883 4.92536 15.5524L8.80593 16.5225Z" fill="#050B22" mask="url(#path-1-outside-1_508_9887)"/>
<path d="M13.5 8L16.5 6L19.5 9L17.5 12L13.5 8Z" fill="#050B22"/>
</g>
<defs>
<filter id="filter0_d_508_9887" x="-3" y="0.5" width="32" height="32" filterUnits="userSpaceOnUse" color-interpolation-filters="sRGB">
<feFlood flood-opacity="0" result="BackgroundImageFix"/>
<feColorMatrix in="SourceAlpha" type="matrix" values="0 0 0 0 0 0 0 0 0 0 0 0 0 0 0 0 0 0 127 0" result="hardAlpha"/>
<feOffset dy="4"/>
<feGaussianBlur stdDeviation="2"/>
<feComposite in2="hardAlpha" operator="out"/>
<feColorMatrix type="matrix" values="0 0 0 0 0 0 0 0 0 0 0 0 0 0 0 0 0 0 0.25 0"/>
<feBlend mode="normal" in2="BackgroundImageFix" result="effect1_dropShadow_508_9887"/>
<feBlend mode="normal" in="SourceGraphic" in2="effect1_dropShadow_508_9887" result="shape"/>
</filter>
</defs>
</svg>
