<svg width="25" height="28" viewBox="0 0 25 28" fill="none" xmlns="http://www.w3.org/2000/svg">
<path d="M20.7467 3.95984C20.64 3.95984 20.5333 3.93317 20.44 3.87984C17.88 2.55984 15.6667 1.99984 13.0133 1.99984C10.3733 1.99984 7.86665 2.6265 5.58665 3.87984C5.26665 4.05317 4.86665 3.93317 4.67999 3.61317C4.50665 3.29317 4.62665 2.87984 4.94665 2.7065C7.42665 1.35984 10.1467 0.666504 13.0133 0.666504C15.8533 0.666504 18.3333 1.29317 21.0533 2.69317C21.3867 2.8665 21.5067 3.2665 21.3333 3.5865C21.2133 3.8265 20.9867 3.95984 20.7467 3.95984V3.95984ZM1.66665 10.9598C1.53332 10.9598 1.39999 10.9198 1.27999 10.8398C0.973318 10.6265 0.906652 10.2132 1.11998 9.9065C2.43999 8.03984 4.11999 6.57317 6.11999 5.5465C10.3067 3.3865 15.6667 3.37317 19.8667 5.53317C21.8667 6.55984 23.5467 8.01317 24.8667 9.8665C25.08 10.1598 25.0133 10.5865 24.7067 10.7998C24.4 11.0132 23.9867 10.9465 23.7733 10.6398C22.5733 8.95984 21.0533 7.63984 19.2533 6.71984C15.4267 4.75984 10.5333 4.75984 6.71999 6.73317C4.90665 7.6665 3.38665 8.99984 2.18665 10.6798C2.07999 10.8665 1.87999 10.9598 1.66665 10.9598V10.9598ZM9.99999 27.0532C9.82665 27.0532 9.65332 26.9865 9.53332 26.8532C8.37332 25.6932 7.74665 24.9465 6.85332 23.3332C5.93332 21.6932 5.45332 19.6932 5.45332 17.5465C5.45332 13.5865 8.83999 10.3598 13 10.3598C17.16 10.3598 20.5467 13.5865 20.5467 17.5465C20.5467 17.9198 20.2533 18.2132 19.88 18.2132C19.5067 18.2132 19.2133 17.9198 19.2133 17.5465C19.2133 14.3198 16.4267 11.6932 13 11.6932C9.57332 11.6932 6.78665 14.3198 6.78665 17.5465C6.78665 19.4665 7.21332 21.2398 8.02665 22.6798C8.87999 24.2132 9.46665 24.8665 10.4933 25.9065C10.7467 26.1732 10.7467 26.5865 10.4933 26.8532C10.3467 26.9865 10.1733 27.0532 9.99999 27.0532ZM19.56 24.5865C17.9733 24.5865 16.5733 24.1865 15.4267 23.3998C13.44 22.0532 12.2533 19.8665 12.2533 17.5465C12.2533 17.1732 12.5467 16.8798 12.92 16.8798C13.2933 16.8798 13.5867 17.1732 13.5867 17.5465C13.5867 19.4265 14.5467 21.1998 16.1733 22.2932C17.12 22.9332 18.2267 23.2398 19.56 23.2398C19.88 23.2398 20.4133 23.1998 20.9467 23.1065C21.3067 23.0398 21.6533 23.2798 21.72 23.6532C21.7867 24.0132 21.5467 24.3598 21.1733 24.4265C20.4133 24.5732 19.7467 24.5865 19.56 24.5865V24.5865ZM16.88 27.3332C16.8267 27.3332 16.76 27.3198 16.7067 27.3065C14.5867 26.7198 13.2 25.9332 11.7467 24.5065C9.87999 22.6532 8.85332 20.1865 8.85332 17.5465C8.85332 15.3865 10.6933 13.6265 12.96 13.6265C15.2267 13.6265 17.0667 15.3865 17.0667 17.5465C17.0667 18.9732 18.3067 20.1332 19.84 20.1332C21.3733 20.1332 22.6133 18.9732 22.6133 17.5465C22.6133 12.5198 18.28 8.43984 12.9467 8.43984C9.15999 8.43984 5.69332 10.5465 4.13332 13.8132C3.61332 14.8932 3.34665 16.1598 3.34665 17.5465C3.34665 18.5865 3.43998 20.2265 4.23998 22.3598C4.37332 22.7065 4.19998 23.0932 3.85332 23.2132C3.50665 23.3465 3.11999 23.1598 2.99999 22.8265C2.34665 21.0798 2.02665 19.3465 2.02665 17.5465C2.02665 15.9465 2.33332 14.4932 2.93332 13.2265C4.70665 9.5065 8.63998 7.09317 12.9467 7.09317C19.0133 7.09317 23.9467 11.7732 23.9467 17.5332C23.9467 19.6932 22.1067 21.4532 19.84 21.4532C17.5733 21.4532 15.7333 19.6932 15.7333 17.5332C15.7333 16.1065 14.4933 14.9465 12.96 14.9465C11.4267 14.9465 10.1867 16.1065 10.1867 17.5332C10.1867 19.8132 11.0667 21.9465 12.68 23.5465C13.9467 24.7998 15.16 25.4932 17.04 26.0132C17.4 26.1065 17.6 26.4798 17.5067 26.8265C17.44 27.1332 17.16 27.3332 16.88 27.3332V27.3332Z" fill="#D75F26"/>
</svg>
