<svg width="25" height="24" viewBox="0 0 25 24" fill="none" xmlns="http://www.w3.org/2000/svg">
<path fill-rule="evenodd" clip-rule="evenodd" d="M11.5 3C11.5 2.44772 11.9477 2 12.5 2C13.0523 2 13.5 2.44772 13.5 3C13.5 3.55228 13.0523 4 12.5 4C11.9477 4 11.5 3.55228 11.5 3ZM11.5 21C11.5 20.4477 11.9477 20 12.5 20C13.0523 20 13.5 20.4477 13.5 21C13.5 21.5523 13.0523 22 12.5 22C11.9477 22 11.5 21.5523 11.5 21ZM21.5 11C22.0523 11 22.5 11.4477 22.5 12C22.5 12.5523 22.0523 13 21.5 13C20.9477 13 20.5 12.5523 20.5 12C20.5 11.4477 20.9477 11 21.5 11ZM3.5 11C4.05228 11 4.5 11.4477 4.5 12C4.5 12.5523 4.05228 13 3.5 13C2.94772 13 2.5 12.5523 2.5 12C2.5 11.4477 2.94772 11 3.5 11ZM18.1569 4.92903C18.5474 4.53851 19.1806 4.53851 19.5711 4.92903C19.9616 5.31955 19.9616 5.95272 19.5711 6.34324C19.1806 6.73377 18.5474 6.73377 18.1569 6.34324C17.7664 5.95272 17.7664 5.31955 18.1569 4.92903ZM5.42888 17.6568C5.8194 17.2663 6.45257 17.2663 6.84309 17.6568C7.23362 18.0473 7.23362 18.6805 6.84309 19.071C6.45257 19.4616 5.8194 19.4616 5.42888 19.071C5.03836 18.6805 5.03836 18.0473 5.42888 17.6568ZM19.5711 17.6569C19.9616 18.0474 19.9616 18.6806 19.5711 19.0711C19.1806 19.4616 18.5474 19.4616 18.1569 19.0711C17.7664 18.6806 17.7664 18.0474 18.1569 17.6569C18.5474 17.2664 19.1806 17.2664 19.5711 17.6569ZM6.84319 4.92888C7.23371 5.3194 7.23371 5.95257 6.84319 6.34309C6.45266 6.73362 5.8195 6.73362 5.42897 6.34309C5.03845 5.95257 5.03845 5.3194 5.42897 4.92888C5.8195 4.53836 6.45266 4.53836 6.84319 4.92888Z" fill="#D75F26"/>
<path fill-rule="evenodd" clip-rule="evenodd" d="M16.5 12C16.5 14.2091 14.7091 16 12.5 16C10.2909 16 8.5 14.2091 8.5 12C8.5 9.79086 10.2909 8 12.5 8C14.7091 8 16.5 9.79086 16.5 12Z" fill="#D75F26"/>
</svg>
