<svg width="32" height="32" viewBox="0 0 32 32" fill="none" xmlns="http://www.w3.org/2000/svg">
<path d="M28.4991 3.3623H5.49908C4.67037 3.3626 3.87568 3.69194 3.2897 4.27793C2.70371 4.86391 2.37437 5.65859 2.37408 6.4873V16.3123C1.6084 17.1225 1.03816 18.0971 0.706985 19.1616C0.375809 20.226 0.292467 21.3521 0.463331 22.4537C0.634195 23.5553 1.05474 24.6033 1.6928 25.5174C2.33086 26.4315 3.16953 27.1876 4.14467 27.7278C5.11981 28.268 6.20559 28.578 7.31895 28.6342C8.43231 28.6903 9.54377 28.4911 10.5683 28.0517C11.5928 27.6124 12.5033 26.9445 13.2301 26.0992C13.9569 25.2539 14.4808 24.2536 14.7616 23.1748H28.4991C29.3278 23.1745 30.1225 22.8452 30.7085 22.2592C31.2944 21.6732 31.6238 20.8785 31.6241 20.0498V6.4873C31.6238 5.65859 31.2944 4.86391 30.7085 4.27793C30.1225 3.69194 29.3278 3.3626 28.4991 3.3623ZM3.62408 8.9873H30.3741V11.7373H3.62408V8.9873ZM5.49908 4.6123H28.4991C28.9959 4.61376 29.472 4.81177 29.8233 5.16308C30.1746 5.5144 30.3726 5.99047 30.3741 6.4873V7.7373H3.62408V6.4873C3.62447 5.99015 3.82214 5.51346 4.17369 5.16192C4.52523 4.81037 5.00192 4.6127 5.49908 4.6123ZM7.68658 27.3873C6.48753 27.3873 5.3154 27.0317 4.31843 26.3656C3.32146 25.6994 2.54441 24.7526 2.08556 23.6448C1.6267 22.537 1.50664 21.3181 1.74056 20.1421C1.97449 18.9661 2.55188 17.8858 3.39974 17.038C4.2476 16.1901 5.32783 15.6127 6.50384 15.3788C7.67985 15.1449 8.89882 15.2649 10.0066 15.7238C11.1144 16.1826 12.0612 16.9597 12.7274 17.9567C13.3935 18.9536 13.7491 20.1258 13.7491 21.3248C13.7476 22.9322 13.1083 24.4733 11.9717 25.61C10.8351 26.7466 9.29398 27.3858 7.68658 27.3873ZM28.4991 21.9248H14.9741C14.9928 21.7311 14.9991 21.5311 14.9991 21.3311C15.0003 20.0064 14.6413 18.7064 13.9606 17.5701C13.28 16.4337 12.3032 15.5038 11.1347 14.8798C9.96632 14.2558 8.65024 13.9612 7.32728 14.0274C6.00433 14.0937 4.72428 14.5184 3.62408 15.2561V12.9873H30.3741V20.0498C30.3726 20.5466 30.1746 21.0227 29.8233 21.374C29.472 21.7253 28.9959 21.9234 28.4991 21.9248Z" fill="black"/>
<path d="M25.4062 15.3877C24.9554 15.3877 24.5131 15.5112 24.1275 15.7448C23.7419 15.9783 23.4276 16.3131 23.2188 16.7127C22.9629 16.2232 22.5502 15.8337 22.0469 15.6064C21.5435 15.3791 20.9784 15.3272 20.4421 15.459C19.9057 15.5907 19.429 15.8985 19.0882 16.3331C18.7474 16.7678 18.5622 17.3041 18.5622 17.8564C18.5622 18.4088 18.7474 18.9451 19.0882 19.3798C19.429 19.8144 19.9057 20.1222 20.4421 20.2539C20.9784 20.3857 21.5435 20.3338 22.0469 20.1065C22.5502 19.8792 22.9629 19.4897 23.2188 19.0002C23.4216 19.3881 23.7239 19.7152 24.0947 19.9478C24.4655 20.1804 24.8916 20.3102 25.3291 20.324C25.7666 20.3377 26.2 20.2349 26.5847 20.026C26.9694 19.8171 27.2916 19.5096 27.5183 19.1352C27.7451 18.7607 27.8682 18.3327 27.875 17.895C27.8819 17.4573 27.7722 17.0257 27.5573 16.6443C27.3423 16.263 27.0299 15.9456 26.6519 15.7248C26.2739 15.504 25.844 15.3876 25.4062 15.3877ZM21.0312 19.0752C20.7899 19.0752 20.5541 19.0036 20.3535 18.8694C20.1529 18.7352 19.9967 18.5444 19.9047 18.3214C19.8126 18.0983 19.7889 17.853 19.8364 17.6164C19.8839 17.3798 20.0006 17.1626 20.1717 16.9924C20.3428 16.8223 20.5605 16.7067 20.7973 16.6604C21.0342 16.614 21.2794 16.6391 21.502 16.7323C21.7246 16.8255 21.9145 16.9827 22.0476 17.1839C22.1808 17.3851 22.2512 17.6214 22.25 17.8627C22.249 18.185 22.1201 18.4938 21.8915 18.7212C21.663 18.9485 21.3536 19.0758 21.0312 19.0752ZM25.4062 19.0752C25.1649 19.0752 24.9291 19.0036 24.7285 18.8694C24.5279 18.7352 24.3717 18.5444 24.2797 18.3214C24.1876 18.0983 24.1639 17.853 24.2114 17.6164C24.2589 17.3798 24.3756 17.1626 24.5467 16.9924C24.7178 16.8223 24.9355 16.7067 25.1723 16.6604C25.4092 16.614 25.6544 16.6391 25.877 16.7323C26.0996 16.8255 26.2895 16.9827 26.4226 17.1839C26.5558 17.3851 26.6262 17.6214 26.625 17.8627C26.624 18.185 26.4951 18.4938 26.2665 18.7212C26.038 18.9485 25.7286 19.0758 25.4062 19.0752ZM7.6875 20.2439C7.52189 20.2444 7.36319 20.3104 7.24609 20.4275C7.12898 20.5446 7.06298 20.7033 7.0625 20.8689V23.7814C7.0625 23.9472 7.12835 24.1062 7.24556 24.2234C7.36277 24.3406 7.52174 24.4064 7.6875 24.4064C7.85326 24.4064 8.01223 24.3406 8.12944 24.2234C8.24665 24.1062 8.3125 23.9472 8.3125 23.7814V20.8689C8.31202 20.7033 8.24602 20.5446 8.12891 20.4275C8.01181 20.3104 7.85311 20.2444 7.6875 20.2439ZM7.6875 18.2439C7.52189 18.2444 7.36319 18.3104 7.24609 18.4275C7.12898 18.5446 7.06298 18.7033 7.0625 18.8689V19.2814C7.0625 19.4472 7.12835 19.6062 7.24556 19.7234C7.36277 19.8406 7.52174 19.9064 7.6875 19.9064C7.85326 19.9064 8.01223 19.8406 8.12944 19.7234C8.24665 19.6062 8.3125 19.4472 8.3125 19.2814V18.8689C8.31202 18.7033 8.24602 18.5446 8.12891 18.4275C8.01181 18.3104 7.85311 18.2444 7.6875 18.2439Z" fill="black"/>
</svg>
