<svg width="22" height="22" viewBox="0 0 22 22" fill="none" xmlns="http://www.w3.org/2000/svg">
<path fill-rule="evenodd" clip-rule="evenodd" d="M6.66385 1.16533C7.99055 0.572089 9.46491 0.25 11 0.25C16.9342 0.25 21.75 5.06579 21.75 11C21.75 16.9342 16.9342 21.75 11 21.75C5.06579 21.75 0.25 16.9342 0.25 11C0.25 8.5809 1.0568 6.34452 2.39957 4.55058C2.64778 4.21897 3.11782 4.15136 3.44942 4.39957C3.78103 4.64778 3.84864 5.11782 3.60043 5.44942C2.4432 6.99548 1.75 8.9191 1.75 11C1.75 16.1058 5.89421 20.25 11 20.25C16.1058 20.25 20.25 16.1058 20.25 11C20.25 5.89421 16.1058 1.75 11 1.75C9.67509 1.75 8.40945 2.02791 7.27615 2.53467C6.89802 2.70375 6.45441 2.53428 6.28533 2.15615C6.11625 1.77802 6.28572 1.33441 6.66385 1.16533Z" fill="#27AE60"/>
<path fill-rule="evenodd" clip-rule="evenodd" d="M15.648 7.71732C15.9422 8.00891 15.9443 8.48378 15.6527 8.77797L14.5327 9.90797C14.2411 10.2022 13.7662 10.2043 13.472 9.91268C13.1778 9.62109 13.1757 9.14622 13.4673 8.85203L14.5873 7.72203C14.8789 7.42784 15.3538 7.42573 15.648 7.71732Z" fill="#27AE60"/>
<path fill-rule="evenodd" clip-rule="evenodd" d="M6.3515 10.4687C6.64492 10.1763 7.1198 10.1772 7.41215 10.4706L9.62287 12.6894L11.6416 10.6786C11.935 10.3863 12.4099 10.3872 12.7022 10.6807C12.9945 10.9742 12.9936 11.4491 12.7001 11.7414L10.1501 14.2814C9.85671 14.5737 9.38189 14.5728 9.08956 14.2794L6.34956 11.5294C6.0572 11.2359 6.05807 10.7611 6.3515 10.4687Z" fill="#27AE60"/>
</svg>
