<svg xmlns="http://www.w3.org/2000/svg" width="160" height="160" fill="none"><g filter="url(#a)"><circle cx="80" cy="80" r="60" fill="#D75F26"/></g><path fill="#fff" d="M103.24 49.88c-.32 0-.64-.08-.92-.24C94.64 45.68 88 44 80.04 44c-7.92 0-15.44 1.88-22.28 5.64-.96.52-2.16.16-2.72-.8-.52-.96-.16-2.2.8-2.72 7.44-4.04 15.6-6.12 24.2-6.12 8.52 0 15.96 1.88 24.12 6.08 1 .52 1.36 1.72.84 2.68-.36.72-1.04 1.12-1.76 1.12ZM46 70.88c-.4 0-.8-.12-1.16-.36-.92-.64-1.12-1.88-.48-2.8 3.96-5.6 9-10 15-13.08 12.56-6.48 28.64-6.52 41.24-.04 6 3.08 11.04 7.44 15 13a2 2 0 0 1-.48 2.8c-.92.64-2.16.44-2.8-.48-3.6-5.04-8.16-9-13.56-11.76-11.48-5.88-26.16-5.88-37.6.04-5.44 2.8-10 6.8-13.6 11.84-.32.56-.92.84-1.56.84Zm25 48.28c-.52 0-1.04-.2-1.4-.6-3.48-3.48-5.36-5.72-8.04-10.56-2.76-4.92-4.2-10.92-4.2-17.36 0-11.88 10.16-21.56 22.64-21.56s22.64 9.68 22.64 21.56c0 1.12-.88 2-2 2s-2-.88-2-2c0-9.68-8.36-17.56-18.64-17.56-10.28 0-18.64 7.88-18.64 17.56 0 5.76 1.28 11.08 3.72 15.4 2.56 4.6 4.32 6.56 7.4 9.68.76.8.76 2.04 0 2.84-.44.4-.96.6-1.48.6Zm28.68-7.4c-4.76 0-8.96-1.2-12.4-3.56-5.96-4.04-9.52-10.6-9.52-17.56 0-1.12.88-2 2-2s2 .88 2 2c0 5.64 2.88 10.96 7.76 14.24 2.84 1.92 6.16 2.84 10.16 2.84.96 0 2.56-.12 4.16-.4 1.08-.2 2.12.52 2.32 1.64.2 1.08-.52 2.12-1.64 2.32-2.28.44-4.28.48-4.84.48ZM91.64 120c-.16 0-.36-.04-.52-.08-6.36-1.76-10.52-4.12-14.88-8.4-5.6-5.56-8.68-12.96-8.68-20.88 0-6.48 5.52-11.76 12.32-11.76 6.8 0 12.32 5.28 12.32 11.76 0 4.28 3.72 7.76 8.32 7.76s8.32-3.48 8.32-7.76c0-15.08-13-27.32-29-27.32-11.36 0-21.76 6.32-26.44 16.12-1.56 3.24-2.36 7.04-2.36 11.2 0 3.12.28 8.04 2.68 14.44.4 1.04-.12 2.2-1.16 2.56-1.04.4-2.2-.16-2.56-1.16-1.96-5.24-2.92-10.44-2.92-15.84 0-4.8.92-9.16 2.72-12.96 5.32-11.16 17.12-18.4 30.04-18.4 18.2 0 33 14.04 33 31.32 0 6.48-5.52 11.76-12.32 11.76-6.8 0-12.32-5.28-12.32-11.76 0-4.28-3.72-7.76-8.32-7.76s-8.32 3.48-8.32 7.76c0 6.84 2.64 13.24 7.48 18.04 3.8 3.76 7.44 5.84 13.08 7.4 1.08.28 1.68 1.4 1.4 2.44-.2.92-1.04 1.52-1.88 1.52Z"/><circle cx="80" cy="80" r="79.5" stroke="#B9BABE"/><defs><filter id="a" width="144" height="144" x="8" y="13" color-interpolation-filters="sRGB" filterUnits="userSpaceOnUse"><feFlood flood-opacity="0" result="BackgroundImageFix"/><feColorMatrix in="SourceAlpha" result="hardAlpha" values="0 0 0 0 0 0 0 0 0 0 0 0 0 0 0 0 0 0 127 0"/><feOffset dy="2"/><feGaussianBlur stdDeviation="3"/><feComposite in2="hardAlpha" operator="out"/><feColorMatrix values="0 0 0 0 1 0 0 0 0 0.490196 0 0 0 0 0.356863 0 0 0 0.4 0"/><feBlend in2="BackgroundImageFix" result="effect1_dropShadow_421_5859"/><feColorMatrix in="SourceAlpha" result="hardAlpha" values="0 0 0 0 0 0 0 0 0 0 0 0 0 0 0 0 0 0 127 0"/><feOffset dy="5"/><feGaussianBlur stdDeviation="6"/><feComposite in2="hardAlpha" operator="out"/><feColorMatrix values="0 0 0 0 1 0 0 0 0 0.490196 0 0 0 0 0.356863 0 0 0 0.08 0"/><feBlend in2="effect1_dropShadow_421_5859" result="effect2_dropShadow_421_5859"/><feBlend in="SourceGraphic" in2="effect2_dropShadow_421_5859" result="shape"/></filter></defs></svg>