<svg width="45" height="14" viewBox="0 0 45 14" fill="none" xmlns="http://www.w3.org/2000/svg">
<path d="M17.7691 0.226074L15.5137 13.4618H19.1209L21.3782 0.226074H17.7691Z" fill="white"/>
<path d="M12.4907 0.241553L8.95768 9.26792L8.581 7.90501C7.88424 6.26284 5.90622 3.90442 3.58398 2.41812L6.81451 13.4559L10.6314 13.4494L16.3122 0.23877L12.4907 0.241553Z" fill="white"/>
<path d="M7.2107 1.18907C7.00102 0.382826 6.39333 0.142531 5.63904 0.11377H0.046389L0 0.377259C4.35221 1.43307 7.23204 3.97704 8.42702 7.03593L7.2107 1.18907Z" fill="white"/>
<path d="M28.6898 2.76478C29.8699 2.74623 30.7254 3.00415 31.3896 3.27135L31.7153 3.42443L32.2033 0.555739C31.4889 0.287611 30.3691 0 28.9719 0C25.4073 0 22.8949 1.79525 22.8754 4.36798C22.8522 6.269 24.6651 7.33038 26.0345 7.96406C27.4401 8.6135 27.9114 9.02636 27.9049 9.60623C27.8938 10.4923 26.7842 10.8986 25.7478 10.8986C24.3033 10.8986 23.536 10.6992 22.3512 10.2056L21.8864 9.99404L21.3789 12.9564C22.2232 13.3266 23.7809 13.6448 25.398 13.6615C29.1899 13.6615 31.6541 11.8876 31.68 9.13862C31.6958 7.63469 30.7337 6.48703 28.649 5.54534C27.3872 4.93115 26.6153 4.52292 26.6227 3.90317C26.6227 3.35299 27.2777 2.76478 28.6898 2.76478Z" fill="white"/>
<path d="M41.4607 0.241211H38.6737C37.8081 0.241211 37.1642 0.476867 36.7838 1.3397L31.4277 13.4695H35.2159C35.2159 13.4695 35.8338 11.8385 35.9739 11.4813C36.3886 11.4813 40.0691 11.4868 40.5933 11.4868C40.7009 11.9489 41.033 13.4695 41.033 13.4695H44.3795L41.4607 0.241211ZM37.012 8.77214C37.3089 8.01229 38.4492 5.07309 38.4492 5.07309C38.4297 5.10927 38.7433 4.30767 38.9298 3.80945L39.1728 4.95062C39.1728 4.95062 39.864 8.11063 40.0088 8.77214H37.012Z" fill="white"/>
</svg>
