<svg width="178" height="145" viewBox="0 0 178 145" fill="none" xmlns="http://www.w3.org/2000/svg">
<path d="M90.0495 110.58C120.475 110.58 145.101 85.8083 145.101 55.2452C145.101 24.6821 120.475 0 90.0495 0C59.7132 0 34.998 24.7712 34.998 55.3343C34.998 85.8974 59.7132 110.58 90.0495 110.58Z" fill="#EAEEF9"/>
<path fill-rule="evenodd" clip-rule="evenodd" d="M13.4902 111.847C13.4902 111.018 14.1618 110.347 14.9902 110.347H166.008C166.837 110.347 167.508 111.018 167.508 111.847C167.508 112.675 166.837 113.347 166.008 113.347H14.9902C14.1618 113.347 13.4902 112.675 13.4902 111.847Z" fill="#EAEEF9"/>
<path d="M28.3945 48.6516C30.4467 48.6516 32.0527 47.0477 32.0527 44.9983C32.0527 42.9489 30.4467 41.345 28.3945 41.345C26.3424 41.345 24.7363 42.9489 24.7363 44.9983C24.7363 47.0477 26.4316 48.6516 28.3945 48.6516Z" fill="#EAEEF9"/>
<path d="M24.7366 36.8004C26.0749 36.8004 27.2348 35.6421 27.2348 34.3055C27.2348 32.9689 26.0749 31.8105 24.7366 31.8105C23.3982 31.8105 22.2383 32.9689 22.2383 34.3055C22.2383 35.7312 23.3982 36.8004 24.7366 36.8004Z" fill="#EAEEF9"/>
<path d="M155.63 57.8292C158.217 57.8292 160.27 55.7798 160.27 53.1957C160.27 50.6117 158.217 48.5623 155.63 48.5623C153.042 48.5623 150.99 50.6117 150.99 53.1957C150.99 55.7798 153.042 57.8292 155.63 57.8292Z" fill="#F2CAB7"/>
<g filter="url(#filter0_d_601_14153)">
<path d="M145.369 101.56H155.527C155.527 106.543 151.598 110.568 146.902 110.664C146.902 110.664 146.806 110.664 146.71 110.664H116.045V101.656H139.332L145.369 101.56Z" fill="#EAEEF9"/>
</g>
<path d="M142.782 108.46C142.686 108.364 142.591 108.268 142.495 108.076C141.441 106.831 140.674 105.106 140.674 103.381V49.6203C140.578 44.6372 136.841 40.7081 132.049 40.6123C132.049 40.6123 131.953 40.6123 131.858 40.6123H101.288V49.6203H88.8301V102.806C88.9259 104.627 89.6925 106.351 90.7467 107.501C94.7715 111.622 91.13 110.664 95.7298 110.664H147.478C145.657 110.568 144.028 109.706 142.782 108.46Z" fill="#D5DDEA"/>
<g filter="url(#filter1_d_601_14153)">
<path d="M132.145 40.6122C130.42 40.6122 128.791 41.6663 127.737 42.9121C126.683 44.2537 125.82 46.9369 125.82 48.6619V101.847C125.82 106.926 121.795 110.951 116.908 110.951H74.0723V47.3203C74.1681 45.4995 74.9347 43.7746 75.9889 42.6246C77.3305 41.283 78.5763 40.6122 80.4929 40.6122L124.191 40.5164L131.858 40.6122C132.049 40.6122 132.049 40.6122 132.145 40.6122Z" fill="url(#paint0_linear_601_14153)"/>
</g>
<path d="M101.48 19.9131C99.659 20.0089 98.0299 20.8714 96.7842 22.0213C96.6883 22.1172 96.5925 22.213 96.4967 22.4047C95.4425 23.6504 94.5801 25.4712 94.5801 27.1961V59.2033H42.832V26.8128C42.9279 24.9921 43.6945 23.2671 44.7486 22.1172C46.0902 20.7756 47.8152 19.9131 49.8276 19.9131H101.48Z" fill="#E7EBF0"/>
<path d="M111.638 108.843C110.296 107.501 109.625 105.681 109.625 103.764L109.53 29.1126C109.53 24.1295 105.696 20.1046 100.905 20.0088C100.905 20.0088 100.809 20.0088 100.713 20.0088H100.33H100.138H70.0477H68.1311V29.1126H57.5898V52.2076H58.4523V103.764C58.4523 105.776 59.3148 107.693 60.4647 108.843C61.7105 110.28 63.5313 110.951 65.352 110.951H116.525C114.609 110.951 112.788 109.993 111.638 108.843Z" fill="#D5DDEA"/>
<g filter="url(#filter2_d_601_14153)">
<path d="M100.808 19.9131C98.8911 20.0089 97.1662 20.7756 95.9204 22.1172C95.8246 22.213 95.7287 22.3088 95.5371 22.5005C94.3871 23.8421 93.6205 25.4712 93.6205 27.3878V101.752C93.6205 106.926 89.4998 111.047 84.4208 111.047H39.3809V26.9087C39.4767 24.9921 40.2433 23.2671 41.4891 22.0213C42.8307 20.7756 44.6515 19.9131 46.6639 19.9131H91.8955H100.52C100.616 19.9131 100.712 19.9131 100.808 19.9131Z" fill="url(#paint1_linear_601_14153)"/>
</g>
<path d="M84.4212 32.5626H71.005C70.5259 32.5626 70.1426 32.1793 70.1426 31.7001C70.1426 31.221 70.5259 30.8376 71.005 30.8376H84.3254C84.8045 30.8376 85.1878 31.221 85.1878 31.7001C85.2837 32.1793 84.9004 32.5626 84.4212 32.5626Z" fill="#D75F26"/>
<path d="M64.7761 32.5626H47.3351C46.856 32.5626 46.4727 32.1793 46.4727 31.7001C46.4727 31.221 46.856 30.8376 47.3351 30.8376H64.7761C65.2553 30.8376 65.6386 31.221 65.6386 31.7001C65.6386 32.1793 65.2553 32.5626 64.7761 32.5626Z" fill="#D6DCE8"/>
<path d="M75.8932 41.283H58.548C58.0689 41.283 57.6855 40.8997 57.6855 40.4206C57.6855 39.9414 58.0689 39.5581 58.548 39.5581H75.8932C76.3723 39.5581 76.7557 39.9414 76.7557 40.4206C76.8515 40.8997 76.4682 41.283 75.8932 41.283Z" fill="#989FB0"/>
<path d="M52.9891 41.283H47.3351C46.856 41.283 46.4727 40.8997 46.4727 40.4206C46.4727 39.9414 46.856 39.5581 47.3351 39.5581H52.9891C53.4682 39.5581 53.8515 39.9414 53.8515 40.4206C53.8515 40.8997 53.4682 41.283 52.9891 41.283Z" fill="#F2CAB7"/>
<path d="M84.4214 50.0035H73.7843C73.3052 50.0035 72.9219 49.6202 72.9219 49.141C72.9219 48.6619 73.3052 48.2786 73.7843 48.2786H84.4214C84.9006 48.2786 85.2839 48.6619 85.2839 49.141C85.2839 49.6202 84.9006 50.0035 84.4214 50.0035Z" fill="#93D7B0"/>
<path d="M68.6093 50.0035H47.3351C46.856 50.0035 46.4727 49.6202 46.4727 49.141C46.4727 48.6619 46.856 48.2786 47.3351 48.2786H68.6093C69.0885 48.2786 69.4718 48.6619 69.4718 49.141C69.4718 49.6202 69.1843 50.0035 68.6093 50.0035Z" fill="#D75F26"/>
<path d="M75.8916 58.8201H64.2004C63.7212 58.8201 63.3379 58.4368 63.3379 57.9577C63.3379 57.4785 63.7212 57.0952 64.2004 57.0952H75.8916C76.3707 57.0952 76.754 57.4785 76.754 57.9577C76.8499 58.341 76.4666 58.8201 75.8916 58.8201Z" fill="#989FB0"/>
<path d="M59.1222 58.8201H47.3351C46.856 58.8201 46.4727 58.4368 46.4727 57.9577C46.4727 57.4785 46.856 57.0952 47.3351 57.0952H59.1222C59.6013 57.0952 59.9846 57.4785 59.9846 57.9577C59.9846 58.4368 59.6013 58.8201 59.1222 58.8201Z" fill="#D6DCE8"/>
<path d="M84.4221 67.5404H76.2765C75.7974 67.5404 75.4141 67.157 75.4141 66.6779C75.4141 66.1987 75.7974 65.8154 76.2765 65.8154H84.4221C84.9012 65.8154 85.2845 66.1987 85.2845 66.6779C85.2845 67.157 84.9012 67.5404 84.4221 67.5404Z" fill="#989FB0"/>
<path d="M70.9099 67.5404H57.2062C56.7271 67.5404 56.3438 67.157 56.3438 66.6779C56.3438 66.1987 56.7271 65.8154 57.2062 65.8154H70.9099C71.389 65.8154 71.7723 66.1987 71.7723 66.6779C71.7723 67.157 71.389 67.5404 70.9099 67.5404Z" fill="#F2CAB7"/>
<path d="M52.1266 67.5404H47.3351C46.856 67.5404 46.4727 67.157 46.4727 66.6779C46.4727 66.1987 46.856 65.8154 47.3351 65.8154H52.1266C52.6058 65.8154 52.9891 66.1987 52.9891 66.6779C52.9891 67.157 52.5099 67.5404 52.1266 67.5404Z" fill="#989FB0"/>
<path d="M84.4214 85.1732H73.7843C73.3052 85.1732 72.9219 84.7899 72.9219 84.3107C72.9219 83.8316 73.3052 83.4482 73.7843 83.4482H84.4214C84.9006 83.4482 85.2839 83.8316 85.2839 84.3107C85.2839 84.7899 84.9006 85.1732 84.4214 85.1732Z" fill="#F2CAB7"/>
<path d="M68.6093 85.1732H47.3351C46.856 85.1732 46.4727 84.7899 46.4727 84.3107C46.4727 83.8316 46.856 83.4482 47.3351 83.4482H68.6093C69.0885 83.4482 69.4718 83.8316 69.4718 84.3107C69.4718 84.7899 69.1843 85.1732 68.6093 85.1732Z" fill="#989FB0"/>
<path d="M75.8916 93.9896H64.2004C63.7212 93.9896 63.3379 93.6063 63.3379 93.1271C63.3379 92.648 63.7212 92.2646 64.2004 92.2646H75.8916C76.3707 92.2646 76.754 92.648 76.754 93.1271C76.8499 93.5104 76.4666 93.9896 75.8916 93.9896Z" fill="#D75F26"/>
<path d="M59.1222 93.9896H47.3351C46.856 93.9896 46.4727 93.6063 46.4727 93.1271C46.4727 92.648 46.856 92.2646 47.3351 92.2646H59.1222C59.6013 92.2646 59.9846 92.648 59.9846 93.1271C59.9846 93.5104 59.6013 93.9896 59.1222 93.9896Z" fill="#D6DCE8"/>
<path d="M75.8928 76.2608H67.7472C67.2681 76.2608 66.8848 75.8775 66.8848 75.3984C66.8848 74.9192 67.2681 74.5359 67.7472 74.5359H75.8928C76.3719 74.5359 76.7552 74.9192 76.7552 75.3984C76.8511 75.8775 76.4677 76.2608 75.8928 76.2608Z" fill="#D75F26"/>
<path d="M62.4762 76.2608H47.3351C46.856 76.2608 46.4727 75.8775 46.4727 75.3984C46.4727 74.9192 46.856 74.5359 47.3351 74.5359H62.4762C62.9554 74.5359 63.3387 74.9192 63.3387 75.3984C63.3387 75.8775 62.9554 76.2608 62.4762 76.2608Z" fill="#D6DCE8"/>
<g filter="url(#filter3_d_601_14153)">
<path d="M64.2971 103.668H76.18C76.18 105.681 77.0425 107.502 78.2883 108.843C79.6299 110.185 81.4506 110.952 83.3672 110.952H29.9901C27.9777 110.952 26.1569 110.089 24.9111 108.843C23.5695 107.502 22.707 105.681 22.707 103.668H57.8765C57.8765 103.668 64.4888 103.668 64.2971 103.668Z" fill="url(#paint2_linear_601_14153)"/>
</g>
<g filter="url(#filter4_d_601_14153)">
<path d="M85.7498 97.3072C80.2471 87.6187 80.7301 83.7615 81.5351 80.5922C82.9577 81.2621 84.025 81.8789 84.025 81.8789C83.776 81.7502 84.0881 79.6951 84.1229 79.5175C84.3636 77.3603 84.5694 75.3806 84.9877 73.25C87.3629 62.5481 94.6416 52.9459 103.101 45.7138C104.729 44.4041 106.357 43.0944 108.022 42.0643C108.872 41.4605 109.793 40.9588 110.643 40.3549C110.856 40.204 113.195 39.0007 113.052 38.7965C113.301 48.7035 113.498 54.2162 116.674 58.5299C113.874 59.7555 112.491 60.2795 109.012 60.3068C114.244 63.9233 115.874 63.0708 115.874 63.0708C115.874 63.0708 115.303 72.0325 101.328 85.4753C103.748 87.1171 104.494 87.0459 104.494 87.0459C104.494 87.0459 96.0813 97.3008 87.5957 97.2181C85.7498 97.3072 85.7498 97.3072 85.7498 97.3072Z" fill="url(#paint3_linear_601_14153)"/>
</g>
<path d="M84.131 111.227C85.608 97.6508 86.5339 78.9668 96.5186 62.0963C106.538 45.0482 114.709 36.9518 114.709 36.9518L113.97 38.8514C113.97 38.8514 102.158 51.0625 95.0897 69.3748C88.056 87.5096 87.6777 100.61 86.9973 108.732C84.131 111.227 84.131 111.227 84.131 111.227Z" fill="#989FB0"/>
<defs>
<filter id="filter0_d_601_14153" x="94.0449" y="90.5598" width="83.4824" height="53.1038" filterUnits="userSpaceOnUse" color-interpolation-filters="sRGB">
<feFlood flood-opacity="0" result="BackgroundImageFix"/>
<feColorMatrix in="SourceAlpha" type="matrix" values="0 0 0 0 0 0 0 0 0 0 0 0 0 0 0 0 0 0 127 0" result="hardAlpha"/>
<feOffset dy="11"/>
<feGaussianBlur stdDeviation="11"/>
<feColorMatrix type="matrix" values="0 0 0 0 0.397708 0 0 0 0 0.47749 0 0 0 0 0.575 0 0 0 0.27 0"/>
<feBlend mode="normal" in2="BackgroundImageFix" result="effect1_dropShadow_601_14153"/>
<feBlend mode="normal" in="SourceGraphic" in2="effect1_dropShadow_601_14153" result="shape"/>
</filter>
<filter id="filter1_d_601_14153" x="52.0723" y="29.5164" width="102.072" height="114.435" filterUnits="userSpaceOnUse" color-interpolation-filters="sRGB">
<feFlood flood-opacity="0" result="BackgroundImageFix"/>
<feColorMatrix in="SourceAlpha" type="matrix" values="0 0 0 0 0 0 0 0 0 0 0 0 0 0 0 0 0 0 127 0" result="hardAlpha"/>
<feOffset dy="11"/>
<feGaussianBlur stdDeviation="11"/>
<feColorMatrix type="matrix" values="0 0 0 0 0.397708 0 0 0 0 0.47749 0 0 0 0 0.575 0 0 0 0.27 0"/>
<feBlend mode="normal" in2="BackgroundImageFix" result="effect1_dropShadow_601_14153"/>
<feBlend mode="normal" in="SourceGraphic" in2="effect1_dropShadow_601_14153" result="shape"/>
</filter>
<filter id="filter2_d_601_14153" x="17.3809" y="8.91309" width="105.428" height="135.134" filterUnits="userSpaceOnUse" color-interpolation-filters="sRGB">
<feFlood flood-opacity="0" result="BackgroundImageFix"/>
<feColorMatrix in="SourceAlpha" type="matrix" values="0 0 0 0 0 0 0 0 0 0 0 0 0 0 0 0 0 0 127 0" result="hardAlpha"/>
<feOffset dy="11"/>
<feGaussianBlur stdDeviation="11"/>
<feColorMatrix type="matrix" values="0 0 0 0 0.397708 0 0 0 0 0.47749 0 0 0 0 0.575 0 0 0 0.27 0"/>
<feBlend mode="normal" in2="BackgroundImageFix" result="effect1_dropShadow_601_14153"/>
<feBlend mode="normal" in="SourceGraphic" in2="effect1_dropShadow_601_14153" result="shape"/>
</filter>
<filter id="filter3_d_601_14153" x="0.707031" y="92.6685" width="104.66" height="51.283" filterUnits="userSpaceOnUse" color-interpolation-filters="sRGB">
<feFlood flood-opacity="0" result="BackgroundImageFix"/>
<feColorMatrix in="SourceAlpha" type="matrix" values="0 0 0 0 0 0 0 0 0 0 0 0 0 0 0 0 0 0 127 0" result="hardAlpha"/>
<feOffset dy="11"/>
<feGaussianBlur stdDeviation="11"/>
<feColorMatrix type="matrix" values="0 0 0 0 0.397708 0 0 0 0 0.47749 0 0 0 0 0.575 0 0 0 0.27 0"/>
<feBlend mode="normal" in2="BackgroundImageFix" result="effect1_dropShadow_601_14153"/>
<feBlend mode="normal" in="SourceGraphic" in2="effect1_dropShadow_601_14153" result="shape"/>
</filter>
<filter id="filter4_d_601_14153" x="59.0469" y="27.7966" width="79.627" height="102.51" filterUnits="userSpaceOnUse" color-interpolation-filters="sRGB">
<feFlood flood-opacity="0" result="BackgroundImageFix"/>
<feColorMatrix in="SourceAlpha" type="matrix" values="0 0 0 0 0 0 0 0 0 0 0 0 0 0 0 0 0 0 127 0" result="hardAlpha"/>
<feOffset dy="11"/>
<feGaussianBlur stdDeviation="11"/>
<feColorMatrix type="matrix" values="0 0 0 0 0.397708 0 0 0 0 0.47749 0 0 0 0 0.575 0 0 0 0.27 0"/>
<feBlend mode="normal" in2="BackgroundImageFix" result="effect1_dropShadow_601_14153"/>
<feBlend mode="normal" in="SourceGraphic" in2="effect1_dropShadow_601_14153" result="shape"/>
</filter>
<linearGradient id="paint0_linear_601_14153" x1="103.09" y1="38.8871" x2="103.09" y2="111.711" gradientUnits="userSpaceOnUse">
<stop stop-color="#FDFEFF"/>
<stop offset="0.9964" stop-color="#ECF0F5"/>
</linearGradient>
<linearGradient id="paint1_linear_601_14153" x1="70.0743" y1="17.8051" x2="70.0743" y2="112.03" gradientUnits="userSpaceOnUse">
<stop stop-color="#FDFEFF"/>
<stop offset="0.9964" stop-color="#ECF0F5"/>
</linearGradient>
<linearGradient id="paint2_linear_601_14153" x1="53.0174" y1="103.5" x2="53.0174" y2="111.03" gradientUnits="userSpaceOnUse">
<stop stop-color="#FDFEFF"/>
<stop offset="0.9964" stop-color="#ECF0F5"/>
</linearGradient>
<linearGradient id="paint3_linear_601_14153" x1="89.6018" y1="54.0706" x2="111.078" y2="84.2982" gradientUnits="userSpaceOnUse">
<stop stop-color="#FDFEFF"/>
<stop offset="0.9964" stop-color="#ECF0F5"/>
</linearGradient>
</defs>
</svg>
