<svg width="335" height="416" viewBox="0 0 335 416" fill="none" xmlns="http://www.w3.org/2000/svg">
<g clip-path="url(#clip0_686_7231)">
<path opacity="0.5" d="M0.500061 132C-57.5889 48.9328 9.66674 -11.5 50.5001 -24L-290.5 -50L-471 501C-393 499.667 -116.5 452 -27.9999 395C122.218 298.249 50.5001 203.5 0.500061 132Z" stroke="#EBAF92" stroke-width="2"/>
<path opacity="0.5" d="M-9.49994 132C-67.5889 48.9328 -0.33326 -11.5 40.5001 -24L-300.5 -50L-481 501C-403 499.667 -126.5 452 -37.9999 395C112.218 298.249 40.5001 203.5 -9.49994 132Z" stroke="#EBAF92" stroke-width="2"/>
<path opacity="0.5" d="M-19.4999 132C-77.5889 48.9328 -10.3333 -11.5 30.5001 -24L-310.5 -50L-491 501C-413 499.667 -136.5 452 -47.9999 395C102.218 298.249 30.5001 203.5 -19.4999 132Z" stroke="#EBAF92" stroke-width="2"/>
<path opacity="0.5" d="M-29.4999 132C-87.5889 48.9328 -20.3333 -11.5 20.5001 -24L-320.5 -50L-501 501C-423 499.667 -146.5 452 -57.9999 395C92.2184 298.249 20.5001 203.5 -29.4999 132Z" stroke="#EBAF92" stroke-width="2"/>
<path opacity="0.5" d="M-39.4999 132C-97.5889 48.9328 -30.3333 -11.5 10.5001 -24L-330.5 -50L-511 501C-433 499.667 -156.5 452 -67.9999 395C82.2184 298.249 10.5001 203.5 -39.4999 132Z" stroke="#EBAF92" stroke-width="2"/>
<path opacity="0.5" d="M-49.4999 132C-107.589 48.9328 -40.3333 -11.5 0.500061 -24L-340.5 -50L-521 501C-443 499.667 -166.5 452 -77.9999 395C72.2184 298.249 0.500053 203.5 -49.4999 132Z" stroke="#EBAF92" stroke-width="2"/>
<path opacity="0.5" d="M-59.4999 132C-117.589 48.9328 -50.3333 -11.5 -9.49994 -24L-350.5 -50L-531 501C-453 499.667 -176.5 452 -87.9999 395C62.2184 298.249 -9.49995 203.5 -59.4999 132Z" stroke="#EBAF92" stroke-width="2"/>
<path opacity="0.5" d="M376.902 -1.18771C233.241 -52.6615 263.252 -185.439 302.53 -236.337L-138.977 28.5508L118.922 862.502C213.575 792.969 511.729 493.735 570.824 346.683C671.131 97.0781 500.559 43.1183 376.902 -1.18771Z" stroke="#EBAF92" stroke-width="2"/>
<path opacity="0.5" d="M364.618 7.51695C220.956 -43.9568 250.967 -176.734 290.245 -227.632L-151.262 37.2555L106.638 871.207C201.29 801.673 499.444 502.44 558.539 355.387C658.846 105.783 488.274 51.823 364.618 7.51695Z" stroke="#EBAF92" stroke-width="2"/>
<path opacity="0.5" d="M352.335 16.2221C208.673 -35.2517 238.684 -168.029 277.962 -218.927L-163.545 45.9606L94.3545 879.912C189.007 810.378 487.161 511.145 546.256 364.092C646.563 114.488 475.991 60.528 352.335 16.2221Z" stroke="#EBAF92" stroke-width="2"/>
<path opacity="0.5" d="M340.052 24.9264C196.391 -26.5474 226.402 -159.324 265.68 -210.223L-175.828 54.6649L82.0716 888.616C176.724 819.083 474.878 519.849 533.973 372.797C634.28 123.192 463.708 69.2323 340.052 24.9264Z" stroke="#EBAF92" stroke-width="2"/>
<path opacity="0.5" d="M327.768 33.6306C184.107 -17.8432 214.118 -150.62 253.396 -201.519L-188.111 63.369L69.7878 897.32C164.441 827.787 462.594 528.554 521.689 381.501C621.996 131.896 451.424 77.9365 327.768 33.6306Z" stroke="#EBAF92" stroke-width="2"/>
<path opacity="0.5" d="M315.484 42.3351C171.822 -9.13859 201.833 -141.916 241.111 -192.814L-200.396 72.0737L57.5029 906.025C152.156 836.492 450.31 537.258 509.405 390.205C609.712 140.601 439.14 86.6411 315.484 42.3351Z" stroke="#EBAF92" stroke-width="2"/>
<path opacity="0.5" d="M303.2 51.0398C159.538 -0.433918 189.55 -133.211 228.827 -184.109L-212.68 80.7784L45.22 914.73C139.872 845.196 438.026 545.963 497.121 398.91C597.428 149.306 426.856 95.3458 303.2 51.0398Z" stroke="#EBAF92" stroke-width="2"/>
<path opacity="0.5" d="M290.915 59.7445C147.254 8.27077 177.265 -124.506 216.543 -175.405L-224.965 89.483L32.9352 923.434C127.588 853.901 425.741 554.667 484.836 407.615C585.143 158.01 414.571 104.05 290.915 59.7445Z" stroke="#EBAF92" stroke-width="2"/>
</g>
<defs>
<clipPath id="clip0_686_7231">
<rect width="335" height="416" fill="white"/>
</clipPath>
</defs>
</svg>
