<svg width="319" height="208" viewBox="0 0 319 208" fill="none" xmlns="http://www.w3.org/2000/svg">
<g clip-path="url(#clip0_686_7251)">
<path d="M0 8.91429V1H0.996879V0.990476H1V0H8.97189V1H10.9656V0H18.9406V1H20.9344V0H28.9094V1H30.9031V0H38.8781V1H40.8719V0H48.8469V1H50.8406V0H58.8156V1H60.8094V0H68.7844V1H70.7781V0H78.7531V1H80.7469V0H88.7219V1H90.7156V0H98.6906V1H100.684V0H108.659V1H110.653V0H118.628V1H120.622V0H128.597V1H130.591V0H138.566V1H140.559V0H148.534V1H150.528V0H158.503V1H160.497V0H168.472V1H170.466V0H178.441V1H180.434V0H188.409V1H190.403V0H198.378V1H200.372V0H208.347V1H210.341V0H218.316V1H220.309V0H228.284V1H230.278V0H238.253V1H240.247V0H248.222V1H250.216V0H258.191V1H260.184V0H268.159V1H270.153V0H278.128V1H280.122V0H288.097V1H290.091V0H298.066V1H300.059V0H308.034V1H310.028V0H318V0.990408H318.003V1H319V8.91422H318V10.8952H319V18.819H318V20.7999H319V28.7238H318V30.7047H319V38.6285H318V40.6095H319V48.5333H318V50.5143H319V58.4381H318V60.419H319V68.3428H318V70.3238H319V78.2476H318V80.2286H319V88.1524H318V90.1333H319V98.0571H318V100.038H319V107.962H318V109.943H319V117.867H318V119.848H319V127.771H318V129.752H319V137.676H318V139.657H319V147.581H318V149.562H319V157.486H318V159.467H319V167.39H318V169.371H319V177.295H318V179.276H319V187.2H318V189.181H319V197.105H318V199.086H319V207H318.003V207.01H318V208H310.028V207H308.034V208H300.059V207H298.066V208H290.091V207H288.097V208H280.122V207H278.128V208H270.153V207H268.159V208H260.184V207H258.191V208H250.216V207H248.222V208H240.247V207H238.253V208H230.278V207H228.284V208H220.309V207H218.316V208H210.341V207H208.347V208H200.372V207H198.378V208H190.403V207H188.409V208H180.434V207H178.441V208H170.466V207H168.472V208H160.497V207H158.503V208H150.528V207H148.534V208H140.559V207H138.566V208H130.591V207H128.597V208H120.622V207H118.628V208H110.653V207H108.659V208H100.684V207H98.6906V208H90.7156V207H88.7219V208H80.7469V207H78.7531V208H70.7781V207H68.7844V208H60.8094V207H58.8156V208H50.8406V207H48.8469V208H40.8719V207H38.8781V208H30.9031V207H28.9094V208H20.9344V207H18.9406V208H10.9656V207H8.97188V208H1V207.01H0.996875V207H0V199.086H1V197.105H0V189.181H1V187.2H0V179.276H1V177.295H0V169.371H1V167.391H0V159.467H1V157.486H0V149.562H1V147.581H0V139.657H1V137.676H0V129.752H1V127.771H0V119.848H1V117.867H0V109.943H1V107.962H0V100.038H1V98.0572H0V90.1333H1V88.1524H0V80.2286H1V78.2476H0V70.3238H1V68.3429H0V60.4191H1V58.4381H0V50.5143H1V48.5333H0V40.6095H1V38.6286H0V30.7048H1V28.7238H0V20.8H1V18.819H0V10.8952H1V8.91429H0Z" stroke="#27AE60" stroke-width="2" stroke-dasharray="2 8"/>
<path d="M299 9.5H20C13.6487 9.5 8.5 14.6487 8.5 21V187C8.5 193.351 13.6487 198.5 20 198.5H299C305.351 198.5 310.5 193.351 310.5 187V21C310.5 14.6487 305.351 9.5 299 9.5Z" fill="#D9D9D9" stroke="#27AE60"/>
<path d="M291 9H301C306.523 9 311 13.4772 311 19V29" stroke="#27AE60" stroke-width="4" stroke-linejoin="round"/>
<path d="M291 199H301C306.523 199 311 194.523 311 189V179" stroke="#27AE60" stroke-width="4" stroke-linejoin="round"/>
<path d="M29 9H19C13.4772 9 9 13.4772 9 19V29" stroke="#27AE60" stroke-width="4" stroke-linejoin="round"/>
<path d="M29 199H19C13.4772 199 9 194.523 9 189V179" stroke="#27AE60" stroke-width="4" stroke-linejoin="round"/>
</g>
<defs>
<clipPath id="clip0_686_7251">
<rect width="319" height="208" fill="white"/>
</clipPath>
</defs>
</svg>
