<svg id="Layer_1" data-name="Layer 1" xmlns="http://www.w3.org/2000/svg" xmlns:xlink="http://www.w3.org/1999/xlink" viewBox="0 0 1080 1080"><defs><style>.cls-1{fill:none;}.cls-2{clip-path:url(#clip-path);}.cls-3{fill:url(#linear-gradient);}.cls-4{clip-path:url(#clip-path-2);}.cls-5{fill:url(#linear-gradient-2);}.cls-6{clip-path:url(#clip-path-3);}.cls-7{fill:url(#linear-gradient-3);}.cls-8{clip-path:url(#clip-path-4);}.cls-9{fill:url(#linear-gradient-4);}.cls-10{clip-path:url(#clip-path-5);}.cls-11{fill:url(#linear-gradient-5);}.cls-12{clip-path:url(#clip-path-6);}.cls-13{fill:url(#linear-gradient-6);}</style><clipPath id="clip-path"><path class="cls-1" d="M600,270c-83.47,12.26-152.09,70.21-179.67,147.66a225.26,225.26,0,0,0-13,75.79c0,124.74,101.1,225.86,225.84,225.86S859,618.15,859,493.41,757.89,267.52,633.14,267.52A222.44,222.44,0,0,0,600,270"/></clipPath><linearGradient id="linear-gradient" x1="5233.53" y1="440.41" x2="5240.27" y2="440.41" gradientTransform="matrix(-65.9, 0, 0, 65.9, 345762.67, -28531.11)" gradientUnits="userSpaceOnUse"><stop offset="0" stop-color="#f2a331"/><stop offset="1" stop-color="#dc5125"/></linearGradient><clipPath id="clip-path-2"><path class="cls-1" d="M600,270c-83.47,12.26-152.09,70.21-179.67,147.66a186.23,186.23,0,0,0-4,38.69c0,102.92,83.43,186.35,186.35,186.35S789,559.23,789,456.31,705.57,269.92,602.65,269.92c-.88,0-1.77,0-2.66,0"/></clipPath><linearGradient id="linear-gradient-2" x1="5175.96" y1="429.28" x2="5182.7" y2="429.28" gradientTransform="matrix(0, 53.16, 53.16, 0, -22215.89, -274843.7)" xlink:href="#linear-gradient"/><clipPath id="clip-path-3"><path class="cls-1" d="M291.64,466.32C195.77,572,250,705.16,386.19,769.4c56.59,26.72,64,57.22,37.5,118.31,47.7-10.77,75.83-84.72,52.13-134.37-22-46.22-62.42-68.66-91.88-109-27.76-38.05-13.81-66.74,12.88-80.32,30.64-15.63,66.64-15.73,99.26-10.5a85.94,85.94,0,0,0,96.29-62l.33-1.2c.1-.34.19-.68.28-1a70.18,70.18,0,0,0-60.07-88.43c-12.7-1.39-23.53-2.23-29.7-2.56q-11.58-.63-23.17-.64c-69.2,0-137.49,17.63-188.4,68.7"/></clipPath><linearGradient id="linear-gradient-3" x1="5116.46" y1="510.27" x2="5123.2" y2="510.27" gradientTransform="matrix(52.26, 0, 0, -52.26, -267125.58, 27307.83)" gradientUnits="userSpaceOnUse"><stop offset="0" stop-color="#00763f"/><stop offset="1" stop-color="#80bb41"/></linearGradient><clipPath id="clip-path-4"><path class="cls-1" d="M310.44,568.24C294.53,678,448.36,730.31,457.77,792.14s-34.08,95.57-34.08,95.57c47.7-10.77,75.83-84.72,52.13-134.37-22-46.22-62.42-68.66-91.88-109-27.76-38.05-13.81-66.74,12.88-80.32,30.64-15.63,66.63-15.73,99.26-10.5a85.94,85.94,0,0,0,96.29-62c.1-.39.22-.8.33-1.2-37.05-9.17-81-15.82-123.07-15.82-77.58,0-148.9,22.62-159.19,93.79"/></clipPath><linearGradient id="linear-gradient-4" x1="5241.47" y1="432.43" x2="5248.22" y2="432.43" gradientTransform="matrix(-60.47, 0, 0, 60.47, 317626.42, -25468.33)" xlink:href="#linear-gradient-3"/><clipPath id="clip-path-5"><path class="cls-1" d="M237.19,470.12c.33,1.55.7,3.14,1.07,4.72,67.18-95.42,175.86-134,306.3-114.57,43.1,6.43,84.1-20.86,95.44-62.94l.32-1.2.31-1.15c11.88-44-18.6-88-64-92.79a467.17,467.17,0,0,0-48.79-2.53c-160.59,0-333.14,81.07-290.68,270.46"/></clipPath><linearGradient id="linear-gradient-5" x1="5244.43" y1="320.31" x2="5251.17" y2="320.31" gradientTransform="matrix(-26.76, 0, 0, 26.76, 140824.08, -8233.56)" xlink:href="#linear-gradient-3"/><clipPath id="clip-path-6"><path class="cls-1" d="M237.19,470.12c22.19-115.21,123.42-235.2,403.13-174l.31-1.15c11.88-44-18.6-88-64-92.79a467.12,467.12,0,0,0-48.78-2.53c-160.58,0-333.14,81.07-290.68,270.46"/></clipPath><linearGradient id="linear-gradient-6" x1="5237.18" y1="685.6" x2="5243.92" y2="685.6" gradientTransform="matrix(0, -31.09, -31.09, 0, 21741.24, 163273.54)" xlink:href="#linear-gradient-3"/></defs><g class="cls-2"><rect class="cls-3" x="373.08" y="233.35" width="520.13" height="520.09" transform="translate(41.99 1036.39) rotate(-80.5)"/></g><g class="cls-4"><rect class="cls-5" x="351.26" y="204.88" width="502.82" height="502.82" transform="translate(-142.66 330.22) rotate(-27.53)"/></g><g class="cls-6"><rect class="cls-7" x="195.77" y="397.62" width="408.73" height="490.09"/></g><g class="cls-8"><rect class="cls-9" x="210.38" y="492.1" width="466.46" height="377.97" transform="translate(-315.16 972.52) rotate(-77.93)"/></g><g class="cls-10"><rect class="cls-11" x="259.53" y="93.49" width="328.17" height="487.51" transform="translate(37.94 717.3) rotate(-83.1)"/></g><g class="cls-12"><rect class="cls-13" x="179.73" y="172.31" width="487.79" height="325.15" transform="translate(-38.27 55.13) rotate(-7.13)"/></g></svg>