<svg width="140" height="140" viewBox="0 0 140 140" fill="none" xmlns="http://www.w3.org/2000/svg">
<g filter="url(#filter0_d_601_9036)">
<circle cx="70" cy="66" r="61" fill="white"/>
</g>
<path fill-rule="evenodd" clip-rule="evenodd" d="M52.667 43.667C51.6061 43.667 50.5887 44.0884 49.8386 44.8386C49.0884 45.5887 48.667 46.6061 48.667 47.667V53C48.667 53.3537 48.5265 53.6928 48.2764 53.9429C48.0263 54.193 47.6872 54.3335 47.3335 54.3335C46.9798 54.3335 46.6407 54.193 46.3906 53.9429C46.1405 53.6928 46 53.3537 46 53V47.667C46 45.8988 46.7024 44.203 47.9527 42.9527C49.203 41.7024 50.8988 41 52.667 41H58C58.3537 41 58.6928 41.1405 58.9429 41.3906C59.193 41.6407 59.3335 41.9798 59.3335 42.3335C59.3335 42.6872 59.193 43.0263 58.9429 43.2764C58.6928 43.5265 58.3537 43.667 58 43.667H52.667ZM52.667 86.333C51.6061 86.333 50.5887 85.9116 49.8386 85.1614C49.0884 84.4113 48.667 83.3939 48.667 82.333V77C48.667 76.6463 48.5265 76.3072 48.2764 76.0571C48.0263 75.807 47.6872 75.6665 47.3335 75.6665C46.9798 75.6665 46.6407 75.807 46.3906 76.0571C46.1405 76.3072 46 76.6463 46 77V82.333C46 83.2085 46.1724 84.0755 46.5075 84.8843C46.8425 85.6932 47.3336 86.4282 47.9527 87.0473C48.5718 87.6664 49.3068 88.1575 50.1156 88.4925C50.9245 88.8276 51.7915 89 52.667 89H58C58.3537 89 58.6928 88.8595 58.9429 88.6094C59.193 88.3593 59.3335 88.0202 59.3335 87.6665C59.3335 87.3128 59.193 86.9737 58.9429 86.7236C58.6928 86.4735 58.3537 86.333 58 86.333H52.667ZM87.333 43.667C88.3939 43.667 89.4113 44.0884 90.1614 44.8386C90.9116 45.5887 91.333 46.6061 91.333 47.667V53C91.333 53.3537 91.4735 53.6928 91.7236 53.9429C91.9737 54.193 92.3128 54.3335 92.6665 54.3335C93.0202 54.3335 93.3593 54.193 93.6094 53.9429C93.8595 53.6928 94 53.3537 94 53V47.667C94 46.7915 93.8276 45.9245 93.4925 45.1156C93.1575 44.3068 92.6664 43.5718 92.0473 42.9527C91.4282 42.3336 90.6932 41.8425 89.8843 41.5075C89.0755 41.1724 88.2085 41 87.333 41H82C81.6463 41 81.3072 41.1405 81.0571 41.3906C80.807 41.6407 80.6665 41.9798 80.6665 42.3335C80.6665 42.6872 80.807 43.0263 81.0571 43.2764C81.3072 43.5265 81.6463 43.667 82 43.667H87.333ZM87.333 86.333C88.3939 86.333 89.4113 85.9116 90.1614 85.1614C90.9116 84.4113 91.333 83.3939 91.333 82.333V77C91.333 76.6463 91.4735 76.3072 91.7236 76.0571C91.9737 75.807 92.3128 75.6665 92.6665 75.6665C93.0202 75.6665 93.3593 75.807 93.6094 76.0571C93.8595 76.3072 94 76.6463 94 77V82.333C94 83.2085 93.8276 84.0755 93.4925 84.8843C93.1575 85.6932 92.6664 86.4282 92.0473 87.0473C91.4282 87.6664 90.6932 88.1575 89.8843 88.4925C89.0755 88.8276 88.2085 89 87.333 89H82C81.6463 89 81.3072 88.8595 81.0571 88.6094C80.807 88.3593 80.6665 88.0202 80.6665 87.6665C80.6665 87.3128 80.807 86.9737 81.0571 86.7236C81.3072 86.4735 81.6463 86.333 82 86.333H87.333ZM60 52.467C60.736 52.467 61.333 53.064 61.333 53.8V56.022C61.333 56.3755 61.1926 56.7146 60.9426 56.9646C60.6926 57.2146 60.3535 57.355 60 57.355C59.6465 57.355 59.3074 57.2146 59.0574 56.9646C58.8074 56.7146 58.667 56.3755 58.667 56.022V53.8C58.667 53.064 59.264 52.467 60 52.467ZM80 52.467C80.736 52.467 81.333 53.064 81.333 53.8V56.022C81.333 56.3755 81.1926 56.7146 80.9426 56.9646C80.6926 57.2146 80.3535 57.355 80 57.355C79.6465 57.355 79.3074 57.2146 79.0574 56.9646C78.8074 56.7146 78.667 56.3755 78.667 56.022V53.8C78.667 53.064 79.264 52.467 80 52.467ZM71.111 56.911C71.847 56.911 72.444 57.508 72.444 58.244V64.467C72.444 64.9923 72.3405 65.5124 72.1395 65.9977C71.9385 66.483 71.6439 66.924 71.2724 67.2954C70.901 67.6669 70.46 67.9615 69.9747 68.1625C69.4894 68.3635 68.9693 68.467 68.444 68.467H67.778C67.4243 68.467 67.0852 68.3265 66.8351 68.0764C66.585 67.8263 66.4445 67.4872 66.4445 67.1335C66.4445 66.7798 66.585 66.4407 66.8351 66.1906C67.0852 65.9405 67.4243 65.8 67.778 65.8H68.444C69.181 65.8 69.778 65.203 69.778 64.467V58.244C69.778 57.508 70.375 56.911 71.111 56.911ZM59.263 70.466C59.4089 70.3692 59.5725 70.3022 59.7444 70.2687C59.9163 70.2351 60.0931 70.2358 60.2647 70.2706C60.4363 70.3054 60.5994 70.3737 60.7446 70.4716C60.8898 70.5695 61.0143 70.695 61.111 70.841C62.533 72.986 65.866 74.689 70 74.689C74.134 74.689 77.467 72.986 78.889 70.841C79.0858 70.5497 79.3896 70.348 79.7345 70.2796C80.0793 70.2113 80.4371 70.2819 80.7301 70.4762C81.0231 70.6704 81.2275 70.9725 81.2988 71.3167C81.3702 71.6609 81.3027 72.0193 81.111 72.314C79.055 75.416 74.741 77.355 70 77.355C65.26 77.355 60.945 75.415 58.889 72.315C58.792 72.1691 58.7248 72.0055 58.6911 71.8335C58.6574 71.6616 58.658 71.4847 58.6927 71.313C58.7274 71.1412 58.7957 70.978 58.8935 70.8327C58.9914 70.6874 59.1169 70.5628 59.263 70.466Z" fill="#D75F26"/>
<defs>
<filter id="filter0_d_601_9036" x="0" y="0" width="140" height="140" filterUnits="userSpaceOnUse" color-interpolation-filters="sRGB">
<feFlood flood-opacity="0" result="BackgroundImageFix"/>
<feColorMatrix in="SourceAlpha" type="matrix" values="0 0 0 0 0 0 0 0 0 0 0 0 0 0 0 0 0 0 127 0" result="hardAlpha"/>
<feOffset dy="4"/>
<feGaussianBlur stdDeviation="4.5"/>
<feComposite in2="hardAlpha" operator="out"/>
<feColorMatrix type="matrix" values="0 0 0 0 0 0 0 0 0 0 0 0 0 0 0 0 0 0 0.09 0"/>
<feBlend mode="normal" in2="BackgroundImageFix" result="effect1_dropShadow_601_9036"/>
<feBlend mode="normal" in="SourceGraphic" in2="effect1_dropShadow_601_9036" result="shape"/>
</filter>
</defs>
</svg>
