<svg width="140" height="140" viewBox="0 0 140 140" fill="none" xmlns="http://www.w3.org/2000/svg">
<g filter="url(#filter0_d_601_8984)">
<circle cx="70" cy="66" r="61" fill="white"/>
</g>
<path d="M75.0324 73.4154V68.0919C75.0324 65.9928 73.3247 64.2852 71.2257 64.2852C69.1266 64.2852 67.419 65.9928 67.419 68.0919V72.8983C67.419 78.6905 65.2851 84.2515 61.4102 88.5568L56.0677 94.493C55.6189 94.9917 55.6593 95.7599 56.1581 96.2089C56.6567 96.6578 57.4248 96.6173 57.8739 96.1185L63.2164 90.1823C67.4933 85.43 69.8488 79.2918 69.8488 72.8983V68.0919C69.8488 67.3326 70.4664 66.715 71.2257 66.715C71.9849 66.715 72.6025 67.3326 72.6025 68.0919V73.4154C72.6025 80.5433 69.962 87.3733 65.1672 92.6476L59.9595 98.3761C59.5082 98.8725 59.5448 99.6411 60.0413 100.092C60.274 100.304 60.5664 100.408 60.858 100.408C61.1885 100.408 61.5176 100.274 61.7574 100.011L66.9649 94.2821C72.1673 88.5596 75.0324 81.149 75.0324 73.4154Z" fill="#EBAF92"/>
<path d="M80.2158 68.0918C80.2158 63.1346 76.1828 59.1016 71.2255 59.1016C66.2683 59.1016 62.2353 63.1346 62.2353 68.0918V72.8983C62.2353 77.4079 60.5739 81.7373 57.5572 85.0891L53.7591 89.3094C53.3103 89.8081 53.3508 90.5763 53.8495 91.0253C54.3483 91.4742 55.1163 91.4334 55.5653 90.9349L59.3634 86.7147C62.7823 82.9159 64.6652 78.0092 64.6652 72.8983V68.0918C64.6652 64.4743 67.6082 61.5314 71.2257 61.5314C74.8432 61.5314 77.7862 64.4743 77.7862 68.0918V73.4154C77.7862 81.8353 74.667 89.9039 69.0028 96.1344L64.6089 100.968C64.1574 101.464 64.194 102.233 64.6905 102.684C64.9233 102.896 65.2157 103 65.5072 103C65.8377 103 66.1668 102.866 66.4066 102.602L70.8006 97.7688C76.8721 91.0901 80.2158 82.4413 80.2158 73.4154V68.0918Z" fill="#EBAF92"/>
<path d="M85.3976 68.0918C85.3976 60.2763 79.0393 53.918 71.2238 53.918C63.4082 53.918 57.0499 60.2763 57.0499 68.0918V72.8983C57.0499 76.1251 55.8611 79.2231 53.7024 81.6215L50.2826 85.4214C49.8337 85.9201 49.8742 86.6883 50.373 87.1373C50.8715 87.5862 51.6399 87.5453 52.0887 87.0469L55.5086 83.247C58.0694 80.4017 59.4797 76.7264 59.4797 72.8983V68.0918C59.4797 61.6161 64.748 56.3478 71.2238 56.3478C77.6995 56.3478 82.9678 61.6161 82.9678 68.0918V73.4154C82.9678 83.1278 79.3698 92.4346 72.8364 99.6212L71.6203 100.959C71.169 101.455 71.2056 102.224 71.7021 102.675C71.9349 102.887 72.2274 102.991 72.5189 102.991C72.8493 102.991 73.1785 102.857 73.4182 102.593L74.6341 101.256C81.5749 93.6207 85.3975 83.7336 85.3975 73.4154L85.3976 68.0918Z" fill="#D75F26"/>
<path d="M51.8672 68.0916C51.8672 68.7627 52.4111 69.3065 53.0821 69.3065C53.753 69.3065 54.297 68.7627 54.297 68.0916C54.297 64.0006 55.7823 60.0488 58.4793 56.9639C61.1513 53.9077 64.8185 51.9091 68.8054 51.3363C69.4695 51.2409 69.9305 50.625 69.8351 49.9611C69.7397 49.2969 69.1233 48.8365 68.4598 48.9313C63.8983 49.5867 59.7041 51.8714 56.65 55.3648C53.5658 58.8924 51.8672 63.4123 51.8672 68.0916Z" fill="#EBAF92"/>
<path d="M54.2963 72.8985C54.2963 72.2274 53.7523 71.6836 53.0814 71.6836C52.4104 71.6836 51.8665 72.2274 51.8665 72.8985C51.8665 74.8427 51.1503 76.7089 49.8499 78.1538L46.808 81.534C46.3591 82.0326 46.3996 82.8008 46.8983 83.2498C47.1306 83.4588 47.4211 83.5616 47.7107 83.5616C48.0431 83.5616 48.3744 83.4259 48.6141 83.1594L51.6561 79.7794C53.3585 77.8875 54.2963 75.444 54.2963 72.8985Z" fill="#EBAF92"/>
<path d="M88.1982 83.7432C87.5488 83.5741 86.8853 83.9621 86.7152 84.611C86.2667 86.3247 85.7088 88.0283 85.0565 89.6744C84.8093 90.2982 85.1146 91.0043 85.7384 91.2513C85.8854 91.3095 86.0367 91.337 86.1857 91.337C86.6692 91.337 87.1265 91.0463 87.3155 90.5694C88.0038 88.8321 88.5926 87.0345 89.066 85.2261C89.2357 84.5771 88.8471 83.9131 88.1982 83.7432Z" fill="#EBAF92"/>
<path d="M84.1541 53.6963C83.6551 53.2475 82.8869 53.2886 82.4384 53.7875C81.9898 54.2864 82.0307 55.0546 82.5296 55.5031C86.1032 58.7156 88.1526 63.3039 88.1526 68.0918V73.4153C88.1526 75.4358 88.0133 77.4718 87.7384 79.467C87.6469 80.1318 88.1115 80.7447 88.7761 80.8363C88.8323 80.844 88.8882 80.8478 88.9435 80.8478C89.5409 80.8478 90.0617 80.4068 90.1454 79.7984C90.4354 77.6937 90.5824 75.5461 90.5824 73.4152V68.0918C90.5826 62.6158 88.2395 57.3689 84.1541 53.6963Z" fill="#EBAF92"/>
<path d="M78.4743 52.7963C78.6429 52.8767 78.8206 52.9146 78.9957 52.9146C79.4498 52.9146 79.8853 52.6588 80.0935 52.2216C80.382 51.6159 80.1246 50.8909 79.5189 50.6025C77.7685 49.7691 75.9081 49.2068 73.9893 48.9313C73.3242 48.8365 72.7095 49.2971 72.6141 49.9611C72.5187 50.625 72.9797 51.2409 73.6438 51.3363C75.3201 51.5772 76.9451 52.0683 78.4743 52.7963Z" fill="#EBAF92"/>
<path d="M71.2238 43.5508C70.7692 43.5508 70.3095 43.5634 69.8571 43.5884C69.1871 43.6253 68.6739 44.1984 68.7109 44.8682C68.748 45.5382 69.3204 46.0541 69.9909 46.0143C70.3989 45.9918 70.8136 45.9804 71.2236 45.9804C83.4157 45.9804 93.3348 55.8994 93.3348 68.0917V73.4152C93.3348 74.0863 93.8788 74.6301 94.5497 74.6301C95.2207 74.6301 95.7646 74.0863 95.7646 73.4152V68.0918C95.7648 54.5599 84.7557 43.5508 71.2238 43.5508Z" fill="#EBAF92"/>
<path d="M57.9407 50.1424C58.1799 50.1424 58.4218 50.0718 58.6332 49.9249C60.6544 48.5193 62.8743 47.47 65.2314 46.8053C65.8772 46.6232 66.2532 45.952 66.0711 45.3063C65.8891 44.6606 65.2176 44.2851 64.5721 44.4666C61.9544 45.2046 59.4896 46.3697 57.2461 47.9297C56.6952 48.3128 56.5591 49.0699 56.9422 49.6207C57.1782 49.9605 57.5563 50.1424 57.9407 50.1424Z" fill="#EBAF92"/>
<path d="M49.1131 72.8983V68.0918C49.1131 62.4401 51.2534 57.0576 55.1398 52.9355C55.6 52.4473 55.5775 51.6785 55.0893 51.2181C54.601 50.7578 53.8321 50.7806 53.3719 51.2687C49.0586 55.8433 46.6833 61.8181 46.6833 68.0918V72.8983C46.6833 73.5597 46.4396 74.1945 45.9974 74.6858L44.4994 76.3503C44.0505 76.849 44.091 77.6172 44.5897 78.066C44.8219 78.2752 45.1125 78.378 45.4021 78.378C45.7345 78.378 46.0656 78.2424 46.3055 77.976L47.8036 76.3115C48.648 75.373 49.1131 74.1608 49.1131 72.8983Z" fill="#EBAF92"/>
<path d="M99.4056 58.6326C98.0731 54.6727 95.9555 51.0952 93.1115 47.9995C92.6574 47.5054 91.889 47.4727 91.3949 47.9267C90.9008 48.3808 90.8683 49.1492 91.3222 49.6435C93.9345 52.487 95.8795 55.7721 97.1028 59.4074C97.2736 59.9149 97.7469 60.2351 98.2541 60.2351C98.3825 60.2351 98.5133 60.2146 98.6417 60.1713C99.2775 59.9573 99.6196 59.2684 99.4056 58.6326Z" fill="#D75F26"/>
<path d="M80.8253 39.9584C80.1908 39.7411 79.4998 40.0795 79.2826 40.7145C79.0653 41.3493 79.4039 42.04 80.0387 42.2571C82.7177 43.1738 85.2328 44.5018 87.5144 46.2046C87.7326 46.3674 87.9874 46.4458 88.2401 46.4458C88.6104 46.4458 88.9762 46.2771 89.2148 45.9574C89.6162 45.4197 89.5054 44.6584 88.9678 44.2572C86.4834 42.4034 83.7438 40.9568 80.8253 39.9584Z" fill="#EBAF92"/>
<path d="M52.3477 48.3955C57.4582 43.4955 64.1622 40.797 71.2247 40.797C72.5362 40.797 73.8549 40.8914 75.1441 41.0774C75.8088 41.1743 76.4243 40.7126 76.5202 40.0485C76.6161 39.3843 76.1556 38.7684 75.4915 38.6725C74.0873 38.47 72.6518 38.3672 71.2247 38.3672C63.5324 38.3672 56.2312 41.3058 50.6661 46.6416C45.1184 51.961 41.874 59.0993 41.5305 66.7416C41.5004 67.4119 42.0194 67.9799 42.6896 68.0098C42.7082 68.0108 42.7267 68.0111 42.7451 68.0111C43.391 68.0111 43.9286 67.5025 43.9579 66.8508C44.273 59.8348 47.2526 53.2807 52.3477 48.3955Z" fill="#D75F26"/>
<path d="M71.2239 33.1836C68.5071 33.1836 65.7998 33.4985 63.1774 34.1196C62.5244 34.2741 62.1206 34.9288 62.2751 35.5816C62.4298 36.2345 63.0846 36.6385 63.7374 36.4838C66.1766 35.9064 68.6953 35.6134 71.2239 35.6134C80.1326 35.6134 88.4484 39.1627 94.6392 45.6072C94.8778 45.8555 95.1963 45.9806 95.5155 45.9806C95.8183 45.9806 96.1215 45.8681 96.3571 45.6419C96.8409 45.1769 96.8565 44.4078 96.3916 43.9241C93.1659 40.5663 89.3769 37.9248 85.1299 36.0734C80.731 34.1558 76.0523 33.1836 71.2239 33.1836Z" fill="#EBAF92"/>
<path d="M43.9347 48.3136C44.1569 48.4876 44.4208 48.572 44.6829 48.572C45.0436 48.572 45.4007 48.4121 45.6402 48.1061C49.1027 43.6836 53.661 40.2146 58.8223 38.074C59.442 37.8169 59.7362 37.1061 59.4791 36.4863C59.2221 35.8666 58.5109 35.5721 57.8915 35.8295C52.3449 38.1298 47.4469 41.857 43.7272 46.6079C43.3135 47.1365 43.4064 47.9001 43.9347 48.3136Z" fill="#EBAF92"/>
<path d="M54.3801 34.2729C54.5573 34.2729 54.7372 34.2341 54.9073 34.1518C60.0226 31.682 65.5128 30.4298 71.2256 30.4298C74.2026 30.4298 77.1676 30.78 80.0378 31.4707C80.6898 31.6272 81.3462 31.2261 81.5032 30.5738C81.6601 29.9215 81.2586 29.2653 80.6061 29.1083C77.55 28.3729 74.3939 28 71.2256 28C65.1439 28 59.2983 29.3335 53.851 31.9637C53.2468 32.2554 52.9934 32.9818 53.2852 33.586C53.4946 34.0199 53.9284 34.2729 54.3801 34.2729Z" fill="#EBAF92"/>
<path d="M85.1155 33.0836C86.3679 33.5824 87.6076 34.1558 88.8 34.7877C88.9813 34.8839 89.176 34.9294 89.3678 34.9294C89.8032 34.9294 90.2242 34.6947 90.4422 34.2831C90.7563 33.6902 90.5305 32.955 89.9377 32.6407C88.6682 31.968 87.3481 31.3575 86.0143 30.8263C85.3908 30.578 84.6844 30.8822 84.4361 31.5054C84.1879 32.1287 84.4921 32.8354 85.1155 33.0836Z" fill="#D75F26"/>
<defs>
<filter id="filter0_d_601_8984" x="0" y="0" width="140" height="140" filterUnits="userSpaceOnUse" color-interpolation-filters="sRGB">
<feFlood flood-opacity="0" result="BackgroundImageFix"/>
<feColorMatrix in="SourceAlpha" type="matrix" values="0 0 0 0 0 0 0 0 0 0 0 0 0 0 0 0 0 0 127 0" result="hardAlpha"/>
<feOffset dy="4"/>
<feGaussianBlur stdDeviation="4.5"/>
<feComposite in2="hardAlpha" operator="out"/>
<feColorMatrix type="matrix" values="0 0 0 0 0 0 0 0 0 0 0 0 0 0 0 0 0 0 0.09 0"/>
<feBlend mode="normal" in2="BackgroundImageFix" result="effect1_dropShadow_601_8984"/>
<feBlend mode="normal" in="SourceGraphic" in2="effect1_dropShadow_601_8984" result="shape"/>
</filter>
</defs>
</svg>
