<svg xmlns="http://www.w3.org/2000/svg" xmlns:xlink="http://www.w3.org/1999/xlink" id="Layer_1" data-name="Layer 1" viewBox="0 0 1080 1080"><defs><linearGradient id="linear-gradient" x1="5233.53" x2="5240.27" y1="440.41" y2="440.41" gradientTransform="matrix(-65.9 0 0 65.9 345762.67 -28531.11)" gradientUnits="userSpaceOnUse"><stop offset="0" stop-color="#f2a331"/><stop offset="1" stop-color="#dc5125"/></linearGradient><linearGradient xlink:href="#linear-gradient" id="linear-gradient-2" x1="5175.96" x2="5182.7" y1="429.28" y2="429.28" gradientTransform="matrix(0 53.16 53.16 0 -22215.89 -274843.7)"/><linearGradient id="linear-gradient-3" x1="5116.46" x2="5123.2" y1="510.27" y2="510.27" gradientTransform="matrix(52.26 0 0 -52.26 -267125.58 27307.83)" gradientUnits="userSpaceOnUse"><stop offset="0" stop-color="#00763f"/><stop offset="1" stop-color="#80bb41"/></linearGradient><linearGradient xlink:href="#linear-gradient-3" id="linear-gradient-4" x1="5241.47" x2="5248.22" y1="432.43" y2="432.43" gradientTransform="matrix(-60.47 0 0 60.47 317626.42 -25468.33)"/><linearGradient xlink:href="#linear-gradient-3" id="linear-gradient-5" x1="5244.43" x2="5251.17" y1="320.31" y2="320.31" gradientTransform="matrix(-26.76 0 0 26.76 140824.08 -8233.56)"/><linearGradient xlink:href="#linear-gradient-3" id="linear-gradient-6" x1="5237.18" x2="5243.92" y1="685.6" y2="685.6" gradientTransform="matrix(0 -31.09 -31.09 0 21741.24 163273.54)"/><clipPath id="clip-path"><path d="M600 270c-83.47 12.26-152.09 70.21-179.67 147.66a225.26 225.26 0 0 0-13 75.79c0 124.74 101.1 225.86 225.84 225.86S859 618.15 859 493.41 757.89 267.52 633.14 267.52A222.44 222.44 0 0 0 600 270" class="cls-1"/></clipPath><clipPath id="clip-path-2"><path d="M600 270c-83.47 12.26-152.09 70.21-179.67 147.66a186.23 186.23 0 0 0-4 38.69c0 102.92 83.43 186.35 186.35 186.35S789 559.23 789 456.31s-83.43-186.39-186.35-186.39h-2.66" class="cls-1"/></clipPath><clipPath id="clip-path-3"><path d="M291.64 466.32C195.77 572 250 705.16 386.19 769.4c56.59 26.72 64 57.22 37.5 118.31 47.7-10.77 75.83-84.72 52.13-134.37-22-46.22-62.42-68.66-91.88-109-27.76-38.05-13.81-66.74 12.88-80.32 30.64-15.63 66.64-15.73 99.26-10.5a85.94 85.94 0 0 0 96.29-62l.33-1.2c.1-.34.19-.68.28-1a70.18 70.18 0 0 0-60.07-88.43c-12.7-1.39-23.53-2.23-29.7-2.56q-11.58-.63-23.17-.64c-69.2 0-137.49 17.63-188.4 68.7" class="cls-1"/></clipPath><clipPath id="clip-path-4"><path d="M310.44 568.24C294.53 678 448.36 730.31 457.77 792.14s-34.08 95.57-34.08 95.57c47.7-10.77 75.83-84.72 52.13-134.37-22-46.22-62.42-68.66-91.88-109-27.76-38.05-13.81-66.74 12.88-80.32 30.64-15.63 66.63-15.73 99.26-10.5a85.94 85.94 0 0 0 96.29-62c.1-.39.22-.8.33-1.2-37.05-9.17-81-15.82-123.07-15.82-77.58 0-148.9 22.62-159.19 93.79" class="cls-1"/></clipPath><clipPath id="clip-path-5"><path d="M237.19 470.12c.33 1.55.7 3.14 1.07 4.72 67.18-95.42 175.86-134 306.3-114.57 43.1 6.43 84.1-20.86 95.44-62.94l.32-1.2.31-1.15c11.88-44-18.6-88-64-92.79a467.17 467.17 0 0 0-48.79-2.53c-160.59 0-333.14 81.07-290.68 270.46" class="cls-1"/></clipPath><clipPath id="clip-path-6"><path d="M237.19 470.12c22.19-115.21 123.42-235.2 403.13-174l.31-1.15c11.88-44-18.6-88-64-92.79a467.12 467.12 0 0 0-48.78-2.53c-160.58 0-333.14 81.07-290.68 270.46" class="cls-1"/></clipPath><style>.cls-1{fill:none}</style></defs><g style="clip-path:url(#clip-path)"><path d="M373.08 233.35h520.13v520.09H373.08z" style="fill:url(#linear-gradient)" transform="rotate(-80.5 633.112 493.395)"/></g><g style="clip-path:url(#clip-path-2)"><path d="M351.26 204.88h502.82V707.7H351.26z" style="fill:url(#linear-gradient-2)" transform="rotate(-27.53 602.655 456.281)"/></g><g style="clip-path:url(#clip-path-3)"><path d="M195.77 397.62H604.5v490.09H195.77z" style="fill:url(#linear-gradient-3)"/></g><g style="clip-path:url(#clip-path-4)"><path d="M210.38 492.1h466.46v377.97H210.38z" style="fill:url(#linear-gradient-4)" transform="rotate(-77.93 443.652 681.098)"/></g><g style="clip-path:url(#clip-path-5)"><path d="M259.53 93.49H587.7V581H259.53z" style="fill:url(#linear-gradient-5)" transform="rotate(-83.1 423.638 337.246)"/></g><g style="clip-path:url(#clip-path-6)"><path d="M179.73 172.31h487.79v325.15H179.73z" style="fill:url(#linear-gradient-6)" transform="rotate(-7.13 423.31 334.7)"/></g></svg>