<svg xmlns="http://www.w3.org/2000/svg" width="360" height="391" fill="none"><path fill="#F7DFD4" fill-opacity=".3" d="M363.301 241.416c-28.196 77.557-225.651 53.761-309.434 24.508-100.725-35.169-83.522-74.309-55.326-151.867C26.738 36.5 130.563 58.13 227.495 65.465c43.339 143.665 164.003 98.393 135.806 175.951Z"/><path stroke="#F7DFD4" stroke-width=".75" d="m36.456 175.542.002-.007c11.717-36.427 24.486-59.054 38.502-72.03 13.992-12.954 29.254-16.315 46.055-14.14 16.83 2.178 35.191 9.91 55.346 19.148 3.235 1.483 6.515 3.004 9.841 4.547 17.338 8.04 35.94 16.667 55.916 23.471 14.72 39.247 31.938 65.306 49.211 83.152 17.3 17.873 34.641 27.494 49.55 33.881 5.893 2.525 11.409 4.545 16.383 6.368 1.315.481 2.591.949 3.827 1.408 5.925 2.203 10.896 4.212 14.647 6.655 3.739 2.435 6.233 5.282 7.246 9.152 1.014 3.873.561 8.831-1.726 15.525-21.41 25.683-49.05 43.52-83.223 50.904-34.202 7.39-74.975 4.315-122.63-11.884C106.44 308.25 67.098 282.643 47.3 256.199c-19.774-26.413-20.083-53.708-10.844-80.657Z"/><path fill="#EBEBEB" d="M330 318.44H30v.15h300v-.15ZM299.94 328.094H291v.15h8.94v-.15ZM228.732 329.726h-5.214v.15h5.214v-.15ZM288.468 322.526h-20.514v.15h20.514v-.15ZM95.778 325.622H69.864v.15h25.914v-.15ZM110.466 325.622h-9.348v.15h9.348v-.15ZM182.856 323.606h-56.208v.15h56.208v-.15ZM172.2 291.68H56.346a3.425 3.425 0 0 1-3.42-3.426V125.396a3.427 3.427 0 0 1 3.42-3.396H172.2c.909 0 1.78.361 2.423 1.003a3.429 3.429 0 0 1 1.003 2.423v162.828c0 .909-.361 1.78-1.003 2.423a3.429 3.429 0 0 1-2.423 1.003ZM56.346 122.12a3.275 3.275 0 0 0-3.27 3.276v162.858a3.275 3.275 0 0 0 3.27 3.276H172.2a3.285 3.285 0 0 0 3.276-3.276V125.396a3.285 3.285 0 0 0-3.276-3.276H56.346ZM301.986 291.68h-115.86a3.435 3.435 0 0 1-3.426-3.426V125.396a3.432 3.432 0 0 1 3.426-3.396h115.86a3.424 3.424 0 0 1 3.414 3.396v162.858a3.424 3.424 0 0 1-3.414 3.426Zm-115.86-169.56a3.285 3.285 0 0 0-3.276 3.276v162.858a3.285 3.285 0 0 0 3.276 3.276h115.86a3.285 3.285 0 0 0 3.276-3.276V125.396a3.285 3.285 0 0 0-3.276-3.276h-115.86Z"/><path fill="#F0F0F0" d="M162.9 314.06h4.74V281.6h-4.74v32.46ZM67.026 318.44h97.488v-4.38H67.026v4.38Z"/><path fill="#F5F5F5" d="M162.9 281.6H63.894v32.46H162.9V281.6Z"/><path fill="#F0F0F0" d="M156.492 287.252H70.296v18.54h86.196v-18.54Z"/><path fill="#F5F5F5" d="M92.43 289.73h41.94c.785 0 1.422-.637 1.422-1.422v-.264c0-.785-.637-1.422-1.422-1.422H92.43c-.785 0-1.422.637-1.422 1.422v.264c0 .785.637 1.422 1.422 1.422Z"/><path fill="#F0F0F0" d="M61.722 281.6H162.9v-2.898H61.722v2.898Z"/><path fill="#E6E6E6" d="M169.914 278.702H162.9v2.898h7.014v-2.898ZM159.282 235.886H286.14v-97.29H159.282v97.29ZM147.408 134.81h145.908a1.098 1.098 0 0 1 1.098 1.098 1.101 1.101 0 0 1-1.098 1.092H147.408a1.09 1.09 0 0 1-.78-.319 1.106 1.106 0 0 1-.324-.779 1.103 1.103 0 0 1 .683-1.011c.134-.054.277-.082.421-.081Z"/><path fill="#F0F0F0" d="M154.578 235.886h129.366v-97.29H154.578v97.29Z"/><path fill="#E6E6E6" d="M159.282 235.886H286.14V239H156.042l3.24-3.114Z"/><path fill="#F0F0F0" d="M146.742 235.886h129.366l-3.24 3.114h-129.36l3.234-3.114Z"/><path fill="#FAFAFA" d="M277.356 229.304v-84.126H161.16v84.126h116.196Z"/><path fill="#fff" d="m238.584 229.298-38.634-84.12h-18.246l38.64 84.12h18.24ZM216.426 229.298l-38.64-84.12h-7.11l38.64 84.12h7.11Z"/><path fill="#E6E6E6" d="M162 229.304v-84.126h-.834v84.126H162Z"/><g opacity=".4"><path fill="#F0F0F0" d="M277.284 213.122h11.328v-80.286h-11.328v80.286Z"/><path fill="#E6E6E6" d="M272.868 213.122h8.826v-80.286h-8.826v80.286Z"/><path fill="#F0F0F0" d="M265.956 213.122h11.328v-80.286h-11.328v80.286Z"/><path fill="#E6E6E6" d="M261.54 213.122h8.826v-80.286h-8.826v80.286Z"/><path fill="#F0F0F0" d="M254.622 213.122h11.328v-80.286h-11.328v80.286Z"/></g><g opacity=".4"><path fill="#F0F0F0" d="M165.384 213.122h6.528v-80.286h-6.528v80.286Z"/><path fill="#E6E6E6" d="M162.834 213.122h5.088v-80.286h-5.088v80.286Z"/><path fill="#F0F0F0" d="M158.85 213.122h6.528v-80.286h-6.528v80.286Z"/><path fill="#E6E6E6" d="M156.306 213.122h5.088v-80.286h-5.088v80.286Z"/><path fill="#F0F0F0" d="M152.322 213.122h6.528v-80.286h-6.528v80.286Z"/></g><path fill="#F5F5F5" d="M124.32 132.89H72.198v133.176h52.122V132.89Z"/><path fill="#E0E0E0" d="M124.326 266.06h1.428V132.884h-1.428V266.06Z"/><path fill="#fff" d="M119.49 261.236V137.714H77.022v123.522h42.468Z"/><path fill="#FAFAFA" d="m91.974 261.236 14.094-123.522h8.13L100.11 261.236h-8.136ZM84.93 261.236l14.088-123.522h4.068L88.998 261.236H84.93Z"/><path fill="#F5F5F5" d="M180 345.536c64.249 0 116.334-3.041 116.334-6.792s-52.085-6.792-116.334-6.792-116.334 3.041-116.334 6.792 52.085 6.792 116.334 6.792Z"/><path fill="#263238" d="M268.83 338.744h-70.08a7.042 7.042 0 0 1-5.214-2.231 7.037 7.037 0 0 1-1.872-5.353l9.78-148.242a8.244 8.244 0 0 1 8.082-7.584H279.6a7.033 7.033 0 0 1 7.08 7.584l-9.768 148.242a8.243 8.243 0 0 1-8.082 7.584Z"/><path fill="#263238" d="M283.584 215.198H275.1a1.702 1.702 0 0 1-1.62-1.137 1.699 1.699 0 0 1-.09-.693l.846-12.84a1.991 1.991 0 0 1 1.956-1.8h8.478a1.696 1.696 0 0 1 1.71 1.8l-.846 12.84a1.984 1.984 0 0 1-1.95 1.83Z"/><path fill="#DE7A4A" d="M227.868 173.234h-3.102v.6h3.102v-.6ZM220.944 173.234h-11.28v.6h11.28v-.6ZM267.762 338.744h-70.08a7.038 7.038 0 0 1-7.086-7.584l9.804-148.242a8.247 8.247 0 0 1 8.082-7.584h70.08a7.032 7.032 0 0 1 7.038 7.584l-9.756 148.242a8.247 8.247 0 0 1-8.082 7.584Z"/><path fill="#fff" d="M270.942 321.476H196.8a3.995 3.995 0 0 1-4.026-4.308l8.514-129.06a4.68 4.68 0 0 1 4.572-4.308h74.16a3.995 3.995 0 0 1 4.026 4.308l-8.514 129.06a4.677 4.677 0 0 1-4.59 4.308Z"/><path fill="#FAFAFA" d="M257.112 183.8h-14.724l-35.67 137.676h14.724l35.67-137.676ZM270.084 183.8h-7.362l-35.67 137.676h7.362l35.67-137.676Z"/><path fill="#F0F0F0" d="m260.304 278.816-16.008-60.546a6.292 6.292 0 0 0-7.68-4.47l-37.872 10.008-5.052 79.116 62.142-16.422a6.308 6.308 0 0 0 4.47-7.686Z"/><path fill="#fff" d="M236.551 331.726c1.924-1.861 2.072-4.83.33-6.631-1.741-1.8-4.713-1.751-6.638.111-1.924 1.862-2.072 4.83-.33 6.631 1.741 1.8 4.713 1.751 6.638-.111ZM245.178 179.324a2.103 2.103 0 0 1-2.07 1.938 1.813 1.813 0 0 1-1.324-.575 1.801 1.801 0 0 1-.476-1.363 2.097 2.097 0 0 1 2.07-1.938 1.796 1.796 0 0 1 1.324.575 1.806 1.806 0 0 1 .476 1.363Z" opacity=".2"/><path fill="#fff" d="M244.302 179.324a1.152 1.152 0 0 1-1.134 1.068.97.97 0 0 1-.735-.313.98.98 0 0 1-.261-.755 1.152 1.152 0 0 1 1.134-1.068.989.989 0 0 1 .996 1.068Z" opacity=".2"/><path fill="#263238" d="M131.592 171.836c2.238-5.502 1.434-12.204-4.914-13.704a9.242 9.242 0 0 0-8.128 1.77 9.244 9.244 0 0 0-3.416 7.584c.252 6 4.2 10.998-2.718 15.348-6.918 4.35-6.18 17.46 7.2 14.928 13.38-2.532 6.15-9.414 6.15-9.414s-3.282 2.676-4.338-.048c-1.338-3.528 7.572-10.026 10.164-16.464Z"/><path fill="#263238" d="m108.048 189.884-.294-.066c.894-4.002 2.298-5.034 3.78-6.126 1.482-1.092 2.886-2.13 4.02-6.066.534-1.854.198-3.906-.132-5.886-.42-2.526-.852-5.142.45-7.482l.258.15c-1.248 2.244-.822 4.8-.414 7.284.336 2.016.684 4.098.126 6-1.158 4.032-2.67 5.142-4.128 6.222-1.458 1.08-2.796 2.082-3.666 5.97Z"/><path fill="#FFC3BD" d="M148.632 202.058c.042.204.114.51.18.786l.21.846c.144.57.306 1.14.474 1.71.342 1.134.708 2.28 1.104 3.408a71.943 71.943 0 0 0 2.712 6.678l.756 1.578c.128.282.309.537.534.75a4.947 4.947 0 0 0 2.334 1.032c2.244.363 4.531.363 6.774 0l.81 2.55c-.621.274-1.256.514-1.902.72-.642.214-1.295.394-1.956.54a15.817 15.817 0 0 1-4.2.39 8.933 8.933 0 0 1-4.662-1.47 6.794 6.794 0 0 1-1.932-2.052l-.096-.15-.06-.102-.12-.216-.246-.42-.486-.852a59.118 59.118 0 0 1-3.3-7.092c-.456-1.2-.906-2.454-1.272-3.72-.18-.6-.36-1.266-.522-1.914a26.22 26.22 0 0 1-.438-2.028l5.304-.972Z"/><path fill="#DE7A4A" d="M144 193.67c6.054 2.7 6 11.772 6 11.772l-6.378 3.834s-4.8-7.104-4.44-10.332c.354-3.366 1.386-6.792 4.818-5.274Z"/><path fill="#000" d="M144.954 201.41c-1.656-1.674-3.114.258-4.446 2.4a46.813 46.813 0 0 0 3.114 5.478l2.616-1.572c.516-1.998.366-4.626-1.284-6.306Z" opacity=".2"/><path fill="#FFC3BD" d="m163.08 219.074 4.26-2.124.048 5.574s-3.18.552-5.298-1.68l.99-1.77ZM171.918 217.94l-.732 4.14-3.798.444-.048-5.574 4.578.99ZM124.086 334.316l5.268.504 2.454-12.258-5.268-.504-2.454 12.258ZM89.544 319.946l4.284 3.12 7.146-10.14-4.29-3.12-7.14 10.14Z"/><path fill="#263238" d="m95.4 321.116-3.528-4.83a.421.421 0 0 0-.546-.132l-4.23 2.244a.864.864 0 0 0-.41.569.86.86 0 0 0 .152.685c1.26 1.662 1.95 2.4 3.504 4.53.96 1.308 2.88 4.338 4.2 6.144 1.32 1.806 3.174.6 2.79-.27-1.74-3.906-1.8-6.192-1.668-8.022a1.367 1.367 0 0 0-.264-.918ZM130.05 333.23h-6.324a.513.513 0 0 0-.498.384l-1.374 4.986a.782.782 0 0 0 .132.694.792.792 0 0 0 .636.308H137.19c2.31 0 2.79-2.334 1.836-2.55-4.284-.948-6.756-2.256-8.082-3.504a1.295 1.295 0 0 0-.894-.318Z"/><path fill="#000" d="m131.808 322.568-1.266 6.318h-5.37l1.368-6.822 5.268.504ZM96.684 309.806l4.29 3.126-3.684 5.226-4.29-3.126 3.684-5.226Z" opacity=".2"/><path fill="#DE7A4A" d="M146.496 198.452c-.372 4.05-1.716 12-5.646 27.534l-21.564-1.866c1.038-8.094 1.524-13.338-.504-28.662a3.732 3.732 0 0 1 .822-2.853 3.717 3.717 0 0 1 2.646-1.347c1.554-.084 3.402-.138 5.256-.066a69.08 69.08 0 0 1 9.792.846c1.902.342 3.93.834 5.58 1.266a4.875 4.875 0 0 1 3.618 5.148Z"/><path fill="#000" d="M119.334 199.946c.276 2.4.48 4.542.6 6.462 1.986-.174 3.45-2.352 3.6-6.906-.744-2.202-2.514-1.404-4.2.444Z" opacity=".2"/><path fill="#263238" d="M140.85 225.986s7.296 32.28 2.4 55.038c-3.258 15.24-10.512 46.026-10.512 46.026l-9.198-.234s4.392-32.31 6.234-45c3.15-21.732-4.74-57.174-4.74-57.174l15.816 1.344Z"/><path fill="#000" d="m132.438 232.508-4.602 7.254a222.554 222.554 0 0 1 2.634 25.98c6.468-11.58 3.402-27.108 1.968-33.234Z" opacity=".2"/><path fill="#DE7A4A" d="m134.058 327.53-11.364-.288.66-3.492 11.592.546-.888 3.234Z"/><path fill="#263238" d="M136.134 225.644s-4.278 34.23-13.56 52.92c-7.494 15.096-23.172 39.09-23.172 39.09l-5.73-4.59s9.804-26.538 15.372-36.564c13.662-24.6 2.496-43.35 10.242-52.38l16.848 1.524Z"/><path fill="#DE7A4A" d="m225.868 195.182-101.986 42.85a6.289 6.289 0 0 0-3.361 8.233l24.257 57.733a6.287 6.287 0 0 0 8.233 3.361l101.985-42.85a6.287 6.287 0 0 0 3.362-8.232l-24.257-57.733a6.288 6.288 0 0 0-8.233-3.362Z"/><path fill="#000" d="m225.868 195.182-101.986 42.85a6.289 6.289 0 0 0-3.361 8.233l24.257 57.733a6.287 6.287 0 0 0 8.233 3.361l101.985-42.85a6.287 6.287 0 0 0 3.362-8.232l-24.257-57.733a6.288 6.288 0 0 0-8.233-3.362Z" opacity=".1"/><path fill="#fff" d="m152.014 235.462-19.969 8.39a3.024 3.024 0 0 0-1.616 3.959l4.209 10.018a3.024 3.024 0 0 0 3.959 1.617l19.969-8.39a3.025 3.025 0 0 0 1.617-3.96l-4.209-10.017a3.025 3.025 0 0 0-3.96-1.617Z" opacity=".2"/><path fill="#fff" d="m166.026 275.061-19.565 8.22a1.134 1.134 0 0 0-.606 1.485l1.485 3.535c.243.577.907.849 1.485.606l19.565-8.22c.577-.243.849-.908.606-1.485l-1.485-3.535a1.134 1.134 0 0 0-1.485-.606ZM191.482 264.369l-19.566 8.221a1.134 1.134 0 0 0-.606 1.484l1.485 3.535c.243.577.908.849 1.485.606l19.565-8.22c.578-.243.849-.908.606-1.485l-1.485-3.535a1.134 1.134 0 0 0-1.484-.606ZM216.931 253.677l-19.565 8.22a1.133 1.133 0 0 0-.606 1.485l1.485 3.535c.242.577.907.848 1.485.606l19.565-8.221c.577-.242.849-.907.606-1.484l-1.485-3.535a1.134 1.134 0 0 0-1.485-.606ZM242.386 242.984l-19.565 8.221a1.134 1.134 0 0 0-.606 1.485l1.485 3.534c.243.578.907.849 1.485.606l19.565-8.22c.577-.243.849-.907.606-1.485l-1.485-3.534a1.134 1.134 0 0 0-1.485-.607Z" opacity=".4"/><path fill="#DE7A4A" d="m100.002 318.29-7.35-5.562 1.806-3.228 7.812 6.06-2.268 2.73ZM119.07 222.83l-1.14 1.848c-.09.138.078.312.324.33l22.62 1.956c.192 0 .36-.066.384-.186l.36-1.914c.03-.132-.132-.258-.342-.276l-21.84-1.89a.404.404 0 0 0-.366.132Z"/><path fill="#000" d="m119.07 222.83-1.14 1.848c-.09.138.078.312.324.33l22.62 1.956c.192 0 .36-.066.384-.186l.36-1.914c.03-.132-.132-.258-.342-.276l-21.84-1.89a.404.404 0 0 0-.366.132Z" opacity=".5"/><path fill="#DE7A4A" d="m121.8 225.524-.6-.048c-.114 0-.198-.078-.186-.15l.492-2.484c0-.078.12-.126.24-.114l.6.048c.12 0 .204.078.186.15l-.492 2.484c-.024.072-.132.126-.24.114ZM139.2 227.03l-.6-.048c-.114 0-.198-.078-.186-.15l.492-2.484a.218.218 0 0 1 .24-.114l.6.048c.12 0 .204.078.186.15l-.492 2.484c-.006.084-.114.126-.24.114ZM130.5 226.28l-.6-.054c-.12 0-.204-.078-.186-.15l.492-2.484c0-.072.12-.126.234-.114l.6.054c.114 0 .198.078.186.15l-.492 2.484c-.012.072-.114.12-.234.114ZM96.744 323.786a.583.583 0 0 1-.204 0c-.654-.132-1.2-1.242-1.488-1.89a.103.103 0 0 1 0-.114.088.088 0 0 1 .054-.018c.02 0 .038.006.054.018.204.072 1.992.762 2.13 1.416a.39.39 0 0 1-.132.39.738.738 0 0 1-.414.198Zm-1.398-1.752c.408.894.864 1.464 1.236 1.536a.505.505 0 0 0 .456-.168.19.19 0 0 0 .072-.198c-.084-.402-1.146-.918-1.764-1.17Z"/><path fill="#DE7A4A" d="M96.798 322.118a3.74 3.74 0 0 1-1.692-.18.097.097 0 0 1-.041-.034.098.098 0 0 1-.019-.05.103.103 0 0 1 .042-.096c.054-.036 1.29-.936 2.034-.768a.642.642 0 0 1 .438.318.425.425 0 0 1 0 .528c-.213.18-.483.28-.762.282ZM95.4 321.8c.6.174 1.722.186 1.998-.12.048-.048.09-.126 0-.282a.419.419 0 0 0-.294-.216c-.504-.102-1.368.396-1.704.618ZM132.858 334.25a8.813 8.813 0 0 1-1.728-.216.102.102 0 0 1-.047-.04.105.105 0 0 1 0-.118.108.108 0 0 1 .047-.04c.264-.126 2.556-1.2 3.132-.792a.333.333 0 0 1 .15.324.732.732 0 0 1-.085.337.739.739 0 0 1-.227.263 2.04 2.04 0 0 1-1.242.282Zm-1.368-.36c.684.126 1.944.294 2.46-.096a.602.602 0 0 0 .228-.438c0-.084 0-.12-.054-.138-.324-.222-1.68.252-2.634.672Z"/><path fill="#DE7A4A" d="M131.154 334.034a.084.084 0 0 1-.066 0 .095.095 0 0 1-.036-.102c0-.102.54-2.364 1.8-2.22.312.042.396.192.414.318.078.6-1.368 1.74-2.064 2.022l-.048-.018Zm1.572-2.142c-.798 0-1.26 1.32-1.416 1.848.75-.396 1.8-1.338 1.734-1.704 0-.03 0-.114-.234-.138l-.084-.006Z"/><path fill="#FFC3BD" d="m121.674 200.054-.318.45-.348.51c-.234.348-.468.702-.69 1.068-.456.72-.87 1.47-1.29 2.22a39.467 39.467 0 0 0-2.184 4.674 40.14 40.14 0 0 0-1.578 4.89l-.282 1.2c0-.036-.036.09.03.318.206.642.508 1.248.894 1.8a29.283 29.283 0 0 0 3.252 3.906c1.2 1.272 2.532 2.502 3.858 3.726 1.326 1.224 2.718 2.4 4.11 3.558a509.543 509.543 0 0 0 4.2 3.456l-1.5 2.214a98.443 98.443 0 0 1-9.294-6.252 63.23 63.23 0 0 1-4.392-3.6 30.516 30.516 0 0 1-4.062-4.326 10.61 10.61 0 0 1-1.68-3.066 5.492 5.492 0 0 1-.258-2.4v-.258l.03-.18.06-.366.126-.726c.353-1.932.85-3.836 1.488-5.694a44.917 44.917 0 0 1 2.334-5.4c.45-.876.942-1.722 1.47-2.556.258-.42.528-.834.81-1.248l.444-.6c.156-.21.288-.396.498-.654l4.272 3.336Z"/><path fill="#DE7A4A" d="M121.14 191.6c-4.116 1.08-8.088 11.058-8.088 11.058l5.328 4.872s8.37-7.632 8.088-11.076c-.234-2.928-2.022-5.73-5.328-4.854Z"/><path fill="#000" d="M127.506 191a10.5 10.5 0 0 1-2.292.21c-.162 2.964 1.74 5.826 6.414 9.666 1.122-3.498 3.6-4.254 3.6-4.254L127.506 191ZM137.298 191.942s.546.078 1.848.378c.87 1.338 1.998 5.46-.564 8.4-.996-3.6-3.372-4.056-3.372-4.056l2.088-4.722Z" opacity=".2"/><path fill="#fff" d="M127.506 191h-2.664c-.87 1.338 2.124 5.046 6.792 8.886 1.122-3.498 3.6-3.288 3.6-3.288L127.506 191Z"/><path fill="#fff" d="M137.298 191.942s.546.078 1.848.378c.87 1.338 2.748 4.962.186 7.878-.996-3.6-4.122-3.552-4.122-3.552l2.088-4.704Z"/><path fill="#FFC3BD" d="M129.432 180.23c.348 3.204.462 9-1.926 10.944 0 0 1.242 3.6 7.704 5.472 3.888-2.244 2.088-4.626 2.088-4.626-3.438-1.14-3.12-3.738-2.298-6.138l-5.568-5.652Z"/><path fill="#000" d="m131.7 182.54 3.3 3.342a10.006 10.006 0 0 0-.456 1.71c-1.326-.306-3.246-1.686-3.264-3.102.024-.67.167-1.33.42-1.95Z" opacity=".2"/><path fill="#263238" d="M136.728 167.426c1.05-1.158 3.132.318 3.9 3.156 1.152 4.2-1.92 4.5-3.528 2.4s-1.248-4.59-.372-5.556Z"/><path fill="#263238" d="M139.98 174.8c1.054.365 2.05.878 2.958 1.524-.522-1.272-.99-2.046-2.958-1.524Z"/><path fill="#263238" d="M140.586 174.998a9.237 9.237 0 0 1 2.592-.144c-.852-.654-1.47-.978-2.592.144Z"/><path fill="#FFC3BD" d="M126.6 175.226c1.338 5.118 1.8 7.314 4.932 9.456 4.722 3.228 10.716.468 10.938-4.95.198-4.872-2.022-12.42-7.5-13.488a7.2 7.2 0 0 0-8.37 8.982Z"/><path fill="#fff" d="m129.072 168.476-1.482 1.722a2.564 2.564 0 0 1-1.746.871 2.564 2.564 0 0 1-1.854-.607 2.567 2.567 0 0 1-.27-3.6l1.482-1.716a2.577 2.577 0 0 1 3.6-.27 2.575 2.575 0 0 1 .27 3.6Z"/><path fill="#DE7A4A" d="m130.44 170.396-1.8.9a3.115 3.115 0 0 1-4.158-1.41 3.12 3.12 0 0 1 1.41-4.164l1.8-.9a3.124 3.124 0 0 1 4.164 1.416 3.115 3.115 0 0 1-1.416 4.158Z"/><path fill="#263238" d="M128.136 179.054s3.696-.846 2.124-6.252a1.41 1.41 0 0 1 .225-1.227 1.424 1.424 0 0 1 1.107-.573c4.164-.114 8.058-.984 7.506-3.396-.69-3.048-11.064-5.4-12.948.702-3.678.858-3.816 8.106 1.986 10.746Z"/><path fill="#263238" d="M128.154 177.986c1.054.365 2.05.878 2.958 1.524-.522-1.26-.99-2.034-2.958-1.524Z"/><path fill="#263238" d="M128.76 178.196a9.277 9.277 0 0 1 2.592-.144c-.846-.642-1.464-.972-2.592.144Z"/><path fill="#FFC3BD" d="M125.76 179.246a3.87 3.87 0 0 0 2.274 1.884c1.302.39 1.974-.762 1.638-2.004-.306-1.116-1.35-2.658-2.664-2.508a1.747 1.747 0 0 0-1.499 1.813c.015.289.101.569.251.815Z"/><path fill="#263238" d="M135.276 175.052c.084.42.378.72.648.666.27-.054.432-.444.354-.864-.078-.42-.378-.72-.654-.666-.276.054-.432.438-.348.864ZM140.046 174.11c.084.426.372.72.648.666.276-.054.432-.438.348-.858-.084-.42-.372-.72-.648-.666-.276.054-.432.438-.348.858Z"/><path fill="#263238" d="m140.28 173.3.954-.492s-.366.894-.954.492Z"/><path fill="#ED847E" d="M138.408 175.166a11.48 11.48 0 0 0 2.034 2.4 1.845 1.845 0 0 1-1.452.6l-.582-3Z"/><path fill="#263238" d="M137.04 180.152a3.482 3.482 0 0 1-2.4-.918.11.11 0 0 1 0-.15.11.11 0 0 1 .15 0 3.416 3.416 0 0 0 3 .774.103.103 0 0 1 .078.017c.022.016.037.04.042.067a.104.104 0 0 1-.084.12 3.708 3.708 0 0 1-.786.09ZM132.414 173.414a.253.253 0 0 1-.108-.03.212.212 0 0 1-.096-.129.211.211 0 0 1 .024-.159 2.461 2.461 0 0 1 1.902-1.2.216.216 0 0 1 .216.204.204.204 0 0 1-.014.081.206.206 0 0 1-.11.117.217.217 0 0 1-.08.018 2.038 2.038 0 0 0-1.554 1.026.212.212 0 0 1-.18.072ZM141.372 171.722a.196.196 0 0 1-.102 0 2.071 2.071 0 0 0-1.866-.12.223.223 0 0 1-.172.013.223.223 0 0 1-.144-.284.223.223 0 0 1 .112-.131 2.446 2.446 0 0 1 2.262.126.207.207 0 0 1 .099.125.196.196 0 0 1 .005.08.185.185 0 0 1-.026.077.196.196 0 0 1-.168.114Z"/><path fill="#FFC3BD" d="m129.366 230.936 4.8.336-2.166 5.13s-4.008-1.266-4.17-4.2l1.536-1.266ZM136.008 234.176l-2.322 3.504-1.68-1.278 2.178-5.13 1.824 2.904Z"/><path fill="#263238" d="m135.51 174.236.954-.492s-.366.894-.954.492Z"/></svg>