<svg xmlns="http://www.w3.org/2000/svg" width="330" height="234" fill="none"><path stroke="#F7DFD4" stroke-width=".75" d="M37.375 134.5v-.007c-.625-31.601 3.442-52.677 11.196-66.536 7.739-13.832 19.171-20.512 33.4-23.276 14.256-2.77 31.299-1.605 50.224.263 3.036.3 6.12.617 9.249.94 16.298 1.678 33.787 3.48 51.883 3.491 22.86 26.778 44.079 42.582 63.062 51.949 19.015 9.383 35.768 12.299 49.646 13.331 5.484.408 10.523.522 15.067.625 1.2.027 2.366.053 3.496.084 5.421.148 10.009.397 13.727 1.31 3.706.909 6.507 2.468 8.394 5.209 1.887 2.741 2.898 6.718 2.906 12.546-10.224 25.759-27.678 47.042-53.338 61.895-25.687 14.867-59.618 23.301-102.787 23.301-62.476 0-101.511-9.569-124.919-24.98-23.373-15.389-31.206-36.633-31.206-60.145Z"/><path fill="#F7DFD4" fill-opacity=".3" d="M346.256 105.235c7.504 53.88-156.194 105.051-232.96 115.744-92.291 12.854-93.75-15.314-101.254-69.194-7.504-53.88 82.049-75.54 160.752-103.162 88.738 68.412 165.957 2.732 173.462 56.612Z"/><path fill="#EBEBEB" d="M300 196.44H0v.15h300v-.15ZM269.94 206.094h-19.872v.15h19.872v-.15ZM198.732 207.726h-5.214v.15h5.214v-.15ZM249.468 200.526h-11.514v.15h11.514v-.15ZM57.39 201.534H31.476v.15H57.39v-.15ZM66.534 201.534h-3.798v.15h3.798v-.15ZM135.09 204.066H78.882v.15h56.208v-.15ZM142.2 169.68H26.346a3.425 3.425 0 0 1-3.42-3.426V3.396A3.426 3.426 0 0 1 26.346 0H142.2a3.427 3.427 0 0 1 3.426 3.426v162.828c0 .909-.361 1.78-1.003 2.423a3.429 3.429 0 0 1-2.423 1.003ZM26.346.12a3.276 3.276 0 0 0-3.27 3.276v162.858a3.275 3.275 0 0 0 3.27 3.276H142.2a3.285 3.285 0 0 0 3.276-3.276V3.396A3.284 3.284 0 0 0 142.2.12H26.346ZM271.986 169.68h-115.86a3.435 3.435 0 0 1-3.426-3.426V3.396A3.43 3.43 0 0 1 156.126 0h115.86a3.426 3.426 0 0 1 3.414 3.396v162.858a3.424 3.424 0 0 1-3.414 3.426ZM156.126.12a3.283 3.283 0 0 0-3.276 3.276v162.858a3.285 3.285 0 0 0 3.276 3.276h115.86a3.285 3.285 0 0 0 3.276-3.276V3.396A3.284 3.284 0 0 0 271.986.12h-115.86Z"/><path fill="#F5F5F5" d="m135.054 35.406 6.198-.906-6.198-.906 1.53-2.424-2.424 1.53-.906-6.192-.906 6.192-2.424-1.53 1.536 2.424-6.198.906 6.198.906-1.536 2.424 2.424-1.536.906 6.198.906-6.198 2.424 1.536-1.53-2.424ZM197.358 51.948l6.192-.906-6.192-.906 1.53-2.424-2.424 1.53-.906-6.198-.906 6.198-2.424-1.53 1.536 2.424-6.198.906 6.198.906-1.536 2.424 2.424-1.536.906 6.198.906-6.198 2.424 1.536-1.53-2.424ZM110.22 78.828l6.198-.906-6.198-.912 1.536-2.418-2.424 1.53-.906-6.198-.906 6.198-2.424-1.53 1.536 2.418-6.198.912 6.198.906-1.536 2.424 2.424-1.536.906 6.198.906-6.198 2.424 1.536-1.536-2.424ZM57.834 78.828l6.192-.906-6.192-.912 1.53-2.418-2.424 1.53-.906-6.198-.906 6.198-2.424-1.53 1.536 2.418-6.198.912 6.198.906-1.536 2.424 2.424-1.536.906 6.198.906-6.198 2.424 1.536-1.53-2.424ZM87.51 115.722l6.198-.906-6.198-.912 1.536-2.418-2.424 1.53-.906-6.198-.912 6.198-2.418-1.53 1.53 2.418-6.198.912 6.198.906-1.53 2.424 2.418-1.536.912 6.198.906-6.198 2.424 1.536-1.536-2.424ZM209.256 95.856l6.198-.906-6.198-.906 1.536-2.424-2.424 1.536-.906-6.198-.906 6.198-2.424-1.536 1.53 2.424-6.192.906 6.192.906-1.53 2.424 2.424-1.53.906 6.198.906-6.198 2.424 1.53-1.536-2.424ZM252.972 150.774l6.192-.912-6.192-.906 1.53-2.418-2.424 1.53-.906-6.198-.906 6.198-2.424-1.53 1.536 2.418-6.198.906 6.198.912-1.536 2.418 2.424-1.53.906 6.198.906-6.198 2.424 1.53-1.53-2.418ZM201.264 148.866l6.198-.906-6.198-.912 1.536-2.418-2.424 1.53-.906-6.198-.912 6.198-2.418-1.53 1.53 2.418-6.198.912 6.198.906-1.53 2.424 2.418-1.536.912 6.198.906-6.198 2.424 1.536-1.536-2.424ZM87.51 161.778l6.198-.912-6.198-.906 1.536-2.424-2.424 1.536-.906-6.198-.912 6.198-2.418-1.536 1.53 2.424-6.198.906 6.198.912-1.53 2.418 2.418-1.53.912 6.198.906-6.198 2.424 1.53-1.536-2.418ZM154.854 133.608l6.198-.906-6.198-.906 1.536-2.424-2.424 1.53-.906-6.192-.906 6.192-2.424-1.53 1.53 2.424-6.198.906 6.198.906-1.53 2.424 2.424-1.536.906 6.198.906-6.198 2.424 1.536-1.536-2.424ZM119.694 200.346l6.198-.906-6.198-.906 1.53-2.424-2.424 1.53-.906-6.192-.906 6.192-2.424-1.53 1.536 2.424-6.198.906 6.198.906-1.536 2.424 2.424-1.536.906 6.198.906-6.198 2.424 1.536-1.53-2.424ZM188.64 196.302l6.198-.906-6.198-.906 1.53-2.424-2.418 1.536-.912-6.198-.906 6.198-2.424-1.536 1.536 2.424-6.198.906 6.198.906-1.536 2.424 2.424-1.536.906 6.198.912-6.198 2.418 1.536-1.53-2.424Z"/><path fill="#EBEBEB" d="M189.42 84.426c-3.684-5.454-5.262-14.01-8.64-17.4a60.403 60.403 0 0 1 8.298-5.352c2.07 5.958 3.3 15.204 8.64 17.4a60.324 60.324 0 0 1-8.298 5.352Z"/><path fill="#E0E0E0" d="M195.66 80.094c-.516-.342-.384-1.014.246-1.434-3.696-2.97-5.022-9.882-6.696-15.054a1.04 1.04 0 0 1-1.223-.27 1.056 1.056 0 0 1-.211-.39 57.262 57.262 0 0 0-5.1 3.186 1.307 1.307 0 0 1-.6 1.668c2.502 3.534 4.026 10.056 6.762 14.928a1.507 1.507 0 0 1 1.74.522 57.095 57.095 0 0 0 5.082-3.156Zm-9-6.054c-.546-1.458-.042-3.042 1.074-3.558s2.4.342 2.91 1.836c.51 1.494.114 3.042-.996 3.534s-2.448-.342-2.97-1.812h-.018Z"/><path fill="#EBEBEB" d="M105.63 66.528c-5.274 2.844-13.272 3.198-16.608 6.03a66.337 66.337 0 0 1-4.368-8.85c5.634-1.2 14.244-1.116 16.608-6.03a64.821 64.821 0 0 1 4.368 8.85Z"/><path fill="#E0E0E0" d="M102.066 59.826c-.348.462-.966.24-1.308-.438-3 3.198-9.45 3.54-14.34 4.458a.966.966 0 0 1-.702 1.308 59.443 59.443 0 0 0 2.592 5.4c.462-.234 1.14.132 1.5.816 3.426-1.95 9.54-2.538 14.226-4.536a1.432 1.432 0 0 1 .6-1.626 62.835 62.835 0 0 0-2.562-5.4l-.006.018ZM95.874 67.8a2.724 2.724 0 0 1-3.21-1.548c-.402-1.2.48-2.286 1.89-2.586 1.41-.3 2.814.306 3.192 1.458.378 1.152-.486 2.328-1.872 2.676Z"/><path fill="#EBEBEB" d="M157.974 58.548c-4.482-3.99-7.554-11.4-11.358-13.542a65.636 65.636 0 0 1 6.822-7.134c3.054 4.884 5.928 13.002 11.352 13.536a65.73 65.73 0 0 1-6.816 7.14Z"/><path fill="#E0E0E0" d="M163.044 52.896c-.546-.168-.552-.822-.03-1.374C159 49.8 156.45 43.854 153.912 39.6a.959.959 0 0 1-1.47-.216 61.414 61.414 0 0 0-4.2 4.296c.378.354.264 1.116-.258 1.686 3 2.556 5.652 8.1 9.138 11.814a1.44 1.44 0 0 1 1.734 0 66.17 66.17 0 0 0 4.2-4.26l-.012-.024Zm-9.6-3.096a2.715 2.715 0 0 1 .36-3.546c.96-.774 2.304-.33 3.078.894s.672 2.748-.282 3.498-2.358.354-3.138-.846h-.018Z"/><path fill="#EBEBEB" d="M172.038 121.122c-2.046-5.634-1.23-13.596-3.54-17.31a66.177 66.177 0 0 1 9.39-3.012c.366 5.748-.978 14.256 3.54 17.316a65.604 65.604 0 0 1-9.39 3.006Z"/><path fill="#E0E0E0" d="M179.184 118.572c-.402-.414-.09-.984.6-1.2-2.724-3.432-2.118-9.87-2.31-14.838a.974.974 0 0 1-.81-.16.97.97 0 0 1-.39-.728c-1.8.462-3.69 1.032-5.742 1.77.162.492-.3 1.11-1.032 1.362 1.428 3.678 1.116 9.816 2.4 14.736a1.46 1.46 0 0 1 1.524.828c1.8-.456 3.678-1.02 5.724-1.752l.036-.018Zm-6.948-7.284a2.706 2.706 0 0 1 1.998-2.946c1.2-.228 2.184.804 2.28 2.244.096 1.44-.714 2.736-1.908 2.946-1.194.21-2.262-.822-2.37-2.244Z"/><path fill="#EBEBEB" d="M251.736 98.166c-4.482-3.99-7.554-11.4-11.358-13.542a66.22 66.22 0 0 1 6.822-7.134c3.06 4.884 5.934 13.002 11.358 13.536a65.73 65.73 0 0 1-6.822 7.14Z"/><path fill="#E0E0E0" d="M256.8 92.52c-.552-.174-.552-.828-.03-1.38-4.026-1.74-6.57-7.668-9.096-11.94a.959.959 0 0 1-1.47-.216 61.414 61.414 0 0 0-4.2 4.296c.378.354.264 1.116-.258 1.686 3 2.556 5.652 8.1 9.138 11.814a1.444 1.444 0 0 1 1.734 0 66.17 66.17 0 0 0 4.2-4.26h-.018Zm-9.6-3.12a2.707 2.707 0 0 1 .36-3.54c.954-.78 2.304-.336 3.072.888.768 1.224.678 2.748-.276 3.498-.954.75-2.352.354-3.156-.846Z"/><path fill="#E0E0E0" d="m248.184 89.022-.258.198-.15-.234.252-.198a1.848 1.848 0 0 1-.264-.858l.312-.054c.008.252.076.499.198.72l.45-.348c-.138-.372-.276-.786.042-1.032.228-.18.57-.114.888.318l.258-.198.15.24-.252.192c.124.217.205.455.24.702l-.306.054a1.897 1.897 0 0 0-.18-.564l-.456.354c.144.372.294.786 0 1.026s-.6.114-.924-.318Zm.816-.99.408-.306c-.156-.192-.294-.216-.396-.138-.102.078-.078.246-.012.444Zm-.18.948c.114-.084.084-.252 0-.456l-.402.312c.174.192.306.222.402.144Z"/><path fill="#EBEBEB" d="M145.452 86.334c-4.026 5.19-7.704 10.746-9.33 16.68-2.712-1.122-5.496-2.25-8.214-3.564 2.13-6.174 5.808-11.592 9.33-16.68 2.712 1.122 5.496 2.25 8.214 3.564Z"/><path fill="#E0E0E0" d="M138.498 83.802a1.568 1.568 0 0 1-1.8.534c-2.904 4.242-5.808 8.718-7.764 13.68a1.408 1.408 0 0 1 .666 1.704 156.37 156.37 0 0 0 5.112 2.214 1.082 1.082 0 0 1 .579-.677 1.07 1.07 0 0 1 .891-.007c1.65-4.83 4.548-9.39 7.764-13.704a.976.976 0 0 1-.552-1.135.988.988 0 0 1 .21-.401 162.445 162.445 0 0 0-5.112-2.214l.006.006ZM138 93.6a2.738 2.738 0 0 1-3.426 1.236 2.288 2.288 0 0 1-.948-3.276 2.833 2.833 0 0 1 3.516-1.2 2.18 2.18 0 0 1 1.225 2.366 2.183 2.183 0 0 1-.367.874Z"/><path fill="#E0E0E0" d="m137.082 92.904.324.15-.138.24-.324-.15a1.633 1.633 0 0 1-.648.6l-.222-.27c.224-.112.417-.279.558-.486l-.6-.27c-.264.288-.57.6-.972.408-.294-.138-.432-.48-.21-.96l-.324-.15.138-.24.324.15c.134-.209.314-.384.528-.51l.222.252c-.17.105-.319.242-.438.402l.6.27c.27-.288.6-.6.99-.408.294.15.42.468.192.972Zm-1.38-.336-.516-.24c-.09.222-.036.36.09.42s.276-.03.426-.18Zm.99-.234c-.144-.066-.288.03-.438.186l.516.234c.09-.228.03-.354-.078-.42Z"/><path fill="#EBEBEB" d="M247.758 117.102c-4.032 5.19-7.704 10.746-9.33 16.68-2.712-1.122-5.496-2.25-8.214-3.564 2.13-6.174 5.808-11.592 9.324-16.68 2.718 1.122 5.502 2.262 8.22 3.564Z"/><path fill="#E0E0E0" d="M240.804 114.564a1.561 1.561 0 0 1-1.8.54c-2.904 4.236-5.808 8.718-7.764 13.68a1.398 1.398 0 0 1 .672 1.698c1.698.786 3.414 1.506 5.112 2.22a1.063 1.063 0 0 1 1.023-.78c.154 0 .307.032.447.096 1.65-4.8 4.548-9.39 7.764-13.704a.98.98 0 0 1-.342-1.536c-1.698-.774-3.408-1.5-5.106-2.208l-.006-.006Zm-.528 9.816a2.737 2.737 0 0 1-3.426 1.236 2.286 2.286 0 0 1-1.278-2.379 2.29 2.29 0 0 1 .33-.897 2.829 2.829 0 0 1 3.498-1.14 2.19 2.19 0 0 1 1.163 1.39 2.178 2.178 0 0 1-.287 1.79Z"/><path fill="#E0E0E0" d="m239.4 123.672.324.15c-.048.078-.096.156-.138.24l-.324-.15a1.715 1.715 0 0 1-.654.6l-.216-.27a1.51 1.51 0 0 0 .558-.486l-.6-.27c-.264.288-.57.6-.972.408-.294-.138-.432-.48-.21-.96l-.324-.15c.042-.084.09-.162.138-.24l.324.15c.133-.211.314-.387.528-.516l.216.258a1.654 1.654 0 0 0-.432.402l.6.27c.27-.288.6-.6.99-.408.282.15.402.486.192.972Zm-1.38-.336-.516-.24c-.09.222-.036.36.09.42s.264-.03.414-.18h.012Zm.99-.234c-.144-.066-.288.03-.438.18l.51.24c.084-.228.042-.366-.084-.42h.012Z"/><path fill="#EBEBEB" d="M221.892 47.196c-.318-6.546-6.174-11.052-6.492-17.598l8.4-3.09c.324 6.546 6.174 11.052 6.498 17.592l-8.406 3.096Z"/><path fill="#E0E0E0" d="M228.654 44.19a1.617 1.617 0 0 1 .966-1.65c-1.014-5.094-5.07-9.06-6.072-14.154a.94.94 0 0 1-1.32-.81l-5.22 1.926a1.626 1.626 0 0 1-.96 1.65c1.002 5.094 5.058 9.066 6.072 14.16a.937.937 0 0 1 1.314.804l5.214-1.926h.006Zm-8.07-6.6a2.088 2.088 0 0 1 1.134-3.066 3 3 0 0 1 3.528 1.344 2.087 2.087 0 0 1-.33 2.586 2.08 2.08 0 0 1-.798.48 3 3 0 0 1-3.534-1.368v.024Z"/><path fill="#E0E0E0" d="m221.808 37.398-.348.126-.132-.234.342-.132a1.257 1.257 0 0 1-.144-.804h.384c-.039.228-.008.462.09.672l.6-.228c-.096-.354-.174-.744.252-.9a.871.871 0 0 1 1.008.432l.348-.126.138.24-.348.126c.105.203.155.431.144.66h-.342a1.208 1.208 0 0 0-.096-.534l-.6.234c.096.354.186.744-.246.9a.864.864 0 0 1-1.05-.432Zm1.2-.726.546-.204c-.15-.192-.306-.24-.444-.192-.138.048-.156.21-.114.396h.012Zm-.414.804c.15-.054.15-.21.108-.402l-.546.198c.138.204.294.252.444.204h-.006Z"/><path fill="#EBEBEB" d="M51.858 124.728c-.324-6.528-6.174-11.052-6.498-17.598l8.4-3.09c.324 6.546 6.174 11.046 6.498 17.592l-8.4 3.096Z"/><path fill="#E0E0E0" d="M58.62 121.722a1.618 1.618 0 0 1 .96-1.65c-1.008-5.094-5.064-9.06-6.072-14.16a.936.936 0 0 1-1.32-.804l-5.22 1.926a1.619 1.619 0 0 1-.96 1.65c1.008 5.094 5.064 9.066 6.072 14.16a.924.924 0 0 1 .443-.081.938.938 0 0 1 .877.885l5.22-1.926Zm-8.076-6.6a2.091 2.091 0 0 1 .337-2.586c.226-.218.498-.382.797-.48A3 3 0 0 1 55.2 113.4a2.083 2.083 0 0 1-1.128 3.066 3 3 0 0 1-3.528-1.368v.024Z"/><path fill="#E0E0E0" d="m51.768 114.93-.348.126-.132-.24.342-.126a1.29 1.29 0 0 1-.138-.804h.384c-.042.228-.01.463.09.672l.6-.228c-.102-.354-.18-.744.252-.9a.867.867 0 0 1 1.008.432l.348-.126.132.24-.342.126a1.2 1.2 0 0 1 .138.66h-.378a1.2 1.2 0 0 0-.096-.534l-.6.234c.102.348.186.744-.24.9a.873.873 0 0 1-1.02-.432Zm1.2-.726.552-.204a.406.406 0 0 0-.192-.173.407.407 0 0 0-.258-.019c-.156.054-.156.192-.114.396h.012Zm-.414.804c.156-.054.156-.21.108-.408l-.546.204c.144.204.294.252.426.204h.012Z"/><path fill="#EBEBEB" d="M73.29 47.064c-2.286 6.312-10.2 6.186-12.804 11.538-2.436-2.142-4.8-4.2-7.158-6.036 2.28-6.312 10.2-6.186 12.804-11.538 2.43 2.172 4.83 4.182 7.158 6.036Z"/><path fill="#E0E0E0" d="M67.296 42.63c-.306.564-1.062.558-1.614.066-2.844 3.708-8.616 4.32-11.232 8.652a1.59 1.59 0 0 1 .39 1.854c1.468 1.2 2.96 2.468 4.476 3.804.306-.558 1.062-.558 1.608-.066 2.844-3.708 8.616-4.32 11.238-8.652a1.578 1.578 0 0 1-.39-1.848c-1.476-1.2-2.97-2.468-4.482-3.804l.006-.006Zm-2.13 9c-1.152.6-3 .264-4.11-.762-1.11-1.026-1.2-2.4 0-3 1.2-.6 3-.264 4.116.768 1.116 1.032 1.14 2.4-.006 3.006v-.012Z"/><path fill="#E0E0E0" d="M64.416 50.64c.108.096.21.186.306.282l-.222.12-.306-.276a1.8 1.8 0 0 1-.894.144l-.156-.318c.257.03.516-.006.756-.102l-.546-.498a1.2 1.2 0 0 1-1.2-.168.487.487 0 0 1 .066-.852l-.312-.282.222-.12.306.276c.228-.1.477-.148.726-.138l.162.312a1.737 1.737 0 0 0-.6.096l.558.51a1.158 1.158 0 0 1 1.2.162.493.493 0 0 1-.066.852ZM63 49.692l-.492-.45a.222.222 0 0 0 0 .378.6.6 0 0 0 .492.072Zm1.14.306a.601.601 0 0 0-.528-.072l.486.444c.192-.132.186-.264.066-.372h-.024Z"/><path fill="#EBEBEB" d="M79.44 136.332c-2.28 6.312-10.2 6.186-12.804 11.538-2.4-2.142-4.8-4.2-7.158-6.036 2.286-6.312 10.2-6.186 12.804-11.538 2.436 2.142 4.83 4.182 7.158 6.036Z"/><path fill="#E0E0E0" d="M73.446 131.898c-.306.558-1.056.558-1.608.066-2.844 3.708-8.616 4.32-11.238 8.652a1.584 1.584 0 0 1 .396 1.854c1.47 1.2 2.964 2.484 4.476 3.804.3-.558 1.056-.558 1.608-.066 2.838-3.708 8.616-4.326 11.232-8.652a1.579 1.579 0 0 1-.39-1.848c-1.468-1.2-2.96-2.468-4.476-3.804v-.006Zm-2.13 9c-1.146.6-3 .264-4.104-.762s-1.2-2.4 0-3c1.2-.6 3-.264 4.11.768 1.11 1.032 1.14 2.4-.006 3.006v-.012Z"/><path fill="#E0E0E0" d="m70.572 139.908.306.282c-.078.036-.15.078-.222.12l-.306-.282a1.807 1.807 0 0 1-.9.15c-.048-.108-.102-.21-.15-.318.257.029.516-.006.756-.102l-.552-.498a1.204 1.204 0 0 1-1.2-.174.486.486 0 0 1 .066-.846l-.306-.282.222-.12.306.276c.227-.1.472-.149.72-.144.054.108.114.21.168.312a1.704 1.704 0 0 0-.6.102l.552.504a1.205 1.205 0 0 1 1.2.168.495.495 0 0 1 .133.685.493.493 0 0 1-.193.167Zm-1.398-.954-.486-.444c-.168.132-.15.264 0 .378a.604.604 0 0 0 .486.066Zm1.14.312a.553.553 0 0 0-.255-.102.552.552 0 0 0-.273.03l.486.444c.168-.132.162-.264.042-.372ZM187.716 73.92l-.3.126c-.03-.096-.066-.192-.102-.294l.294-.126a2.097 2.097 0 0 1-.09-.966l.324.042c-.04.267-.022.54.054.798l.522-.228c-.066-.426-.12-.894.252-1.05.27-.12.6.048.828.6l.294-.132.108.294-.294.126c.083.258.115.528.096.798l-.318-.036a2.006 2.006 0 0 0-.066-.636l-.528.228c.066.426.132.9-.234 1.056-.27.108-.6-.06-.84-.6Zm1.026-.78.468-.204c-.12-.24-.252-.312-.366-.258-.114.054-.132.234-.102.462Zm-.378.924c.132-.054.138-.24.102-.474l-.462.204c.12.246.252.318.36.27ZM95.826 66.738c.036.096.066.204.102.306l-.276.06a5.99 5.99 0 0 1-.096-.306 1.8 1.8 0 0 1-.9-.048c0-.102.042-.204.06-.312.24.081.494.104.744.066-.06-.18-.12-.366-.174-.546-.402 0-.834 0-.96-.39-.084-.282.09-.6.6-.726-.03-.102-.066-.204-.096-.312l.276-.06c0 .102.066.204.096.306.244-.048.495-.048.738 0 0 .102 0 .204-.048.306a1.798 1.798 0 0 0-.6 0c.054.186.114.366.174.552.396 0 .84 0 .954.372.102.27-.078.594-.594.732Zm-.648-1.11c-.048-.162-.102-.33-.15-.486-.234.078-.306.198-.264.318.042.12.204.162.414.168Zm.834.492c-.042-.138-.216-.162-.432-.168.054.162.102.324.156.486.264-.084.312-.204.264-.318h.012ZM154.422 49.404l-.258.198-.15-.234.252-.198a1.848 1.848 0 0 1-.264-.858l.312-.054c.009.252.076.499.198.72l.456-.348c-.144-.372-.282-.786.036-1.032.318-.246.6-.114.888.318l.258-.198.15.24-.252.192c.124.217.205.455.24.702l-.306.054a1.897 1.897 0 0 0-.18-.564l-.456.354c.144.372.294.786 0 1.026s-.6.114-.924-.318Zm.816-.99.408-.306c-.156-.192-.294-.216-.396-.144-.102.072-.078.252-.012.45Zm-.174.948c.108-.084.078-.252 0-.456l-.402.306c.168.198.3.228.402.15ZM173.262 111.396l-.318.054v-.282l.318-.054a1.866 1.866 0 0 1 .18-.882l.3.108c-.114.223-.174.47-.174.72l.57-.09c.048-.396.126-.822.522-.888.288-.048.552.168.63.702l.318-.048v.282l-.312.048c.009.25-.032.498-.12.732l-.3-.096a1.76 1.76 0 0 0 .114-.6l-.57.096c-.054.396-.114.828-.51.894-.294.054-.564-.162-.648-.696Zm1.2-.48.504-.084c-.048-.24-.156-.324-.282-.306-.126.018-.192.18-.228.39h.006Zm-.6.75c.138 0 .192-.186.228-.402l-.504.078c.036.258.138.342.258.324h.018Z"/><path fill="#F5F5F5" d="M150 223.536c64.249 0 116.334-3.041 116.334-6.792s-52.085-6.792-116.334-6.792c-64.25 0-116.334 3.041-116.334 6.792s52.085 6.792 116.334 6.792Z"/><path fill="#DE7A4A" d="M103.152 41.646C97.41 38.43 92.154 31.494 87.63 30a59.117 59.117 0 0 1 5.01-8.502c4.524 4.386 9.78 12.096 15.522 11.64a60.168 60.168 0 0 1-5.01 8.508Z"/><path fill="#fff" d="M103.152 41.646C97.41 38.43 92.154 31.494 87.63 30a59.117 59.117 0 0 1 5.01-8.502c4.524 4.386 9.78 12.096 15.522 11.64a60.168 60.168 0 0 1-5.01 8.508Z" opacity=".5"/><path fill="#000" d="M106.8 34.974c-.6-.072-.798-.732-.426-1.392-4.632-.996-8.928-6.6-12.744-10.446a1.039 1.039 0 0 1-1.578.054 58.642 58.642 0 0 0-3.126 5.142 1.308 1.308 0 0 1 .216 1.758c3.822 2.04 8.112 7.2 12.75 10.302a1.498 1.498 0 0 1 1.8-.318 58.587 58.587 0 0 0 3.12-5.106l-.012.006ZM96.036 33.6c-1.14-1.062-1.404-2.7-.636-3.66.768-.96 2.286-.768 3.426.33 1.14 1.098 1.464 2.664.696 3.6-.768.936-2.322.804-3.486-.27Z" opacity=".2"/><path fill="#000" d="m96.906 33-.204.246-.228-.21c.072-.084.138-.168.21-.246a2.095 2.095 0 0 1-.516-.828l.312-.108c.08.26.217.497.402.696l.366-.444c-.252-.348-.51-.744-.252-1.05.258-.306.558-.222 1.008.156.072-.078.138-.162.21-.246l.222.216-.204.246c.189.19.34.414.444.66l-.3.12a2.01 2.01 0 0 0-.342-.546l-.372.444c.252.348.522.744.264 1.05-.258.306-.558.24-1.02-.156Zm.6-1.158.324-.39c-.21-.162-.36-.162-.438-.066-.078.096-.042.288.084.48l.03-.024Zm.084.996c.09-.108 0-.27-.126-.468l-.324.39c.192.192.336.198.42.102l.03-.024Z" opacity=".2"/><path fill="#DE7A4A" d="M152.4 67.038c-5.28 2.844-13.272 3.204-16.608 6.03a65.282 65.282 0 0 1-4.356-8.868c5.634-1.2 14.244-1.122 16.608-6.036a65.64 65.64 0 0 1 4.356 8.874Z"/><path fill="#fff" d="M152.4 67.038c-5.28 2.844-13.272 3.204-16.608 6.03a65.282 65.282 0 0 1-4.356-8.868c5.634-1.2 14.244-1.122 16.608-6.036a65.64 65.64 0 0 1 4.356 8.874Z" opacity=".5"/><path fill="#000" d="M148.842 60.342c-.348.456-.96.234-1.302-.438-3 3.192-9.456 3.54-14.34 4.452a.972.972 0 0 1-.708 1.314 61.904 61.904 0 0 0 2.592 5.4c.468-.234 1.146.132 1.5.822 3.432-1.95 9.546-2.538 14.226-4.536a1.455 1.455 0 0 1 .6-1.632 65.766 65.766 0 0 0-2.568-5.4v.018Zm-6.192 7.938a2.7 2.7 0 0 1-3.204-1.548c-.402-1.164.474-2.28 1.89-2.586 1.416-.306 2.808.312 3.186 1.464.378 1.152-.48 2.352-1.872 2.67Z" opacity=".2"/><path fill="#000" d="M142.608 67.248c.036.102.066.204.096.306l-.276.066c0-.102-.066-.204-.096-.306-.3.057-.608.04-.9-.048 0-.108.042-.21.066-.312.237.082.491.102.738.06-.054-.18-.114-.36-.174-.546-.396 0-.834 0-.954-.39-.09-.276.084-.57.6-.726-.036-.102-.066-.204-.102-.306l.282-.06c0 .102.06.204.096.306.243-.051.494-.051.738 0l-.054.306a1.804 1.804 0 0 0-.6 0c.06.18.12.366.174.552.402 0 .84 0 .96.372.102.264-.078.564-.594.726Zm-.648-1.11c-.054-.162-.102-.324-.156-.486-.228.084-.3.204-.264.324.036.12.21.156.42.162Zm.828.492c-.042-.132-.21-.162-.426-.162.048.162.102.324.15.48.24-.084.288-.198.288-.318h-.012Z" opacity=".2"/><path fill="#DE7A4A" d="M195.558 29.232c-6.228 2.1-12.354 4.698-16.992 8.748-1.644-2.436-3.336-4.914-4.878-7.512 5.19-3.966 11.244-6.468 16.992-8.748 1.644 2.436 3.336 4.914 4.878 7.512Z"/><path fill="#fff" d="M195.558 29.232c-6.228 2.1-12.354 4.698-16.992 8.748-1.644-2.436-3.336-4.914-4.878-7.512 5.19-3.966 11.244-6.468 16.992-8.748 1.644 2.436 3.336 4.914 4.878 7.512Z" opacity=".5"/><path fill="#000" d="M191.16 23.274a1.56 1.56 0 0 1-1.8-.546c-4.764 1.926-9.66 4.056-14.028 7.11a1.411 1.411 0 0 1-.378 1.8c.984 1.59 2.01 3.138 3.036 4.668a1.07 1.07 0 0 1 1.602.246c4.044-3.12 9-5.316 14.04-7.134a.97.97 0 0 1-.087-.88.974.974 0 0 1 .657-.59c-.984-1.584-2.016-3.132-3.036-4.662l-.006-.012Zm-5.856 7.89a2.737 2.737 0 0 1-3.54-.864 2.275 2.275 0 0 1 .25-2.686 2.28 2.28 0 0 1 .77-.566 2.826 2.826 0 0 1 3.6.966 2.188 2.188 0 0 1-1.08 3.15Z" opacity=".2"/><path fill="#000" d="m184.956 30.084.186.306-.252.12-.186-.3a1.69 1.69 0 0 1-.882.15c0-.114 0-.234-.03-.348.248.032.5-.001.732-.096-.108-.186-.222-.366-.336-.546-.384.096-.804.18-1.032-.198-.174-.276-.096-.636.354-.912l-.192-.312.252-.12.186.3c.227-.097.473-.143.72-.132 0 .108.03.222.048.336a1.64 1.64 0 0 0-.6.09l.336.552c.384-.09.816-.174 1.05.204.18.276.09.624-.354.906Zm-.966-1.044-.3-.486c-.198.138-.228.282-.156.402.072.12.246.126.456.084Zm.954.348c-.084-.132-.258-.126-.468-.084l.294.48c.204-.138.246-.276.174-.384v-.012Z" opacity=".2"/><path fill="#DE7A4A" d="M85.908 93.198c-4.536-4.728-11.91-4.284-16.446-9l4.29-7.83c4.536 4.728 11.91 4.29 16.446 9a4893.391 4893.391 0 0 1-4.29 7.83Z"/><path fill="#fff" d="M85.908 93.198c-4.536-4.728-11.91-4.284-16.446-9l4.29-7.83c4.536 4.728 11.91 4.29 16.446 9a4893.391 4893.391 0 0 1-4.29 7.83Z" opacity=".5"/><path fill="#000" d="M89.04 86.496a1.613 1.613 0 0 1-.36-1.878c-4.104-3.18-9.768-3.51-13.872-6.696a.936.936 0 0 1-1.524.252l-2.67 4.884a1.614 1.614 0 0 1 .354 1.872c4.104 3.186 9.768 3.516 13.872 6.702a.936.936 0 0 1 1.524-.258l2.67-4.878h.006Zm-10.44.3a2.094 2.094 0 0 1-1.158-3.06A3 3 0 0 1 81 82.44a2.082 2.082 0 0 1 1.164 3.048 3 3 0 0 1-3.564 1.308Z" opacity=".2"/><path fill="#000" d="M79.41 85.866a8.53 8.53 0 0 1-.174.324l-.258-.096.174-.318a1.296 1.296 0 0 1-.636-.516l.3-.24c.121.196.299.35.51.444.102-.192.21-.384.318-.6-.306-.204-.6-.444-.402-.846a.858.858 0 0 1 1.044-.33l.18-.33.258.096-.18.318c.215.083.402.224.54.408l-.288.24a1.256 1.256 0 0 0-.42-.336l-.318.6c.306.204.6.444.408.846a.876.876 0 0 1-1.056.336Zm.42-1.326.282-.516c-.24-.048-.39 0-.456.15s.024.246.174.366Zm.222.876c.078-.144 0-.258-.186-.378l-.282.51c.246.054.396-.012.468-.132Z" opacity=".2"/><path fill="#DE7A4A" d="M234.318 69.144c-4.284 5.172-11.664 2.4-15.948 6.534-1.566-2.838-3.132-5.568-4.698-8.1 4.284-5.172 11.664-2.4 15.948-6.534a198.088 198.088 0 0 0 4.698 8.1Z"/><path fill="#fff" d="M234.318 69.144c-4.284 5.172-11.664 2.4-15.948 6.534-1.566-2.838-3.132-5.568-4.698-8.1 4.284-5.172 11.664-2.4 15.948-6.534a198.088 198.088 0 0 0 4.698 8.1Z" opacity=".5"/><path fill="#000" d="M230.172 62.946c-.474.426-1.2.168-1.536-.486-3.93 2.532-9.57 1.158-13.494 4.35a1.601 1.601 0 0 1-.258 1.878c.972 1.638 1.95 3.342 2.928 5.094.474-.426 1.2-.168 1.536.48 3.924-2.532 9.564-1.158 13.494-4.344a1.573 1.573 0 0 1 .258-1.872 177.012 177.012 0 0 1-2.928-5.094v-.006Zm-5.046 7.764c-1.284.174-2.886-.756-3.6-2.106-.714-1.35-.288-2.664.99-2.844 1.278-.18 2.892.762 3.6 2.112.708 1.35.294 2.658-.99 2.838Z" opacity=".2"/><path fill="#000" d="m224.76 69.516.192.366-.246.036-.198-.366a1.75 1.75 0 0 1-.894-.162l-.036-.354c.23.115.486.17.744.162l-.342-.654a1.204 1.204 0 0 1-1.056-.564.48.48 0 0 1-.053-.49.484.484 0 0 1 .401-.284l-.198-.372.252-.036.192.366c.249-.018.499.019.732.108 0 .12.03.234.048.348a1.613 1.613 0 0 0-.6-.102l.354.66a1.199 1.199 0 0 1 1.056.558.492.492 0 0 1-.348.78Zm-.96-1.368-.312-.6c-.198.072-.228.204-.15.348a.559.559 0 0 0 .462.252Zm.972.672a.605.605 0 0 0-.474-.246l.306.6c.174-.084.21-.21.138-.354h.03Z" opacity=".2"/><path fill="#DE7A4A" d="M210.214 213.995c.156 1.796.342 3.622.558 5.478H84.592c3.948-33.354 0-47.814 0-47.814 42.168-3.174 126.18 0 126.18 0s-2.538 16.068-.828 39.078c.08 1.068.17 2.154.27 3.258Z"/><path fill="#fff" d="M210.772 171.659c-5.526 2.58-32.556 2.946-48.108 1.98-15.552-.966-35.904 1.98-35.904 1.98-11.784-4.068-42.168-3.96-42.168-3.96 42.168-3.174 126.18 0 126.18 0Z" opacity=".2"/><path fill="#000" d="M84.592 219.473c3.948-33.354 0-47.814 0-47.814s25.014-.546 42.168 3.96c0 0 .6 5.088 0 7.704 0 0 20.634-3.348 39-2.904 0 0-28.428 3.27-39 5.7 0 0-17.004-2.652-27.762-2.796 0 0 22.368 2.91 27.762 4.65 0 0 6.396-1.164 9.744-1.164 0 0-8.01 1.458-9.744 2.76v9.216s-17.856.354-26.814-.924c4.254.666 21.6 3.336 26.814 3.336 0 0 19.704-.726 31.146 0 0 0-26.07 1.5-31.146 2.712h-22.38l22.38 1.878v1.866h9.6l-9.6 1.656s-27.762-1.764-35.748 0c0 0 32.766 1.488 35.712 2.646l.036 2.76s36.744-4.854 69.24-.678c0 0-47.454-1.884-69.24 3.396 0 0 68.166-1.482 84 2.04H84.592Z" opacity=".2"/><path fill="#DE7A4A" d="M85.33 175.619 82 176.783s20.058.69 33 2.67c-.012 0-19.95-3.546-29.67-3.834Z"/><path fill="#fff" d="m129.682 179.453 5.076.966s23.634-2.568 51.57-2.88c0 0-40.35-1.956-56.646 1.914ZM145.696 184.883s14.172-3.864 26.598-3.672c12.426.192 36.078-1.758 36.078-1.758l.93 1.758s-18.546 1.086-33.852.96c-9.979.019-19.936.927-29.754 2.712ZM131.632 190.661s16.896-3.6 33.462-3.27c16.566.33 37.428 1.626 37.428 1.626s-45.276 0-56.826 2.4l-14.064-.756Z" opacity=".2"/><path fill="#DE7A4A" d="M160.858 185.429s14.55-1.2 27.108-.546a3984.6 3984.6 0 0 0 25.746 1.242l-4.41 1.248s-30.234-3.03-48.444-1.944Z"/><path fill="#000" d="M160.858 185.429s14.55-1.2 27.108-.546a3984.6 3984.6 0 0 0 25.746 1.242l-4.41 1.248s-30.234-3.03-48.444-1.944ZM132.178 193.715s25.2-.312 37.338-.918c12.138-.606 28.416 2.76 28.416 2.76s-20.082-.426-26.298.558l-39.456-2.4Z" opacity=".2"/><path fill="#fff" d="m129.682 197.531 16.014-1.416 34.116 1.416-34.554 1.416-15.576-1.416ZM141.658 205.049s23.286-2.172 32.358-2.286c9.072-.114 33.486-1.746 33.486-1.746l-2.712 3.6s-45.906-.978-63.132.432Z" opacity=".2"/><path fill="#DE7A4A" d="m200.704 192.797 8.598.81 2.34-.81a58.603 58.603 0 0 0-10.938 0ZM210.388 174.647l3.324.534-3.57 1.866-21-.444s15.744-.21 21.246-1.956Z"/><path fill="#fff" d="m200.704 192.797 8.598.81 2.34-.81a58.603 58.603 0 0 0-10.938 0Z" opacity=".2"/><path fill="#000" d="m210.388 174.647 3.324.534-3.57 1.866-21-.444s15.744-.21 21.246-1.956ZM210.214 213.995c-5.64-.366-45.162-5.334-45.162-5.334 2.634-.306 37.134 1.734 44.892 2.076.08 1.068.17 2.154.27 3.258Z" opacity=".2"/><path fill="#DE7A4A" d="M150.706 207.983s36.954-.096 47.526.666c10.572.762 11.52-.666 11.52-.666l5.268 2.538s.27 2.52-13.596.762-50.718-3.3-50.718-3.3ZM120.514 189.401s-21.642-3.432-34.26-2.556a12.255 12.255 0 0 1 5.154 2.556h29.106ZM86.23 198.785c.492-.054 16.2 2.016 22.2 2.232l-24.42.984 2.22-3.216ZM85.342 212.357l23.724.84L82 215.201l3.342-2.844ZM128.566 170.039s33.696 5.76 53.238-17.298l36.816 9.45s-6.774 14.052-57.654 12.186c-50.88-1.866-32.4-4.338-32.4-4.338Z"/><path fill="#fff" d="M128.566 170.039s33.696 5.76 53.238-17.298l36.816 9.45s-6.774 14.052-57.654 12.186c-50.88-1.866-32.4-4.338-32.4-4.338Z" opacity=".5"/><path fill="#000" d="M147.808 171.281s20.598-1.086 32.244-14.262a5.575 5.575 0 0 0 6-1.836l26.874 7.122s-2.892 1.014-1.878 4.362c-.024 0-35.298 14.292-63.24 4.614Z" opacity=".2"/><path fill="#EBB376" d="m178.552 104.453.63-3.342s-1.302-1.236-1.152-2.4c.15-1.164 5.946-3 6.972-3.102 1.026-.102.636 4.098.324 4.86-.312.762-3.792 1.68-3.792 1.68l-.438 3.522-2.544-1.218ZM111.73 120.881l-2.298-2.508s.45-1.734-.282-2.622c-.732-.888-6.642.57-7.554 1.044-.912.474 1.62 3.816 2.292 4.296.672.48 4.104-.6 4.104-.6l2.232 2.766 1.506-2.376Z"/><path fill="#DE7A4A" d="M157.432 115.493c6.462-.36 12.318.99 15.324 0 3.006-.99 5.922-13.494 5.922-13.494l3.162 1.068s-1.2 13.014-6.396 16.5c-5.196 3.486-17.238 3.456-17.238 3.456l-.774-7.53Z"/><path fill="#fff" d="M181.84 103.067s-1.2 13.014-6.396 16.5c-3 1.98-8.142 2.826-12.048 3.192-2.958.27-5.19.264-5.19.264l-.36-3.516-.414-4.014c6.462-.36 12.318.99 15.324 0 3.006-.99 5.922-13.494 5.922-13.494l3.162 1.068Z" opacity=".7"/><path fill="#000" d="M163.396 122.759c-2.958.27-5.19.264-5.19.264l-.36-3.516a20.243 20.243 0 0 1 5.55 3.252Z" opacity=".2"/><path fill="#B97964" d="m198.742 216.569 4.182-1.146-.75-10.212-4.176 1.152.744 10.206Z"/><path fill="#263238" d="m203.182 214.865-4.86.336a.312.312 0 0 0-.3.318l.03 3.858a.772.772 0 0 0 .81.714c1.692-.144 2.496-.3 4.632-.462a40.27 40.27 0 0 0 5.682-.6c1.8-.414 1.32-2.154.528-2.136a11.862 11.862 0 0 1-5.754-1.854c-.23-.14-.5-.202-.768-.174Z"/><path fill="#263238" d="M204.766 215.495a5.4 5.4 0 0 1-1.164-.072.103.103 0 0 1-.084-.072.137.137 0 0 1 .003-.057.156.156 0 0 1 .027-.051c.132-.108 1.302-1.026 1.848-.858a.376.376 0 0 1 .252.27.531.531 0 0 1-.084.57 1.205 1.205 0 0 1-.798.27Zm.57-.9c-.288-.09-.984.324-1.464.678.786.096 1.35.036 1.542-.18a.381.381 0 0 0 .048-.366.211.211 0 0 0-.126-.132Z"/><path fill="#263238" d="M203.62 215.423a.05.05 0 0 1-.021.005.054.054 0 0 1-.021-.005.12.12 0 0 1-.037-.03.115.115 0 0 1-.023-.042c0-.042-.186-1.29.216-1.746a.528.528 0 0 1 .42-.168.398.398 0 0 1 .39.276c.126.468-.456 1.416-.864 1.698a.07.07 0 0 1-.06.012Zm.48-1.764a.279.279 0 0 0-.21.108 2.203 2.203 0 0 0-.186 1.386c.375-.359.603-.844.642-1.362 0-.06-.054-.126-.198-.132h-.048Z"/><path fill="#000" d="m197.998 206.363 4.182-1.146.426 5.838-4.206.936-.402-5.628Z" opacity=".2"/><path fill="#B97964" d="m193.27 216.419-3.954 1.806-1.002-4.248-1.35-5.712 3.936-1.806 1.356 5.706 1.014 4.254Z"/><path fill="#000" d="m192.256 212.165-3.942 1.812-1.35-5.712 3.936-1.806 1.356 5.706Z" opacity=".2"/><path fill="#263238" d="m193.432 215.831-4.74 1.11a.307.307 0 0 0-.246.354l.648 3.81a.761.761 0 0 0 .906.6c1.65-.414 2.4-.696 4.5-1.2a39.855 39.855 0 0 0 5.52-1.464c1.686-.69.96-2.334.186-2.19-1.836.33-4.584-.27-6-.924a1.202 1.202 0 0 0-.774-.096Z"/><path fill="#263238" d="M195.1 216.203a5.414 5.414 0 0 1-1.164.108.087.087 0 0 1-.057-.011.086.086 0 0 1-.039-.043.114.114 0 0 1-.014-.054c0-.019.005-.037.014-.054.114-.126 1.116-1.2 1.686-1.146a.382.382 0 0 1 .288.228.543.543 0 0 1 0 .6c-.188.202-.44.334-.714.372Zm.42-.978c-.306-.048-.924.474-1.344.9.792-.03 1.344-.18 1.494-.42a.36.36 0 0 0 0-.372.163.163 0 0 0-.054-.073.161.161 0 0 0-.084-.035h-.012Z"/><path fill="#263238" d="M193.954 216.311c-.006.002-.012.004-.018.004-.006 0-.012-.002-.018-.004a.116.116 0 0 1-.072-.066c0-.036-.396-1.248-.066-1.758a.518.518 0 0 1 .384-.234.388.388 0 0 1 .432.216c.198.438-.222 1.47-.6 1.8a.049.049 0 0 1-.015.027.056.056 0 0 1-.027.015Zm.192-1.8a.32.32 0 0 0-.192.138c-.137.46-.125.951.036 1.404a2.14 2.14 0 0 0 .426-1.446c0-.06-.078-.12-.222-.102l-.048.006ZM163.972 158.429l-1.278-14.112-23.562.552s-2.79 19.662-.762 23.274c3.6 6.45 27.372 2.79 32.928 3.336 2.268 1.2 14.4 41.442 14.4 41.442l6.798-2.742s-7.308-33.954-9-40.35c-2.286-8.892-11.718-8.736-19.524-11.4Z"/><path fill="#263238" d="m203.02 209.483-6 .552s-7.35-37.434-7.92-37.596c-1.02-.294-4.002-.63-5.604-1.05-11.124-2.892-38.52-8.214-38.52-8.214l10.104-9.732s45.804 5.496 46.8 16.248c.51 5.148 1.14 39.792 1.14 39.792Z"/><path fill="#000" d="M187.486 172.469c-1.026-.294-2.4-.654-3.99-1.074.444.234-.84-5.592-2.124-7.098-2.55-3-12.786-4.632-16.452-5.22-3.072-.492-13.368-1.398-13.368-1.398s18.18-1.572 31.878 2.19c6.774 1.86 5.568 8.472 4.056 12.6Z" opacity=".2"/><path fill="#DE7A4A" d="M135.988 118.919s8.694-4.614 21.444-3.426c0 0 4.422 11.244 5.262 28.8l-23.706 1.644s.426-15.048-3-27.018Z"/><path fill="#fff" d="M138.988 145.961c.061-4.097-.091-8.195-.456-12.276-.21-2.4-.51-4.926-.942-7.5a66.073 66.073 0 0 0-1.602-7.266s8.694-4.614 21.444-3.426c0 0 4.422 11.244 5.262 28.8l-23.706 1.668Z" opacity=".7"/><path fill="#000" d="M138.55 133.685c-.21-2.4-.51-4.926-.942-7.5a4.23 4.23 0 0 1 1.488-.978l.03-.264c-.018.288 1.224 4.722-.576 8.742Z" opacity=".2"/><path fill="#EBB376" d="M142.558 117.287c2.172 1.974 7.488 1.242 7.488 1.242s3.318-.906 2.622-1.944c-1.956-.324-2.898-1.236-3.294-2.4a5.834 5.834 0 0 1-.198-2.238c0-.408.096-.828.168-1.242l-6.594-4.866c.882 3.21 1.938 9.12-.192 11.448Z"/><path fill="#000" d="M144.286 108.929c.264 3.942 3.504 5.034 5.088 5.256a5.855 5.855 0 0 1-.198-2.238l-4.89-3.018Z" opacity=".2"/><path fill="#263238" d="M148.456 92.315c2.442.66 4.476 6.294 2.646 10.02s-7.344-6.696-7.344-6.696 3.12-3.744 4.698-3.324Z"/><path fill="#EBB376" d="M153.55 105.239c.012.228.012.456 0 .684a6.438 6.438 0 0 1-1.836 4.338 5.901 5.901 0 0 1-3.858 1.8 5.767 5.767 0 0 1-3-.672c-2.916-1.482-3.702-4.05-5.4-8.286a6.23 6.23 0 0 1 6.216-8.664c4.8.354 7.506 6.6 7.878 10.8Z"/><path fill="#263238" d="M146.422 102.113c.09.354.39.6.6.498.21-.102.324-.426.21-.774-.114-.348-.402-.6-.6-.498-.198.102-.324.414-.21.774ZM150.4 100.805c.09.354.396.57.6.498.204-.072.324-.426.21-.78-.114-.354-.396-.57-.6-.498-.204.072-.318.444-.21.78Z"/><path fill="#D58745" d="M149.194 101.393a13.326 13.326 0 0 0 2.67 2.46 2.136 2.136 0 0 1-1.59.87l-1.08-3.33Z"/><path fill="#263238" d="M151.318 98.639a.25.25 0 0 1-.222.066 1.739 1.739 0 0 0-1.536.312.216.216 0 1 1-.3-.312 2.174 2.174 0 0 1 1.938-.42.218.218 0 0 1 .17.173.222.222 0 0 1-.002.085.44.44 0 0 1-.048.096ZM145.108 100.781a.182.182 0 0 1-.126 0 .22.22 0 0 1-.1-.131.22.22 0 0 1 .022-.163 2.177 2.177 0 0 1 1.68-1.068.215.215 0 0 1 .222.21.223.223 0 0 1-.21.222 1.751 1.751 0 0 0-1.314.87.215.215 0 0 1-.081.048.21.21 0 0 1-.093.012ZM140.86 96.623l.942 1.8a1.495 1.495 0 0 0 0 2.028c1.2 1.344 1.248 4.128.408 5.568 0 0-.294-.666-.81-.288-.516.378 1.008 3.876 2.778 5.142 0 0-2.286-.882-4.674-4.248-2.208-3.108-3.42-5.946-3.222-7.554l4.578-2.448Z"/><path fill="#EBB376" d="M138.742 107.225a4.322 4.322 0 0 0 3.036 1.308c1.524 0 1.884-1.446 1.128-2.676-.678-1.086-2.292-2.436-3.654-1.842-1.362.594-1.482 2.19-.51 3.21Z"/><path fill="#263238" d="M150.742 106.229a13.895 13.895 0 0 0-.696 1.866l-.348-.042c-1.572-.21-2.238-.828-2.49-1.452a2.082 2.082 0 0 1-.126-.96c.012-.187.053-.371.12-.546a7.448 7.448 0 0 0 3 1.056c.348.06.54.078.54.078Z"/><path fill="#fff" d="m150.208 106.151-.222.546c-1.482-.204-2.502-.546-2.904-1.056.012-.187.053-.371.12-.546a7.46 7.46 0 0 0 3.006 1.056Z"/><path fill="#DE5753" d="M149.698 108.053c-1.572-.21-2.238-.828-2.49-1.452.599.1 1.175.303 1.704.6.344.196.618.494.786.852Z"/><path fill="#263238" d="M144.874 96.935s-.42-2.868 1.392-2.31c1.812.558 1.938-.534 1.398-2.748-.54-2.214-5.736-3-8.676.63-2.94 3.63-3.966 6.672-2.544 8.28 1.422 1.608 6.84-3.138 6.84-3.138a5.052 5.052 0 0 1 1.002-2.22c.033.551.239 1.078.588 1.506ZM147.676 118.301l2.874 2.538s1.578 10.68 5.454 15.348h2.4l.474-1.656a33.804 33.804 0 0 1-7.548-14.088v-3.402l-3.654 1.26Z"/><path fill="#DE7A4A" d="m143.29 114.977 5.904 2.214.504-3.006 3.066 1.11.786 3.798-4.176-1.032-2.07 2.772-6.018-3.894 2.004-1.962Z"/><path fill="#fff" d="m143.29 114.977 5.904 2.214.504-3.006 3.066 1.11.786 3.798-4.176-1.032-2.07 2.772-6.018-3.894 2.004-1.962Z" opacity=".5"/><path fill="#000" d="m138.652 145.565 24.318-2.31.054 2.952-24.36 1.992-.012-2.634Z"/><path fill="#fff" d="M157.822 143.861a1.041 1.041 0 0 0-.816-.264l-2.154.222a1.066 1.066 0 0 0-.96 1.08v1.38a1.074 1.074 0 0 0 1.092 1.05h.09l2.154-.228a1.06 1.06 0 0 0 .954-1.08v-1.374a1.057 1.057 0 0 0-.36-.786Zm-.63 2.688-2.148.228a.527.527 0 0 1-.6-.51v-1.374a.525.525 0 0 1 .468-.528l2.148-.222h.048a.521.521 0 0 1 .522.51v.186h-.084l-.6.054a.372.372 0 0 0-.249.13.388.388 0 0 0-.069.126.384.384 0 0 0 .025.28.365.365 0 0 0 .216.181.384.384 0 0 0 .143.015l.6-.06h.03v.474a.514.514 0 0 1-.45.51Z"/><path fill="#DE7A4A" d="M135.988 118.919c-4.056 2.4-9.912 10.302-11.97 10.14-2.058-.162-13.158-10.02-13.158-10.02l-2.532 2.742s10.254 12.246 15.03 13.17c4.776.924 15.294-7.932 15.294-7.932a6.533 6.533 0 0 0 0-4.746 7.433 7.433 0 0 0-2.664-3.354Z"/><path fill="#fff" d="M135.988 118.919c-4.056 2.4-9.912 10.302-11.97 10.14-2.058-.162-13.158-10.02-13.158-10.02l-2.532 2.742s10.254 12.246 15.03 13.17c4.776.924 15.294-7.932 15.294-7.932a6.533 6.533 0 0 0 0-4.746 7.433 7.433 0 0 0-2.664-3.354Z" opacity=".7"/><path fill="#DE7A4A" d="M173.116 174.695s-80.526.558-85.524-10.752l35.862-2.604a199.692 199.692 0 0 0 21.816 7.698c8.28 2.418 18.096 4.71 27.846 5.658Z"/><path fill="#fff" d="M173.116 174.695h-6.726c-17.226-1.2-37.338-9.756-37.338-9.756-7.26 1.596-12.252-1.266-12.252-1.266l-19.572 1.122a3.28 3.28 0 0 1-.66 2.772c10.146 2.85 21.084 4.584 30 5.634-18.834-1.41-36.708-4.098-39-9.24l35.862-2.604s25.05 10.938 49.686 13.338Z" opacity=".2"/><path fill="#000" d="M173.116 174.695s-80.526.558-85.524-10.752c0 0 27.21 11.754 57.678 5.094 8.28 2.418 18.096 4.71 27.846 5.658Z" opacity=".2"/></svg>