<svg width="330" height="234" viewBox="0 0 330 234" fill="none" xmlns="http://www.w3.org/2000/svg">
<path d="M37.3751 134.5L37.3749 134.493C36.7504 102.892 40.8174 81.8156 48.5711 67.9568C56.3097 54.125 67.7424 47.4452 81.9718 44.6809C96.227 41.9116 113.27 43.076 132.195 44.9438C135.231 45.2435 138.315 45.5612 141.444 45.8835C157.742 47.5623 175.231 49.3639 193.327 49.3753C216.187 76.1534 237.406 91.9569 256.389 101.324C275.404 110.707 292.157 113.623 306.035 114.655C311.519 115.063 316.558 115.177 321.102 115.28C322.302 115.307 323.468 115.333 324.598 115.364C330.019 115.512 334.607 115.761 338.325 116.674C342.031 117.583 344.832 119.142 346.719 121.883C348.606 124.624 349.617 128.601 349.625 134.429C339.401 160.188 321.947 181.471 296.287 196.324C270.6 211.191 236.669 219.625 193.5 219.625C131.024 219.625 91.9887 210.056 68.5812 194.645C45.2079 179.256 37.375 158.012 37.3751 134.5Z" stroke="#F7DFD4" stroke-width="0.75"/>
<path d="M346.256 105.235C353.76 159.115 190.062 210.286 113.296 220.979C21.005 233.833 19.5466 205.665 12.0421 151.785C4.53753 97.9051 94.0909 76.2441 172.794 48.6229C261.532 117.035 338.751 51.355 346.256 105.235Z" fill="#F7DFD4" fill-opacity="0.3"/>
<path d="M300 196.44H0V196.59H300V196.44Z" fill="#EBEBEB"/>
<path d="M269.94 206.094H250.068V206.244H269.94V206.094Z" fill="#EBEBEB"/>
<path d="M198.732 207.726H193.518V207.876H198.732V207.726Z" fill="#EBEBEB"/>
<path d="M249.468 200.526H237.954V200.676H249.468V200.526Z" fill="#EBEBEB"/>
<path d="M57.3901 201.534H31.4761V201.684H57.3901V201.534Z" fill="#EBEBEB"/>
<path d="M66.5341 201.534H62.7361V201.684H66.5341V201.534Z" fill="#EBEBEB"/>
<path d="M135.09 204.066H78.8821V204.216H135.09V204.066Z" fill="#EBEBEB"/>
<path d="M142.2 169.68H26.346C25.4384 169.678 24.5686 169.317 23.9274 168.674C23.2862 168.032 22.926 167.162 22.926 166.254V3.396C22.9339 2.49362 23.2975 1.63079 23.9379 0.994931C24.5782 0.359075 25.4436 0.00154583 26.346 0H142.2C143.109 0 143.98 0.360953 144.623 1.00345C145.265 1.64595 145.626 2.51737 145.626 3.426V166.254C145.626 167.163 145.265 168.034 144.623 168.677C143.98 169.319 143.109 169.68 142.2 169.68ZM26.346 0.12C25.4782 0.12159 24.6465 0.467439 24.0334 1.08164C23.4204 1.69583 23.076 2.52819 23.076 3.396V166.254C23.076 167.122 23.4204 167.954 24.0334 168.568C24.6465 169.183 25.4782 169.528 26.346 169.53H142.2C143.068 169.528 143.901 169.183 144.515 168.569C145.129 167.955 145.474 167.122 145.476 166.254V3.396C145.474 2.52764 145.129 1.6953 144.515 1.08127C143.901 0.467244 143.068 0.121587 142.2 0.12H26.346Z" fill="#EBEBEB"/>
<path d="M271.986 169.68H156.126C155.218 169.678 154.347 169.317 153.705 168.675C153.063 168.033 152.702 167.162 152.7 166.254V3.396C152.709 2.49307 153.074 1.63025 153.716 0.994556C154.357 0.358865 155.223 0.00152897 156.126 0H271.986C272.887 0.0031227 273.751 0.361349 274.39 0.997037C275.029 1.63272 275.392 2.49465 275.4 3.396V166.254C275.4 167.161 275.041 168.03 274.401 168.672C273.761 169.314 272.892 169.677 271.986 169.68ZM156.126 0.12C155.258 0.121587 154.425 0.467244 153.811 1.08127C153.197 1.6953 152.852 2.52764 152.85 3.396V166.254C152.852 167.122 153.197 167.955 153.811 168.569C154.425 169.183 155.258 169.528 156.126 169.53H271.986C272.854 169.528 273.687 169.183 274.301 168.569C274.915 167.955 275.26 167.122 275.262 166.254V3.396C275.26 2.52764 274.915 1.6953 274.301 1.08127C273.687 0.467244 272.854 0.121587 271.986 0.12H156.126Z" fill="#EBEBEB"/>
<path d="M135.054 35.4058L141.252 34.4998L135.054 33.5938L136.584 31.1698L134.16 32.6998L133.254 26.5078L132.348 32.6998L129.924 31.1698L131.46 33.5938L125.262 34.4998L131.46 35.4058L129.924 37.8298L132.348 36.2938L133.254 42.4918L134.16 36.2938L136.584 37.8298L135.054 35.4058Z" fill="#F5F5F5"/>
<path d="M197.358 51.9479L203.55 51.042L197.358 50.1359L198.888 47.7119L196.464 49.242L195.558 43.0439L194.652 49.242L192.228 47.7119L193.764 50.1359L187.566 51.042L193.764 51.9479L192.228 54.3719L194.652 52.8359L195.558 59.0339L196.464 52.8359L198.888 54.3719L197.358 51.9479Z" fill="#F5F5F5"/>
<path d="M110.22 78.8278L116.418 77.9218L110.22 77.0098L111.756 74.5918L109.332 76.1218L108.426 69.9238L107.52 76.1218L105.096 74.5918L106.632 77.0098L100.434 77.9218L106.632 78.8278L105.096 81.2518L107.52 79.7158L108.426 85.9138L109.332 79.7158L111.756 81.2518L110.22 78.8278Z" fill="#F5F5F5"/>
<path d="M57.834 78.8278L64.026 77.9218L57.834 77.0098L59.364 74.5918L56.94 76.1218L56.034 69.9238L55.128 76.1218L52.704 74.5918L54.24 77.0098L48.042 77.9218L54.24 78.8278L52.704 81.2518L55.128 79.7158L56.034 85.9138L56.94 79.7158L59.364 81.2518L57.834 78.8278Z" fill="#F5F5F5"/>
<path d="M87.51 115.722L93.708 114.816L87.51 113.904L89.046 111.486L86.622 113.016L85.716 106.818L84.804 113.016L82.386 111.486L83.916 113.904L77.718 114.816L83.916 115.722L82.386 118.146L84.804 116.61L85.716 122.808L86.622 116.61L89.046 118.146L87.51 115.722Z" fill="#F5F5F5"/>
<path d="M209.256 95.856L215.454 94.95L209.256 94.044L210.792 91.62L208.368 93.156L207.462 86.958L206.556 93.156L204.132 91.62L205.662 94.044L199.47 94.95L205.662 95.856L204.132 98.28L206.556 96.75L207.462 102.948L208.368 96.75L210.792 98.28L209.256 95.856Z" fill="#F5F5F5"/>
<path d="M252.972 150.774L259.164 149.862L252.972 148.956L254.502 146.538L252.078 148.068L251.172 141.87L250.266 148.068L247.842 146.538L249.378 148.956L243.18 149.862L249.378 150.774L247.842 153.192L250.266 151.662L251.172 157.86L252.078 151.662L254.502 153.192L252.972 150.774Z" fill="#F5F5F5"/>
<path d="M201.264 148.866L207.462 147.96L201.264 147.048L202.8 144.63L200.376 146.16L199.47 139.962L198.558 146.16L196.14 144.63L197.67 147.048L191.472 147.96L197.67 148.866L196.14 151.29L198.558 149.754L199.47 155.952L200.376 149.754L202.8 151.29L201.264 148.866Z" fill="#F5F5F5"/>
<path d="M87.51 161.778L93.708 160.866L87.51 159.96L89.046 157.536L86.622 159.072L85.716 152.874L84.804 159.072L82.386 157.536L83.916 159.96L77.718 160.866L83.916 161.778L82.386 164.196L84.804 162.666L85.716 168.864L86.622 162.666L89.046 164.196L87.51 161.778Z" fill="#F5F5F5"/>
<path d="M154.854 133.608L161.052 132.702L154.854 131.796L156.39 129.372L153.966 130.902L153.06 124.71L152.154 130.902L149.73 129.372L151.26 131.796L145.062 132.702L151.26 133.608L149.73 136.032L152.154 134.496L153.06 140.694L153.966 134.496L156.39 136.032L154.854 133.608Z" fill="#F5F5F5"/>
<path d="M119.694 200.346L125.892 199.44L119.694 198.534L121.224 196.11L118.8 197.64L117.894 191.448L116.988 197.64L114.564 196.11L116.1 198.534L109.902 199.44L116.1 200.346L114.564 202.77L116.988 201.234L117.894 207.432L118.8 201.234L121.224 202.77L119.694 200.346Z" fill="#F5F5F5"/>
<path d="M188.64 196.302L194.838 195.396L188.64 194.49L190.17 192.066L187.752 193.602L186.84 187.404L185.934 193.602L183.51 192.066L185.046 194.49L178.848 195.396L185.046 196.302L183.51 198.726L185.934 197.19L186.84 203.388L187.752 197.19L190.17 198.726L188.64 196.302Z" fill="#F5F5F5"/>
<path d="M189.42 84.4258C185.736 78.9718 184.158 70.4158 180.78 67.0258C183.395 65.0183 186.171 63.2283 189.078 61.6738C191.148 67.6318 192.378 76.8778 197.718 79.0738C195.103 81.0814 192.328 82.8714 189.42 84.4258Z" fill="#EBEBEB"/>
<path d="M195.66 80.0938C195.144 79.7518 195.276 79.0798 195.906 78.6598C192.21 75.6898 190.884 68.7778 189.21 63.6058C189.074 63.6677 188.926 63.6995 188.776 63.6991C188.626 63.6986 188.478 63.666 188.342 63.6034C188.206 63.5408 188.085 63.4497 187.987 63.3362C187.89 63.2228 187.818 63.0896 187.776 62.9458C186.021 63.9179 184.319 64.9813 182.676 66.1318C182.804 66.4344 182.813 66.7739 182.702 67.0829C182.59 67.392 182.367 67.6479 182.076 67.7998C184.578 71.3338 186.102 77.8558 188.838 82.7278C189.145 82.6135 189.481 82.6027 189.796 82.6969C190.11 82.7911 190.384 82.9852 190.578 83.2498C192.326 82.2874 194.022 81.234 195.66 80.0938ZM186.66 74.0398C186.114 72.5818 186.618 70.9978 187.734 70.4818C188.85 69.9658 190.134 70.8238 190.644 72.3178C191.154 73.8118 190.758 75.3598 189.648 75.8518C188.538 76.3438 187.2 75.5098 186.678 74.0398H186.66Z" fill="#E0E0E0"/>
<path d="M105.63 66.5282C100.356 69.3722 92.3581 69.7262 89.0221 72.5582C87.3484 69.7207 85.8883 66.7626 84.6541 63.7082C90.2881 62.5082 98.8981 62.5922 101.262 57.6782C102.941 60.5131 104.401 63.4717 105.63 66.5282Z" fill="#EBEBEB"/>
<path d="M102.066 59.8262C101.718 60.2882 101.1 60.0662 100.758 59.3882C97.7581 62.5862 91.3081 62.9282 86.4181 63.8462C86.4711 63.9775 86.4946 64.1189 86.4869 64.2604C86.4792 64.4018 86.4405 64.5398 86.3735 64.6646C86.3065 64.7894 86.2129 64.898 86.0993 64.9826C85.9857 65.0672 85.8548 65.1258 85.7161 65.1542C86.4301 66.8582 87.2761 68.6522 88.3081 70.5542C88.7701 70.3202 89.4481 70.6862 89.8081 71.3702C93.2341 69.4202 99.3481 68.8322 104.034 66.8342C103.942 66.5349 103.951 66.2136 104.059 65.9197C104.168 65.6259 104.37 65.3759 104.634 65.2082C103.926 63.5102 103.092 61.7222 102.072 59.8082L102.066 59.8262ZM95.8741 67.8002C95.2423 67.9708 94.5702 67.9082 93.9808 67.6239C93.3914 67.3397 92.924 66.8528 92.6641 66.2522C92.2621 65.0522 93.1441 63.9662 94.5541 63.6662C95.9641 63.3662 97.3681 63.9722 97.7461 65.1242C98.1241 66.2762 97.2601 67.4522 95.8741 67.8002Z" fill="#E0E0E0"/>
<path d="M157.974 58.5481C153.492 54.5581 150.42 47.1481 146.616 45.0061C148.708 42.4602 150.988 40.0754 153.438 37.8721C156.492 42.7561 159.366 50.8741 164.79 51.4081C162.7 53.9555 160.422 56.3423 157.974 58.5481Z" fill="#EBEBEB"/>
<path d="M163.044 52.8958C162.498 52.7278 162.492 52.0738 163.014 51.5218C159 49.7998 156.45 43.8538 153.912 39.5998C153.807 39.6955 153.682 39.7668 153.546 39.8083C153.41 39.8498 153.266 39.8607 153.126 39.84C152.985 39.8193 152.851 39.7677 152.732 39.6888C152.614 39.6099 152.515 39.5057 152.442 39.3838C151.086 40.6438 149.688 42.0478 148.242 43.6798C148.62 44.0338 148.506 44.7958 147.984 45.3658C150.984 47.9218 153.636 53.4658 157.122 57.1798C157.372 56.9914 157.676 56.8895 157.989 56.8895C158.302 56.8895 158.606 56.9914 158.856 57.1798C160.206 55.9318 161.598 54.5338 163.056 52.9198L163.044 52.8958ZM153.444 49.7998C153.067 49.2645 152.895 48.611 152.962 47.9595C153.028 47.308 153.327 46.7023 153.804 46.2538C154.764 45.4798 156.108 45.9238 156.882 47.1478C157.656 48.3718 157.554 49.8958 156.6 50.6458C155.646 51.3958 154.242 50.9998 153.462 49.7998H153.444Z" fill="#E0E0E0"/>
<path d="M172.038 121.122C169.992 115.488 170.808 107.526 168.498 103.812C171.549 102.576 174.687 101.569 177.888 100.8C178.254 106.548 176.91 115.056 181.428 118.116C178.378 119.352 175.239 120.357 172.038 121.122Z" fill="#EBEBEB"/>
<path d="M179.184 118.572C178.782 118.158 179.094 117.588 179.784 117.372C177.06 113.94 177.666 107.502 177.474 102.534C177.336 102.569 177.191 102.572 177.051 102.545C176.911 102.517 176.779 102.458 176.664 102.374C176.549 102.289 176.455 102.179 176.387 102.054C176.32 101.928 176.281 101.789 176.274 101.646C174.474 102.108 172.584 102.678 170.532 103.416C170.694 103.908 170.232 104.526 169.5 104.778C170.928 108.456 170.616 114.594 171.9 119.514C172.209 119.471 172.524 119.528 172.798 119.677C173.073 119.826 173.292 120.059 173.424 120.342C175.224 119.886 177.102 119.322 179.148 118.59L179.184 118.572ZM172.236 111.288C172.156 110.638 172.315 109.982 172.682 109.44C173.05 108.899 173.601 108.508 174.234 108.342C175.434 108.114 176.418 109.146 176.514 110.586C176.61 112.026 175.8 113.322 174.606 113.532C173.412 113.742 172.344 112.71 172.236 111.288Z" fill="#E0E0E0"/>
<path d="M251.736 98.1662C247.254 94.1762 244.182 86.7662 240.378 84.6242C242.471 82.0798 244.752 79.6952 247.2 77.4902C250.26 82.3742 253.134 90.4922 258.558 91.0262C256.466 93.5739 254.186 95.9607 251.736 98.1662Z" fill="#EBEBEB"/>
<path d="M256.8 92.5199C256.248 92.3459 256.248 91.6919 256.77 91.1399C252.744 89.3999 250.2 83.4719 247.674 79.1999C247.569 79.2956 247.444 79.3669 247.308 79.4084C247.172 79.45 247.028 79.4608 246.888 79.4401C246.747 79.4194 246.613 79.3678 246.494 79.2889C246.376 79.21 246.277 79.1058 246.204 78.9839C244.848 80.2439 243.45 81.6479 242.004 83.2799C242.382 83.6339 242.268 84.3959 241.746 84.9659C244.746 87.5219 247.398 93.0659 250.884 96.7799C251.134 96.5924 251.438 96.4911 251.751 96.4911C252.063 96.4911 252.368 96.5924 252.618 96.7799C253.968 95.5319 255.36 94.1339 256.818 92.5199H256.8ZM247.2 89.3999C246.822 88.866 246.65 88.2132 246.716 87.5624C246.782 86.9116 247.082 86.3068 247.56 85.8599C248.514 85.0799 249.864 85.5239 250.632 86.7479C251.4 87.9719 251.31 89.4959 250.356 90.2459C249.402 90.9959 248.004 90.5999 247.2 89.3999Z" fill="#E0E0E0"/>
<path d="M248.184 89.0221L247.926 89.2201L247.776 88.9861L248.028 88.7881C247.871 88.5283 247.78 88.2335 247.764 87.9301L248.076 87.8761C248.084 88.1283 248.152 88.375 248.274 88.5961L248.724 88.2481C248.586 87.8761 248.448 87.4621 248.766 87.2161C248.994 87.0361 249.336 87.1021 249.654 87.5341L249.912 87.3361L250.062 87.5761L249.81 87.7681C249.934 87.9847 250.015 88.223 250.05 88.4701L249.744 88.5241C249.714 88.3278 249.653 88.1375 249.564 87.9601L249.108 88.3141C249.252 88.6861 249.402 89.1001 249.108 89.3401C248.814 89.5801 248.508 89.4541 248.184 89.0221ZM249 88.0321L249.408 87.7261C249.252 87.5341 249.114 87.5101 249.012 87.5881C248.91 87.6661 248.934 87.8341 249 88.0321ZM248.82 88.9801C248.934 88.8961 248.904 88.7281 248.82 88.5241L248.418 88.8361C248.592 89.0281 248.724 89.0581 248.82 88.9801Z" fill="#E0E0E0"/>
<path d="M145.452 86.334C141.426 91.524 137.748 97.08 136.122 103.014C133.41 101.892 130.626 100.764 127.908 99.45C130.038 93.276 133.716 87.858 137.238 82.77C139.95 83.892 142.734 85.02 145.452 86.334Z" fill="#EBEBEB"/>
<path d="M138.498 83.8019C138.296 84.0735 138.011 84.2723 137.687 84.3686C137.362 84.4648 137.016 84.4534 136.698 84.3359C133.794 88.5779 130.89 93.0539 128.934 98.0159C129.23 98.1744 129.459 98.4329 129.581 98.7452C129.703 99.0575 129.71 99.4031 129.6 99.7199C131.298 100.5 133.014 101.226 134.712 101.934C134.755 101.786 134.828 101.649 134.928 101.532C135.028 101.416 135.152 101.322 135.291 101.257C135.431 101.192 135.582 101.158 135.736 101.157C135.89 101.155 136.042 101.187 136.182 101.25C137.832 96.4199 140.73 91.8599 143.946 87.5459C143.806 87.4839 143.683 87.3899 143.586 87.2715C143.489 87.1531 143.421 87.0136 143.387 86.8642C143.354 86.7148 143.356 86.5596 143.394 86.4113C143.432 86.2629 143.504 86.1254 143.604 86.0099C141.9 85.2299 140.19 84.5039 138.492 83.7959L138.498 83.8019ZM138 93.5999C137.68 94.1905 137.154 94.6429 136.523 94.8708C135.891 95.0987 135.197 95.0863 134.574 94.8359C134.284 94.6967 134.026 94.4977 133.818 94.252C133.61 94.0063 133.456 93.7194 133.367 93.4101C133.277 93.1008 133.254 92.7761 133.299 92.4573C133.343 92.1385 133.455 91.8326 133.626 91.5599C133.969 90.9697 134.514 90.5233 135.16 90.3028C135.806 90.0823 136.51 90.1026 137.142 90.3599C137.432 90.4953 137.688 90.6925 137.893 90.9378C138.098 91.1831 138.247 91.4703 138.328 91.7793C138.41 92.0883 138.423 92.4115 138.367 92.7261C138.31 93.0407 138.185 93.339 138 93.5999Z" fill="#E0E0E0"/>
<path d="M137.082 92.904L137.406 93.054L137.268 93.294L136.944 93.144C136.787 93.3998 136.563 93.6074 136.296 93.744L136.074 93.474C136.298 93.3625 136.491 93.1951 136.632 92.988L136.032 92.718C135.768 93.006 135.462 93.318 135.06 93.126C134.766 92.988 134.628 92.646 134.85 92.166L134.526 92.016L134.664 91.776L134.988 91.926C135.122 91.717 135.302 91.5423 135.516 91.416L135.738 91.668C135.568 91.7732 135.419 91.9096 135.3 92.07L135.9 92.34C136.17 92.052 136.5 91.74 136.89 91.932C137.184 92.082 137.31 92.4 137.082 92.904ZM135.702 92.568L135.186 92.328C135.096 92.55 135.15 92.688 135.276 92.748C135.402 92.808 135.552 92.718 135.702 92.568ZM136.692 92.334C136.548 92.268 136.404 92.364 136.254 92.52L136.77 92.754C136.86 92.526 136.8 92.4 136.692 92.334Z" fill="#E0E0E0"/>
<path d="M247.758 117.102C243.726 122.292 240.054 127.848 238.428 133.782C235.716 132.66 232.932 131.532 230.214 130.218C232.344 124.044 236.022 118.626 239.538 113.538C242.256 114.66 245.04 115.8 247.758 117.102Z" fill="#EBEBEB"/>
<path d="M240.804 114.564C240.603 114.837 240.319 115.038 239.994 115.135C239.67 115.233 239.322 115.222 239.004 115.104C236.1 119.34 233.196 123.822 231.24 128.784C231.537 128.939 231.768 129.196 231.892 129.508C232.015 129.82 232.022 130.165 231.912 130.482C233.61 131.268 235.326 131.988 237.024 132.702C237.066 132.554 237.139 132.416 237.238 132.299C237.338 132.181 237.462 132.087 237.602 132.022C237.741 131.957 237.893 131.923 238.047 131.922C238.201 131.922 238.354 131.954 238.494 132.018C240.144 127.218 243.042 122.628 246.258 118.314C246.118 118.252 245.995 118.158 245.898 118.04C245.801 117.921 245.733 117.782 245.699 117.632C245.666 117.483 245.668 117.328 245.706 117.179C245.744 117.031 245.816 116.893 245.916 116.778C244.218 116.004 242.508 115.278 240.81 114.57L240.804 114.564ZM240.276 124.38C239.956 124.971 239.43 125.423 238.799 125.651C238.167 125.879 237.473 125.866 236.85 125.616C236.559 125.477 236.301 125.279 236.092 125.033C235.883 124.788 235.729 124.501 235.64 124.191C235.55 123.881 235.527 123.556 235.572 123.237C235.618 122.918 235.73 122.612 235.902 122.34C236.253 121.764 236.799 121.332 237.44 121.123C238.082 120.914 238.777 120.941 239.4 121.2C239.682 121.335 239.932 121.529 240.133 121.769C240.333 122.009 240.48 122.289 240.563 122.59C240.646 122.892 240.664 123.208 240.614 123.516C240.565 123.825 240.449 124.12 240.276 124.38Z" fill="#E0E0E0"/>
<path d="M239.4 123.672L239.724 123.822C239.676 123.9 239.628 123.978 239.586 124.062L239.262 123.912C239.1 124.166 238.875 124.373 238.608 124.512L238.392 124.242C238.615 124.129 238.807 123.962 238.95 123.756L238.35 123.486C238.086 123.774 237.78 124.086 237.378 123.894C237.084 123.756 236.946 123.414 237.168 122.934L236.844 122.784C236.886 122.7 236.934 122.622 236.982 122.544L237.306 122.694C237.439 122.483 237.62 122.307 237.834 122.178L238.05 122.436C237.883 122.543 237.737 122.679 237.618 122.838L238.218 123.108C238.488 122.82 238.818 122.508 239.208 122.7C239.49 122.85 239.61 123.186 239.4 123.672ZM238.02 123.336L237.504 123.096C237.414 123.318 237.468 123.456 237.594 123.516C237.72 123.576 237.858 123.486 238.008 123.336H238.02ZM239.01 123.102C238.866 123.036 238.722 123.132 238.572 123.282L239.082 123.522C239.166 123.294 239.124 123.156 238.998 123.102H239.01Z" fill="#E0E0E0"/>
<path d="M221.892 47.1958C221.574 40.6498 215.718 36.1438 215.4 29.5978L223.8 26.5078C224.124 33.0538 229.974 37.5598 230.298 44.0998L221.892 47.1958Z" fill="#EBEBEB"/>
<path d="M228.654 44.1902C228.619 43.8482 228.694 43.5041 228.868 43.2075C229.041 42.9109 229.305 42.6772 229.62 42.5402C228.606 37.4462 224.55 33.4802 223.548 28.3862C223.409 28.4475 223.257 28.4741 223.105 28.4638C222.953 28.4535 222.806 28.4065 222.676 28.3269C222.546 28.2472 222.438 28.1374 222.36 28.0066C222.282 27.8759 222.237 27.7282 222.228 27.5762L217.008 29.5022C217.043 29.8434 216.969 30.1871 216.797 30.4836C216.624 30.7801 216.362 31.0142 216.048 31.1522C217.05 36.2462 221.106 40.2182 222.12 45.3122C222.259 45.2508 222.41 45.2239 222.561 45.2339C222.712 45.2438 222.859 45.2903 222.988 45.3694C223.117 45.4485 223.225 45.5578 223.303 45.6878C223.381 45.8179 223.426 45.9649 223.434 46.1162L228.648 44.1902H228.654ZM220.584 37.5902C220.421 37.3214 220.321 37.0194 220.291 36.7066C220.261 36.3938 220.302 36.0783 220.411 35.7836C220.52 35.4889 220.694 35.2225 220.921 35.0045C221.147 34.7864 221.42 34.6222 221.718 34.5242C222.371 34.3102 223.078 34.327 223.72 34.5716C224.362 34.8163 224.901 35.274 225.246 35.8682C225.41 36.1362 225.512 36.438 225.542 36.7508C225.573 37.0636 225.533 37.3793 225.425 37.6743C225.316 37.9693 225.142 38.2359 224.916 38.4541C224.69 38.6723 224.417 38.8364 224.118 38.9342C223.462 39.1476 222.752 39.128 222.108 38.8788C221.464 38.6296 220.926 38.166 220.584 37.5662V37.5902Z" fill="#E0E0E0"/>
<path d="M221.808 37.3979L221.46 37.5239L221.328 37.2899L221.67 37.1579C221.534 36.9135 221.483 36.6305 221.526 36.3539H221.91C221.871 36.5818 221.902 36.8163 222 37.0259L222.6 36.7979C222.504 36.4439 222.426 36.0539 222.852 35.8979C223.044 35.8433 223.249 35.8564 223.433 35.9351C223.616 36.0138 223.767 36.1532 223.86 36.3299L224.208 36.2039L224.346 36.4439L223.998 36.5699C224.103 36.7733 224.153 37.0011 224.142 37.2299H223.8C223.809 37.0469 223.776 36.8643 223.704 36.6959L223.104 36.9299C223.2 37.2839 223.29 37.6739 222.858 37.8299C222.66 37.8969 222.445 37.89 222.252 37.8106C222.059 37.7312 221.901 37.5846 221.808 37.3979ZM223.008 36.6719L223.554 36.4679C223.404 36.2759 223.248 36.2279 223.11 36.2759C222.972 36.3239 222.954 36.4859 222.996 36.6719H223.008ZM222.594 37.4759C222.744 37.4219 222.744 37.2659 222.702 37.0739L222.156 37.2719C222.294 37.4759 222.45 37.5239 222.6 37.4759H222.594Z" fill="#E0E0E0"/>
<path d="M51.8579 124.728C51.5339 118.2 45.6839 113.676 45.3599 107.13L53.7599 104.04C54.0839 110.586 59.9339 115.086 60.2579 121.632L51.8579 124.728Z" fill="#EBEBEB"/>
<path d="M58.6201 121.722C58.5847 121.381 58.6587 121.037 58.8312 120.741C59.0037 120.444 59.2659 120.21 59.5801 120.072C58.5721 114.978 54.5161 111.012 53.5081 105.912C53.3693 105.975 53.2173 106.002 53.0653 105.993C52.9133 105.984 52.7659 105.937 52.6359 105.858C52.5058 105.779 52.3971 105.669 52.319 105.539C52.241 105.408 52.196 105.26 52.1881 105.108L46.9681 107.034C47.0034 107.375 46.9294 107.719 46.7569 108.015C46.5844 108.312 46.3222 108.546 46.0081 108.684C47.0161 113.778 51.0721 117.75 52.0801 122.844C52.2188 122.781 52.3708 122.753 52.5228 122.763C52.6748 122.772 52.8222 122.818 52.9522 122.898C53.0823 122.977 53.1911 123.087 53.2691 123.217C53.3471 123.348 53.3921 123.496 53.4001 123.648L58.6201 121.722ZM50.5441 115.122C50.3812 114.853 50.2811 114.551 50.2511 114.238C50.2212 113.926 50.2623 113.61 50.3713 113.315C50.4803 113.021 50.6545 112.754 50.8807 112.536C51.107 112.318 51.3795 112.154 51.6781 112.056C52.3303 111.844 53.0356 111.861 53.6765 112.106C54.3174 112.35 54.8551 112.807 55.2001 113.4C55.3642 113.668 55.4655 113.97 55.4964 114.283C55.5273 114.595 55.487 114.911 55.3785 115.206C55.2699 115.501 55.096 115.768 54.8698 115.986C54.6435 116.204 54.3708 116.368 54.0721 116.466C53.4163 116.678 52.7077 116.657 52.0652 116.408C51.4227 116.159 50.8856 115.696 50.5441 115.098V115.122Z" fill="#E0E0E0"/>
<path d="M51.7681 114.93L51.4201 115.056L51.2881 114.816L51.6301 114.69C51.4983 114.444 51.4499 114.162 51.4921 113.886H51.8761C51.8336 114.114 51.8651 114.349 51.9661 114.558L52.5661 114.33C52.4641 113.976 52.3861 113.586 52.8181 113.43C53.0101 113.374 53.2156 113.387 53.3994 113.465C53.5832 113.544 53.734 113.684 53.8261 113.862L54.1741 113.736L54.3061 113.976L53.9641 114.102C54.0722 114.304 54.1201 114.533 54.1021 114.762H53.7241C53.7333 114.579 53.7004 114.396 53.6281 114.228L53.0281 114.462C53.1301 114.81 53.2141 115.206 52.7881 115.362C52.5944 115.419 52.3866 115.408 52.2004 115.329C52.0143 115.25 51.8614 115.109 51.7681 114.93ZM52.9681 114.204L53.5201 114C53.4766 113.923 53.409 113.862 53.3277 113.827C53.2463 113.793 53.1558 113.786 53.0701 113.808C52.9141 113.862 52.9141 114 52.9561 114.204H52.9681ZM52.5541 115.008C52.7101 114.954 52.7101 114.798 52.6621 114.6L52.1161 114.804C52.2601 115.008 52.4101 115.056 52.5421 115.008H52.5541Z" fill="#E0E0E0"/>
<path d="M73.2901 47.0638C71.0041 53.3758 63.0901 53.2498 60.4861 58.6018C58.0501 56.4598 55.6861 54.4018 53.3281 52.5658C55.6081 46.2538 63.5281 46.3798 66.1321 41.0278C68.5621 43.1998 70.9621 45.2098 73.2901 47.0638Z" fill="#EBEBEB"/>
<path d="M67.296 42.6299C66.99 43.1939 66.234 43.1879 65.682 42.6959C62.838 46.4039 57.066 47.0159 54.45 51.3479C54.7053 51.5742 54.881 51.8766 54.9512 52.2105C55.0215 52.5443 54.9825 52.8919 54.84 53.2019C56.308 54.4019 57.8 55.6699 59.316 57.0059C59.622 56.4479 60.378 56.4479 60.924 56.9399C63.768 53.2319 69.5399 52.6199 72.1619 48.2879C71.9063 48.0631 71.7302 47.7617 71.6599 47.4287C71.5897 47.0956 71.629 46.7488 71.772 46.4399C70.296 45.2399 68.802 43.9719 67.29 42.6359L67.296 42.6299ZM65.166 51.6299C64.014 52.2299 62.166 51.8939 61.056 50.8679C59.946 49.8419 59.856 48.4679 61.056 47.8679C62.256 47.2679 64.056 47.6039 65.172 48.6359C66.288 49.6679 66.312 51.0359 65.166 51.6419V51.6299Z" fill="#E0E0E0"/>
<path d="M64.416 50.6398C64.524 50.7358 64.626 50.8258 64.722 50.9218L64.5 51.0418L64.194 50.7658C63.9131 50.8892 63.6054 50.9388 63.3 50.9098L63.144 50.5918C63.4005 50.6214 63.6604 50.5864 63.9 50.4898L63.354 49.9918C63.157 50.0728 62.9421 50.0999 62.7312 50.0704C62.5203 50.0409 62.3211 49.9558 62.154 49.8238C62.0805 49.7763 62.0212 49.7098 61.9823 49.6314C61.9435 49.5529 61.9265 49.4654 61.9333 49.3782C61.9401 49.2909 61.9703 49.2071 62.0207 49.1356C62.0712 49.064 62.14 49.0075 62.22 48.9718L61.908 48.6898L62.13 48.5698L62.436 48.8458C62.6644 48.7455 62.9126 48.6983 63.162 48.7078L63.324 49.0198C63.1199 49.0163 62.9167 49.0488 62.724 49.1158L63.282 49.6258C63.4774 49.5395 63.693 49.5089 63.9048 49.5375C64.1166 49.5661 64.3164 49.6527 64.482 49.7878C64.5538 49.8365 64.6114 49.9034 64.6491 49.9815C64.6867 50.0597 64.703 50.1465 64.6963 50.233C64.6896 50.3195 64.6601 50.4027 64.6109 50.4741C64.5617 50.5456 64.4944 50.6028 64.416 50.6398ZM63 49.6918L62.508 49.2418C62.4757 49.2617 62.4491 49.2895 62.4306 49.3226C62.4121 49.3557 62.4024 49.3929 62.4024 49.4308C62.4024 49.4687 62.4121 49.506 62.4306 49.5391C62.4491 49.5721 62.4757 49.5999 62.508 49.6198C62.5801 49.6663 62.6613 49.6968 62.7461 49.7092C62.831 49.7216 62.9176 49.7157 63 49.6918ZM64.14 49.9978C64.0634 49.946 63.976 49.9125 63.8844 49.9C63.7928 49.8875 63.6996 49.8963 63.612 49.9258L64.098 50.3698C64.29 50.2378 64.284 50.1058 64.164 49.9978H64.14Z" fill="#E0E0E0"/>
<path d="M79.44 136.332C77.16 142.644 69.24 142.518 66.636 147.87C64.236 145.728 61.836 143.67 59.478 141.834C61.764 135.522 69.678 135.648 72.282 130.296C74.718 132.438 77.112 134.478 79.44 136.332Z" fill="#EBEBEB"/>
<path d="M73.4461 131.898C73.1401 132.456 72.3901 132.456 71.8381 131.964C68.9941 135.672 63.2221 136.284 60.6001 140.616C60.8572 140.841 61.0347 141.143 61.1061 141.477C61.1775 141.811 61.1389 142.16 60.9961 142.47C62.4661 143.67 63.9601 144.954 65.4721 146.274C65.7721 145.716 66.5281 145.716 67.0801 146.208C69.9181 142.5 75.6961 141.882 78.3121 137.556C78.0565 137.331 77.8804 137.03 77.8101 136.697C77.7398 136.364 77.7791 136.017 77.9221 135.708C76.4541 134.508 74.9621 133.24 73.4461 131.904V131.898ZM71.3161 140.898C70.1701 141.498 68.3161 141.162 67.2121 140.136C66.1081 139.11 66.0121 137.736 67.2121 137.136C68.4121 136.536 70.2121 136.872 71.3221 137.904C72.4321 138.936 72.4621 140.304 71.3161 140.91V140.898Z" fill="#E0E0E0"/>
<path d="M70.572 139.908L70.878 140.19C70.8 140.226 70.728 140.268 70.656 140.31L70.35 140.028C70.0678 140.154 69.7579 140.206 69.45 140.178C69.402 140.07 69.348 139.968 69.3 139.86C69.5565 139.889 69.8163 139.854 70.056 139.758L69.504 139.26C69.3065 139.34 69.0913 139.366 68.8804 139.336C68.6695 139.305 68.4705 139.219 68.304 139.086C68.232 139.038 68.1741 138.972 68.1362 138.894C68.0984 138.816 68.082 138.73 68.0887 138.644C68.0955 138.557 68.1251 138.474 68.1745 138.403C68.2239 138.333 68.2914 138.276 68.37 138.24L68.064 137.958L68.286 137.838L68.592 138.114C68.8188 138.014 69.0644 137.965 69.312 137.97C69.366 138.078 69.426 138.18 69.48 138.282C69.2755 138.28 69.0722 138.314 68.88 138.384L69.432 138.888C69.6289 138.807 69.8438 138.78 70.0547 138.809C70.2656 138.839 70.4648 138.924 70.632 139.056C70.704 139.104 70.762 139.171 70.8001 139.248C70.8383 139.326 70.8551 139.413 70.849 139.499C70.8429 139.586 70.8141 139.669 70.7655 139.741C70.7168 139.813 70.6501 139.87 70.572 139.908ZM69.174 138.954L68.688 138.51C68.52 138.642 68.538 138.774 68.688 138.888C68.7598 138.933 68.8402 138.961 68.9239 138.973C69.0077 138.984 69.0929 138.978 69.174 138.954ZM70.314 139.266C70.2387 139.211 70.1511 139.176 70.059 139.164C69.9669 139.151 69.8731 139.161 69.786 139.194L70.272 139.638C70.44 139.506 70.434 139.374 70.314 139.266Z" fill="#E0E0E0"/>
<path d="M187.716 73.9202L187.416 74.0462C187.386 73.9502 187.35 73.8542 187.314 73.7522L187.608 73.6262C187.503 73.3157 187.472 72.9848 187.518 72.6602L187.842 72.7022C187.802 72.969 187.82 73.2413 187.896 73.5002L188.418 73.2722C188.352 72.8462 188.298 72.3782 188.67 72.2222C188.94 72.1022 189.27 72.2702 189.498 72.8222L189.792 72.6902L189.9 72.9842L189.606 73.1102C189.689 73.3676 189.721 73.6385 189.702 73.9082L189.384 73.8722C189.396 73.6581 189.374 73.4433 189.318 73.2362L188.79 73.4642C188.856 73.8902 188.922 74.3642 188.556 74.5202C188.286 74.6282 187.956 74.4602 187.716 73.9202ZM188.742 73.1402L189.21 72.9362C189.09 72.6962 188.958 72.6242 188.844 72.6782C188.73 72.7322 188.712 72.9122 188.742 73.1402ZM188.364 74.0642C188.496 74.0102 188.502 73.8242 188.466 73.5902L188.004 73.7942C188.124 74.0402 188.256 74.1122 188.364 74.0642Z" fill="#E0E0E0"/>
<path d="M95.8261 66.7382C95.8621 66.8342 95.8921 66.9422 95.9281 67.0442L95.6521 67.1042C95.6161 67.0022 95.5861 66.9002 95.5561 66.7982C95.2569 66.8588 94.9472 66.8423 94.6561 66.7502C94.6561 66.6482 94.6981 66.5462 94.7161 66.4382C94.9552 66.5194 95.2104 66.5421 95.4601 66.5042C95.4001 66.3242 95.3401 66.1382 95.2861 65.9582C94.8841 65.9582 94.4521 65.9582 94.3261 65.5682C94.2421 65.2862 94.4161 64.9682 94.9261 64.8422C94.8961 64.7402 94.8601 64.6382 94.8301 64.5302L95.1061 64.4702C95.1061 64.5722 95.1721 64.6742 95.2021 64.7762C95.4457 64.7279 95.6965 64.7279 95.9401 64.7762C95.9401 64.8782 95.9401 64.9802 95.8921 65.0822C95.6935 65.0486 95.4907 65.0486 95.2921 65.0822C95.3461 65.2682 95.4061 65.4482 95.4661 65.6342C95.8621 65.6342 96.3061 65.6342 96.4201 66.0062C96.5221 66.2762 96.3421 66.6002 95.8261 66.7382ZM95.1781 65.6282C95.1301 65.4662 95.0761 65.2982 95.0281 65.1422C94.7941 65.2202 94.7221 65.3402 94.7641 65.4602C94.8061 65.5802 94.9681 65.6222 95.1781 65.6282ZM96.0121 66.1202C95.9701 65.9822 95.7961 65.9582 95.5801 65.9522C95.6341 66.1142 95.6821 66.2762 95.7361 66.4382C96.0001 66.3542 96.0481 66.2342 96.0001 66.1202H96.0121Z" fill="#E0E0E0"/>
<path d="M154.422 49.404L154.164 49.602L154.014 49.368L154.266 49.17C154.109 48.9101 154.018 48.6154 154.002 48.312L154.314 48.258C154.323 48.5102 154.39 48.7569 154.512 48.978L154.968 48.63C154.824 48.258 154.686 47.844 155.004 47.598C155.322 47.352 155.604 47.484 155.892 47.916L156.15 47.718L156.3 47.958L156.048 48.15C156.172 48.3665 156.253 48.6048 156.288 48.852L155.982 48.906C155.952 48.7097 155.891 48.5193 155.802 48.342L155.346 48.696C155.49 49.068 155.64 49.482 155.346 49.722C155.052 49.962 154.746 49.836 154.422 49.404ZM155.238 48.414L155.646 48.108C155.49 47.916 155.352 47.892 155.25 47.964C155.148 48.036 155.172 48.216 155.238 48.414ZM155.064 49.362C155.172 49.278 155.142 49.11 155.064 48.906L154.662 49.212C154.83 49.41 154.962 49.44 155.064 49.362Z" fill="#E0E0E0"/>
<path d="M173.262 111.396L172.944 111.45C172.944 111.354 172.944 111.258 172.944 111.168L173.262 111.114C173.249 110.81 173.311 110.507 173.442 110.232L173.742 110.34C173.628 110.563 173.568 110.81 173.568 111.06L174.138 110.97C174.186 110.574 174.264 110.148 174.66 110.082C174.948 110.034 175.212 110.25 175.29 110.784L175.608 110.736V111.018L175.296 111.066C175.305 111.316 175.264 111.564 175.176 111.798L174.876 111.702C174.949 111.51 174.987 111.307 174.99 111.102L174.42 111.198C174.366 111.594 174.306 112.026 173.91 112.092C173.616 112.146 173.346 111.93 173.262 111.396ZM174.462 110.916L174.966 110.832C174.918 110.592 174.81 110.508 174.684 110.526C174.558 110.544 174.492 110.706 174.456 110.916H174.462ZM173.862 111.666C174 111.666 174.054 111.48 174.09 111.264L173.586 111.342C173.622 111.6 173.724 111.684 173.844 111.666H173.862Z" fill="#E0E0E0"/>
<path d="M150 223.536C214.249 223.536 266.334 220.495 266.334 216.744C266.334 212.993 214.249 209.952 150 209.952C85.7505 209.952 33.666 212.993 33.666 216.744C33.666 220.495 85.7505 223.536 150 223.536Z" fill="#F5F5F5"/>
<path d="M103.152 41.646C97.4099 38.43 92.1539 31.494 87.6299 30C89.06 27.0314 90.7358 24.1875 92.6399 21.498C97.1639 25.884 102.42 33.594 108.162 33.138C106.728 36.1066 105.052 38.9522 103.152 41.646Z" fill="#DE7A4A"/>
<path opacity="0.5" d="M103.152 41.646C97.4099 38.43 92.1539 31.494 87.6299 30C89.06 27.0314 90.7358 24.1875 92.6399 21.498C97.1639 25.884 102.42 33.594 108.162 33.138C106.728 36.1066 105.052 38.9522 103.152 41.646Z" fill="white"/>
<path opacity="0.2" d="M106.8 34.9742C106.2 34.9022 106.002 34.2422 106.374 33.5822C101.742 32.5862 97.446 26.9822 93.63 23.1362C93.5365 23.2536 93.4187 23.3494 93.2846 23.4169C93.1506 23.4843 93.0035 23.5219 92.8535 23.5271C92.7035 23.5322 92.5541 23.5048 92.4158 23.4466C92.2774 23.3884 92.1533 23.301 92.052 23.1902C90.9227 24.8496 89.8793 26.5658 88.926 28.3322C89.1759 28.5448 89.3369 28.8435 89.3769 29.1691C89.4169 29.4947 89.3331 29.8235 89.142 30.0902C92.964 32.1302 97.254 37.2902 101.892 40.3922C102.115 40.1483 102.412 39.9849 102.738 39.9274C103.063 39.8699 103.399 39.9215 103.692 40.0742C104.818 38.4264 105.86 36.7222 106.812 34.9682L106.8 34.9742ZM96.036 33.6002C94.896 32.5382 94.632 30.9002 95.4 29.9402C96.168 28.9802 97.686 29.1722 98.826 30.2702C99.966 31.3682 100.29 32.9342 99.522 33.8702C98.754 34.8062 97.2 34.6742 96.036 33.6002Z" fill="black"/>
<g opacity="0.2">
<path d="M96.906 33L96.702 33.246L96.474 33.036C96.546 32.952 96.612 32.868 96.684 32.79C96.4492 32.5584 96.2724 32.2747 96.168 31.962L96.48 31.854C96.5598 32.1133 96.6972 32.3512 96.882 32.55L97.248 32.106C96.996 31.758 96.738 31.362 96.996 31.056C97.254 30.75 97.554 30.834 98.004 31.212C98.076 31.134 98.142 31.05 98.214 30.966L98.436 31.182L98.232 31.428C98.4208 31.6176 98.5715 31.8416 98.676 32.088L98.376 32.208C98.2921 32.0088 98.1766 31.8244 98.034 31.662L97.662 32.106C97.914 32.454 98.184 32.85 97.926 33.156C97.668 33.462 97.368 33.396 96.906 33ZM97.506 31.842L97.83 31.452C97.62 31.29 97.47 31.29 97.392 31.386C97.314 31.482 97.35 31.674 97.476 31.866L97.506 31.842ZM97.59 32.838C97.68 32.73 97.59 32.568 97.464 32.37L97.14 32.76C97.332 32.952 97.476 32.958 97.56 32.862L97.59 32.838Z" fill="black"/>
</g>
<path d="M152.4 67.0381C147.12 69.8821 139.128 70.2421 135.792 73.0681C134.118 70.2264 132.662 67.2619 131.436 64.2001C137.07 63.0001 145.68 63.0781 148.044 58.1641C149.717 61.0083 151.173 63.9747 152.4 67.0381Z" fill="#DE7A4A"/>
<path opacity="0.5" d="M152.4 67.0381C147.12 69.8821 139.128 70.2421 135.792 73.0681C134.118 70.2264 132.662 67.2619 131.436 64.2001C137.07 63.0001 145.68 63.0781 148.044 58.1641C149.717 61.0083 151.173 63.9747 152.4 67.0381Z" fill="white"/>
<path opacity="0.2" d="M148.842 60.3418C148.494 60.7978 147.882 60.5758 147.54 59.9038C144.54 63.0958 138.084 63.4438 133.2 64.3558C133.253 64.488 133.276 64.6302 133.268 64.7723C133.26 64.9145 133.221 65.0531 133.153 65.1785C133.086 65.3038 132.992 65.4128 132.877 65.4977C132.763 65.5826 132.631 65.6414 132.492 65.6698C133.212 67.3738 134.052 69.1618 135.084 71.0698C135.552 70.8358 136.23 71.2018 136.584 71.8918C140.016 69.9418 146.13 69.3538 150.81 67.3558C150.721 67.0554 150.732 66.7345 150.84 66.4406C150.948 66.1467 151.148 65.8953 151.41 65.7238C150.696 64.0258 149.862 62.2438 148.842 60.3238V60.3418ZM142.65 68.2798C142.019 68.454 141.346 68.393 140.757 68.1083C140.167 67.8235 139.702 67.3344 139.446 66.7318C139.044 65.5678 139.92 64.4518 141.336 64.1458C142.752 63.8398 144.144 64.4578 144.522 65.6098C144.9 66.7618 144.042 67.9618 142.65 68.2798Z" fill="black"/>
<g opacity="0.2">
<path d="M142.608 67.2478C142.644 67.3498 142.674 67.4518 142.704 67.5538L142.428 67.6198C142.428 67.5178 142.362 67.4158 142.332 67.3138C142.032 67.3707 141.724 67.3542 141.432 67.2658C141.432 67.1578 141.474 67.0558 141.498 66.9538C141.735 67.0357 141.989 67.0563 142.236 67.0138C142.182 66.8338 142.122 66.6538 142.062 66.4678C141.666 66.4678 141.228 66.4678 141.108 66.0778C141.018 65.8018 141.192 65.5078 141.708 65.3518C141.672 65.2498 141.642 65.1478 141.606 65.0458L141.888 64.9858C141.888 65.0878 141.948 65.1898 141.984 65.2918C142.227 65.2409 142.478 65.2409 142.722 65.2918L142.668 65.5978C142.469 65.5643 142.266 65.5643 142.068 65.5978C142.128 65.7778 142.188 65.9638 142.242 66.1498C142.644 66.1498 143.082 66.1498 143.202 66.5218C143.304 66.7858 143.124 67.0858 142.608 67.2478ZM141.96 66.1378C141.906 65.9758 141.858 65.8138 141.804 65.6518C141.576 65.7358 141.504 65.8558 141.54 65.9758C141.576 66.0958 141.75 66.1318 141.96 66.1378ZM142.788 66.6298C142.746 66.4978 142.578 66.4678 142.362 66.4678C142.41 66.6298 142.464 66.7918 142.512 66.9478C142.752 66.8638 142.8 66.7498 142.8 66.6298H142.788Z" fill="black"/>
</g>
<path d="M195.558 29.2322C189.33 31.3322 183.204 33.9302 178.566 37.9802C176.922 35.5442 175.23 33.0662 173.688 30.4682C178.878 26.5022 184.932 24.0002 190.68 21.7202C192.324 24.1562 194.016 26.6342 195.558 29.2322Z" fill="#DE7A4A"/>
<path opacity="0.5" d="M195.558 29.2322C189.33 31.3322 183.204 33.9302 178.566 37.9802C176.922 35.5442 175.23 33.0662 173.688 30.4682C178.878 26.5022 184.932 24.0002 190.68 21.7202C192.324 24.1562 194.016 26.6342 195.558 29.2322Z" fill="white"/>
<path opacity="0.2" d="M191.16 23.274C190.841 23.3913 190.493 23.4014 190.168 23.3028C189.843 23.2043 189.56 23.0025 189.36 22.728C184.596 24.654 179.7 26.784 175.332 29.838C175.495 30.1336 175.546 30.4779 175.477 30.8081C175.407 31.1384 175.222 31.4329 174.954 31.638C175.938 33.228 176.964 34.776 177.99 36.306C178.107 36.2058 178.244 36.132 178.392 36.0897C178.54 36.0474 178.695 36.0376 178.847 36.061C179 36.0843 179.145 36.1403 179.273 36.2251C179.402 36.3098 179.51 36.4214 179.592 36.552C183.636 33.432 188.592 31.236 193.632 29.418C193.549 29.2886 193.498 29.1415 193.483 28.9888C193.468 28.836 193.489 28.6818 193.545 28.5387C193.6 28.3956 193.689 28.2675 193.803 28.1649C193.917 28.0623 194.054 27.988 194.202 27.948C193.218 26.364 192.186 24.816 191.166 23.286L191.16 23.274ZM185.304 31.164C184.711 31.4799 184.022 31.5664 183.369 31.4071C182.716 31.2477 182.145 30.8537 181.764 30.3C181.598 30.0239 181.493 29.7158 181.455 29.3961C181.417 29.0764 181.447 28.7522 181.544 28.445C181.64 28.1378 181.8 27.8545 182.014 27.6137C182.228 27.3729 182.49 27.1801 182.784 27.048C183.399 26.7448 184.103 26.6756 184.766 26.8534C185.428 27.0311 186.003 27.4436 186.384 28.014C186.545 28.2866 186.645 28.5907 186.677 28.9056C186.709 29.2204 186.672 29.5385 186.57 29.8379C186.467 30.1373 186.301 30.4109 186.082 30.6398C185.864 30.8687 185.598 31.0476 185.304 31.164Z" fill="black"/>
<g opacity="0.2">
<path d="M184.956 30.0841L185.142 30.3901L184.89 30.5101L184.704 30.2101C184.429 30.3384 184.124 30.3902 183.822 30.3601C183.822 30.2461 183.822 30.1261 183.792 30.0121C184.04 30.044 184.292 30.0109 184.524 29.9161C184.416 29.7301 184.302 29.5501 184.188 29.3701C183.804 29.4661 183.384 29.5501 183.156 29.1721C182.982 28.8961 183.06 28.5361 183.51 28.2601L183.318 27.9481L183.57 27.8281L183.756 28.1281C183.983 28.0306 184.229 27.9855 184.476 27.9961C184.476 28.1041 184.506 28.2181 184.524 28.3321C184.32 28.3245 184.117 28.355 183.924 28.4221L184.26 28.9741C184.644 28.8841 185.076 28.8001 185.31 29.1781C185.49 29.4541 185.4 29.8021 184.956 30.0841ZM183.99 29.0401L183.69 28.5541C183.492 28.6921 183.462 28.8361 183.534 28.9561C183.606 29.0761 183.78 29.0821 183.99 29.0401ZM184.944 29.3881C184.86 29.2561 184.686 29.2621 184.476 29.3041L184.77 29.7841C184.974 29.6461 185.016 29.5081 184.944 29.4001V29.3881Z" fill="black"/>
</g>
<path d="M85.9079 93.1982C81.3719 88.4702 73.9979 88.9142 69.4619 84.1982C70.8899 81.5902 72.3199 78.9802 73.7519 76.3682C78.2879 81.0962 85.6619 80.6582 90.1979 85.3682C88.7699 87.9802 87.3399 90.5902 85.9079 93.1982Z" fill="#DE7A4A"/>
<path opacity="0.5" d="M85.9079 93.1982C81.3719 88.4702 73.9979 88.9142 69.4619 84.1982C70.8899 81.5902 72.3199 78.9802 73.7519 76.3682C78.2879 81.0962 85.6619 80.6582 90.1979 85.3682C88.7699 87.9802 87.3399 90.5902 85.9079 93.1982Z" fill="white"/>
<path opacity="0.2" d="M89.04 86.4959C88.7877 86.2621 88.6167 85.9538 88.552 85.6159C88.4872 85.2781 88.5321 84.9284 88.68 84.6179C84.576 81.4379 78.912 81.1079 74.808 77.9219C74.7437 78.0598 74.6467 78.1799 74.5255 78.2719C74.4043 78.3638 74.2626 78.4249 74.1124 78.4497C73.9623 78.4745 73.8085 78.4623 73.6641 78.4143C73.5197 78.3662 73.3893 78.2837 73.284 78.1739L70.614 83.0579C70.864 83.292 71.033 83.5995 71.0967 83.9361C71.1603 84.2726 71.1153 84.6207 70.968 84.9299C75.072 88.1159 80.736 88.4459 84.84 91.6319C84.9037 91.4936 85.0002 91.3729 85.1212 91.2803C85.2421 91.1877 85.3838 91.126 85.5339 91.1006C85.6841 91.0752 85.8382 91.0868 85.9828 91.1344C86.1275 91.182 86.2583 91.2642 86.364 91.3739L89.034 86.4959H89.04ZM78.6 86.7959C78.301 86.6993 78.0275 86.5367 77.7999 86.32C77.5723 86.1034 77.3963 85.8383 77.2851 85.5444C77.1739 85.2505 77.1302 84.9353 77.1574 84.6222C77.1846 84.3092 77.2818 84.0062 77.442 83.7359C77.7957 83.1438 78.3427 82.6916 78.9907 82.4556C79.6388 82.2195 80.3483 82.214 81 82.4399C81.2992 82.5343 81.5732 82.6951 81.8015 82.9103C82.0299 83.1255 82.2066 83.3895 82.3185 83.6826C82.4305 83.9757 82.4747 84.2903 82.4479 84.6029C82.4212 84.9155 82.3241 85.2181 82.164 85.4879C81.8119 86.0834 81.2647 86.539 80.6152 86.7773C79.9657 87.0157 79.2538 87.0223 78.6 86.7959Z" fill="black"/>
<g opacity="0.2">
<path d="M79.4099 85.8659C79.3559 85.9739 79.2959 86.0819 79.2359 86.1899L78.9779 86.0939L79.1519 85.7759C78.8897 85.6772 78.6665 85.4961 78.5159 85.2599L78.8159 85.0199C78.9371 85.2161 79.1149 85.3709 79.3259 85.4639C79.4279 85.2719 79.5359 85.0799 79.6439 84.8639C79.3379 84.6599 79.0439 84.4199 79.2419 84.0179C79.3502 83.8499 79.5138 83.725 79.7044 83.6647C79.895 83.6045 80.1007 83.6127 80.2859 83.6879L80.4659 83.3579L80.7239 83.4539L80.5439 83.7719C80.7585 83.8547 80.9456 83.9961 81.0839 84.1799L80.7959 84.4199C80.6818 84.2789 80.5385 84.1642 80.3759 84.0839L80.0579 84.6839C80.3639 84.8879 80.6579 85.1279 80.4659 85.5299C80.3555 85.6991 80.1902 85.8249 79.9978 85.8861C79.8053 85.9473 79.5976 85.9402 79.4099 85.8659ZM79.8299 84.5399L80.1119 84.0239C79.8719 83.9759 79.7219 84.0239 79.6559 84.1739C79.5899 84.3239 79.6799 84.4199 79.8299 84.5399ZM80.0519 85.4159C80.1299 85.2719 80.0519 85.1579 79.8659 85.0379L79.5839 85.5479C79.8299 85.6019 79.9799 85.5359 80.0519 85.4159Z" fill="black"/>
</g>
<path d="M234.318 69.1439C230.034 74.3159 222.654 71.5439 218.37 75.6779C216.804 72.8399 215.238 70.1099 213.672 67.5779C217.956 62.4059 225.336 65.1779 229.62 61.0439C231.186 63.8819 232.752 66.5999 234.318 69.1439Z" fill="#DE7A4A"/>
<path opacity="0.5" d="M234.318 69.1439C230.034 74.3159 222.654 71.5439 218.37 75.6779C216.804 72.8399 215.238 70.1099 213.672 67.5779C217.956 62.4059 225.336 65.1779 229.62 61.0439C231.186 63.8819 232.752 66.5999 234.318 69.1439Z" fill="white"/>
<path opacity="0.2" d="M230.172 62.946C229.698 63.372 228.972 63.114 228.636 62.46C224.706 64.992 219.066 63.618 215.142 66.81C215.305 67.1095 215.368 67.4534 215.322 67.7914C215.276 68.1294 215.122 68.4436 214.884 68.688C215.856 70.326 216.834 72.03 217.812 73.782C218.286 73.356 219.012 73.614 219.348 74.262C223.272 71.73 228.912 73.104 232.842 69.918C232.677 69.6199 232.613 69.2765 232.66 68.9391C232.706 68.6017 232.861 68.2884 233.1 68.046C232.122 66.414 231.144 64.704 230.172 62.952V62.946ZM225.126 70.71C223.842 70.884 222.24 69.954 221.526 68.604C220.812 67.254 221.238 65.94 222.516 65.76C223.794 65.58 225.408 66.522 226.116 67.872C226.824 69.222 226.41 70.53 225.126 70.71Z" fill="black"/>
<g opacity="0.2">
<path d="M224.76 69.5159L224.952 69.8819L224.706 69.9178L224.508 69.5518C224.201 69.5774 223.892 69.5215 223.614 69.3898L223.578 69.0358C223.808 69.151 224.064 69.2066 224.322 69.1979L223.98 68.5439C223.77 68.5505 223.562 68.5019 223.376 68.4029C223.191 68.304 223.035 68.1581 222.924 67.9799C222.872 67.9104 222.84 67.8285 222.831 67.7425C222.821 67.6565 222.835 67.5696 222.871 67.4907C222.906 67.4118 222.962 67.3439 223.032 67.2938C223.103 67.2437 223.186 67.2133 223.272 67.2058L223.074 66.8339L223.326 66.7979L223.518 67.1639C223.767 67.1462 224.017 67.183 224.25 67.2718C224.25 67.3918 224.28 67.5058 224.298 67.6198C224.106 67.548 223.902 67.5133 223.698 67.5178L224.052 68.1779C224.261 68.1706 224.469 68.2182 224.654 68.3161C224.839 68.414 224.996 68.5587 225.108 68.7358C225.159 68.8058 225.191 68.8881 225.2 68.9743C225.209 69.0605 225.195 69.1476 225.16 69.2268C225.125 69.3059 225.069 69.3744 224.999 69.4251C224.928 69.4759 224.846 69.5072 224.76 69.5159ZM223.8 68.1479L223.488 67.5479C223.29 67.6199 223.26 67.7519 223.338 67.8959C223.388 67.9726 223.457 68.0358 223.537 68.0797C223.618 68.1237 223.708 68.1471 223.8 68.1479ZM224.772 68.8198C224.717 68.745 224.646 68.6839 224.564 68.6412C224.481 68.5985 224.39 68.5755 224.298 68.5738L224.604 69.1738C224.778 69.0898 224.814 68.9638 224.742 68.8198H224.772Z" fill="black"/>
</g>
<path d="M210.214 213.995C210.37 215.791 210.556 217.617 210.772 219.473H84.592C88.54 186.119 84.592 171.659 84.592 171.659C126.76 168.485 210.772 171.659 210.772 171.659C210.772 171.659 208.234 187.727 209.944 210.737C210.024 211.805 210.114 212.891 210.214 213.995Z" fill="#DE7A4A"/>
<path opacity="0.2" d="M210.772 171.659C205.246 174.239 178.216 174.605 162.664 173.639C147.112 172.673 126.76 175.619 126.76 175.619C114.976 171.551 84.592 171.659 84.592 171.659C126.76 168.485 210.772 171.659 210.772 171.659Z" fill="white"/>
<path opacity="0.2" d="M84.592 219.473C88.54 186.119 84.592 171.659 84.592 171.659C84.592 171.659 109.606 171.113 126.76 175.619C126.76 175.619 127.36 180.707 126.76 183.323C126.76 183.323 147.394 179.975 165.76 180.419C165.76 180.419 137.332 183.689 126.76 186.119C126.76 186.119 109.756 183.467 98.998 183.323C98.998 183.323 121.366 186.233 126.76 187.973C126.76 187.973 133.156 186.809 136.504 186.809C136.504 186.809 128.494 188.267 126.76 189.569V198.785C126.76 198.785 108.904 199.139 99.946 197.861C104.2 198.527 121.546 201.197 126.76 201.197C126.76 201.197 146.464 200.471 157.906 201.197C157.906 201.197 131.836 202.697 126.76 203.909H104.38L126.76 205.787V207.653H136.36L126.76 209.309C126.76 209.309 98.998 207.545 91.012 209.309C91.012 209.309 123.778 210.797 126.724 211.955L126.76 214.715C126.76 214.715 163.504 209.861 196 214.037C196 214.037 148.546 212.153 126.76 217.433C126.76 217.433 194.926 215.951 210.76 219.473H84.592Z" fill="black"/>
<path d="M85.33 175.619L82 176.783C82 176.783 102.058 177.473 115 179.453C114.988 179.453 95.05 175.907 85.33 175.619Z" fill="#DE7A4A"/>
<path opacity="0.2" d="M129.682 179.453L134.758 180.419C134.758 180.419 158.392 177.851 186.328 177.539C186.328 177.539 145.978 175.583 129.682 179.453Z" fill="white"/>
<path opacity="0.2" d="M145.696 184.883C145.696 184.883 159.868 181.019 172.294 181.211C184.72 181.403 208.372 179.453 208.372 179.453L209.302 181.211C209.302 181.211 190.756 182.297 175.45 182.171C165.471 182.19 155.514 183.098 145.696 184.883Z" fill="white"/>
<path opacity="0.2" d="M131.632 190.661C131.632 190.661 148.528 187.061 165.094 187.391C181.66 187.721 202.522 189.017 202.522 189.017C202.522 189.017 157.246 189.017 145.696 191.417L131.632 190.661Z" fill="white"/>
<path d="M160.858 185.429C160.858 185.429 175.408 184.229 187.966 184.883C200.524 185.537 213.712 186.125 213.712 186.125L209.302 187.373C209.302 187.373 179.068 184.343 160.858 185.429Z" fill="#DE7A4A"/>
<path opacity="0.2" d="M160.858 185.429C160.858 185.429 175.408 184.229 187.966 184.883C200.524 185.537 213.712 186.125 213.712 186.125L209.302 187.373C209.302 187.373 179.068 184.343 160.858 185.429Z" fill="black"/>
<path opacity="0.2" d="M132.178 193.715C132.178 193.715 157.378 193.403 169.516 192.797C181.654 192.191 197.932 195.557 197.932 195.557C197.932 195.557 177.85 195.131 171.634 196.115L132.178 193.715Z" fill="black"/>
<path opacity="0.2" d="M129.682 197.531L145.696 196.115L179.812 197.531L145.258 198.947L129.682 197.531Z" fill="white"/>
<path opacity="0.2" d="M141.658 205.049C141.658 205.049 164.944 202.877 174.016 202.763C183.088 202.649 207.502 201.017 207.502 201.017L204.79 204.617C204.79 204.617 158.884 203.639 141.658 205.049Z" fill="white"/>
<path d="M200.704 192.797L209.302 193.607L211.642 192.797C208.004 192.456 204.342 192.456 200.704 192.797Z" fill="#DE7A4A"/>
<path d="M210.388 174.647L213.712 175.181L210.142 177.047L189.142 176.603C189.142 176.603 204.886 176.393 210.388 174.647Z" fill="#DE7A4A"/>
<path opacity="0.2" d="M200.704 192.797L209.302 193.607L211.642 192.797C208.004 192.456 204.342 192.456 200.704 192.797Z" fill="white"/>
<path opacity="0.2" d="M210.388 174.647L213.712 175.181L210.142 177.047L189.142 176.603C189.142 176.603 204.886 176.393 210.388 174.647Z" fill="black"/>
<path opacity="0.2" d="M210.214 213.995C204.574 213.629 165.052 208.661 165.052 208.661C167.686 208.355 202.186 210.395 209.944 210.737C210.024 211.805 210.114 212.891 210.214 213.995Z" fill="black"/>
<path d="M150.706 207.983C150.706 207.983 187.66 207.887 198.232 208.649C208.804 209.411 209.752 207.983 209.752 207.983L215.02 210.521C215.02 210.521 215.29 213.041 201.424 211.283C187.558 209.525 150.706 207.983 150.706 207.983Z" fill="#DE7A4A"/>
<path d="M120.514 189.401C120.514 189.401 98.8719 185.969 86.2539 186.845C88.1503 187.276 89.917 188.152 91.4079 189.401H120.514Z" fill="#DE7A4A"/>
<path d="M86.23 198.785C86.722 198.731 102.43 200.801 108.43 201.017L84.01 202.001L86.23 198.785Z" fill="#DE7A4A"/>
<path d="M85.342 212.357L109.066 213.197L82 215.201L85.342 212.357Z" fill="#DE7A4A"/>
<path d="M128.566 170.039C128.566 170.039 162.262 175.799 181.804 152.741L218.62 162.191C218.62 162.191 211.846 176.243 160.966 174.377C110.086 172.511 128.566 170.039 128.566 170.039Z" fill="#DE7A4A"/>
<path opacity="0.5" d="M128.566 170.039C128.566 170.039 162.262 175.799 181.804 152.741L218.62 162.191C218.62 162.191 211.846 176.243 160.966 174.377C110.086 172.511 128.566 170.039 128.566 170.039Z" fill="white"/>
<path opacity="0.2" d="M147.808 171.281C147.808 171.281 168.406 170.195 180.052 157.019C181.121 157.35 182.265 157.352 183.335 157.024C184.405 156.697 185.351 156.055 186.052 155.183L212.926 162.305C212.926 162.305 210.034 163.319 211.048 166.667C211.024 166.667 175.75 180.959 147.808 171.281Z" fill="black"/>
<path d="M178.552 104.453L179.182 101.111C179.182 101.111 177.88 99.8748 178.03 98.7108C178.18 97.5468 183.976 95.7108 185.002 95.6088C186.028 95.5068 185.638 99.7068 185.326 100.469C185.014 101.231 181.534 102.149 181.534 102.149L181.096 105.671L178.552 104.453Z" fill="#EBB376"/>
<path d="M111.73 120.881L109.432 118.373C109.432 118.373 109.882 116.639 109.15 115.751C108.418 114.863 102.508 116.321 101.596 116.795C100.684 117.269 103.216 120.611 103.888 121.091C104.56 121.571 107.992 120.491 107.992 120.491L110.224 123.257L111.73 120.881Z" fill="#EBB376"/>
<path d="M157.432 115.493C163.894 115.133 169.75 116.483 172.756 115.493C175.762 114.503 178.678 101.999 178.678 101.999L181.84 103.067C181.84 103.067 180.64 116.081 175.444 119.567C170.248 123.053 158.206 123.023 158.206 123.023L157.432 115.493Z" fill="#DE7A4A"/>
<path opacity="0.7" d="M181.84 103.067C181.84 103.067 180.64 116.081 175.444 119.567C172.444 121.547 167.302 122.393 163.396 122.759C160.438 123.029 158.206 123.023 158.206 123.023L157.846 119.507L157.432 115.493C163.894 115.133 169.75 116.483 172.756 115.493C175.762 114.503 178.678 101.999 178.678 101.999L181.84 103.067Z" fill="white"/>
<path opacity="0.2" d="M163.396 122.759C160.438 123.029 158.206 123.023 158.206 123.023L157.846 119.507C159.857 120.288 161.731 121.386 163.396 122.759Z" fill="black"/>
<path d="M198.742 216.569L202.924 215.423L202.174 205.211L197.998 206.363L198.742 216.569Z" fill="#B97964"/>
<path d="M203.182 214.865L198.322 215.201C198.24 215.204 198.163 215.239 198.107 215.298C198.051 215.358 198.02 215.437 198.022 215.519L198.052 219.377C198.066 219.578 198.159 219.766 198.31 219.9C198.462 220.034 198.66 220.102 198.862 220.091C200.554 219.947 201.358 219.791 203.494 219.629C205.4 219.564 207.299 219.363 209.176 219.029C210.976 218.615 210.496 216.875 209.704 216.893C207.658 216.782 205.676 216.144 203.95 215.039C203.72 214.899 203.45 214.837 203.182 214.865Z" fill="#263238"/>
<path d="M204.766 215.495C204.376 215.513 203.986 215.489 203.602 215.423C203.582 215.42 203.564 215.412 203.549 215.399C203.534 215.386 203.523 215.37 203.518 215.351C203.515 215.332 203.516 215.312 203.521 215.294C203.527 215.275 203.536 215.258 203.548 215.243C203.68 215.135 204.85 214.217 205.396 214.385C205.457 214.404 205.513 214.44 205.557 214.487C205.601 214.534 205.632 214.592 205.648 214.655C205.69 214.748 205.704 214.851 205.689 214.952C205.674 215.053 205.631 215.148 205.564 215.225C205.339 215.408 205.056 215.504 204.766 215.495ZM205.336 214.595C205.048 214.505 204.352 214.919 203.872 215.273C204.658 215.369 205.222 215.309 205.414 215.093C205.452 215.041 205.477 214.98 205.486 214.916C205.494 214.852 205.486 214.787 205.462 214.727C205.452 214.697 205.436 214.669 205.414 214.646C205.392 214.623 205.365 214.606 205.336 214.595Z" fill="#263238"/>
<path d="M203.62 215.423C203.614 215.426 203.606 215.428 203.599 215.428C203.592 215.428 203.585 215.426 203.578 215.423C203.564 215.416 203.551 215.405 203.541 215.393C203.53 215.381 203.523 215.366 203.518 215.351C203.518 215.309 203.332 214.061 203.734 213.605C203.788 213.548 203.853 213.503 203.925 213.474C203.998 213.445 204.076 213.432 204.154 213.437C204.24 213.434 204.325 213.46 204.395 213.509C204.466 213.559 204.518 213.631 204.544 213.713C204.67 214.181 204.088 215.129 203.68 215.411C203.672 215.417 203.662 215.422 203.651 215.424C203.641 215.426 203.63 215.425 203.62 215.423ZM204.1 213.659C204.059 213.661 204.019 213.671 203.983 213.69C203.947 213.709 203.915 213.735 203.89 213.767C203.679 214.196 203.614 214.683 203.704 215.153C204.079 214.794 204.307 214.309 204.346 213.791C204.346 213.731 204.292 213.665 204.148 213.659H204.1Z" fill="#263238"/>
<path opacity="0.2" d="M197.998 206.363L202.18 205.217L202.606 211.055L198.4 211.991L197.998 206.363Z" fill="black"/>
<path d="M193.27 216.419L189.316 218.225L188.314 213.977L186.964 208.265L190.9 206.459L192.256 212.165L193.27 216.419Z" fill="#B97964"/>
<path opacity="0.2" d="M192.256 212.165L188.314 213.977L186.964 208.265L190.9 206.459L192.256 212.165Z" fill="black"/>
<path d="M193.432 215.831L188.692 216.941C188.613 216.956 188.542 217.001 188.496 217.067C188.45 217.134 188.432 217.215 188.446 217.295L189.094 221.105C189.113 221.204 189.152 221.299 189.208 221.383C189.265 221.467 189.337 221.539 189.421 221.595C189.506 221.651 189.6 221.689 189.7 221.708C189.799 221.727 189.901 221.726 190 221.705C191.65 221.291 192.4 221.009 194.5 220.505C196.373 220.15 198.217 219.66 200.02 219.041C201.706 218.351 200.98 216.707 200.206 216.851C198.37 217.181 195.622 216.581 194.206 215.927C193.966 215.81 193.694 215.776 193.432 215.831Z" fill="#263238"/>
<path d="M195.1 216.203C194.717 216.281 194.327 216.317 193.936 216.311C193.916 216.314 193.896 216.31 193.879 216.3C193.861 216.291 193.848 216.275 193.84 216.257C193.831 216.24 193.826 216.222 193.826 216.203C193.826 216.184 193.831 216.166 193.84 216.149C193.954 216.023 194.956 214.949 195.526 215.003C195.589 215.014 195.649 215.04 195.699 215.08C195.749 215.12 195.789 215.172 195.814 215.231C195.873 215.32 195.905 215.424 195.905 215.531C195.905 215.638 195.873 215.742 195.814 215.831C195.626 216.033 195.374 216.165 195.1 216.203ZM195.52 215.225C195.214 215.177 194.596 215.699 194.176 216.125C194.968 216.095 195.52 215.945 195.67 215.705C195.704 215.649 195.722 215.584 195.722 215.519C195.722 215.453 195.704 215.389 195.67 215.333C195.659 215.304 195.641 215.279 195.616 215.26C195.592 215.24 195.563 215.229 195.532 215.225H195.52Z" fill="#263238"/>
<path d="M193.954 216.311C193.948 216.313 193.942 216.315 193.936 216.315C193.93 216.315 193.924 216.313 193.918 216.311C193.902 216.306 193.887 216.297 193.875 216.286C193.862 216.274 193.852 216.26 193.846 216.245C193.846 216.209 193.45 214.997 193.78 214.487C193.823 214.422 193.879 214.367 193.946 214.327C194.012 214.286 194.087 214.261 194.164 214.253C194.25 214.235 194.339 214.247 194.417 214.286C194.496 214.325 194.559 214.389 194.596 214.469C194.794 214.907 194.374 215.939 193.996 216.269C193.994 216.279 193.989 216.289 193.981 216.296C193.974 216.303 193.964 216.309 193.954 216.311ZM194.146 214.511C194.067 214.531 193.998 214.58 193.954 214.649C193.817 215.109 193.829 215.6 193.99 216.053C194.303 215.639 194.454 215.124 194.416 214.607C194.416 214.547 194.338 214.487 194.194 214.505L194.146 214.511Z" fill="#263238"/>
<path d="M163.972 158.429L162.694 144.317L139.132 144.869C139.132 144.869 136.342 164.531 138.37 168.143C141.97 174.593 165.742 170.933 171.298 171.479C173.566 172.679 185.698 212.921 185.698 212.921L192.496 210.179C192.496 210.179 185.188 176.225 183.496 169.829C181.21 160.937 171.778 161.093 163.972 158.429Z" fill="#263238"/>
<path d="M203.02 209.483L197.02 210.035C197.02 210.035 189.67 172.601 189.1 172.439C188.08 172.145 185.098 171.809 183.496 171.389C172.372 168.497 144.976 163.175 144.976 163.175L155.08 153.443C155.08 153.443 200.884 158.939 201.88 169.691C202.39 174.839 203.02 209.483 203.02 209.483Z" fill="#263238"/>
<path opacity="0.2" d="M187.486 172.469C186.46 172.175 185.086 171.815 183.496 171.395C183.94 171.629 182.656 165.803 181.372 164.297C178.822 161.297 168.586 159.665 164.92 159.077C161.848 158.585 151.552 157.679 151.552 157.679C151.552 157.679 169.732 156.107 183.43 159.869C190.204 161.729 188.998 168.341 187.486 172.469Z" fill="black"/>
<path d="M135.988 118.919C135.988 118.919 144.682 114.305 157.432 115.493C157.432 115.493 161.854 126.737 162.694 144.293L138.988 145.937C138.988 145.937 139.414 130.889 135.988 118.919Z" fill="#DE7A4A"/>
<path opacity="0.7" d="M138.988 145.961C139.049 141.864 138.897 137.766 138.532 133.685C138.322 131.285 138.022 128.759 137.59 126.185C137.193 123.735 136.658 121.309 135.988 118.919C135.988 118.919 144.682 114.305 157.432 115.493C157.432 115.493 161.854 126.737 162.694 144.293L138.988 145.961Z" fill="white"/>
<path opacity="0.2" d="M138.55 133.685C138.34 131.285 138.04 128.759 137.608 126.185C138.029 125.757 138.536 125.424 139.096 125.207L139.126 124.943C139.108 125.231 140.35 129.665 138.55 133.685Z" fill="black"/>
<path d="M142.558 117.287C144.73 119.261 150.046 118.529 150.046 118.529C150.046 118.529 153.364 117.623 152.668 116.585C150.712 116.261 149.77 115.349 149.374 114.185C149.164 113.459 149.096 112.699 149.176 111.947C149.176 111.539 149.272 111.119 149.344 110.705L142.75 105.839C143.632 109.049 144.688 114.959 142.558 117.287Z" fill="#EBB376"/>
<path opacity="0.2" d="M144.286 108.929C144.55 112.871 147.79 113.963 149.374 114.185C149.164 113.459 149.097 112.698 149.176 111.947L144.286 108.929Z" fill="black"/>
<path d="M148.456 92.3151C150.898 92.9751 152.932 98.6091 151.102 102.335C149.272 106.061 143.758 95.6391 143.758 95.6391C143.758 95.6391 146.878 91.8951 148.456 92.3151Z" fill="#263238"/>
<path d="M153.55 105.239C153.562 105.467 153.562 105.695 153.55 105.923C153.508 107.549 152.852 109.099 151.714 110.261C150.697 111.32 149.321 111.962 147.856 112.061C146.814 112.113 145.777 111.88 144.856 111.389C141.94 109.907 141.154 107.339 139.456 103.103C139.033 102.117 138.872 101.039 138.988 99.9728C139.104 98.9065 139.494 97.8884 140.119 97.0169C140.744 96.1454 141.584 95.4502 142.557 94.9985C143.53 94.5469 144.603 94.3541 145.672 94.4389C150.472 94.7929 153.178 101.039 153.55 105.239Z" fill="#EBB376"/>
<path d="M146.422 102.113C146.512 102.467 146.812 102.713 147.022 102.611C147.232 102.509 147.346 102.185 147.232 101.837C147.118 101.489 146.83 101.237 146.632 101.339C146.434 101.441 146.308 101.753 146.422 102.113Z" fill="#263238"/>
<path d="M150.4 100.805C150.49 101.159 150.796 101.375 151 101.303C151.204 101.231 151.324 100.877 151.21 100.523C151.096 100.169 150.814 99.953 150.61 100.025C150.406 100.097 150.292 100.469 150.4 100.805Z" fill="#263238"/>
<path d="M149.194 101.393C149.968 102.331 150.866 103.159 151.864 103.853C151.679 104.106 151.44 104.315 151.166 104.465C150.891 104.615 150.586 104.703 150.274 104.723L149.194 101.393Z" fill="#D58745"/>
<path d="M151.318 98.6388C151.289 98.6667 151.254 98.6873 151.215 98.6988C151.176 98.7103 151.136 98.7123 151.096 98.7048C150.833 98.633 150.558 98.6238 150.291 98.678C150.024 98.7322 149.774 98.8482 149.56 99.0168C149.519 99.0566 149.463 99.0783 149.406 99.0772C149.348 99.076 149.294 99.0521 149.254 99.0108C149.214 98.9694 149.193 98.9139 149.194 98.8565C149.195 98.7991 149.219 98.7446 149.26 98.7048C149.527 98.486 149.841 98.3337 150.178 98.2607C150.515 98.1877 150.865 98.1959 151.198 98.2848C151.226 98.2905 151.253 98.3017 151.276 98.3178C151.3 98.3339 151.32 98.3546 151.336 98.3786C151.352 98.4026 151.362 98.4295 151.368 98.4577C151.373 98.4859 151.372 98.5148 151.366 98.5428C151.354 98.5765 151.338 98.6087 151.318 98.6388Z" fill="#263238"/>
<path d="M145.108 100.781C145.067 100.796 145.023 100.796 144.982 100.781C144.933 100.752 144.897 100.705 144.882 100.65C144.868 100.595 144.876 100.536 144.904 100.487C145.079 100.188 145.323 99.9356 145.615 99.7499C145.907 99.5641 146.239 99.4507 146.584 99.419C146.612 99.4182 146.641 99.423 146.667 99.4331C146.694 99.4433 146.718 99.4585 146.739 99.478C146.759 99.4975 146.776 99.5209 146.787 99.5468C146.799 99.5727 146.805 99.6007 146.806 99.629C146.806 99.6859 146.784 99.7406 146.745 99.7819C146.706 99.8232 146.653 99.848 146.596 99.851C146.324 99.8838 146.064 99.9795 145.836 100.131C145.608 100.282 145.418 100.484 145.282 100.721C145.259 100.743 145.231 100.759 145.201 100.769C145.171 100.78 145.14 100.784 145.108 100.781Z" fill="#263238"/>
<path d="M140.86 96.623L141.802 98.423C141.547 98.6991 141.405 99.0612 141.405 99.437C141.405 99.8129 141.547 100.175 141.802 100.451C143.002 101.795 143.05 104.579 142.21 106.019C142.21 106.019 141.916 105.353 141.4 105.731C140.884 106.109 142.408 109.607 144.178 110.873C144.178 110.873 141.892 109.991 139.504 106.625C137.296 103.517 136.084 100.679 136.282 99.071L140.86 96.623Z" fill="#263238"/>
<path d="M138.742 107.225C139.541 108.046 140.633 108.517 141.778 108.533C143.302 108.533 143.662 107.087 142.906 105.857C142.228 104.771 140.614 103.421 139.252 104.015C137.89 104.609 137.77 106.205 138.742 107.225Z" fill="#EBB376"/>
<path d="M150.742 106.229C150.466 106.833 150.233 107.457 150.046 108.095L149.698 108.053C148.126 107.843 147.46 107.225 147.208 106.601C147.091 106.295 147.048 105.966 147.082 105.641C147.094 105.454 147.135 105.27 147.202 105.095C148.114 105.659 149.138 106.019 150.202 106.151C150.55 106.211 150.742 106.229 150.742 106.229Z" fill="#263238"/>
<path d="M150.208 106.151L149.986 106.697C148.504 106.493 147.484 106.151 147.082 105.641C147.094 105.454 147.135 105.27 147.202 105.095C148.116 105.659 149.142 106.02 150.208 106.151Z" fill="white"/>
<path d="M149.698 108.053C148.126 107.843 147.46 107.225 147.208 106.601C147.807 106.701 148.383 106.904 148.912 107.201C149.256 107.397 149.53 107.695 149.698 108.053Z" fill="#DE5753"/>
<path d="M144.874 96.9349C144.874 96.9349 144.454 94.0669 146.266 94.6249C148.078 95.1829 148.204 94.0909 147.664 91.8769C147.124 89.6629 141.928 88.8769 138.988 92.5069C136.048 96.1369 135.022 99.1789 136.444 100.787C137.866 102.395 143.284 97.6489 143.284 97.6489C143.432 96.8382 143.776 96.076 144.286 95.4289C144.319 95.9801 144.525 96.5069 144.874 96.9349Z" fill="#263238"/>
<path d="M147.676 118.301L150.55 120.839C150.55 120.839 152.128 131.519 156.004 136.187H158.404L158.878 134.531C155.272 130.506 152.684 125.675 151.33 120.443V117.041L147.676 118.301Z" fill="#263238"/>
<path d="M143.29 114.977L149.194 117.191L149.698 114.185L152.764 115.295L153.55 119.093L149.374 118.061L147.304 120.833L141.286 116.939L143.29 114.977Z" fill="#DE7A4A"/>
<path opacity="0.5" d="M143.29 114.977L149.194 117.191L149.698 114.185L152.764 115.295L153.55 119.093L149.374 118.061L147.304 120.833L141.286 116.939L143.29 114.977Z" fill="white"/>
<path d="M138.652 145.565L162.97 143.255L163.024 146.207L138.664 148.199L138.652 145.565Z" fill="black"/>
<path d="M157.822 143.861C157.712 143.762 157.583 143.687 157.442 143.642C157.302 143.596 157.153 143.581 157.006 143.597L154.852 143.819C154.586 143.846 154.339 143.972 154.162 144.172C153.984 144.372 153.888 144.631 153.892 144.899V146.279C153.898 146.563 154.017 146.832 154.221 147.029C154.426 147.226 154.7 147.334 154.984 147.329H155.074L157.228 147.101C157.494 147.074 157.739 146.948 157.916 146.747C158.093 146.547 158.188 146.288 158.182 146.021V144.647C158.181 144.498 158.149 144.351 158.087 144.215C158.025 144.08 157.934 143.959 157.822 143.861ZM157.192 146.549L155.044 146.777C154.97 146.787 154.895 146.782 154.824 146.761C154.753 146.74 154.687 146.704 154.63 146.656C154.573 146.608 154.527 146.548 154.495 146.481C154.463 146.414 154.446 146.341 154.444 146.267V144.893C154.442 144.762 154.489 144.636 154.575 144.538C154.662 144.44 154.782 144.378 154.912 144.365L157.06 144.143H157.108C157.244 144.143 157.375 144.196 157.473 144.292C157.57 144.387 157.627 144.517 157.63 144.653V144.839H157.546L156.946 144.893C156.898 144.897 156.851 144.911 156.808 144.933C156.766 144.956 156.728 144.986 156.697 145.023C156.666 145.061 156.643 145.103 156.628 145.149C156.614 145.195 156.609 145.244 156.613 145.292C156.617 145.34 156.631 145.387 156.653 145.429C156.676 145.472 156.706 145.51 156.744 145.541C156.781 145.572 156.823 145.595 156.869 145.61C156.915 145.624 156.964 145.629 157.012 145.625L157.612 145.565H157.642V146.039C157.642 146.164 157.596 146.285 157.513 146.379C157.43 146.472 157.316 146.533 157.192 146.549Z" fill="white"/>
<path d="M135.988 118.919C131.932 121.319 126.076 129.221 124.018 129.059C121.96 128.897 110.86 119.039 110.86 119.039L108.328 121.781C108.328 121.781 118.582 134.027 123.358 134.951C128.134 135.875 138.652 127.019 138.652 127.019C139.247 125.493 139.247 123.799 138.652 122.273C138.112 120.918 137.186 119.751 135.988 118.919Z" fill="#DE7A4A"/>
<path opacity="0.7" d="M135.988 118.919C131.932 121.319 126.076 129.221 124.018 129.059C121.96 128.897 110.86 119.039 110.86 119.039L108.328 121.781C108.328 121.781 118.582 134.027 123.358 134.951C128.134 135.875 138.652 127.019 138.652 127.019C139.247 125.493 139.247 123.799 138.652 122.273C138.112 120.918 137.186 119.751 135.988 118.919Z" fill="white"/>
<path d="M173.116 174.695C173.116 174.695 92.59 175.253 87.592 163.943L123.454 161.339C130.571 164.324 137.855 166.895 145.27 169.037C153.55 171.455 163.366 173.747 173.116 174.695Z" fill="#DE7A4A"/>
<path opacity="0.2" d="M173.116 174.695C173.116 174.695 170.59 174.695 166.39 174.695C149.164 173.495 129.052 164.939 129.052 164.939C121.792 166.535 116.8 163.673 116.8 163.673L97.2281 164.795C97.3335 165.277 97.3289 165.776 97.2146 166.256C97.1004 166.736 96.8794 167.184 96.5681 167.567C106.714 170.417 117.652 172.151 126.568 173.201C107.734 171.791 89.8601 169.103 87.5681 163.961L123.43 161.357C123.43 161.357 148.48 172.295 173.116 174.695Z" fill="white"/>
<path opacity="0.2" d="M173.116 174.695C173.116 174.695 92.59 175.253 87.592 163.943C87.592 163.943 114.802 175.697 145.27 169.037C153.55 171.455 163.366 173.747 173.116 174.695Z" fill="black"/>
</svg>
