<svg xmlns="http://www.w3.org/2000/svg" width="360" height="334" fill="none"><path stroke="#F7DFD4" stroke-width=".75" d="m335.214 153.772.001.007c1.992 38.214-1.902 63.901-10.391 81.011-8.476 17.081-21.547 25.646-38.025 29.584-16.505 3.945-36.415 3.244-58.538 1.771-3.55-.237-7.156-.493-10.814-.753-19.063-1.355-39.517-2.808-60.607-2.068-27.707-31.455-53.061-49.693-75.549-60.236-22.522-10.558-42.15-13.389-58.356-14.061-6.405-.266-12.279-.194-17.576-.13-1.4.018-2.76.034-4.078.044-6.32.046-11.682-.065-16.055-1.015-4.36-.948-7.704-2.722-10.026-5.98-2.324-3.26-3.663-8.055-3.904-15.125 10.886-31.615 30.382-58.11 59.701-77.156C60.34 70.603 99.544 58.987 149.845 57.193c72.792-2.596 118.667 7.359 146.569 25.04 27.87 17.662 37.859 43.066 38.8 71.539Z"/><path fill="#F7DFD4" fill-opacity=".3" d="M-3.613 203.984c-14.82-88.211 171.829-168.977 260.84-185.103C364.239-.507 369.09 45.566 383.91 133.777c14.82 88.211-87.994 122.043-177.395 165.809-111.89-113.399-195.308-7.391-210.128-95.602Z"/><path fill="#E0E0E0" d="m268.748 159.765.434 1.53-1.379 9.746-2.571.715 1.362-9.312-3.399.937.464 1.664-2.09.59-1.001-3.594 8.18-2.276ZM279.222 164.399c.503 1.812-.386 3.759-3.303 4.569a7.324 7.324 0 0 1-4.205 0l.433-2.072a5.127 5.127 0 0 0 3.165.113c1.179-.33 1.773-1.028 1.543-1.86-.23-.832-.897-1.183-2.753-.667l-2.601.728-1.075-5.9 6.234-1.734.516 1.903-4.266 1.183.382 1.99.832-.234c3.021-.854 4.595.173 5.098 1.981ZM279.031 159.813c-.459-1.665.165-3.035 1.539-3.416 1.375-.382 2.601.433 3.078 2.132.477 1.7-.178 3.035-1.539 3.416-1.361.382-2.614-.468-3.078-2.132Zm3.902-1.08c-.369-1.326-1.214-1.942-2.168-1.678-.953.265-1.357 1.24-.988 2.558.368 1.318 1.201 1.947 2.168 1.678.966-.269 1.339-1.227.971-2.558h.017Zm3.863-3.984.867-.238-4.136 12.16-.867.238 4.136-12.16Zm-.144 8.142c-.459-1.665.178-3.035 1.535-3.417 1.357-.381 2.601.469 3.082 2.133.482 1.665-.164 3.035-1.539 3.416-1.374.382-2.631-.468-3.095-2.132h.017Zm3.902-1.08c-.364-1.3-1.201-1.946-2.168-1.678-.966.269-1.361 1.227-.988 2.554.373 1.326 1.214 1.942 2.168 1.677.953-.264 1.318-1.239.953-2.553h.035Z"/><path fill="#EBEBEB" d="m291.016 302.069 30.523.24.302-38.53-30.522-.24-.303 38.53Z"/><path fill="#FAFAFA" d="m309.897 264.922-.542 37.304-4.82-.035 1.031-37.304 4.331.035Z"/><path fill="#E0E0E0" d="m273.79 264.64 17.51.139 30.523.238-30.554 4.019-.26 33.047-17.505-.135.286-37.308Z"/><path fill="#FAFAFA" d="m283.323 264.714-.698 37.304-5.193-.039.849-37.304 5.042.039Z"/><path fill="#E0E0E0" d="M297.182 253.36c0 .078-.516.174-1.456.265a38.2 38.2 0 0 1-4.002.178 22.435 22.435 0 0 1-5.973-.785 4.276 4.276 0 0 1-.867-.39 2.345 2.345 0 0 1-.798-.755 2.11 2.11 0 0 1-.321-1.114c.001-.345.045-.688.13-1.023a22.7 22.7 0 0 1 1.132-3.667 9.329 9.329 0 0 1 .988-1.76 5.52 5.52 0 0 1 1.452-1.435 2.973 2.973 0 0 1 1.006-.434c.366-.08.744-.08 1.11 0a4.398 4.398 0 0 1 1.686.919 17.487 17.487 0 0 1 3.971 4.557 14.628 14.628 0 0 1 1.609 3.715c.238.927.264 1.456.199 1.474-.191.056-.62-2.029-2.48-4.769a18.41 18.41 0 0 0-3.949-4.149 3.534 3.534 0 0 0-1.301-.689 1.652 1.652 0 0 0-1.278.277 4.53 4.53 0 0 0-1.136 1.162 8.68 8.68 0 0 0-.867 1.552 23.793 23.793 0 0 0-1.088 3.468c-.159.421-.149.888.03 1.301.276.358.661.617 1.097.737.494.16.996.293 1.504.399.499.112.993.199 1.474.273.958.152 1.86.238 2.692.295 1.66.112 3.035.134 3.958.182.923.047 1.474.138 1.478.216Z"/><path fill="#FAFAFA" d="M296.549 253.642c0-.078.555-.243 1.583-.477 1.027-.234 2.527-.542 4.335-.98a41.272 41.272 0 0 0 6.234-1.968 6.974 6.974 0 0 0 1.565-.832c.206-.146.377-.336.503-.555a.97.97 0 0 0 .086-.633 3.504 3.504 0 0 0-.299-.824c-.143-.307-.29-.62-.433-.932-.292-.62-.625-1.22-.997-1.794a7.738 7.738 0 0 0-1.301-1.513 4.972 4.972 0 0 0-1.552-1.002 2.477 2.477 0 0 0-1.608-.069 4.185 4.185 0 0 0-1.444.867 21.903 21.903 0 0 0-4.175 4.92 19.01 19.01 0 0 0-1.855 3.963c-.325.992-.455 1.56-.542 1.547-.087-.013-.082-.602.117-1.656.313-1.49.848-2.925 1.587-4.257a20.842 20.842 0 0 1 4.183-5.297 5.068 5.068 0 0 1 1.799-1.123 3.548 3.548 0 0 1 2.311.056 4.93 4.93 0 0 1 1.032.516c.314.209.614.439.897.689a8.645 8.645 0 0 1 1.47 1.734c.399.619.757 1.263 1.07 1.929l.434.959c.174.351.3.724.373 1.109.081.454.006.922-.213 1.327-.202.355-.48.662-.815.897a7.79 7.79 0 0 1-1.821.937 35.804 35.804 0 0 1-6.463 1.786 54.82 54.82 0 0 1-4.439.633c-1.049.108-1.609.117-1.622.043Z"/><path fill="#E0E0E0" d="m268.234 264.585 44.867.352.1-12.754-44.867-.352-.1 12.754Z"/><path fill="#EBEBEB" d="m284.739 264.71 40.554.319.1-12.754-40.553-.318-.101 12.753Z"/><path fill="#FAFAFA" d="m312.941 252.194-.282 12.811-4.73-.1.33-12.75 4.682.039ZM279.339 251.995l-.46 12.697-5.197-.043.277-12.758 5.38.104Z"/><path fill="#EBEBEB" d="m314.299 302.52 13.941.11.138-17.6-13.941-.11-.138 17.6Z"/><path fill="#FAFAFA" d="m322.92 285.562-.247 17.037-2.207-.013.473-17.042 1.981.018Z"/><path fill="#E0E0E0" d="m306.425 285.432 7.998.06 13.942.113-13.955 1.834-.121 15.095-7.994-.061.13-17.041Z"/><path fill="#FAFAFA" d="m310.777 285.466-.316 17.041-2.376-.021.39-17.037 2.302.017Z"/><path fill="#E0E0E0" d="M317.111 280.281c0 .144-.932.36-2.501.434a9.743 9.743 0 0 1-2.814-.308 1.64 1.64 0 0 1-.919-.633 1.246 1.246 0 0 1-.195-.663c0-.182.02-.364.061-.542.125-.592.302-1.173.528-1.734.13-.306.293-.597.486-.867.2-.293.454-.545.75-.741a1.532 1.532 0 0 1 1.192-.213c.321.096.618.262.867.486a7.821 7.821 0 0 1 1.825 2.167c.785 1.435.776 2.471.642 2.489-.135.017-.434-.867-1.301-2.055a8.653 8.653 0 0 0-1.794-1.786 1.29 1.29 0 0 0-.482-.256.455.455 0 0 0-.355.095c-.17.126-.316.28-.434.456a3.614 3.614 0 0 0-.359.654 10.542 10.542 0 0 0-.486 1.53c-.065.243-.052.352-.03.378a.67.67 0 0 0 .342.221c.425.14.86.249 1.301.325.433.078.832.13 1.205.169 1.5.156 2.467.225 2.471.394Z"/><path fill="#FAFAFA" d="M316.82 280.429c-.026-.165 1.019-.434 2.662-.867.95-.253 1.881-.57 2.788-.95.228-.09.445-.208.646-.351a.522.522 0 0 0 .143-.16v-.1a4.939 4.939 0 0 0-.312-.72 7.475 7.475 0 0 0-.434-.784 3.474 3.474 0 0 0-.533-.633 2.062 2.062 0 0 0-.607-.399.833.833 0 0 0-.546-.035 1.611 1.611 0 0 0-.56.33 10.45 10.45 0 0 0-1.907 2.146c-.915 1.378-1.105 2.436-1.301 2.41-.069 0-.117-.29-.06-.789.1-.706.322-1.389.654-2.02a9.233 9.233 0 0 1 1.912-2.528 2.53 2.53 0 0 1 .919-.576 1.876 1.876 0 0 1 1.244.022c.19.064.371.153.538.264.152.102.297.215.433.338.279.256.522.548.724.867.19.293.359.599.508.915.069.152.134.299.203.433.09.186.154.383.191.586.045.271-.001.55-.13.793a1.6 1.6 0 0 1-.459.503 3.57 3.57 0 0 1-.902.433c-.976.358-1.985.615-3.013.768-1.695.238-2.775.225-2.801.104Z"/><path fill="#E0E0E0" d="m303.896 285.397 20.491.161.046-5.827-20.492-.161-.045 5.827Z"/><path fill="#EBEBEB" d="m311.431 285.457 18.523.146.046-5.827-18.523-.145-.046 5.826Z"/><path fill="#FAFAFA" d="m324.307 279.748-.13 5.848-2.159-.043.152-5.822 2.137.017ZM308.957 279.653l-.209 5.8-2.375-.017.13-5.831 2.454.048Z"/><path fill="#EBEBEB" d="m49.027 302.461 25.004.197.248-31.563-25.004-.197-.248 31.563Z"/><path fill="#FAFAFA" d="m64.49 272.019-.442 30.562-3.954-.03.85-30.558 3.546.026Z"/><path fill="#E0E0E0" d="m34.912 271.789 14.345.113 25.005.195-25.032 3.295-.212 27.072-14.34-.112.234-30.563Z"/><path fill="#FAFAFA" d="m42.72 271.85-.569 30.558-4.257-.03.694-30.559 4.131.031Z"/><path fill="#E0E0E0" d="M54.073 262.551c0 .156-.434.316-1.184.473a21.34 21.34 0 0 1-5.635.303 14.813 14.813 0 0 1-1.3-.165 11.097 11.097 0 0 1-1.431-.312 4.071 4.071 0 0 1-.846-.368 2.573 2.573 0 0 1-.867-.811 2.396 2.396 0 0 1-.368-1.244 4.053 4.053 0 0 1 .117-.997 18.5 18.5 0 0 1 .95-3.122 8.442 8.442 0 0 1 .866-1.56c.184-.246.382-.481.594-.702.233-.246.497-.46.785-.638a3.105 3.105 0 0 1 1.045-.433c.391-.079.795-.07 1.183.026.6.172 1.152.477 1.617.893a14.006 14.006 0 0 1 3.277 3.94c.565 1 .96 2.087 1.166 3.217.126.798.061 1.257-.082 1.301-.334.082-.867-1.557-2.428-3.642a15.836 15.836 0 0 0-3.216-3.165 2.187 2.187 0 0 0-.82-.433.71.71 0 0 0-.554.156 2.344 2.344 0 0 0-.369.321 6.189 6.189 0 0 0-.377.468 6.61 6.61 0 0 0-.633 1.149 20.004 20.004 0 0 0-.867 2.727 1.927 1.927 0 0 0-.082.459v.13c.145.174.34.298.559.356.377.133.76.245 1.149.338.394.1.784.178 1.161.251.76.139 1.483.239 2.168.317 1.335.151 2.445.242 3.212.36.768.117 1.206.251 1.21.407Z"/><path fill="#FAFAFA" d="M53.557 262.776c-.056-.321 1.816-.841 4.769-1.652a37.86 37.86 0 0 0 4.972-1.734c.4-.157.78-.365 1.127-.619a.74.74 0 0 0 .23-.252v-.108a2.577 2.577 0 0 0-.2-.503l-.36-.75c-.23-.48-.488-.944-.775-1.392a5.839 5.839 0 0 0-.937-1.114 4.42 4.42 0 0 0-.537-.433 2.319 2.319 0 0 0-.512-.273 1.383 1.383 0 0 0-.906-.066 2.769 2.769 0 0 0-.967.573 18.854 18.854 0 0 0-3.42 3.802c-1.652 2.445-2.024 4.335-2.367 4.283-.147 0-.252-.525-.156-1.427a11.049 11.049 0 0 1 1.144-3.654 16.47 16.47 0 0 1 3.425-4.569 4.725 4.725 0 0 1 1.686-1.062 3.54 3.54 0 0 1 2.311.039c.347.121.677.284.984.485.288.185.56.393.815.62.5.454.937.971 1.3 1.539.344.532.65 1.087.92 1.66l.364.798c.165.342.284.705.351 1.08a2.318 2.318 0 0 1-.251 1.495 2.885 2.885 0 0 1-.867.941 6.822 6.822 0 0 1-1.648.828 26.593 26.593 0 0 1-5.423 1.352c-1.224.188-2.46.294-3.698.317-.854.026-1.352-.048-1.374-.204Z"/><path fill="#E0E0E0" d="m30.368 271.754 36.752.288.082-10.447-36.752-.289-.082 10.448Z"/><path fill="#EBEBEB" d="m43.877 271.858 33.223.261.082-10.448-33.223-.261-.082 10.448Z"/><path fill="#FAFAFA" d="m66.983 261.593-.23 10.495-3.876-.082.27-10.444 3.836.031ZM39.455 261.428l-.373 10.404-4.261-.034.23-10.452 4.404.082Z"/><path fill="#E0E0E0" d="m77.673 141.566.434 1.652-6.611 1.699-.338-1.3 2.557-4.054c.586-.936.607-1.422.499-1.847-.178-.689-.754-.966-1.678-.728a2.193 2.193 0 0 0-1.586 1.34l-1.734-.572c.433-1.162 1.482-2.112 3.034-2.519 1.951-.499 3.507.169 3.902 1.734.22.867.182 1.686-.755 3.138l-1.521 2.415 3.797-.958ZM77.786 138.635c-.741-2.891.433-4.937 2.601-5.488 2.168-.55 4.17.672 4.912 3.559.741 2.888-.434 4.934-2.601 5.489-2.168.554-4.17-.672-4.912-3.56Zm5.462-1.404c-.511-1.99-1.422-2.632-2.436-2.371-1.014.26-1.487 1.261-.975 3.247.511 1.985 1.421 2.631 2.423 2.375 1.001-.256 1.5-1.266.988-3.251ZM85.784 134.383c-.368-1.426.191-2.601 1.366-2.883 1.175-.282 2.215.433 2.6 1.868.387 1.435-.203 2.601-1.365 2.883-1.162.282-2.237-.446-2.6-1.868Zm3.325-.867c-.294-1.14-1.005-1.678-1.816-1.465-.81.212-1.175 1.031-.867 2.167.308 1.136.988 1.678 1.816 1.465.828-.212 1.158-1.018.867-2.154v-.013Zm3.356-3.33.737-.186-3.737 10.296-.737.191 3.737-10.301Zm-.26 6.937c-.365-1.427.203-2.601 1.365-2.883 1.162-.282 2.22.433 2.601 1.868.382 1.435-.19 2.601-1.365 2.879-1.175.277-2.233-.434-2.602-1.856v-.008Zm3.325-.867c-.29-1.128-.989-1.678-1.817-1.466-.828.213-1.175 1.019-.867 2.168.308 1.149 1.006 1.673 1.817 1.465.81-.208 1.157-1.023.87-2.146l-.003-.021ZM159.794 168.977c.034 1.791-1.301 3.468-4.335 3.503a7.267 7.267 0 0 1-4.063-1.067l.92-1.894a5.196 5.196 0 0 0 3.034.902c1.227-.022 1.977-.533 1.964-1.401 0-.802-.616-1.3-2.007-1.265h-1.123l-.026-1.622 2.137-2.505-4.517.078-.03-1.973 7.421-.126.031 1.591-2.337 2.784c1.916.273 2.905 1.434 2.931 2.995ZM160.895 166.901c-.061-3.52 1.833-5.519 4.435-5.567 2.601-.047 4.577 1.908 4.638 5.406.061 3.499-1.829 5.523-4.448 5.567-2.618.043-4.565-1.908-4.625-5.406Zm6.624-.117c-.044-2.406-.911-3.395-2.137-3.373-1.227.022-2.042 1.036-1.999 3.468.043 2.432.906 3.394 2.116 3.373 1.209-.022 2.059-1.058 2.02-3.468ZM171.186 164.222c-.03-1.734.919-2.896 2.346-2.922 1.426-.026 2.414 1.097 2.445 2.839.03 1.743-.937 2.896-2.346 2.918-1.409.022-2.414-1.11-2.445-2.835Zm4.032-.07c-.026-1.378-.689-2.167-1.673-2.167-.985 0-1.626.867-1.6 2.228.026 1.361.672 2.168 1.673 2.168 1.002 0 1.622-.833 1.6-2.229Zm4.738-2.887h.893l-7.057 10.73h-.893l7.057-10.73Zm-2.167 7.842c-.026-1.734.936-2.895 2.345-2.917 1.409-.022 2.415 1.11 2.445 2.835.03 1.725-.919 2.896-2.345 2.922-1.427.026-2.432-1.11-2.463-2.84h.018Zm4.031-.069c-.021-1.361-.672-2.168-1.673-2.168s-1.621.846-1.6 2.224c.022 1.379.69 2.168 1.674 2.168s1.608-.858 1.582-2.224h.017Z"/><path fill="#F5F5F5" d="M211.1 136.212c-.208 1.353-1.383 2.38-3.568 2.046a5.344 5.344 0 0 1-2.792-1.261l.906-1.249a3.72 3.72 0 0 0 2.068 1.019c.889.135 1.491-.152 1.587-.776.095-.624-.243-1.053-1.63-1.266l-1.955-.299 1.049-4.244 4.664.711-.216 1.422-3.191-.486-.343 1.431.625.095c2.263.347 3.004 1.5 2.796 2.857ZM212.036 134.903c.386-2.528 2.003-3.746 3.902-3.468 1.899.277 3.06 1.929 2.675 4.456-.386 2.528-1.994 3.741-3.902 3.468-1.907-.273-3.056-1.933-2.675-4.456Zm4.769.728c.264-1.734-.239-2.553-1.123-2.688-.884-.134-1.595.495-1.86 2.233-.264 1.738.234 2.549 1.11 2.683.876.135 1.617-.489 1.882-2.224l-.009-.004ZM219.766 134.235c.191-1.244 1.019-1.968 2.046-1.812 1.027.156 1.6 1.084 1.409 2.341-.191 1.258-1.028 1.968-2.046 1.812-1.019-.156-1.6-1.092-1.409-2.341Zm6.689-1.049.646.1-6.412 6.85-.646-.1 6.412-6.85Zm-3.759 1.496c.152-.997-.229-1.656-.94-1.764-.711-.109-1.271.433-1.422 1.404-.152.971.216 1.652.94 1.765.724.112 1.249-.412 1.401-1.405h.021Zm1.227 3.876c.191-1.245 1.028-1.969 2.046-1.813 1.019.157 1.6 1.097 1.409 2.341-.191 1.245-1.019 1.969-2.046 1.813-1.027-.157-1.621-1.093-1.431-2.341h.022Zm2.909.433c.147-.984-.217-1.656-.941-1.764-.724-.109-1.27.407-1.422 1.4-.151.993.23 1.66.941 1.769.711.108 1.249-.425 1.4-1.392l.022-.013ZM37.114 173l-1.587 6.776-1.552-.356 1.3-5.518-1.356-.317.295-1.261 2.9.676ZM37.504 176.667c.52-2.236 2.06-3.216 3.724-2.826 1.665.39 2.601 1.951 2.08 4.183-.52 2.233-2.045 3.217-3.723 2.827-1.678-.39-2.605-1.947-2.08-4.184Zm4.231.989c.36-1.539-.034-2.306-.82-2.488-.784-.183-1.464.329-1.824 1.868-.36 1.539.03 2.306.806 2.488.776.182 1.474-.329 1.838-1.868ZM50.531 176.143l.572.135-6.216 5.692-.568-.135 6.212-5.692Zm-6.07.473c.261-1.106 1.054-1.695 1.965-1.483.91.213 1.357 1.084 1.096 2.198-.26 1.114-1.057 1.691-1.959 1.483-.902-.208-1.344-1.097-1.088-2.198h-.013Zm2.576.602c.208-.867-.087-1.5-.715-1.647-.629-.147-1.17.286-1.375 1.158-.203.871.078 1.499.72 1.647.642.147 1.18-.256 1.383-1.158h-.013Zm.832 3.564c.256-1.106 1.058-1.691 1.96-1.483.901.208 1.357 1.097 1.1 2.198-.255 1.101-1.053 1.695-1.963 1.483-.91-.213-1.344-1.097-1.084-2.198h-.013Zm2.58.602c.204-.867-.078-1.499-.716-1.647-.637-.147-1.17.278-1.374 1.158-.204.88.087 1.5.715 1.647.63.147 1.18-.286 1.375-1.158Z"/><path fill="#DE7A4A" d="m293.714 247.816-28.902-32.47a12.235 12.235 0 0 0-9.052-4.101l-95.152-.689a12.221 12.221 0 0 0-8.72 3.561 12.24 12.24 0 0 0-3.604 8.703l.16 67.376a12.24 12.24 0 0 0 7.594 11.294c1.489.61 3.083.921 4.692.914l94.822-.399a12.24 12.24 0 0 0 9.225-4.235l29.076-33.814a12.247 12.247 0 0 0-.139-16.14Zm-16.083 11.705a10.098 10.098 0 0 1-9.282 6.292 10.088 10.088 0 0 1-9.366-6.168 10.095 10.095 0 0 1 2.115-11.012 10.096 10.096 0 0 1 10.984-2.261 10.09 10.09 0 0 1 5.549 13.131v.018Z"/><path fill="#000" d="m293.714 247.816-28.902-32.47a12.235 12.235 0 0 0-9.052-4.101l-95.152-.689a12.221 12.221 0 0 0-8.72 3.561 12.24 12.24 0 0 0-3.604 8.703l.16 67.376a12.24 12.24 0 0 0 7.594 11.294c1.489.61 3.083.921 4.692.914l94.822-.399a12.24 12.24 0 0 0 9.225-4.235l29.076-33.814a12.247 12.247 0 0 0-.139-16.14Zm-16.083 11.705a10.098 10.098 0 0 1-9.282 6.292 10.088 10.088 0 0 1-9.366-6.168 10.095 10.095 0 0 1 2.115-11.012 10.096 10.096 0 0 1 10.984-2.261 10.09 10.09 0 0 1 5.549 13.131v.018Z" opacity=".4"/><path fill="#DE7A4A" d="m298.721 247.816-28.915-32.47a12.252 12.252 0 0 0-9.052-4.101l-95.151-.689a12.227 12.227 0 0 0-12.325 12.264l.156 67.376a12.23 12.23 0 0 0 3.627 8.666 12.232 12.232 0 0 0 8.702 3.542l94.818-.399a12.232 12.232 0 0 0 9.225-4.235l29.071-33.814a12.237 12.237 0 0 0-.156-16.14Zm-16.079 11.705a10.09 10.09 0 0 1-14.9 4.629 10.088 10.088 0 0 1-4.36-10.332 10.095 10.095 0 0 1 13.711-7.446 10.092 10.092 0 0 1 5.549 13.131v.018Z"/><path fill="#fff" d="M184.942 245.557c.073-8.167 5.106-13.313 12.164-13.243 7.058.069 11.926 5.232 11.852 13.465-.074 8.232-5.046 13.313-12.099 13.248-7.053-.065-11.995-5.302-11.917-13.47Zm17.093.161c.048-5.202-1.933-7.704-4.981-7.73-2.974-.03-5.077 2.51-5.124 7.635-.048 5.124 2.007 7.699 4.981 7.729 3.047.026 5.076-2.445 5.124-7.634Zm23.926-12.572 8.236.078-33.532 48.12-8.237-.078 33.533-48.12Zm-8.289 35.578c.078-8.167 5.107-13.313 12.099-13.248 7.058.07 11.991 5.306 11.917 13.469-.073 8.164-5.106 13.292-12.168 13.218-6.967-.056-11.922-5.293-11.848-13.439Zm17.024.156c.048-5.119-1.934-7.699-4.981-7.725-2.974-.03-5.072 2.441-5.12 7.634-.048 5.194 2.003 7.7 4.977 7.73 3.047.009 5.076-2.536 5.119-7.66l.005.021Z"/><path fill="#263238" d="M295.556 267.857c.346.184.665.413.95.681a91.06 91.06 0 0 1 2.558 2.124c1.096.941 2.432 2.103 3.932 3.503s3.182 3.034 4.92 4.972a50.387 50.387 0 0 1 5.172 6.75l.615.984.581 1.027c.406.703.774 1.426 1.101 2.168a13.553 13.553 0 0 1 1.24 5.003 7.892 7.892 0 0 1-.399 2.727 7.036 7.036 0 0 1-1.43 2.458 9.23 9.23 0 0 1-4.96 2.835 13.488 13.488 0 0 1-5.856-.139 25.585 25.585 0 0 1-5.562-2.051 34.743 34.743 0 0 1-9.325-6.936 44.866 44.866 0 0 1-3.603-4.187 124.281 124.281 0 0 1-3.104-4.253c-3.901-5.636-6.936-11.055-8.843-15.901a54.436 54.436 0 0 1-1.244-3.49 29.029 29.029 0 0 1-.473-1.648 10.118 10.118 0 0 1-.316-1.599 3.964 3.964 0 0 1 .715-2.909 4.235 4.235 0 0 1 2.055-1.431c.336-.111.681-.19 1.031-.238.309-.033.619-.04.928-.022.485.023.963.127 1.413.308.274.115.529.271.755.464.147.134.212.208.199.225-.013.018-.104-.03-.269-.13a3.33 3.33 0 0 0-.763-.342 4.456 4.456 0 0 0-1.343-.191c-.291.003-.58.026-.868.069-.32.063-.635.152-.94.269a3.823 3.823 0 0 0-1.769 1.335 3.393 3.393 0 0 0-.52 2.515c.072.51.185 1.013.338 1.504.143.52.321 1.049.503 1.595a63.189 63.189 0 0 0 1.3 3.416c1.964 4.726 5.033 10.062 8.952 15.607a123.64 123.64 0 0 0 3.109 4.192 44.249 44.249 0 0 0 3.541 4.075 34.142 34.142 0 0 0 9.035 6.711 24.832 24.832 0 0 0 5.332 1.968c1.76.441 3.594.493 5.376.152a8.212 8.212 0 0 0 4.387-2.471 6.374 6.374 0 0 0 1.595-4.448 12.63 12.63 0 0 0-1.144-4.643 22.074 22.074 0 0 0-1.036-2.098l-.542-1.002-.59-.98a51.16 51.16 0 0 0-4.981-6.715 81.247 81.247 0 0 0-4.769-5.046 217.216 217.216 0 0 0-3.793-3.628l-2.393-2.272a4.793 4.793 0 0 1-.798-.867ZM250.398 200.572c-.061 0-1.275-8.476-2.714-18.949-1.439-10.474-2.553-18.971-2.488-18.979.065-.009 1.274 8.475 2.713 18.948 1.44 10.474 2.554 18.971 2.489 18.98ZM286.141 154.173a.59.59 0 0 1-.039.13l-.139.377-.551 1.444-2.063 5.297a1031.655 1031.655 0 0 0-6.633 17.544 938.922 938.922 0 0 0-6.273 17.675c-.776 2.258-1.404 4.092-1.842 5.38-.217.62-.386 1.109-.507 1.461-.057.156-.104.277-.139.377a.647.647 0 0 1-.052.125.442.442 0 0 1 .03-.134l.117-.386c.109-.351.265-.867.464-1.474a428.267 428.267 0 0 1 1.777-5.401 664.271 664.271 0 0 1 6.217-17.701 729.859 729.859 0 0 1 6.689-17.527c.867-2.228 1.621-4.031 2.137-5.271l.594-1.426c.065-.152.122-.273.161-.369l.052-.121ZM311.753 187.536c.039.048-6.165 4.907-13.873 10.838-7.708 5.93-13.959 10.725-13.998 10.673-.039-.052 6.169-4.907 13.872-10.838 7.704-5.93 13.964-10.725 13.999-10.673ZM235.35 202.154c-.052.039-2.449-3.035-5.358-6.832-2.909-3.798-5.232-6.936-5.202-6.967.03-.03 2.449 3.035 5.358 6.832 2.909 3.798 5.25 6.928 5.202 6.967ZM308.822 226.049c0 .061-3.819-.997-8.492-2.358-4.674-1.361-8.445-2.515-8.428-2.575.017-.061 3.819.997 8.493 2.358 4.673 1.361 8.449 2.514 8.427 2.575Z"/><path fill="#fff" d="m254.195 225.91 2.818-1.621 1.496-2.887 1.625 2.818 2.888 1.5-2.818 1.621-1.5 2.887-1.621-2.818-2.888-1.5ZM238.962 221.437l.988-.568.525-1.01.568.984 1.01.525-.989.567-.524 1.01-.568-.984-1.01-.524ZM248.69 241.348l1.907-1.097 1.015-1.955 1.096 1.907 1.956 1.015-1.908 1.097-1.014 1.955-1.097-1.908-1.955-1.014Z"/><path fill="#263238" d="M328.681 302.447c0 .06-66.869.112-149.336.112-82.467 0-149.345-.052-149.345-.112 0-.061 66.852-.113 149.345-.113s149.336.048 149.336.113Z"/><path fill="#455A64" d="M117.084 294.761s-18.082 5.011-18.832 5.267c-1.088.381-.906 4.378.793 4.335.802-.03 13.903.486 15.559.382 1.656-.105 6.113-1.86 6.113-1.86l-3.633-8.124Z"/><path fill="#263238" d="M109.541 301.671c-.091 0-.212-.945-.798-1.942-.585-.997-1.335-1.596-1.279-1.665.057-.069.932.433 1.544 1.513.611 1.079.611 2.094.533 2.094ZM111.431 300.804c-.091 0-.273-.841-.754-1.786-.481-.946-1.054-1.609-.989-1.67.065-.06.759.534 1.258 1.535.498 1.002.563 1.921.485 1.921ZM113.2 300.34c-.091 0-.022-.91-.434-1.916-.412-1.006-1.053-1.626-.988-1.691.065-.065.867.49 1.27 1.582.403 1.093.225 2.055.152 2.025Z"/><path fill="#263238" d="M112.875 297.999a3.254 3.254 0 0 1-.195-1.344c.007-.501.072-1 .195-1.487.067-.287.157-.568.268-.841a.994.994 0 0 1 .291-.433.484.484 0 0 1 .62.03.82.82 0 0 1 .243.512c.01.158.01.318 0 .476a3.888 3.888 0 0 1-.113.867 5.42 5.42 0 0 1-.555 1.383 3.66 3.66 0 0 1-.815 1.088c-.039-.026.264-.433.624-1.187.212-.427.371-.879.473-1.344.059-.272.09-.55.091-.828 0-.278 0-.625-.169-.759a.179.179 0 0 0-.115-.059.178.178 0 0 0-.124.037.744.744 0 0 0-.199.317 7.112 7.112 0 0 0-.512 2.211c-.039.841.044 1.357-.008 1.361Z"/><path fill="#263238" d="M112.901 297.817c.369-.155.77-.22 1.17-.191a5.28 5.28 0 0 1 1.301.16c.259.054.509.146.741.273a.762.762 0 0 1 .407.824.9.9 0 0 1-.654.646 1.661 1.661 0 0 1-.811 0 3.863 3.863 0 0 1-2.016-1.409c.336.195.658.414.963.655.336.229.713.392 1.11.481.22.054.451.054.671 0a.616.616 0 0 0 .434-.434.458.458 0 0 0-.269-.502 2.605 2.605 0 0 0-.659-.256 5.92 5.92 0 0 0-1.218-.213c-.72-.06-1.162.013-1.17-.034ZM106.762 301.862c-.091 0 0-.785-.36-1.63-.36-.846-.941-1.349-.867-1.418.074-.069.785.355 1.166 1.3.382.946.135 1.782.061 1.748ZM119.377 302.698a4.281 4.281 0 0 1-.702.33 15.93 15.93 0 0 1-2.016.624 28.605 28.605 0 0 1-6.91.655c-2.714-.031-5.159-.152-6.936-.226l-2.098-.108a3.886 3.886 0 0 1-.768-.083c.26-.047.525-.064.789-.052h2.103l6.936.135a32.36 32.36 0 0 0 6.862-.559c1.726-.326 2.74-.772 2.74-.716Z"/><path fill="#263238" d="M119.928 303.11a14.523 14.523 0 0 1-1.357-.615 6.344 6.344 0 0 0-3.425-.568c-1.366.208-2.332 1.127-2.961 1.76-.321.38-.671.737-1.045 1.066.242-.441.541-.847.889-1.209.356-.42.759-.797 1.201-1.123a4.287 4.287 0 0 1 1.868-.793 5.988 5.988 0 0 1 3.564.676c.461.2.889.473 1.266.806ZM101.768 303.895c.075-.233.163-.462.264-.685a3.334 3.334 0 0 0-.598-3.243c-.286-.347-.516-.511-.494-.546.022-.035.286.095.62.433a3.089 3.089 0 0 1 .633 3.425c-.195.425-.403.633-.425.616Z"/><path fill="#455A64" d="M135.972 295.298s18.572 2.823 19.322 2.992c1.131.251 1.422 4.239-.269 4.378-.802.065-13.751 2.137-15.407 2.233-1.656.095-6.849-1.266-6.849-1.266l3.203-8.337Z"/><path fill="#263238" d="M144.283 301.259c.091 0 .099-.962.559-2.024.459-1.063 1.14-1.735 1.075-1.808-.065-.074-.867.55-1.353 1.69-.485 1.141-.355 2.159-.281 2.142ZM142.306 300.634c.091 0 .169-.867.537-1.864.369-.997.867-1.734.781-1.773-.087-.039-.69.616-1.067 1.669-.377 1.054-.329 1.973-.251 1.968ZM140.494 300.37c.086 0-.087-.906.19-1.951.278-1.045.867-1.734.781-1.799-.087-.065-.785.59-1.071 1.734-.286 1.145.03 2.055.1 2.016Z"/><path fill="#263238" d="M140.533 298.012c.11-.444.122-.908.034-1.357a6.258 6.258 0 0 0-.359-1.444 5.98 5.98 0 0 0-.369-.806 1.002 1.002 0 0 0-.338-.403.485.485 0 0 0-.616.104.806.806 0 0 0-.177.537 3.906 3.906 0 0 0 .251 1.344c.178.465.419.902.715 1.301.25.384.567.719.937.988.039-.034-.312-.433-.759-1.105a6 6 0 0 1-.633-1.301 3.94 3.94 0 0 1-.182-.81c-.026-.278-.069-.62.074-.772a.175.175 0 0 1 .107-.071.182.182 0 0 1 .127.023.74.74 0 0 1 .238.291c.139.244.261.497.364.758.181.444.317.904.408 1.375.147.832.13 1.348.178 1.348Z"/><path fill="#263238" d="M140.489 297.834a2.531 2.531 0 0 0-1.17-.065c-.43.052-.852.155-1.257.308-.25.086-.486.208-.703.36a.767.767 0 0 0-.307.867.917.917 0 0 0 .728.567 1.69 1.69 0 0 0 .806-.099 3.9 3.9 0 0 0 1.834-1.639 8.273 8.273 0 0 0-.867.763 3.197 3.197 0 0 1-1.045.611 1.455 1.455 0 0 1-.667.07.624.624 0 0 1-.49-.373.48.48 0 0 1 .208-.538c.192-.135.4-.246.62-.329.382-.161.78-.28 1.188-.356.671-.117 1.122-.099 1.122-.147ZM147.066 301.12c.091-.021-.091-.776.16-1.664.251-.889.78-1.448.715-1.509-.065-.061-.741.433-1.005 1.43-.265.998.065 1.787.13 1.743ZM134.624 303.452c.237.106.484.188.737.243.681.174 1.374.302 2.072.382 2.311.225 4.64.168 6.936-.169 2.692-.356 5.103-.768 6.854-1.05l2.072-.359c.256-.031.507-.089.75-.174a3.652 3.652 0 0 0-.767.057l-2.085.264-6.863.958a32.24 32.24 0 0 1-6.879.26c-1.756-.147-2.814-.459-2.827-.412Z"/><path fill="#263238" d="M134.143 303.925c.03.039.485-.308 1.274-.772a6.285 6.285 0 0 1 3.334-.971c1.378.044 2.445.841 3.147 1.396.366.338.754.651 1.162.937a5.462 5.462 0 0 0-1.023-1.097 7.135 7.135 0 0 0-1.327-.976 4.344 4.344 0 0 0-1.951-.563 5.995 5.995 0 0 0-3.468 1.092c-.43.256-.818.578-1.148.954Z"/><path fill="#FFBE9D" d="M193.729 218.996a1.142 1.142 0 0 0-.542-.534l.434-.867a2.56 2.56 0 0 0-.256-.893c-.217-.373-.976-.342-.976-.342l.118-.247a1.12 1.12 0 0 0-.096-1.093c-.035-.047-.069-.095-.113-.147a1.803 1.803 0 0 0-.958-.486s.434-.832.239-1.183a1.8 1.8 0 0 0-1.847-.728c-1.156.454-2.279.99-3.36 1.604a.796.796 0 0 1-1.127-.434 11.43 11.43 0 0 0-1.643-3.087c-.815-.979-1.578-.901-2.024-.728a.396.396 0 0 0-.133.088.373.373 0 0 0-.082.136c-.018.051-.024.105-.018.158a.366.366 0 0 0 .051.151c.437.698.831 1.422 1.179 2.168.212.568.433 4.842.433 4.842l-1.17 2.228-11.805 18.646s-17.839-12.021-17.774-12.321l-.841 13.786 13.439 8.93a9.468 9.468 0 0 0 13.912-4.092l9.047-19.638 1.097-1.604 4.261-2.731s.707-1.223.555-1.582Z"/><path fill="#EB996E" d="M191.774 214.392s-.026.03-.083.078l-.255.208c-.239.182-.564.433-.954.741l-1.426 1.084c-.269.199-.538.433-.867.624a1.25 1.25 0 0 1-1.132.152.868.868 0 0 1-.433-.434 1.226 1.226 0 0 1-.1-.567c.033-.363.185-.705.433-.972a6.25 6.25 0 0 1 .711-.65l.642-.533.936-.767.256-.204c.061-.043.091-.069.096-.065l-.083.082-.243.221-.91.789-.633.542c-.248.198-.48.416-.693.651a1.52 1.52 0 0 0-.434.91.9.9 0 0 0 .455.897.935.935 0 0 0 .533.052c.178-.034.349-.1.503-.195.304-.186.581-.433.867-.611l1.435-1.071.976-.711.268-.191.135-.06Z"/><path fill="#EB996E" d="M192.719 216.399c-.06.062-.127.118-.2.165-.13.099-.325.242-.568.411-.481.334-1.161.785-1.937 1.24-.195.113-.382.23-.581.321a1.264 1.264 0 0 1-.62.117.969.969 0 0 1-.802-.646.954.954 0 0 1 .052-.702.864.864 0 0 1 .108-.16c.031-.035.048-.048.052-.048.005 0-.056.078-.121.225a.946.946 0 0 0 0 .659.858.858 0 0 0 .737.572c.196.01.391-.031.568-.117a6.27 6.27 0 0 0 .568-.312 50.03 50.03 0 0 0 1.955-1.214l.581-.381a1.48 1.48 0 0 1 .208-.13Z"/><path fill="#EB996E" d="M193.269 218.358a1 1 0 0 1-.203.117l-.577.291c-.49.243-1.17.568-1.92.923a5.294 5.294 0 0 1-.564.243 1.09 1.09 0 0 1-.585.048.63.63 0 0 1-.434-.312.739.739 0 0 1-.069-.46.988.988 0 0 1 .342-.559c.117-.1.195-.139.2-.13.004.008-.065.056-.174.16-.15.146-.252.336-.29.542a.641.641 0 0 0 .069.403.537.537 0 0 0 .161.171.539.539 0 0 0 .216.089.975.975 0 0 0 .529-.052c.189-.069.372-.15.551-.242a188.68 188.68 0 0 1 1.933-.893l.594-.256a.81.81 0 0 1 .221-.083Z"/><path fill="#EB996E" d="M193.577 220.171a4.48 4.48 0 0 1-.676.177c-.434.096-1.006.221-1.652.351l-.472.096a1.837 1.837 0 0 1-.455.052.645.645 0 0 1-.404-.143.432.432 0 0 1-.156-.343.628.628 0 0 1 .26-.455.325.325 0 0 1 .174-.078s-.061.035-.148.113a.592.592 0 0 0-.208.433.361.361 0 0 0 .036.152.333.333 0 0 0 .099.121.55.55 0 0 0 .347.113c.146-.002.291-.021.433-.056l.473-.1c.646-.13 1.231-.243 1.656-.321.228-.054.46-.091.693-.112ZM188.952 219.303c-.4-.08-.807-.12-1.214-.121a5.829 5.829 0 0 0-1.192.238 2.23 2.23 0 0 1 1.187-.347c.42-.037.842.043 1.219.23Z"/><path fill="#263238" d="M125.256 215.22s-6-5.059-4.613-8.545c1.387-3.485 5.241-5.202 7.136-11.553 1.513-5.063 10.525-14.835 21.207-7.465 0 0 3.616-.568 5.67 1.079 2.055 1.648 2.554 4.934 3.425 8.727 1.344 5.848 2.081 10.344-.52 13.205-2.601 2.861-3.555 3.628-3.416 6.88.182 4.244 2.055 3.676.433 6.771l-8.956-2.922-.095-2.466-.906 2.319-5.203-1.873-14.162-4.157Z"/><path fill="#263238" d="M155.086 193.882c-.581 1.336-.104 2.879.433 4.231.538 1.353 1.192 2.779.915 4.21-.494 2.536-3.646 3.949-3.993 6.503-.186 1.369.499 2.765.234 4.127-.264 1.361-1.356 2.306-2.523 2.965-1.166.659-2.453 1.101-3.55 1.873 0 0-2.41 1.976-6.563-1.279"/><path fill="#FFBE9D" d="M138.07 190.566a2.209 2.209 0 0 0-2.601 1.469l-8.605 28.569c-1.114 3.342 3.091 6.91 6.676 8.072 3.624 1.175 4.357-.546 5.506-3.694 1.924-5.254 2.601-7.239 2.601-7.209 0 .03 4.803.824 7.803-4.769 1.491-2.787 3.035-7.673 4.149-11.704 1.014-3.633.173-8.818-3.499-9.672l-12.03-1.062Z"/><path fill="#263238" d="M150.564 204.282a.802.802 0 0 1-1.001.512.772.772 0 0 1-.547-.959.81.81 0 0 1 1.002-.511.786.786 0 0 1 .274.134.787.787 0 0 1 .296.52.78.78 0 0 1-.024.304ZM151.752 203.263c-.126.065-.555-.559-1.374-.841-.82-.282-1.561-.082-1.613-.212-.03-.061.13-.208.434-.308a2.221 2.221 0 0 1 1.335.048 2.14 2.14 0 0 1 1.053.797c.204.26.23.473.165.516ZM142.449 201.69a.805.805 0 0 1-.997.515.754.754 0 0 1-.274-.134.752.752 0 0 1-.296-.519.749.749 0 0 1 .024-.305.805.805 0 0 1 .997-.515.77.77 0 0 1 .546.958ZM143.593 200.797c-.13.069-.559-.56-1.378-.841-.82-.282-1.561-.083-1.613-.213-.03-.06.13-.203.455-.303a2.19 2.19 0 0 1 1.335.047c.427.146.796.424 1.054.794.182.277.208.49.147.516ZM144.452 207.897c.478.014.953.088 1.413.222.217.052.433.078.511-.052.092-.211.117-.443.074-.668 0-.572-.039-1.175-.061-1.803-.073-2.567-.047-4.643.057-4.648.104-.004.247 2.077.316 4.639 0 .628.022 1.231.035 1.808.047.301-.016.608-.178.867a.54.54 0 0 1-.433.186 1.367 1.367 0 0 1-.369-.074 5.66 5.66 0 0 1-1.365-.477Z"/><path fill="#EB996E" d="M141.651 217.773a15.933 15.933 0 0 1-7.201-4.877s.586 4.769 6.711 6.282l.49-1.405ZM143.42 209.766a1.555 1.555 0 0 0-.434-.651 1.559 1.559 0 0 0-.698-.355 1.43 1.43 0 0 0-1.101.174.894.894 0 0 0-.403.953 1.042 1.042 0 0 0 .976.642 3.22 3.22 0 0 0 1.261-.26.987.987 0 0 0 .321-.16.297.297 0 0 0 .104-.304"/><path fill="#263238" d="M144.2 198.456c-.125.217-.953-.056-1.976-.126-1.024-.069-1.878.048-1.973-.182-.039-.113.143-.303.512-.464a3.241 3.241 0 0 1 1.53-.229 3.28 3.28 0 0 1 1.478.463c.338.217.49.434.429.538ZM152.931 200.532c-.225.139-.867-.251-1.686-.494-.819-.242-1.565-.303-1.674-.546-.043-.117.122-.277.477-.368a2.99 2.99 0 0 1 2.71.836c.238.269.277.499.173.572Z"/><path fill="#263238" d="M128.048 209.333c1.612-5.402 3.226-10.807 4.842-16.214.329-1.11.711-2.293 1.634-2.991.924-.698 2.042-.737 3.135-.759 4.72-.098 9.435.368 14.045 1.388.217 1.096-.732 2.141-1.799 2.501-1.066.36-2.219.23-3.338.243-1.118.013-2.345.212-3.104 1.04-.758.828-.888 2.237-1.651 3.156-1.301 1.578-4.062 1.244-5.367 2.831-.984 1.201-.72 2.956-1.045 4.474-.369 1.734-.369 1.734-1.734 4.257-.828 1.552 1.253 4.517-.819 8.362l-4.023-1.144 1.764-5.939-2.393 5.57-.147-6.775ZM142.024 207.798c.082.047.039.264.035.576a2.092 2.092 0 0 0 1.018 1.942c.256.174.46.261.434.356-.026.095-.247.178-.633.087a1.906 1.906 0 0 1-1.301-2.489c.161-.373.373-.52.447-.472Z"/><path fill="#263238" d="M140.828 194.767a.862.862 0 0 1-.226.125 7.704 7.704 0 0 0-4.188 5.71 8.808 8.808 0 0 0 0 2.328c.129.843.179 1.696.152 2.549a4.63 4.63 0 0 1-.273 1.3c-.162.392-.355.77-.577 1.132a5.638 5.638 0 0 0-.91 2.12 7.199 7.199 0 0 0 .056 2.098c.091.663.208 1.3.252 1.851a4.89 4.89 0 0 1-.395 2.67c-.117.22-.263.422-.433.603-.126.117-.195.173-.2.165.217-.245.402-.516.551-.807a5.013 5.013 0 0 0 .316-2.601c-.056-.563-.182-1.175-.281-1.838a7.259 7.259 0 0 1-.074-2.167c.169-1.596 1.708-2.766 1.734-4.518a14.148 14.148 0 0 0-.143-2.51 8.811 8.811 0 0 1 0-2.384 7.638 7.638 0 0 1 1.643-3.65 7.219 7.219 0 0 1 2.068-1.734c.212-.123.434-.229.663-.317a.92.92 0 0 1 .265-.125ZM160.257 219.143l-.073.061c-.052.034-.126.095-.23.156-.307.18-.638.314-.984.398a4.08 4.08 0 0 1-1.686.061 3.718 3.718 0 0 1-1.995-.993 4.058 4.058 0 0 1-1.192-2.414 3.724 3.724 0 0 1 .1-1.522c.152-.52.392-1.01.711-1.448a19.293 19.293 0 0 1 2.397-2.445c.436-.404.831-.85 1.179-1.331a6.533 6.533 0 0 0 .811-1.63c.355-1.157.509-2.367.455-3.576a25.84 25.84 0 0 0-.351-3.377 31.566 31.566 0 0 0-1.439-5.562 33.557 33.557 0 0 0-1.999-4.517 2.052 2.052 0 0 1-.169-.313c.075.099.142.203.2.313.125.203.303.515.52.923a29.347 29.347 0 0 1 1.591 3.559 30.633 30.633 0 0 1 1.5 5.584c.199 1.126.322 2.264.368 3.407a10.61 10.61 0 0 1-.464 3.65 6.574 6.574 0 0 1-.836 1.687c-.36.493-.766.95-1.214 1.365a19.389 19.389 0 0 0-2.38 2.406 4.462 4.462 0 0 0-.689 1.379c-.133.47-.169.963-.109 1.448a3.943 3.943 0 0 0 1.123 2.323 3.651 3.651 0 0 0 1.903.984 4.007 4.007 0 0 0 1.643-.026 4.642 4.642 0 0 0 1.309-.55Z"/><path fill="#455A64" d="M123.378 213.264a3.734 3.734 0 0 0 1.392-.693 5.548 5.548 0 0 0 1.847-3.724 21.84 21.84 0 0 0 .078-2.961c-.063-1.148.026-2.3.264-3.425a6.427 6.427 0 0 1 .698-1.734 4.126 4.126 0 0 1 1.37-1.404c1.175-.72 2.601-.685 3.902-1.132a4.118 4.118 0 0 0 1.66-1.088c.44-.489.831-1.019 1.171-1.582.693-1.093 1.361-2.241 2.419-2.922a4.137 4.137 0 0 1 1.677-.611 9.043 9.043 0 0 1 1.669-.07c.986.077 1.977.068 2.961-.026a8.8 8.8 0 0 0 3.936-1.569c.314-.229.615-.475.902-.737l.221-.208.083-.069c-.336.41-.724.774-1.154 1.083a8.744 8.744 0 0 1-3.966 1.661c-.992.103-1.992.12-2.987.052-1.049 0-2.241 0-3.23.672-.988.672-1.651 1.76-2.345 2.861-.346.578-.747 1.12-1.197 1.621a4.327 4.327 0 0 1-1.734 1.145c-1.335.459-2.757.433-3.854 1.109a4.723 4.723 0 0 0-1.981 3 12.967 12.967 0 0 0-.281 3.369c.037.997.002 1.995-.105 2.987a5.574 5.574 0 0 1-1.95 3.771 3.139 3.139 0 0 1-1.045.542 2.54 2.54 0 0 1-.299.069c-.039.013-.081.017-.122.013Z"/><path fill="#455A64" d="M127.722 195.309c.283.099.573.176.867.229a4.224 4.224 0 0 0 2.341-.385 9.792 9.792 0 0 0 2.801-2.207c.477-.486.975-1.006 1.539-1.496a7.044 7.044 0 0 1 1.955-1.248 6.355 6.355 0 0 1 2.285-.434 19 19 0 0 1 2.146.117c.676.065 1.3.135 1.916.139a8.637 8.637 0 0 0 1.66-.134 4.579 4.579 0 0 0 2.168-.963c.214-.201.418-.414.611-.637a1.04 1.04 0 0 1-.117.199c-.051.08-.107.155-.169.226-.082.1-.172.193-.269.277a4.507 4.507 0 0 1-2.207 1.054 8.486 8.486 0 0 1-1.69.164c-.612 0-1.258-.06-1.938-.117a18.763 18.763 0 0 0-2.12-.104 6.149 6.149 0 0 0-2.207.408c-1.435.594-2.466 1.734-3.429 2.683a9.552 9.552 0 0 1-2.883 2.203 4.157 4.157 0 0 1-2.419.329 2.783 2.783 0 0 1-.641-.204 1.128 1.128 0 0 1-.2-.099ZM159.087 207.464c.107-.265.178-.544.212-.828a3.558 3.558 0 0 0-.615-2.189c-.503-.867-1.435-1.595-2.38-2.519a6.408 6.408 0 0 1-1.262-1.664 5.864 5.864 0 0 1-.537-2.168c-.1-1.539.164-2.978.13-4.283a5.202 5.202 0 0 0-.954-3.234 3.216 3.216 0 0 0-1.903-1.218 3.645 3.645 0 0 0-.867-.022.773.773 0 0 1 .221-.061 2.41 2.41 0 0 1 .646 0 3.232 3.232 0 0 1 2.016 1.206c.672.776 1.019 2.007 1.036 3.329.017 1.322-.213 2.77-.113 4.27.035.726.209 1.438.512 2.098a6.14 6.14 0 0 0 1.209 1.617c.919.919 1.869 1.691 2.367 2.601.444.675.645 1.481.568 2.285a2.068 2.068 0 0 1-.182.62.798.798 0 0 1-.104.16Z"/><path fill="#263238" d="M120.721 210.061a2.658 2.658 0 0 1-.277-.152 3.208 3.208 0 0 1-.672-.607 3.936 3.936 0 0 1-.833-3.165c.07-.37.194-.728.369-1.062a4.21 4.21 0 0 1 .763-.945 9.748 9.748 0 0 1 2.254-1.387 8.779 8.779 0 0 0 2.41-1.535 5.67 5.67 0 0 0 1.366-2.696c.26-1.028.434-2.068.776-3.035.321-.924.744-1.809 1.262-2.64a13.76 13.76 0 0 1 3.294-3.663 12.856 12.856 0 0 1 2.87-1.682c.276-.121.558-.227.845-.316.098-.041.2-.07.304-.087 0 .026-.408.156-1.114.485a13.301 13.301 0 0 0-2.805 1.734 13.857 13.857 0 0 0-3.217 3.646 13.015 13.015 0 0 0-1.227 2.601c-.329.945-.502 1.973-.771 3.035a5.848 5.848 0 0 1-1.426 2.796 8.927 8.927 0 0 1-2.472 1.565 9.73 9.73 0 0 0-2.223 1.34 4.102 4.102 0 0 0-.737.893 3.606 3.606 0 0 0-.365 1.005 4.062 4.062 0 0 0 .1 1.834c.133.452.351.874.642 1.244.259.302.557.568.884.794ZM160.309 207.868c-.021 0 .182-.209.46-.62a5.271 5.271 0 0 0 .772-1.921 7.277 7.277 0 0 0-.109-3.06 12.306 12.306 0 0 0-1.552-3.447c-.715-1.149-1.487-2.189-2.137-3.173a17.965 17.965 0 0 1-1.53-2.74 8.972 8.972 0 0 1-.629-2.025 4.988 4.988 0 0 1-.069-.572.664.664 0 0 1 0-.199s.052.273.16.754c.158.687.386 1.355.681 1.994.448.936.97 1.835 1.56 2.688.655.975 1.435 2.012 2.168 3.173a12.236 12.236 0 0 1 1.565 3.516 7.308 7.308 0 0 1 .061 3.143 5.044 5.044 0 0 1-.867 1.938 3.42 3.42 0 0 1-.382.433.729.729 0 0 1-.152.118ZM115.281 268.29l-3.56 6.195s-17.691-6.472-28.048-4.586c-3.94.715-8.154 9.65-2.415 15.389 5.597 5.597 15.607 13.513 34.391 16.075.468.061 8.163 1.712 7.686 1.656-.477-.056 10.786 1.734 10.786 1.734l2.644-9.997 20.978 3.291c12.364-.842 18.416-14.064 10.968-18.321-6.936-3.966-20.002-4.287-20.002-4.287l-4.734-7.422-28.694.273Z"/><path fill="#455A64" d="M134.55 305.139c.052-.338.204-1.248.507-3.117.169-.997.373-2.211.638-3.607.134-.702.281-1.443.459-2.228.091-.395.187-.793.304-1.205.056-.204.117-.408.19-.616.067-.224.176-.433.321-.615l.03.151a298.692 298.692 0 0 1-15.996-6.19c-3.659-1.557-7.11-3.126-10.149-4.769a32.869 32.869 0 0 1-4.161-2.579c-1.232-.911-2.333-1.821-3.364-2.601-2.038-1.613-3.902-2.653-5.276-3.096a9.242 9.242 0 0 0-.924-.273 5.585 5.585 0 0 0-.689-.147l-.433-.078-.148-.035a.642.642 0 0 1 .152 0l.433.057c.237.025.472.067.703.125.317.066.63.152.936.256.845.274 1.659.636 2.428 1.08a25.073 25.073 0 0 1 2.917 1.972c1.041.785 2.142 1.686 3.377 2.601a32.892 32.892 0 0 0 4.149 2.549c3.035 1.621 6.481 3.186 10.136 4.738a331.11 331.11 0 0 0 15.97 6.226l.126.047-.096.104c-.121.165-.214.35-.273.547-.073.199-.134.403-.195.602a24.41 24.41 0 0 0-.307 1.192 64.655 64.655 0 0 0-.477 2.22c-.278 1.396-.495 2.601-.677 3.598-.182.997-.329 1.756-.433 2.298-.052.264-.091.468-.126.602a1.38 1.38 0 0 1-.052.191Z"/><path fill="#455A64" d="M164.645 280.94h-.117l-.325-.052c-.287-.039-.703-.143-1.253-.199a24.361 24.361 0 0 0-4.652-.165 34.737 34.737 0 0 0-6.815 1.127 54.731 54.731 0 0 0-3.901 1.197 96.288 96.288 0 0 0-4.106 1.556 37.712 37.712 0 0 1-4.183 1.383 52.74 52.74 0 0 1-3.997.919c-2.566.503-4.903.81-6.863 1.049-1.959.238-3.55.399-4.647.511l-1.266.126-.329.026a.357.357 0 0 1-.113 0h.109l.329-.048 1.257-.169 4.639-.58c1.959-.261 4.287-.586 6.841-1.097a54.147 54.147 0 0 0 3.979-.932 38.977 38.977 0 0 0 4.162-1.375c1.396-.559 2.77-1.096 4.118-1.556a53.853 53.853 0 0 1 3.924-1.192 33.785 33.785 0 0 1 6.858-1.079 22.91 22.91 0 0 1 4.673.234c.551.069.962.19 1.249.242l.325.074a.362.362 0 0 1 .104 0Z"/><path fill="#263238" d="M132.322 277.342c0 .147-.936.386-2.51.533a32.823 32.823 0 0 1-12.19-1.3c-1.505-.477-2.385-.915-2.341-1.058.099-.312 3.814.676 8.496 1.162 4.682.485 8.515.333 8.545.663Z"/><path fill="#455A64" d="M148.908 275.586c-.226.08-.458.142-.694.187a8.083 8.083 0 0 0-.81.208c-.312.091-.672.186-1.058.325-.912.305-1.806.66-2.679 1.062a38.934 38.934 0 0 0-3.117 1.665 49.214 49.214 0 0 0-5.25 3.693c-.641.512-1.157.937-1.508 1.232-.177.16-.367.305-.568.433.156-.181.325-.351.507-.507.338-.317.837-.759 1.469-1.301a41.787 41.787 0 0 1 5.237-3.767 33.615 33.615 0 0 1 3.143-1.656 22.77 22.77 0 0 1 2.718-1.027c.391-.13.755-.217 1.075-.295.271-.074.546-.132.824-.174.234-.046.472-.072.711-.078ZM129.24 284.4a5.018 5.018 0 0 1-1.244-.356 26.786 26.786 0 0 1-2.84-1.279l-2.744-1.443a9.74 9.74 0 0 1-1.131-.616c.416.116.82.274 1.205.473.724.329 1.703.832 2.783 1.382 1.079.551 2.063 1.028 2.796 1.336.733.307 1.183.468 1.175.503ZM131.151 269.036c.035 0-.026.65-.091 1.695a51.118 51.118 0 0 0-.095 4.084c.03 1.595.147 3.034.251 4.084.082.56.136 1.124.161 1.69a1.655 1.655 0 0 1-.113-.433c-.061-.286-.13-.707-.204-1.227a34.457 34.457 0 0 1-.32-4.097 35.54 35.54 0 0 1 .16-4.101c.056-.524.108-.945.156-1.235a1.95 1.95 0 0 1 .095-.46ZM133.124 269.678s-.078.069-.186.199a1.235 1.235 0 0 0-.278.637 1.203 1.203 0 0 0 .273.95 1.126 1.126 0 0 0 1.616-.137c.126-.158.208-.347.235-.548a1.203 1.203 0 0 0-.433-.898 1.228 1.228 0 0 0-.624-.303c-.169-.026-.265 0-.269-.03-.005-.031.091-.057.277-.057.263.008.516.102.72.269a1.309 1.309 0 0 1 .516 1.023 1.295 1.295 0 0 1-.845 1.114 1.302 1.302 0 0 1-1.366-.295 1.319 1.319 0 0 1-.273-1.114c.046-.26.177-.498.373-.676.156-.117.26-.143.264-.134Z"/><path fill="#263238" d="M138.508 262.537a2.444 2.444 0 0 1-.338.434c-.325.387-.673.754-1.04 1.101-.545.518-1.124.997-1.734 1.435a18.838 18.838 0 0 1-2.363 1.426c-.826.406-1.681.75-2.558 1.028-.718.223-1.451.397-2.193.52-.498.087-1 .143-1.505.169-.184.018-.37.018-.555 0 0-.043.785-.087 2.034-.33a19.102 19.102 0 0 0 2.167-.563 18.534 18.534 0 0 0 6.598-3.802c.945-.841 1.452-1.444 1.487-1.418ZM146.42 267.349c0 .065-.781.065-1.7.299-.919.235-1.612.581-1.647.525a4.506 4.506 0 0 1 3.347-.824Z"/><path fill="#000" d="M128.225 268.433a16.6 16.6 0 0 0 9.663-5.583 3.894 3.894 0 0 1-.949 3.979c1.101.52 2.393.174 3.598 0 1.205-.173 2.679 0 3.256 1.071-5.392.499-10.811.654-16.222.464" opacity=".3"/><path fill="#263238" d="M117.461 259.937a6.088 6.088 0 0 0-1.868-1.21 6.007 6.007 0 0 0-2.372-.403 6.513 6.513 0 0 0-2.83.763c-1.891.98-3.035 2.653-3.867 3.724-.323.45-.613.922-.867 1.413a3.531 3.531 0 0 1-.3.529 3.07 3.07 0 0 1 .222-.568 9.479 9.479 0 0 1 .797-1.465c.403-.581.924-1.231 1.522-1.942a8.464 8.464 0 0 1 2.375-1.895 6.575 6.575 0 0 1 2.935-.767 5.991 5.991 0 0 1 2.437.464c.518.212.994.516 1.404.897.114.1.219.21.312.33.074.082.109.125.1.13Z"/><path fill="#FFBE9D" d="m128.811 218.354-6.052 1.288 3.026 11.327 10.716 2.302 7.353-5.215 1.01-6.247-6.304-2.384-9.749-1.071Z"/><path fill="#455A64" d="M124.549 219.178s4.097 11.895 11.666 10.794c7.569-1.101 6.936-8.809 6.936-8.809s7.899 2.411 10.339 4.973c2.441 2.562 1.002 8.132 1.002 8.132l-2.046 10.066-4.457 19.283s1.704 5.263-2.653 6.563l-1.374-2.167-26.128.737s-5.588 6.442-7.331 4.222c-1.742-2.219-3.416-6.554-3.416-6.554l12.004-45.814 5.458-1.426Z"/><path fill="#455A64" d="M151.427 224.614c.212.121 18.55 13.439 18.55 13.439s-1.439 10.959 7.37 9.216c0 0-3.555 9.165-8.367 7.24-1.37-.546-18.273-11.241-18.273-11.241l-3.585-7.634 4.305-11.02ZM124.549 219.763s-.433 0-1.114.078c-3.589.347-16.838 3.091-18.064 12.442-.642 4.89-.824 19.191-1.518 25.187 0 0 1.106 8.332 1.518 9.875.732 2.749 14.006-1.656 14.006-1.656l.026-26.444 4.743-19.469"/><path fill="#263238" d="M116.165 243.788a.635.635 0 0 1 0 .213c.003.205.018.411.043.615.094.743.282 1.472.559 2.168.339.893.867 1.907 1.37 3.069.277.61.508 1.238.694 1.881.186.694.306 1.404.36 2.12a25.17 25.17 0 0 1-.109 4.136c-.108 1.266-.212 2.406-.368 3.355a14.902 14.902 0 0 1-.525 2.216c-.086.255-.16.433-.216.58a.744.744 0 0 1-.096.196l.23-.802c.194-.728.339-1.468.434-2.216.138-.945.225-2.081.325-3.342.132-1.364.161-2.737.086-4.105-.051-.703-.167-1.4-.346-2.081a14.318 14.318 0 0 0-.672-1.856c-.503-1.157-1.006-2.189-1.331-3.095a8.043 8.043 0 0 1-.494-2.228 3.566 3.566 0 0 1 0-.62 1.1 1.1 0 0 1 .056-.204ZM116.776 240.45c.039 0 .07.672.221 1.734.197 1.398.521 2.775.967 4.114.134.395.273.772.434 1.136.031.084.067.167.108.247l.156.239c.101.158.193.322.278.489.31.577.478 1.219.489 1.873.003.446-.084.889-.255 1.301-.06.154-.14.3-.239.433a4.497 4.497 0 0 0 .334-1.69 4.085 4.085 0 0 0-.512-1.782 6.366 6.366 0 0 0-.277-.468l-.156-.239a1.533 1.533 0 0 1-.13-.282c-.152-.364-.291-.75-.434-1.144a19.517 19.517 0 0 1-.91-4.17 13.121 13.121 0 0 1-.082-1.301 2.06 2.06 0 0 1 .008-.49ZM117.305 236.479c-.035 0-.234-.542-.624-1.396a19.722 19.722 0 0 0-1.834-3.182 19.942 19.942 0 0 0-2.406-2.77c-.681-.65-1.14-1.019-1.114-1.049.125.059.242.135.347.225.301.221.59.457.867.707a16.42 16.42 0 0 1 4.279 6.004c.177.434.307.802.381 1.058.051.13.086.265.104.403ZM154.878 228.71c.008.352-.021.704-.087 1.05-.078.645-.191 1.534-.291 2.518a183.48 183.48 0 0 0-.238 2.528 5.03 5.03 0 0 1-.13 1.044 4.637 4.637 0 0 1-.03-1.053c0-.655.069-1.552.173-2.54.104-.989.238-1.882.355-2.519.044-.351.127-.695.248-1.028ZM158.649 239.843c0 .039-.572.096-1.461.347a6.902 6.902 0 0 0-3.056 1.791 8.427 8.427 0 0 0-1.166 1.586c-.255.476-.478.969-.668 1.474l-.212.59c-.052.16-.096.312-.139.433a1.586 1.586 0 0 1-.143.382 1.199 1.199 0 0 1 .061-.403l.099-.464.182-.607a10.62 10.62 0 0 1 .638-1.522 7.998 7.998 0 0 1 1.187-1.604 6.566 6.566 0 0 1 3.174-1.786c.205-.056.413-.098.624-.126.156-.029.314-.05.473-.06.133-.032.271-.042.407-.031ZM170.792 251.908a2.628 2.628 0 0 1-.291-.486 6.515 6.515 0 0 1-.303-.594c-.108-.238-.239-.498-.351-.806a15.694 15.694 0 0 1-.698-2.189 17.864 17.864 0 0 1-.434-2.788 17.616 17.616 0 0 1 .048-2.813c.079-.763.212-1.519.399-2.263.069-.321.169-.603.243-.867.059-.214.131-.424.216-.629.057-.18.133-.355.226-.52.043 0-.247.767-.529 2.033a18.324 18.324 0 0 0-.347 2.246 19.735 19.735 0 0 0-.035 2.783c.07.926.206 1.846.408 2.753.169.735.383 1.459.641 2.167.46 1.245.846 1.956.807 1.973Z"/><path fill="#263238" d="M166.027 248.652a1.866 1.866 0 0 1-.173-.464 9.144 9.144 0 0 1-.269-1.3 10.256 10.256 0 0 1 .408-4.405 9.98 9.98 0 0 1 2.215-3.832 1.897 1.897 0 0 1 1.192-.641.837.837 0 0 1 .369.073c.073.039.112.065.108.074a1.306 1.306 0 0 0-.473-.061 1.93 1.93 0 0 0-1.079.664 10.533 10.533 0 0 0-2.115 3.788 11.053 11.053 0 0 0-.469 4.336c.113 1.083.325 1.755.286 1.768ZM136.215 246.493c-.014.176-.05.35-.108.516a5.05 5.05 0 0 1-.174.59 8.254 8.254 0 0 1-.29.763 12.13 12.13 0 0 1-.989 1.881 12.841 12.841 0 0 1-3.628 3.711c-.589.399-1.211.746-1.86 1.036-.247.116-.5.217-.759.304a3.955 3.955 0 0 1-.585.19 2.57 2.57 0 0 1-.511.122c0-.044.711-.239 1.786-.759.63-.307 1.236-.662 1.812-1.062a15.487 15.487 0 0 0 1.959-1.656 15.09 15.09 0 0 0 1.609-1.999c.387-.583.727-1.196 1.018-1.833.499-1.088.677-1.817.72-1.804Z"/><path fill="#000" d="m121.202 250.785-2.497-9.104c-.121-.433-.325-.966-.78-1.049a.867.867 0 0 0-.889.746c-.06.442-.06.889 0 1.331.195 1.981.351 3.325 1.275 4.86 1.799 2.991.615 4.443.615 4.443.143 3.642-.164 8.61-1.3 12.351l1.071 4.513c1.014-3.356 3.333-6.152 3.723-9.637.3-2.857-.442-5.688-1.218-8.454ZM152.454 244.395c2.97 1.543 5.61 3.676 8.501 5.328-1.131-2.363-3.034-4.699-5.323-5.952a3.369 3.369 0 0 0-2.012-.534c-.702.1-1.205.495-1.097 1.193M169.47 237.862c-1.015-.026-1.778.897-2.276 1.782a13.7 13.7 0 0 0-1.639 8.271c.061.512.251 1.127.759 1.227a.864.864 0 0 0 .897-.533c.139-.348.197-.723.169-1.097 0-1.734-.121-3.49.13-5.202.251-1.713.897-3.447 2.168-4.622" opacity=".3"/><path fill="#fff" d="M123.617 241.118h.104l.299-.022 1.175-.061 4.439-.203 15.724-.668h.104v.1c.13 5.289.281 11.375.433 17.817v.759h-.074c-6.477.075-12.944.558-19.36 1.448h-.083l-.021-.083a69.24 69.24 0 0 1-2.311-13.941 63.962 63.962 0 0 1-.121-3.963V240.901a.347.347 0 0 1 0 .091V242.301c0 .915.056 2.255.173 3.954a71.228 71.228 0 0 0 2.384 13.903l-.108-.074a150.687 150.687 0 0 1 19.447-1.487l-.112.117v-.646c-.152-6.442-.291-12.528-.434-17.817l.104.099-15.728.586-4.443.147-1.175.035H123.617Z"/><path fill="#fff" d="M129.348 254.258c-.061 0-.603-2.918-1.209-6.542-.607-3.624-1.05-6.568-.989-6.581.061-.013.603 2.918 1.21 6.546.607 3.629 1.031 6.568.988 6.577ZM129.981 259.85a13.033 13.033 0 0 1-.481-2.363 13.186 13.186 0 0 1-.26-2.402c.233.773.394 1.565.481 2.367.165.789.252 1.592.26 2.398ZM133.718 251.357a1.295 1.295 0 0 1-.121-.403c-.065-.26-.148-.646-.239-1.118a43.69 43.69 0 0 1-.533-3.733 44.291 44.291 0 0 1-.217-3.763v-1.144a1.86 1.86 0 0 1 .039-.434 12.1 12.1 0 0 1 .109 1.557c.052.962.134 2.288.281 3.749a86.82 86.82 0 0 0 .464 3.729c.103.515.176 1.036.217 1.56ZM133.223 259.269a21.587 21.587 0 0 1-.489-3.065 20.388 20.388 0 0 1-.269-3.091c.236 1.009.4 2.033.49 3.065.167 1.022.257 2.056.268 3.091ZM138.122 258.918a5.207 5.207 0 0 1-.086-.715l-.169-1.951a253.657 253.657 0 0 0-.642-6.421 221.04 221.04 0 0 0-.832-6.403l-.278-1.937a4.78 4.78 0 0 1-.078-.716c.076.229.131.464.165.703.091.433.208 1.109.347 1.924a128.022 128.022 0 0 1 1.478 12.841c.048.824.082 1.491.095 1.955.023.24.023.481 0 .72ZM142.293 259.152a4.429 4.429 0 0 1-.035-.728v-1.986c0-1.673-.061-3.988-.178-6.537-.117-2.549-.299-4.86-.433-6.529-.07-.802-.126-1.469-.169-1.972a4.934 4.934 0 0 1-.039-.729c.063.234.105.474.125.716.07.464.152 1.14.243 1.972.182 1.665.382 3.975.507 6.529.126 2.553.139 4.873.113 6.55 0 .837-.03 1.518-.052 1.986-.01.244-.037.488-.082.728Z"/><path fill="#000" d="M127.653 255.636a3.637 3.637 0 0 0 2.285.555 7.264 7.264 0 0 0 2.306-.602 6.978 6.978 0 0 0 2.623-1.734 6.103 6.103 0 0 0 1.3-3.07c.144-1.122.182-2.256.113-3.385a.22.22 0 0 0-.035-.139.175.175 0 0 0-.121-.052.18.18 0 0 0-.122.052.553.553 0 0 0-.134.238 12.576 12.576 0 0 1-8.362 7.908" opacity=".3"/><path fill="#FFBE9D" d="m124.97 291.947-2.649-4.968-5.957-27.879s-5.479-3.147-9.97 3.75c-.178.277 6.173 20.245 7.946 25.798l.247 5.315s-.312 6.29 0 6.841c.279.386.66.686 1.101.867 0 0-.234 1.573 1.574 1.734 0 0 .156 1.734 1.491 1.495a2.57 2.57 0 0 0 1.812-1.101s0 2.198 1.179 1.964c1.179-.234 1.37-1.179 1.587-1.491.217-.312.468-3.542.468-3.542l-.022-5.323 3.07 2.488c.867.433 2.189.988 2.926.325l-4.803-6.273Z"/><path fill="#EB996E" d="M123.782 295.133c.202.943.26 1.91.173 2.87-.035.737-.065 1.409-.095 2.025.009.281-.017.562-.078.836a13.241 13.241 0 0 1-.052-2.87c.078-1.578-.018-2.852.052-2.861ZM120.4 298.844c.174 1.751.197 3.513.07 5.267a30.78 30.78 0 0 1-.07-5.267ZM117.565 299.811a7.17 7.17 0 0 1-.351 3.642c-.061 0 .095-.82.187-1.821.021-.61.076-1.218.164-1.821ZM115.74 299.195a6.32 6.32 0 0 1-.234 2.372 3.17 3.17 0 0 1 0-1.197 3.31 3.31 0 0 1 .234-1.175Z"/><path fill="#DE7A4A" d="m175.006 195.972.823 1.504 1.505.824-1.505.824-.823 1.504-.824-1.504-1.504-.824 1.504-.824.824-1.504ZM180.503 175.372l.854-.057.689-.511.056.858.512.689-.858.057-.69.507-.056-.854-.507-.689ZM319.166 243.78l.854-.057.689-.511.056.858.512.69-.858.056-.69.507-.056-.854-.507-.689ZM221.491 200.979l.854-.056.694-.507.056.854.507.689-.854.056-.693.507-.052-.854-.512-.689ZM226.702 164.347l.854-.056.689-.507.057.854.507.689-.854.056-.69.512-.056-.858-.507-.69ZM200.453 187.081l1.3-.75.689-1.331.75 1.301 1.336.693-1.301.746-.693 1.335-.75-1.301-1.331-.693ZM309.72 260.999l1.3-.75.69-1.331.75 1.301 1.33.689-1.3.75-.689 1.331-.75-1.301-1.331-.689ZM303.187 237.221l1.3-.75.694-1.331.75 1.3 1.331.689-1.301.75-.694 1.336-.745-1.305-1.335-.689Z"/></svg>