<svg width="360" height="391" viewBox="0 0 360 391" fill="none" xmlns="http://www.w3.org/2000/svg">
<path d="M363.301 241.416C335.105 318.973 137.65 295.177 53.8673 265.924C-46.8584 230.755 -29.6548 191.615 -1.45855 114.057C26.7377 36.4998 130.563 58.1305 227.495 65.4652C270.834 209.13 391.498 163.858 363.301 241.416Z" fill="#F7DFD4" fill-opacity="0.3"/>
<path d="M36.4556 175.542L36.4578 175.535C48.1754 139.108 60.9444 116.481 74.9599 103.505C88.9519 90.5508 104.214 87.19 121.015 89.3648C137.845 91.5432 156.206 99.2742 176.361 108.513C179.596 109.996 182.876 111.517 186.202 113.06C203.54 121.1 222.142 129.727 242.118 136.531C256.838 175.778 274.056 201.837 291.329 219.683C308.629 237.556 325.97 247.177 340.879 253.564C346.772 256.089 352.288 258.109 357.262 259.932C358.577 260.413 359.853 260.881 361.089 261.34C367.014 263.543 371.985 265.552 375.736 267.995C379.475 270.43 381.969 273.277 382.982 277.147C383.996 281.02 383.543 285.978 381.256 292.672C359.846 318.355 332.206 336.192 298.033 343.576C263.831 350.966 223.058 347.891 175.403 331.692C106.44 308.25 67.0976 282.643 47.3001 256.199C27.5258 229.786 27.2173 202.491 36.4556 175.542Z" stroke="#F7DFD4" stroke-width="0.75"/>
<path d="M330 318.44H30V318.59H330V318.44Z" fill="#EBEBEB"/>
<path d="M299.94 328.094H291V328.244H299.94V328.094Z" fill="#EBEBEB"/>
<path d="M228.732 329.726H223.518V329.876H228.732V329.726Z" fill="#EBEBEB"/>
<path d="M288.468 322.526H267.954V322.676H288.468V322.526Z" fill="#EBEBEB"/>
<path d="M95.778 325.622H69.864V325.772H95.778V325.622Z" fill="#EBEBEB"/>
<path d="M110.466 325.622H101.118V325.772H110.466V325.622Z" fill="#EBEBEB"/>
<path d="M182.856 323.606H126.648V323.756H182.856V323.606Z" fill="#EBEBEB"/>
<path d="M172.2 291.68H56.346C55.4384 291.678 54.5686 291.317 53.9274 290.674C53.2862 290.032 52.926 289.162 52.926 288.254V125.396C52.9339 124.494 53.2975 123.631 53.9379 122.995C54.5782 122.359 55.4436 122.002 56.346 122H172.2C173.109 122 173.98 122.361 174.623 123.003C175.265 123.646 175.626 124.517 175.626 125.426V288.254C175.626 289.163 175.265 290.034 174.623 290.677C173.98 291.319 173.109 291.68 172.2 291.68ZM56.346 122.12C55.4782 122.122 54.6465 122.467 54.0334 123.082C53.4204 123.696 53.076 124.528 53.076 125.396V288.254C53.076 289.122 53.4204 289.954 54.0334 290.568C54.6465 291.183 55.4782 291.528 56.346 291.53H172.2C173.068 291.528 173.901 291.183 174.515 290.569C175.129 289.955 175.474 289.122 175.476 288.254V125.396C175.474 124.528 175.129 123.695 174.515 123.081C173.901 122.467 173.068 122.122 172.2 122.12H56.346Z" fill="#EBEBEB"/>
<path d="M301.986 291.68H186.126C185.218 291.678 184.347 291.317 183.705 290.675C183.063 290.033 182.702 289.162 182.7 288.254V125.396C182.709 124.493 183.074 123.63 183.716 122.995C184.357 122.359 185.223 122.002 186.126 122H301.986C302.887 122.003 303.751 122.361 304.39 122.997C305.029 123.633 305.392 124.495 305.4 125.396V288.254C305.4 289.161 305.041 290.03 304.401 290.672C303.761 291.314 302.892 291.677 301.986 291.68ZM186.126 122.12C185.258 122.122 184.425 122.467 183.811 123.081C183.197 123.695 182.852 124.528 182.85 125.396V288.254C182.852 289.122 183.197 289.955 183.811 290.569C184.425 291.183 185.258 291.528 186.126 291.53H301.986C302.854 291.528 303.687 291.183 304.301 290.569C304.915 289.955 305.26 289.122 305.262 288.254V125.396C305.26 124.528 304.915 123.695 304.301 123.081C303.687 122.467 302.854 122.122 301.986 122.12H186.126Z" fill="#EBEBEB"/>
<path d="M162.9 314.06H167.64V281.6H162.9V314.06Z" fill="#F0F0F0"/>
<path d="M67.0259 318.44H164.514V314.06H67.0259V318.44Z" fill="#F0F0F0"/>
<path d="M162.9 281.6H63.894V314.06H162.9V281.6Z" fill="#F5F5F5"/>
<path d="M156.492 287.252H70.2959V305.792H156.492V287.252Z" fill="#F0F0F0"/>
<path d="M92.43 289.73H134.37C135.155 289.73 135.792 289.093 135.792 288.308V288.044C135.792 287.259 135.155 286.622 134.37 286.622H92.43C91.6446 286.622 91.008 287.259 91.008 288.044V288.308C91.008 289.093 91.6446 289.73 92.43 289.73Z" fill="#F5F5F5"/>
<path d="M61.7219 281.6H162.9V278.702H61.7219V281.6Z" fill="#F0F0F0"/>
<path d="M169.914 278.702H162.9V281.6H169.914V278.702Z" fill="#E6E6E6"/>
<path d="M159.282 235.886L286.14 235.886V138.596H159.282V235.886Z" fill="#E6E6E6"/>
<path d="M147.408 134.81H293.316C293.607 134.81 293.886 134.926 294.092 135.132C294.298 135.338 294.414 135.617 294.414 135.908C294.412 136.198 294.296 136.476 294.09 136.681C293.884 136.885 293.606 137 293.316 137H147.408C147.263 137.001 147.12 136.973 146.986 136.918C146.852 136.863 146.73 136.783 146.628 136.681C146.525 136.579 146.444 136.457 146.388 136.324C146.333 136.19 146.304 136.047 146.304 135.902C146.305 135.758 146.334 135.615 146.39 135.482C146.446 135.349 146.527 135.229 146.63 135.127C146.732 135.026 146.854 134.946 146.987 134.891C147.121 134.837 147.264 134.809 147.408 134.81Z" fill="#E6E6E6"/>
<path d="M154.578 235.886L283.944 235.886V138.596H154.578V235.886Z" fill="#F0F0F0"/>
<path d="M159.282 235.886H286.14V239H156.042L159.282 235.886Z" fill="#E6E6E6"/>
<path d="M146.742 235.886H276.108L272.868 239H143.508L146.742 235.886Z" fill="#F0F0F0"/>
<path d="M277.356 229.304V145.178H161.16V229.304H277.356Z" fill="#FAFAFA"/>
<path d="M238.584 229.298L199.95 145.178H181.704L220.344 229.298H238.584Z" fill="white"/>
<path d="M216.426 229.298L177.786 145.178H170.676L209.316 229.298H216.426Z" fill="white"/>
<path d="M162 229.304V145.178H161.166V229.304H162Z" fill="#E6E6E6"/>
<g opacity="0.4">
<path d="M277.284 213.122H288.612V132.836H277.284V213.122Z" fill="#F0F0F0"/>
<path d="M272.868 213.122H281.694V132.836H272.868V213.122Z" fill="#E6E6E6"/>
<path d="M265.956 213.122H277.284V132.836H265.956V213.122Z" fill="#F0F0F0"/>
<path d="M261.54 213.122H270.366V132.836H261.54V213.122Z" fill="#E6E6E6"/>
<path d="M254.622 213.122H265.95V132.836H254.622V213.122Z" fill="#F0F0F0"/>
</g>
<g opacity="0.4">
<path d="M165.384 213.122H171.912V132.836H165.384V213.122Z" fill="#F0F0F0"/>
<path d="M162.834 213.122H167.922V132.836H162.834V213.122Z" fill="#E6E6E6"/>
<path d="M158.85 213.122H165.378V132.836H158.85V213.122Z" fill="#F0F0F0"/>
<path d="M156.306 213.122H161.394V132.836H156.306V213.122Z" fill="#E6E6E6"/>
<path d="M152.322 213.122H158.85V132.836H152.322V213.122Z" fill="#F0F0F0"/>
</g>
<path d="M124.32 132.89H72.198V266.066H124.32V132.89Z" fill="#F5F5F5"/>
<path d="M124.326 266.06H125.754L125.754 132.884H124.326L124.326 266.06Z" fill="#E0E0E0"/>
<path d="M119.49 261.236L119.49 137.714H77.022V261.236H119.49Z" fill="white"/>
<path d="M91.9741 261.236L106.068 137.714H114.198L100.11 261.236H91.9741Z" fill="#FAFAFA"/>
<path d="M84.9299 261.236L99.0179 137.714H103.086L88.9979 261.236H84.9299Z" fill="#FAFAFA"/>
<path d="M180 345.536C244.249 345.536 296.334 342.495 296.334 338.744C296.334 334.993 244.249 331.952 180 331.952C115.751 331.952 63.666 334.993 63.666 338.744C63.666 342.495 115.751 345.536 180 345.536Z" fill="#F5F5F5"/>
<path d="M268.83 338.744H198.75C197.773 338.754 196.806 338.561 195.908 338.177C195.01 337.793 194.202 337.226 193.536 336.513C192.869 335.8 192.359 334.955 192.036 334.034C191.714 333.112 191.587 332.133 191.664 331.16L201.444 182.918C201.608 180.875 202.526 178.967 204.02 177.565C205.514 176.163 207.477 175.368 209.526 175.334H279.6C280.576 175.324 281.543 175.518 282.44 175.902C283.337 176.287 284.144 176.854 284.81 177.567C285.476 178.28 285.986 179.124 286.308 180.046C286.63 180.967 286.756 181.945 286.68 182.918L276.912 331.16C276.748 333.202 275.83 335.111 274.335 336.513C272.841 337.915 270.879 338.71 268.83 338.744Z" fill="#263238"/>
<path d="M283.584 215.198H275.1C274.864 215.2 274.631 215.154 274.414 215.061C274.198 214.968 274.003 214.832 273.842 214.659C273.681 214.487 273.558 214.284 273.48 214.061C273.402 213.839 273.372 213.603 273.39 213.368L274.236 200.528C274.283 200.04 274.509 199.586 274.87 199.254C275.231 198.922 275.701 198.735 276.192 198.728H284.67C284.903 198.726 285.134 198.772 285.348 198.863C285.562 198.954 285.756 199.088 285.916 199.257C286.076 199.425 286.2 199.625 286.28 199.844C286.36 200.063 286.394 200.296 286.38 200.528L285.534 213.368C285.495 213.861 285.274 214.322 284.913 214.66C284.552 214.999 284.078 215.191 283.584 215.198Z" fill="#263238"/>
<path d="M227.868 173.234H224.766V173.834H227.868V173.234Z" fill="#DE7A4A"/>
<path d="M220.944 173.234H209.664V173.834H220.944V173.234Z" fill="#DE7A4A"/>
<path d="M267.762 338.744H197.682C196.706 338.754 195.738 338.56 194.841 338.176C193.944 337.791 193.137 337.225 192.47 336.511C191.804 335.798 191.293 334.954 190.97 334.033C190.648 333.111 190.52 332.133 190.596 331.16L200.4 182.918C200.564 180.876 201.482 178.967 202.976 177.565C204.471 176.163 206.433 175.368 208.482 175.334H278.562C279.534 175.33 280.497 175.528 281.389 175.915C282.281 176.302 283.083 176.87 283.744 177.583C284.405 178.295 284.912 179.137 285.231 180.056C285.551 180.974 285.676 181.949 285.6 182.918L275.844 331.16C275.68 333.202 274.762 335.111 273.268 336.513C271.773 337.915 269.811 338.71 267.762 338.744Z" fill="#DE7A4A"/>
<path d="M270.942 321.476H196.8C196.245 321.482 195.696 321.372 195.186 321.154C194.676 320.936 194.217 320.614 193.838 320.209C193.459 319.803 193.169 319.324 192.986 318.8C192.803 318.277 192.731 317.721 192.774 317.168L201.288 188.108C201.38 186.951 201.899 185.869 202.744 185.073C203.589 184.277 204.699 183.823 205.86 183.8H280.02C280.575 183.794 281.124 183.904 281.634 184.122C282.144 184.34 282.603 184.662 282.982 185.067C283.36 185.473 283.651 185.952 283.834 186.476C284.017 186.999 284.089 187.555 284.046 188.108L275.532 317.168C275.44 318.328 274.918 319.413 274.069 320.209C273.221 321.006 272.106 321.457 270.942 321.476Z" fill="white"/>
<path d="M257.112 183.8H242.388L206.718 321.476H221.442L257.112 183.8Z" fill="#FAFAFA"/>
<path d="M270.084 183.8H262.722L227.052 321.476H234.414L270.084 183.8Z" fill="#FAFAFA"/>
<path d="M260.304 278.816L244.296 218.27C243.868 216.66 242.819 215.286 241.379 214.448C239.94 213.61 238.227 213.377 236.616 213.8L198.744 223.808L193.692 302.924L255.834 286.502C257.443 286.071 258.816 285.021 259.654 283.581C260.492 282.141 260.725 280.428 260.304 278.816Z" fill="#F0F0F0"/>
<path opacity="0.2" d="M236.551 331.726C238.475 329.865 238.623 326.896 236.881 325.095C235.14 323.295 232.168 323.344 230.243 325.206C228.319 327.068 228.171 330.036 229.913 331.837C231.654 333.637 234.626 333.588 236.551 331.726Z" fill="white"/>
<path opacity="0.2" d="M245.178 179.324C245.136 179.847 244.901 180.335 244.518 180.693C244.135 181.052 243.632 181.254 243.108 181.262C242.86 181.262 242.614 181.212 242.386 181.113C242.158 181.014 241.953 180.869 241.784 180.687C241.615 180.505 241.485 180.29 241.403 180.055C241.321 179.82 241.289 179.571 241.308 179.324C241.348 178.8 241.583 178.311 241.967 177.953C242.35 177.594 242.853 177.392 243.378 177.386C243.626 177.385 243.872 177.436 244.1 177.535C244.328 177.634 244.533 177.779 244.702 177.961C244.871 178.143 245.001 178.358 245.083 178.592C245.165 178.827 245.197 179.076 245.178 179.324Z" fill="white"/>
<path opacity="0.2" d="M244.302 179.324C244.281 179.612 244.153 179.881 243.943 180.079C243.733 180.276 243.456 180.388 243.168 180.392C243.03 180.394 242.894 180.367 242.767 180.314C242.64 180.26 242.526 180.18 242.433 180.079C242.339 179.979 242.267 179.859 242.222 179.729C242.177 179.599 242.16 179.461 242.172 179.324C242.193 179.036 242.321 178.767 242.531 178.569C242.741 178.372 243.017 178.26 243.306 178.256C243.443 178.254 243.58 178.281 243.707 178.334C243.833 178.388 243.947 178.468 244.041 178.569C244.135 178.669 244.207 178.789 244.252 178.919C244.296 179.049 244.314 179.187 244.302 179.324Z" fill="white"/>
<path d="M131.592 171.836C133.83 166.334 133.026 159.632 126.678 158.132C125.279 157.772 123.815 157.744 122.404 158.052C120.993 158.359 119.673 158.993 118.55 159.902C117.428 160.812 116.535 161.971 115.941 163.288C115.348 164.605 115.071 166.043 115.134 167.486C115.386 173.486 119.334 178.484 112.416 182.834C105.498 187.184 106.236 200.294 119.616 197.762C132.996 195.23 125.766 188.348 125.766 188.348C125.766 188.348 122.484 191.024 121.428 188.3C120.09 184.772 129 178.274 131.592 171.836Z" fill="#263238"/>
<path d="M108.048 189.884L107.754 189.818C108.648 185.816 110.052 184.784 111.534 183.692C113.016 182.6 114.42 181.562 115.554 177.626C116.088 175.772 115.752 173.72 115.422 171.74C115.002 169.214 114.57 166.598 115.872 164.258L116.13 164.408C114.882 166.652 115.308 169.208 115.716 171.692C116.052 173.708 116.4 175.79 115.842 177.692C114.684 181.724 113.172 182.834 111.714 183.914C110.256 184.994 108.918 185.996 108.048 189.884Z" fill="#263238"/>
<path d="M148.632 202.058C148.674 202.262 148.746 202.568 148.812 202.844L149.022 203.69C149.166 204.26 149.328 204.83 149.496 205.4C149.838 206.534 150.204 207.68 150.6 208.808C151.392 211.078 152.297 213.307 153.312 215.486L154.068 217.064C154.196 217.346 154.377 217.601 154.602 217.814C155.276 218.356 156.081 218.712 156.936 218.846C159.18 219.209 161.467 219.209 163.71 218.846L164.52 221.396C163.899 221.67 163.264 221.91 162.618 222.116C161.976 222.33 161.323 222.51 160.662 222.656C159.286 222.973 157.873 223.104 156.462 223.046C154.802 222.999 153.187 222.49 151.8 221.576C151.02 221.035 150.362 220.336 149.868 219.524L149.772 219.374L149.712 219.272L149.592 219.056L149.346 218.636L148.86 217.784C147.605 215.496 146.502 213.126 145.56 210.692C145.104 209.492 144.654 208.238 144.288 206.972C144.108 206.372 143.928 205.706 143.766 205.058C143.604 204.41 143.46 203.798 143.328 203.03L148.632 202.058Z" fill="#FFC3BD"/>
<path d="M144 193.67C150.054 196.37 150 205.442 150 205.442L143.622 209.276C143.622 209.276 138.822 202.172 139.182 198.944C139.536 195.578 140.568 192.152 144 193.67Z" fill="#DE7A4A"/>
<path opacity="0.2" d="M144.954 201.41C143.298 199.736 141.84 201.668 140.508 203.81C141.422 205.704 142.462 207.534 143.622 209.288L146.238 207.716C146.754 205.718 146.604 203.09 144.954 201.41Z" fill="black"/>
<path d="M163.08 219.074L167.34 216.95L167.388 222.524C167.388 222.524 164.208 223.076 162.09 220.844L163.08 219.074Z" fill="#FFC3BD"/>
<path d="M171.918 217.94L171.186 222.08L167.388 222.524L167.34 216.95L171.918 217.94Z" fill="#FFC3BD"/>
<path d="M124.086 334.316L129.354 334.82L131.808 322.562L126.54 322.058L124.086 334.316Z" fill="#FFC3BD"/>
<path d="M89.5439 319.946L93.8279 323.066L100.974 312.926L96.6839 309.806L89.5439 319.946Z" fill="#FFC3BD"/>
<path d="M95.4001 321.116L91.8721 316.286C91.8135 316.2 91.7252 316.14 91.6244 316.115C91.5236 316.091 91.4174 316.105 91.3261 316.154L87.0961 318.398C86.9916 318.459 86.901 318.541 86.8304 318.639C86.7598 318.737 86.7107 318.849 86.6863 318.967C86.6619 319.086 86.6629 319.208 86.689 319.326C86.7152 319.444 86.766 319.555 86.8381 319.652C88.0981 321.314 88.7881 322.052 90.3421 324.182C91.3021 325.49 93.2221 328.52 94.5421 330.326C95.8621 332.132 97.7161 330.926 97.3321 330.056C95.5921 326.15 95.5321 323.864 95.6641 322.034C95.6893 321.706 95.5956 321.38 95.4001 321.116Z" fill="#263238"/>
<path d="M130.05 333.23H123.726C123.612 333.23 123.502 333.268 123.412 333.338C123.322 333.407 123.257 333.504 123.228 333.614L121.854 338.6C121.82 338.718 121.815 338.842 121.838 338.963C121.86 339.084 121.911 339.197 121.986 339.294C122.061 339.392 122.157 339.47 122.267 339.524C122.378 339.577 122.499 339.604 122.622 339.602C124.854 339.602 125.91 339.602 128.688 339.602H137.19C139.5 339.602 139.98 337.268 139.026 337.052C134.742 336.104 132.27 334.796 130.944 333.548C130.697 333.333 130.378 333.219 130.05 333.23Z" fill="#263238"/>
<path opacity="0.2" d="M131.808 322.568L130.542 328.886H125.172L126.54 322.064L131.808 322.568Z" fill="black"/>
<path opacity="0.2" d="M96.684 309.806L100.974 312.932L97.29 318.158L93 315.032L96.684 309.806Z" fill="black"/>
<path d="M146.496 198.452C146.124 202.502 144.78 210.452 140.85 225.986L119.286 224.12C120.324 216.026 120.81 210.782 118.782 195.458C118.716 194.952 118.755 194.437 118.896 193.946C119.038 193.455 119.279 192.999 119.604 192.605C119.929 192.211 120.332 191.888 120.787 191.657C121.242 191.425 121.74 191.289 122.25 191.258C123.804 191.174 125.652 191.12 127.506 191.192C130.786 191.241 134.058 191.524 137.298 192.038C139.2 192.38 141.228 192.872 142.878 193.304C143.992 193.596 144.967 194.273 145.63 195.216C146.292 196.158 146.599 197.305 146.496 198.452Z" fill="#DE7A4A"/>
<path opacity="0.2" d="M119.334 199.946C119.61 202.346 119.814 204.488 119.934 206.408C121.92 206.234 123.384 204.056 123.534 199.502C122.79 197.3 121.02 198.098 119.334 199.946Z" fill="black"/>
<path d="M140.85 225.986C140.85 225.986 148.146 258.266 143.25 281.024C139.992 296.264 132.738 327.05 132.738 327.05L123.54 326.816C123.54 326.816 127.932 294.506 129.774 281.816C132.924 260.084 125.034 224.642 125.034 224.642L140.85 225.986Z" fill="#263238"/>
<path opacity="0.2" d="M132.438 232.508L127.836 239.762C129.222 248.363 130.101 257.038 130.47 265.742C136.938 254.162 133.872 238.634 132.438 232.508Z" fill="black"/>
<path d="M134.058 327.53L122.694 327.242L123.354 323.75L134.946 324.296L134.058 327.53Z" fill="#DE7A4A"/>
<path d="M136.134 225.644C136.134 225.644 131.856 259.874 122.574 278.564C115.08 293.66 99.4021 317.654 99.4021 317.654L93.6721 313.064C93.6721 313.064 103.476 286.526 109.044 276.5C122.706 251.9 111.54 233.15 119.286 224.12L136.134 225.644Z" fill="#263238"/>
<path d="M225.868 195.182L123.882 238.032C120.681 239.377 119.176 243.063 120.521 246.265L144.778 303.998C146.123 307.2 149.809 308.705 153.011 307.359L254.996 264.509C258.198 263.164 259.703 259.478 258.358 256.277L234.101 198.544C232.756 195.342 229.07 193.837 225.868 195.182Z" fill="#DE7A4A"/>
<path opacity="0.1" d="M225.868 195.182L123.882 238.032C120.681 239.377 119.176 243.063 120.521 246.265L144.778 303.998C146.123 307.2 149.809 308.705 153.011 307.359L254.996 264.509C258.198 263.164 259.703 259.478 258.358 256.277L234.101 198.544C232.756 195.342 229.07 193.837 225.868 195.182Z" fill="black"/>
<path opacity="0.2" d="M152.014 235.462L132.045 243.852C130.506 244.499 129.782 246.272 130.429 247.811L134.638 257.829C135.285 259.369 137.057 260.093 138.597 259.446L158.566 251.056C160.106 250.409 160.829 248.636 160.183 247.096L155.974 237.079C155.327 235.539 153.554 234.815 152.014 235.462Z" fill="white"/>
<path opacity="0.4" d="M166.026 275.061L146.461 283.281C145.884 283.524 145.612 284.189 145.855 284.766L147.34 288.301C147.583 288.878 148.247 289.15 148.825 288.907L168.39 280.687C168.967 280.444 169.239 279.779 168.996 279.202L167.511 275.667C167.268 275.09 166.604 274.818 166.026 275.061Z" fill="white"/>
<path opacity="0.4" d="M191.482 264.369L171.916 272.59C171.339 272.832 171.068 273.497 171.31 274.074L172.795 277.609C173.038 278.186 173.703 278.458 174.28 278.215L193.845 269.995C194.423 269.752 194.694 269.087 194.451 268.51L192.966 264.975C192.724 264.398 192.059 264.127 191.482 264.369Z" fill="white"/>
<path opacity="0.4" d="M216.931 253.677L197.366 261.897C196.788 262.14 196.517 262.804 196.76 263.382L198.245 266.917C198.487 267.494 199.152 267.765 199.73 267.523L219.295 259.302C219.872 259.06 220.144 258.395 219.901 257.818L218.416 254.283C218.173 253.706 217.509 253.434 216.931 253.677Z" fill="white"/>
<path opacity="0.4" d="M242.386 242.984L222.821 251.205C222.244 251.447 221.972 252.112 222.215 252.69L223.7 256.224C223.943 256.802 224.607 257.073 225.185 256.83L244.75 248.61C245.327 248.367 245.599 247.703 245.356 247.125L243.871 243.591C243.629 243.013 242.964 242.742 242.386 242.984Z" fill="white"/>
<path d="M100.002 318.29L92.6521 312.728L94.4581 309.5L102.27 315.56L100.002 318.29Z" fill="#DE7A4A"/>
<path d="M119.07 222.83L117.93 224.678C117.84 224.816 118.008 224.99 118.254 225.008L140.874 226.964C141.066 226.964 141.234 226.898 141.258 226.778L141.618 224.864C141.648 224.732 141.486 224.606 141.276 224.588L119.436 222.698C119.369 222.688 119.3 222.694 119.236 222.717C119.172 222.74 119.115 222.779 119.07 222.83Z" fill="#DE7A4A"/>
<path opacity="0.5" d="M119.07 222.83L117.93 224.678C117.84 224.816 118.008 224.99 118.254 225.008L140.874 226.964C141.066 226.964 141.234 226.898 141.258 226.778L141.618 224.864C141.648 224.732 141.486 224.606 141.276 224.588L119.436 222.698C119.369 222.688 119.3 222.694 119.236 222.717C119.172 222.74 119.115 222.779 119.07 222.83Z" fill="black"/>
<path d="M121.8 225.524L121.2 225.476C121.086 225.476 121.002 225.398 121.014 225.326L121.506 222.842C121.506 222.764 121.626 222.716 121.746 222.728L122.346 222.776C122.466 222.776 122.55 222.854 122.532 222.926L122.04 225.41C122.016 225.482 121.908 225.536 121.8 225.524Z" fill="#DE7A4A"/>
<path d="M139.2 227.03L138.6 226.982C138.486 226.982 138.402 226.904 138.414 226.832L138.906 224.348C138.928 224.305 138.963 224.271 139.006 224.25C139.05 224.229 139.099 224.224 139.146 224.234L139.746 224.282C139.866 224.282 139.95 224.36 139.932 224.432L139.44 226.916C139.434 227 139.326 227.042 139.2 227.03Z" fill="#DE7A4A"/>
<path d="M130.5 226.28L129.9 226.226C129.78 226.226 129.696 226.148 129.714 226.076L130.206 223.592C130.206 223.52 130.326 223.466 130.44 223.478L131.04 223.532C131.154 223.532 131.238 223.61 131.226 223.682L130.734 226.166C130.722 226.238 130.62 226.286 130.5 226.28Z" fill="#DE7A4A"/>
<path d="M96.7441 323.786C96.6766 323.798 96.6076 323.798 96.5401 323.786C95.8861 323.654 95.3401 322.544 95.0521 321.896C95.0407 321.879 95.0347 321.859 95.0347 321.839C95.0347 321.819 95.0407 321.799 95.0521 321.782C95.0677 321.77 95.0866 321.764 95.1061 321.764C95.1256 321.764 95.1445 321.77 95.1601 321.782C95.3641 321.854 97.1521 322.544 97.2901 323.198C97.3067 323.269 97.3031 323.343 97.2797 323.412C97.2564 323.481 97.2143 323.542 97.1581 323.588C97.0446 323.696 96.8996 323.766 96.7441 323.786ZM95.3461 322.034C95.7541 322.928 96.2101 323.498 96.5821 323.57C96.6661 323.583 96.7519 323.574 96.8317 323.545C96.9114 323.515 96.9824 323.466 97.0381 323.402C97.0681 323.38 97.0909 323.349 97.1037 323.314C97.1165 323.279 97.1187 323.241 97.1101 323.204C97.0261 322.802 95.9641 322.286 95.3461 322.034Z" fill="#DE7A4A"/>
<path d="M96.798 322.118C96.2276 322.189 95.6487 322.127 95.106 321.938C95.0894 321.931 95.0751 321.919 95.0646 321.904C95.054 321.89 95.0476 321.872 95.046 321.854C95.0437 321.836 95.0463 321.817 95.0537 321.8C95.0611 321.783 95.073 321.769 95.088 321.758C95.142 321.722 96.378 320.822 97.122 320.99C97.2139 321.008 97.3008 321.045 97.3765 321.1C97.4522 321.155 97.5149 321.226 97.56 321.308C97.6194 321.383 97.6517 321.476 97.6517 321.572C97.6517 321.668 97.6194 321.761 97.56 321.836C97.3465 322.016 97.0771 322.116 96.798 322.118ZM95.4 321.8C96 321.974 97.122 321.986 97.398 321.68C97.446 321.632 97.488 321.554 97.398 321.398C97.3684 321.342 97.3266 321.294 97.2757 321.257C97.2248 321.219 97.1661 321.194 97.104 321.182C96.6 321.08 95.736 321.578 95.4 321.8Z" fill="#DE7A4A"/>
<path d="M132.858 334.25C132.276 334.235 131.697 334.163 131.13 334.034C131.111 334.026 131.094 334.012 131.083 333.994C131.071 333.977 131.065 333.956 131.065 333.935C131.065 333.914 131.071 333.894 131.083 333.876C131.094 333.858 131.111 333.845 131.13 333.836C131.394 333.71 133.686 332.636 134.262 333.044C134.315 333.078 134.358 333.127 134.385 333.184C134.411 333.242 134.421 333.305 134.412 333.368C134.411 333.486 134.382 333.601 134.327 333.705C134.273 333.81 134.195 333.9 134.1 333.968C133.727 334.192 133.292 334.291 132.858 334.25ZM131.49 333.89C132.174 334.016 133.434 334.184 133.95 333.794C134.017 333.741 134.072 333.675 134.111 333.6C134.15 333.524 134.173 333.441 134.178 333.356C134.178 333.272 134.178 333.236 134.124 333.218C133.8 332.996 132.444 333.47 131.49 333.89Z" fill="#DE7A4A"/>
<path d="M131.154 334.034C131.133 334.043 131.109 334.043 131.088 334.034C131.072 334.023 131.061 334.007 131.054 333.989C131.048 333.971 131.047 333.951 131.052 333.932C131.052 333.83 131.592 331.568 132.852 331.712C133.164 331.754 133.248 331.904 133.266 332.03C133.344 332.63 131.898 333.77 131.202 334.052L131.154 334.034ZM132.726 331.892C131.928 331.892 131.466 333.212 131.31 333.74C132.06 333.344 133.11 332.402 133.044 332.036C133.044 332.006 133.044 331.922 132.81 331.898L132.726 331.892Z" fill="#DE7A4A"/>
<path d="M121.674 200.054L121.356 200.504L121.008 201.014C120.774 201.362 120.54 201.716 120.318 202.082C119.862 202.802 119.448 203.552 119.028 204.302C118.199 205.811 117.469 207.372 116.844 208.976C116.214 210.571 115.687 212.204 115.266 213.866L114.984 215.066C114.984 215.03 114.948 215.156 115.014 215.384C115.22 216.026 115.522 216.632 115.908 217.184C116.877 218.578 117.965 219.885 119.16 221.09C120.36 222.362 121.692 223.592 123.018 224.816C124.344 226.04 125.736 227.216 127.128 228.374C128.52 229.532 129.942 230.702 131.328 231.83L129.828 234.044C126.614 232.138 123.511 230.051 120.534 227.792C119.034 226.664 117.564 225.476 116.142 224.192C114.651 222.885 113.29 221.437 112.08 219.866C111.354 218.944 110.787 217.908 110.4 216.8C110.137 216.029 110.049 215.209 110.142 214.4V214.232V214.142L110.172 213.962L110.232 213.596L110.358 212.87C110.711 210.938 111.208 209.034 111.846 207.176C112.505 205.327 113.285 203.523 114.18 201.776C114.63 200.9 115.122 200.054 115.65 199.22C115.908 198.8 116.178 198.386 116.46 197.972L116.904 197.372C117.06 197.162 117.192 196.976 117.402 196.718L121.674 200.054Z" fill="#FFC3BD"/>
<path d="M121.14 191.6C117.024 192.68 113.052 202.658 113.052 202.658L118.38 207.53C118.38 207.53 126.75 199.898 126.468 196.454C126.234 193.526 124.446 190.724 121.14 191.6Z" fill="#DE7A4A"/>
<path opacity="0.2" d="M127.506 191C126.752 191.154 125.983 191.224 125.214 191.21C125.052 194.174 126.954 197.036 131.628 200.876C132.75 197.378 135.228 196.622 135.228 196.622L127.506 191Z" fill="black"/>
<path opacity="0.2" d="M137.298 191.942C137.298 191.942 137.844 192.02 139.146 192.32C140.016 193.658 141.144 197.78 138.582 200.72C137.586 197.12 135.21 196.664 135.21 196.664L137.298 191.942Z" fill="black"/>
<path d="M127.506 191C127.506 191 126.306 191 124.842 191C123.972 192.338 126.966 196.046 131.634 199.886C132.756 196.388 135.234 196.598 135.234 196.598L127.506 191Z" fill="white"/>
<path d="M137.298 191.942C137.298 191.942 137.844 192.02 139.146 192.32C140.016 193.658 141.894 197.282 139.332 200.198C138.336 196.598 135.21 196.646 135.21 196.646L137.298 191.942Z" fill="white"/>
<path d="M129.432 180.23C129.78 183.434 129.894 189.23 127.506 191.174C127.506 191.174 128.748 194.774 135.21 196.646C139.098 194.402 137.298 192.02 137.298 192.02C133.86 190.88 134.178 188.282 135 185.882L129.432 180.23Z" fill="#FFC3BD"/>
<path opacity="0.2" d="M131.7 182.54L135 185.882C134.798 186.437 134.645 187.01 134.544 187.592C133.218 187.286 131.298 185.906 131.28 184.49C131.304 183.82 131.447 183.16 131.7 182.54Z" fill="black"/>
<path d="M136.728 167.426C137.778 166.268 139.86 167.744 140.628 170.582C141.78 174.782 138.708 175.082 137.1 172.982C135.492 170.882 135.852 168.392 136.728 167.426Z" fill="#263238"/>
<path d="M139.98 174.8C141.034 175.165 142.03 175.678 142.938 176.324C142.416 175.052 141.948 174.278 139.98 174.8Z" fill="#263238"/>
<path d="M140.586 174.998C141.439 174.828 142.311 174.78 143.178 174.854C142.326 174.2 141.708 173.876 140.586 174.998Z" fill="#263238"/>
<path d="M126.6 175.226C127.938 180.344 128.4 182.54 131.532 184.682C136.254 187.91 142.248 185.15 142.47 179.732C142.668 174.86 140.448 167.312 134.97 166.244C133.763 165.999 132.513 166.068 131.34 166.444C130.167 166.82 129.11 167.49 128.27 168.392C127.43 169.293 126.836 170.394 126.543 171.591C126.251 172.787 126.271 174.039 126.6 175.226Z" fill="#FFC3BD"/>
<path d="M129.072 168.476L127.59 170.198C127.146 170.707 126.518 171.02 125.844 171.069C125.171 171.119 124.504 170.901 123.99 170.462C123.481 170.018 123.166 169.392 123.116 168.718C123.065 168.044 123.282 167.377 123.72 166.862L125.202 165.146C125.647 164.638 126.273 164.325 126.947 164.274C127.62 164.224 128.287 164.44 128.802 164.876C129.31 165.321 129.624 165.948 129.674 166.621C129.725 167.294 129.508 167.961 129.072 168.476Z" fill="white"/>
<path d="M130.44 170.396L128.64 171.296C127.901 171.658 127.049 171.713 126.27 171.449C125.491 171.185 124.848 170.623 124.482 169.886C124.12 169.147 124.065 168.294 124.329 167.514C124.593 166.734 125.155 166.09 125.892 165.722L127.692 164.822C128.432 164.461 129.286 164.407 130.066 164.672C130.846 164.937 131.49 165.5 131.856 166.238C132.218 166.978 132.271 167.83 132.006 168.61C131.741 169.389 131.178 170.031 130.44 170.396Z" fill="#DE7A4A"/>
<path d="M128.136 179.054C128.136 179.054 131.832 178.208 130.26 172.802C130.201 172.594 130.191 172.375 130.23 172.163C130.269 171.95 130.356 171.749 130.485 171.575C130.613 171.402 130.78 171.26 130.972 171.16C131.164 171.061 131.376 171.007 131.592 171.002C135.756 170.888 139.65 170.018 139.098 167.606C138.408 164.558 128.034 162.206 126.15 168.308C122.472 169.166 122.334 176.414 128.136 179.054Z" fill="#263238"/>
<path d="M128.154 177.986C129.208 178.351 130.204 178.864 131.112 179.51C130.59 178.25 130.122 177.476 128.154 177.986Z" fill="#263238"/>
<path d="M128.76 178.196C129.613 178.027 130.486 177.978 131.352 178.052C130.506 177.41 129.888 177.08 128.76 178.196Z" fill="#263238"/>
<path d="M125.76 179.246C126.239 180.15 127.057 180.827 128.034 181.13C129.336 181.52 130.008 180.368 129.672 179.126C129.366 178.01 128.322 176.468 127.008 176.618C126.722 176.658 126.451 176.768 126.218 176.938C125.985 177.109 125.799 177.335 125.675 177.595C125.551 177.856 125.494 178.143 125.509 178.431C125.524 178.72 125.61 179 125.76 179.246Z" fill="#FFC3BD"/>
<path d="M135.276 175.052C135.36 175.472 135.654 175.772 135.924 175.718C136.194 175.664 136.356 175.274 136.278 174.854C136.2 174.434 135.9 174.134 135.624 174.188C135.348 174.242 135.192 174.626 135.276 175.052Z" fill="#263238"/>
<path d="M140.046 174.11C140.13 174.536 140.418 174.83 140.694 174.776C140.97 174.722 141.126 174.338 141.042 173.918C140.958 173.498 140.67 173.198 140.394 173.252C140.118 173.306 139.962 173.69 140.046 174.11Z" fill="#263238"/>
<path d="M140.28 173.3L141.234 172.808C141.234 172.808 140.868 173.702 140.28 173.3Z" fill="#263238"/>
<path d="M138.408 175.166C138.973 176.056 139.657 176.863 140.442 177.566C140.259 177.767 140.034 177.924 139.783 178.028C139.532 178.132 139.261 178.179 138.99 178.166L138.408 175.166Z" fill="#ED847E"/>
<path d="M137.04 180.152C136.152 180.163 135.294 179.835 134.64 179.234C134.621 179.214 134.61 179.187 134.61 179.159C134.61 179.131 134.621 179.104 134.64 179.084C134.66 179.065 134.687 179.054 134.715 179.054C134.743 179.054 134.77 179.065 134.79 179.084C135.194 179.44 135.676 179.696 136.197 179.83C136.719 179.965 137.264 179.974 137.79 179.858C137.817 179.853 137.845 179.859 137.868 179.875C137.89 179.891 137.905 179.915 137.91 179.942C137.915 179.969 137.909 179.997 137.893 180.019C137.877 180.042 137.853 180.057 137.826 180.062C137.568 180.12 137.305 180.15 137.04 180.152Z" fill="#263238"/>
<path d="M132.414 173.414C132.376 173.412 132.339 173.402 132.306 173.384C132.258 173.355 132.224 173.309 132.21 173.255C132.197 173.201 132.205 173.144 132.234 173.096C132.432 172.759 132.709 172.474 133.039 172.265C133.37 172.057 133.746 171.93 134.136 171.896C134.191 171.896 134.244 171.917 134.285 171.955C134.325 171.993 134.349 172.045 134.352 172.1C134.353 172.128 134.348 172.155 134.338 172.181C134.328 172.207 134.314 172.23 134.295 172.25C134.276 172.27 134.253 172.286 134.228 172.298C134.203 172.309 134.176 172.315 134.148 172.316C133.826 172.351 133.517 172.463 133.247 172.641C132.977 172.82 132.753 173.06 132.594 173.342C132.572 173.368 132.544 173.387 132.513 173.4C132.481 173.413 132.448 173.417 132.414 173.414Z" fill="#263238"/>
<path d="M141.372 171.722C141.339 171.731 141.303 171.731 141.27 171.722C140.99 171.557 140.676 171.46 140.351 171.439C140.027 171.419 139.703 171.474 139.404 171.602C139.351 171.629 139.289 171.634 139.232 171.615C139.175 171.597 139.128 171.556 139.101 171.503C139.074 171.45 139.069 171.388 139.088 171.331C139.106 171.274 139.147 171.227 139.2 171.2C139.559 171.037 139.953 170.964 140.347 170.986C140.74 171.008 141.123 171.124 141.462 171.326C141.486 171.339 141.507 171.357 141.524 171.378C141.541 171.4 141.553 171.424 141.561 171.451C141.568 171.477 141.57 171.504 141.566 171.531C141.563 171.559 141.554 171.585 141.54 171.608C141.525 171.641 141.501 171.668 141.472 171.688C141.442 171.708 141.408 171.72 141.372 171.722Z" fill="#263238"/>
<path d="M129.366 230.936L134.166 231.272L132 236.402C132 236.402 127.992 235.136 127.83 232.202L129.366 230.936Z" fill="#FFC3BD"/>
<path d="M136.008 234.176L133.686 237.68L132.006 236.402L134.184 231.272L136.008 234.176Z" fill="#FFC3BD"/>
<path d="M135.51 174.236L136.464 173.744C136.464 173.744 136.098 174.638 135.51 174.236Z" fill="#263238"/>
</svg>
