<svg width="360" height="334" viewBox="0 0 360 334" fill="none" xmlns="http://www.w3.org/2000/svg">
<path d="M335.214 153.772L335.215 153.779C337.207 191.993 333.313 217.68 324.824 234.79C316.348 251.871 303.277 260.436 286.799 264.374C270.294 268.319 250.384 267.618 228.261 266.145C224.711 265.908 221.105 265.652 217.447 265.392C198.384 264.037 177.93 262.584 156.84 263.324C129.133 231.869 103.779 213.631 81.2912 203.088C58.7694 192.53 39.1408 189.699 22.9353 189.027C16.5304 188.761 10.6564 188.833 5.35885 188.897C3.95908 188.915 2.59958 188.931 1.28116 188.941C-5.03961 188.987 -10.4007 188.876 -14.7741 187.926C-19.1349 186.978 -22.4776 185.204 -24.8 181.946C-27.1237 178.686 -28.4626 173.891 -28.704 166.821C-17.8179 135.206 1.67834 108.711 30.997 89.6648C60.3401 70.6026 99.544 58.9873 149.845 57.1933C222.637 54.5971 268.512 64.5516 296.414 82.2339C324.284 99.8955 334.273 125.299 335.214 153.772Z" stroke="#F7DFD4" stroke-width="0.75"/>
<path d="M-3.61285 203.984C-18.4327 115.773 168.216 35.0066 257.227 18.8806C364.239 -0.506604 369.09 45.5661 383.91 133.777C398.73 221.988 295.916 255.82 206.515 299.586C94.6247 186.187 11.207 292.195 -3.61285 203.984Z" fill="#F7DFD4" fill-opacity="0.3"/>
<path d="M268.748 159.765L269.182 161.295L267.803 171.041L265.232 171.756L266.594 162.444L263.195 163.381L263.659 165.045L261.569 165.635L260.568 162.041L268.748 159.765Z" fill="#E0E0E0"/>
<path d="M279.222 164.399C279.725 166.211 278.836 168.158 275.919 168.968C274.547 169.379 273.085 169.379 271.714 168.968L272.147 166.896C273.164 167.267 274.271 167.306 275.312 167.009C276.491 166.679 277.085 165.981 276.855 165.149C276.625 164.317 275.958 163.966 274.102 164.482L271.501 165.21L270.426 159.31L276.66 157.576L277.176 159.479L272.91 160.662L273.292 162.652L274.124 162.418C277.145 161.564 278.719 162.591 279.222 164.399Z" fill="#E0E0E0"/>
<path d="M279.031 159.813C278.572 158.148 279.196 156.778 280.57 156.397C281.945 156.015 283.171 156.83 283.648 158.529C284.125 160.229 283.47 161.564 282.109 161.945C280.748 162.327 279.495 161.477 279.031 159.813ZM282.933 158.733C282.564 157.407 281.719 156.791 280.765 157.055C279.812 157.32 279.408 158.295 279.777 159.613C280.145 160.931 280.978 161.56 281.945 161.291C282.911 161.022 283.284 160.064 282.916 158.733H282.933ZM286.796 154.749L287.663 154.511L283.527 166.671L282.66 166.909L286.796 154.749ZM286.652 162.891C286.193 161.226 286.83 159.856 288.187 159.474C289.544 159.093 290.788 159.943 291.269 161.607C291.751 163.272 291.105 164.642 289.73 165.023C288.356 165.405 287.099 164.555 286.635 162.891H286.652ZM290.554 161.811C290.19 160.511 289.353 159.865 288.386 160.133C287.42 160.402 287.025 161.36 287.398 162.687C287.771 164.013 288.612 164.629 289.566 164.364C290.519 164.1 290.884 163.125 290.519 161.811H290.554Z" fill="#E0E0E0"/>
<path d="M291.016 302.069L321.539 302.309L321.841 263.779L291.319 263.539L291.016 302.069Z" fill="#EBEBEB"/>
<path d="M309.897 264.922L309.355 302.226L304.535 302.191L305.566 264.887L309.897 264.922Z" fill="#FAFAFA"/>
<path d="M273.79 264.64L291.3 264.779L321.823 265.017L291.269 269.036L291.009 302.083L273.504 301.948L273.79 264.64Z" fill="#E0E0E0"/>
<path d="M283.323 264.714L282.625 302.018L277.432 301.979L278.281 264.675L283.323 264.714Z" fill="#FAFAFA"/>
<path d="M297.182 253.36C297.182 253.438 296.666 253.534 295.726 253.625C294.396 253.754 293.06 253.814 291.724 253.803C289.707 253.811 287.697 253.547 285.751 253.018C285.448 252.92 285.157 252.79 284.884 252.628C284.562 252.443 284.288 252.184 284.086 251.873C283.877 251.539 283.766 251.153 283.765 250.759C283.766 250.414 283.81 250.071 283.895 249.736C284.168 248.484 284.547 247.257 285.027 246.069C285.292 245.448 285.623 244.858 286.015 244.309C286.406 243.744 286.898 243.258 287.467 242.874C287.773 242.668 288.114 242.521 288.473 242.44C288.839 242.36 289.217 242.36 289.583 242.44C290.206 242.619 290.782 242.932 291.269 243.359C292.847 244.636 294.191 246.178 295.24 247.916C295.946 249.073 296.487 250.324 296.849 251.631C297.087 252.558 297.113 253.087 297.048 253.105C296.857 253.161 296.428 251.076 294.568 248.336C293.476 246.755 292.144 245.356 290.619 244.187C290.239 243.869 289.796 243.634 289.318 243.498C289.098 243.454 288.87 243.457 288.65 243.504C288.43 243.552 288.222 243.644 288.04 243.775C287.594 244.091 287.209 244.485 286.904 244.937C286.562 245.424 286.272 245.944 286.037 246.489C285.586 247.616 285.223 248.775 284.949 249.957C284.79 250.378 284.8 250.845 284.979 251.258C285.255 251.616 285.64 251.875 286.076 251.995C286.57 252.155 287.072 252.288 287.58 252.394C288.079 252.506 288.573 252.593 289.054 252.667C290.012 252.819 290.914 252.905 291.746 252.962C293.406 253.074 294.781 253.096 295.704 253.144C296.627 253.191 297.178 253.282 297.182 253.36Z" fill="#E0E0E0"/>
<path d="M296.549 253.642C296.549 253.564 297.104 253.399 298.132 253.165C299.159 252.931 300.659 252.623 302.467 252.185C304.593 251.695 306.678 251.037 308.701 250.217C309.256 250.007 309.782 249.728 310.266 249.385C310.472 249.239 310.643 249.049 310.769 248.83C310.868 248.635 310.899 248.412 310.855 248.197C310.79 247.911 310.69 247.634 310.556 247.373C310.413 247.066 310.266 246.753 310.123 246.441C309.831 245.821 309.498 245.221 309.126 244.647C308.759 244.088 308.322 243.58 307.825 243.134C307.375 242.706 306.848 242.366 306.273 242.132C305.76 241.931 305.194 241.906 304.665 242.063C304.13 242.251 303.639 242.546 303.221 242.93C301.594 244.355 300.187 246.013 299.046 247.85C298.277 249.095 297.655 250.425 297.191 251.813C296.866 252.805 296.736 253.373 296.649 253.36C296.562 253.347 296.567 252.758 296.766 251.704C297.079 250.214 297.614 248.779 298.353 247.447C299.45 245.466 300.863 243.677 302.536 242.15C303.05 241.653 303.663 241.27 304.335 241.027C305.09 240.787 305.904 240.807 306.646 241.083C307.009 241.214 307.355 241.387 307.678 241.599C307.992 241.808 308.292 242.038 308.575 242.288C309.139 242.799 309.634 243.382 310.045 244.022C310.444 244.641 310.802 245.285 311.115 245.951L311.549 246.91C311.723 247.261 311.849 247.634 311.922 248.019C312.003 248.473 311.928 248.941 311.709 249.346C311.507 249.701 311.229 250.008 310.894 250.243C310.331 250.634 309.719 250.949 309.073 251.18C306.98 251.976 304.816 252.574 302.61 252.966C300.741 253.313 299.22 253.49 298.171 253.599C297.122 253.707 296.562 253.716 296.549 253.642Z" fill="#FAFAFA"/>
<path d="M268.234 264.585L313.101 264.937L313.201 252.183L268.334 251.831L268.234 264.585Z" fill="#E0E0E0"/>
<path d="M284.739 264.71L325.293 265.029L325.393 252.275L284.84 251.957L284.739 264.71Z" fill="#EBEBEB"/>
<path d="M312.941 252.194L312.659 265.005L307.929 264.905L308.259 252.155L312.941 252.194Z" fill="#FAFAFA"/>
<path d="M279.339 251.995L278.879 264.692L273.682 264.649L273.959 251.891L279.339 251.995Z" fill="#FAFAFA"/>
<path d="M314.299 302.52L328.24 302.63L328.378 285.03L314.437 284.92L314.299 302.52Z" fill="#EBEBEB"/>
<path d="M322.92 285.562L322.673 302.599L320.466 302.586L320.939 285.544L322.92 285.562Z" fill="#FAFAFA"/>
<path d="M306.425 285.432L314.423 285.492L328.365 285.605L314.41 287.439L314.289 302.534L306.295 302.473L306.425 285.432Z" fill="#E0E0E0"/>
<path d="M310.777 285.466L310.461 302.507L308.085 302.486L308.475 285.449L310.777 285.466Z" fill="#FAFAFA"/>
<path d="M317.111 280.281C317.111 280.425 316.179 280.641 314.61 280.715C313.662 280.75 312.714 280.646 311.796 280.407C311.425 280.31 311.1 280.086 310.877 279.774C310.751 279.576 310.683 279.346 310.682 279.111C310.682 278.929 310.702 278.747 310.743 278.569C310.868 277.977 311.045 277.396 311.271 276.835C311.401 276.529 311.564 276.238 311.757 275.968C311.957 275.675 312.211 275.423 312.507 275.227C312.681 275.112 312.876 275.034 313.081 274.998C313.286 274.961 313.496 274.967 313.699 275.014C314.02 275.11 314.317 275.276 314.566 275.5C315.301 276.105 315.92 276.84 316.391 277.667C317.176 279.102 317.167 280.138 317.033 280.156C316.898 280.173 316.599 279.289 315.732 278.101C315.225 277.421 314.62 276.819 313.938 276.315C313.797 276.196 313.633 276.109 313.456 276.059C313.394 276.05 313.33 276.053 313.269 276.07C313.207 276.086 313.15 276.115 313.101 276.154C312.931 276.28 312.785 276.434 312.667 276.61C312.525 276.815 312.405 277.034 312.308 277.264C312.107 277.761 311.945 278.273 311.822 278.794C311.757 279.037 311.77 279.146 311.792 279.172C311.88 279.279 312 279.357 312.134 279.393C312.559 279.533 312.994 279.642 313.435 279.718C313.868 279.796 314.267 279.848 314.64 279.887C316.14 280.043 317.107 280.112 317.111 280.281Z" fill="#E0E0E0"/>
<path d="M316.82 280.429C316.794 280.264 317.839 279.995 319.482 279.562C320.432 279.309 321.363 278.992 322.27 278.612C322.498 278.522 322.715 278.404 322.916 278.261C322.974 278.218 323.023 278.164 323.059 278.101C323.059 278.066 323.059 278.066 323.059 278.001C322.974 277.753 322.87 277.512 322.747 277.281C322.618 277.011 322.473 276.749 322.313 276.497C322.161 276.265 321.982 276.053 321.78 275.864C321.603 275.696 321.397 275.561 321.173 275.465C321 275.392 320.807 275.38 320.627 275.43C320.42 275.501 320.229 275.613 320.067 275.76C319.336 276.384 318.694 277.106 318.16 277.906C317.245 279.284 317.055 280.342 316.859 280.316C316.79 280.316 316.742 280.026 316.799 279.527C316.899 278.821 317.121 278.138 317.453 277.507C317.94 276.56 318.587 275.705 319.365 274.979C319.626 274.723 319.94 274.526 320.284 274.403C320.689 274.269 321.128 274.276 321.528 274.425C321.718 274.489 321.899 274.578 322.066 274.689C322.218 274.791 322.363 274.904 322.499 275.027C322.778 275.283 323.021 275.575 323.223 275.894C323.413 276.187 323.582 276.493 323.731 276.809C323.8 276.961 323.865 277.108 323.934 277.242C324.024 277.428 324.088 277.625 324.125 277.828C324.17 278.099 324.124 278.378 323.995 278.621C323.88 278.82 323.723 278.991 323.536 279.124C323.257 279.31 322.953 279.456 322.634 279.557C321.658 279.915 320.649 280.172 319.621 280.325C317.926 280.563 316.846 280.55 316.82 280.429Z" fill="#FAFAFA"/>
<path d="M303.896 285.397L324.387 285.558L324.433 279.731L303.941 279.57L303.896 285.397Z" fill="#E0E0E0"/>
<path d="M311.431 285.457L329.954 285.603L330 279.776L311.477 279.631L311.431 285.457Z" fill="#EBEBEB"/>
<path d="M324.307 279.748L324.177 285.596L322.018 285.553L322.17 279.731L324.307 279.748Z" fill="#FAFAFA"/>
<path d="M308.957 279.653L308.748 285.453L306.373 285.436L306.503 279.605L308.957 279.653Z" fill="#FAFAFA"/>
<path d="M49.0273 302.461L74.0315 302.658L74.2794 271.095L49.2752 270.898L49.0273 302.461Z" fill="#EBEBEB"/>
<path d="M64.4901 272.019L64.0479 302.581L60.0942 302.551L60.9439 271.993L64.4901 272.019Z" fill="#FAFAFA"/>
<path d="M34.9116 271.789L49.2565 271.902L74.2615 272.097L49.2305 275.392L49.0181 302.464L34.6775 302.352L34.9116 271.789Z" fill="#E0E0E0"/>
<path d="M42.7193 271.85L42.1514 302.408L37.8943 302.378L38.5879 271.819L42.7193 271.85Z" fill="#FAFAFA"/>
<path d="M54.0729 262.551C54.0729 262.707 53.6394 262.867 52.8894 263.024C51.0325 263.374 49.1374 263.476 47.2537 263.327C46.8202 263.288 46.3867 263.24 45.9532 263.162C45.47 263.09 44.9921 262.985 44.5226 262.85C44.2278 262.76 43.9442 262.636 43.6773 262.482C43.3289 262.283 43.0319 262.005 42.8102 261.671C42.5754 261.298 42.4479 260.868 42.4418 260.427C42.4393 260.091 42.4787 259.756 42.5588 259.43C42.7827 258.363 43.1004 257.319 43.5082 256.308C43.7412 255.759 44.0318 255.236 44.3752 254.748C44.5586 254.502 44.757 254.267 44.9691 254.046C45.2024 253.8 45.4661 253.586 45.7538 253.408C46.0728 253.201 46.4268 253.054 46.7986 252.975C47.1902 252.896 47.5942 252.905 47.982 253.001C48.5814 253.173 49.1342 253.478 49.599 253.894C50.9246 254.995 52.0356 256.33 52.8764 257.834C53.4411 258.834 53.8353 259.921 54.0425 261.051C54.1683 261.849 54.1032 262.308 53.9602 262.352C53.6264 262.434 53.0932 260.795 51.5325 258.71C50.6169 257.507 49.5337 256.441 48.3158 255.545C48.0768 255.344 47.7974 255.196 47.4965 255.112C47.3983 255.098 47.2982 255.105 47.2028 255.132C47.1073 255.159 47.0184 255.205 46.9416 255.268C46.8081 255.362 46.6846 255.469 46.5731 255.589C46.4517 255.723 46.3174 255.892 46.196 256.057C45.9474 256.418 45.7354 256.803 45.563 257.206C45.2094 258.093 44.9196 259.004 44.696 259.933C44.6501 260.082 44.6225 260.236 44.6137 260.392C44.6137 260.492 44.6137 260.501 44.6137 260.522C44.7588 260.696 44.9542 260.82 45.1729 260.878C45.5496 261.011 45.9331 261.123 46.3217 261.216C46.7162 261.316 47.1064 261.394 47.4835 261.467C48.2422 261.606 48.9661 261.706 49.6511 261.784C50.9863 261.935 52.0961 262.026 52.8634 262.144C53.6307 262.261 54.0686 262.395 54.0729 262.551Z" fill="#E0E0E0"/>
<path d="M53.5569 262.776C53.5006 262.455 55.3733 261.935 58.3256 261.124C60.0211 260.662 61.6825 260.083 63.298 259.39C63.6988 259.233 64.0777 259.025 64.4251 258.771C64.5202 258.706 64.5988 258.62 64.6549 258.519C64.6549 258.48 64.6549 258.519 64.6549 258.411C64.6062 258.237 64.5394 258.068 64.4554 257.908L64.0956 257.158C63.8659 256.678 63.6068 256.214 63.3196 255.766C63.0552 255.357 62.7406 254.983 62.3832 254.652C62.2156 254.494 62.0359 254.349 61.8457 254.219C61.6871 254.107 61.5152 254.015 61.3341 253.946C61.0481 253.822 60.7288 253.8 60.4281 253.88C60.07 254.003 59.7409 254.198 59.4614 254.453C58.154 255.559 57.0033 256.838 56.041 258.255C54.3893 260.7 54.0165 262.59 53.674 262.538C53.5266 262.538 53.4225 262.013 53.5179 261.111C53.6838 259.836 54.0711 258.599 54.6624 257.457C55.5293 255.746 56.6883 254.2 58.0871 252.888C58.5675 252.418 59.1424 252.056 59.7735 251.826C60.5264 251.58 61.3399 251.594 62.0841 251.865C62.4306 251.986 62.7611 252.149 63.0682 252.35C63.3555 252.535 63.6279 252.743 63.8832 252.97C64.3827 253.424 64.82 253.941 65.1837 254.509C65.5268 255.041 65.8339 255.596 66.1028 256.169L66.4669 256.967C66.6323 257.309 66.7505 257.672 66.8181 258.047C66.9042 258.559 66.8157 259.086 66.5666 259.542C66.3516 259.917 66.0553 260.238 65.6996 260.483C65.1906 260.832 64.6364 261.111 64.0523 261.311C62.297 261.951 60.4793 262.404 58.629 262.663C57.4048 262.851 56.1695 262.957 54.9312 262.98C54.0771 263.006 53.5786 262.932 53.5569 262.776Z" fill="#FAFAFA"/>
<path d="M30.3676 271.754L67.1196 272.042L67.2017 261.595L30.4496 261.306L30.3676 271.754Z" fill="#E0E0E0"/>
<path d="M43.8767 271.858L77.1001 272.119L77.1822 261.671L43.9588 261.41L43.8767 271.858Z" fill="#EBEBEB"/>
<path d="M66.9828 261.593L66.753 272.088L62.8774 272.006L63.1462 261.562L66.9828 261.593Z" fill="#FAFAFA"/>
<path d="M39.4548 261.428L39.082 271.832L34.8206 271.798L35.0503 261.346L39.4548 261.428Z" fill="#FAFAFA"/>
<path d="M77.6734 141.566L78.1069 143.218L71.4959 144.917L71.1577 143.617L73.7154 139.563C74.3007 138.627 74.3224 138.141 74.214 137.716C74.0362 137.027 73.4597 136.75 72.5363 136.988C72.1819 137.063 71.8516 137.225 71.5748 137.459C71.298 137.692 71.0832 137.991 70.9496 138.328L69.2156 137.756C69.6491 136.594 70.6982 135.644 72.2502 135.237C74.201 134.738 75.7573 135.406 76.1518 136.971C76.3729 137.838 76.3339 138.657 75.3975 140.109L73.8758 142.524L77.6734 141.566Z" fill="#E0E0E0"/>
<path d="M77.786 138.635C77.0447 135.744 78.2195 133.698 80.3871 133.147C82.5547 132.597 84.5575 133.819 85.2988 136.706C86.0401 139.594 84.8653 141.64 82.6977 142.195C80.5302 142.749 78.5273 141.523 77.786 138.635ZM83.2483 137.231C82.7367 135.241 81.8264 134.599 80.8119 134.86C79.7975 135.12 79.325 136.121 79.8365 138.107C80.3481 140.092 81.2585 140.738 82.2599 140.482C83.2613 140.226 83.7598 139.216 83.2483 137.231Z" fill="#E0E0E0"/>
<path d="M85.7842 134.383C85.4157 132.957 85.975 131.782 87.1498 131.5C88.3246 131.218 89.365 131.933 89.7509 133.368C90.1367 134.803 89.5471 135.969 88.3853 136.251C87.2235 136.533 86.1484 135.805 85.7842 134.383ZM89.1093 133.516C88.8145 132.376 88.1035 131.838 87.2929 132.051C86.4822 132.263 86.118 133.082 86.4258 134.218C86.7336 135.354 87.4142 135.896 88.2422 135.683C89.0702 135.471 89.3997 134.665 89.1093 133.529V133.516ZM92.4647 130.186L93.2016 130L89.4647 140.296L88.7278 140.487L92.4647 130.186ZM92.2045 137.123C91.8404 135.696 92.4083 134.522 93.5701 134.24C94.7319 133.958 95.7897 134.673 96.1712 136.108C96.5527 137.543 95.9804 138.709 94.8056 138.987C93.6308 139.264 92.573 138.553 92.2045 137.131V137.123ZM95.5296 136.256C95.2391 135.128 94.5412 134.578 93.7132 134.79C92.8852 135.003 92.5384 135.809 92.8461 136.958C93.1539 138.107 93.8519 138.631 94.6626 138.423C95.4732 138.215 95.82 137.4 95.5339 136.277L95.5296 136.256Z" fill="#E0E0E0"/>
<path d="M159.794 168.977C159.828 170.768 158.493 172.445 155.459 172.48C154.029 172.532 152.616 172.161 151.396 171.413L152.316 169.519C153.209 170.128 154.269 170.443 155.35 170.421C156.577 170.399 157.327 169.888 157.314 169.02C157.314 168.218 156.698 167.72 155.307 167.755H154.184L154.158 166.133L156.295 163.628L151.778 163.706L151.748 161.733L159.169 161.607L159.2 163.198L156.863 165.982C158.779 166.255 159.768 167.416 159.794 168.977Z" fill="#E0E0E0"/>
<path d="M160.895 166.901C160.834 163.381 162.728 161.382 165.33 161.334C167.931 161.287 169.907 163.242 169.968 166.74C170.029 170.239 168.139 172.263 165.52 172.307C162.902 172.35 160.955 170.399 160.895 166.901ZM167.519 166.784C167.475 164.378 166.608 163.389 165.382 163.411C164.155 163.433 163.34 164.447 163.383 166.879C163.426 169.311 164.289 170.273 165.499 170.252C166.708 170.23 167.558 169.194 167.519 166.784Z" fill="#E0E0E0"/>
<path d="M171.186 164.222C171.156 162.488 172.105 161.326 173.532 161.3C174.958 161.274 175.946 162.397 175.977 164.139C176.007 165.882 175.04 167.035 173.631 167.057C172.222 167.079 171.217 165.947 171.186 164.222ZM175.218 164.152C175.192 162.774 174.529 161.985 173.545 161.985C172.56 161.985 171.919 162.852 171.945 164.213C171.971 165.574 172.617 166.381 173.618 166.381C174.62 166.381 175.24 165.548 175.218 164.152ZM179.956 161.265H180.849L173.792 171.995H172.899L179.956 161.265ZM177.789 169.107C177.763 167.373 178.725 166.212 180.134 166.19C181.543 166.168 182.549 167.3 182.579 169.025C182.609 170.75 181.66 171.921 180.234 171.947C178.807 171.973 177.802 170.837 177.771 169.107H177.789ZM181.82 169.038C181.799 167.677 181.148 166.87 180.147 166.87C179.146 166.87 178.526 167.716 178.547 169.094C178.569 170.473 179.237 171.262 180.221 171.262C181.205 171.262 181.829 170.404 181.803 169.038H181.82Z" fill="#E0E0E0"/>
<path d="M211.1 136.212C210.892 137.565 209.717 138.592 207.532 138.258C206.498 138.119 205.528 137.681 204.74 136.997L205.646 135.748C206.21 136.298 206.934 136.655 207.714 136.767C208.603 136.902 209.205 136.615 209.301 135.991C209.396 135.367 209.058 134.938 207.671 134.725L205.716 134.426L206.765 130.182L211.429 130.893L211.213 132.315L208.022 131.829L207.679 133.26L208.304 133.355C210.567 133.702 211.308 134.855 211.1 136.212Z" fill="#F5F5F5"/>
<path d="M212.036 134.903C212.422 132.375 214.039 131.157 215.938 131.435C217.837 131.712 218.998 133.364 218.613 135.891C218.227 138.419 216.619 139.632 214.711 139.359C212.804 139.086 211.655 137.426 212.036 134.903ZM216.805 135.631C217.069 133.897 216.566 133.078 215.682 132.943C214.798 132.809 214.087 133.438 213.822 135.176C213.558 136.914 214.056 137.725 214.932 137.859C215.808 137.994 216.549 137.37 216.814 135.635L216.805 135.631Z" fill="#F5F5F5"/>
<path d="M219.766 134.235C219.957 132.991 220.785 132.267 221.812 132.423C222.839 132.579 223.412 133.507 223.221 134.764C223.03 136.022 222.193 136.732 221.175 136.576C220.156 136.42 219.575 135.484 219.766 134.235ZM226.455 133.186L227.101 133.286L220.689 140.136L220.043 140.036L226.455 133.186ZM222.696 134.682C222.848 133.685 222.467 133.026 221.756 132.918C221.045 132.809 220.485 133.351 220.334 134.322C220.182 135.293 220.55 135.974 221.274 136.087C221.998 136.199 222.523 135.675 222.675 134.682H222.696ZM223.923 138.558C224.114 137.313 224.951 136.589 225.969 136.745C226.988 136.902 227.569 137.842 227.378 139.086C227.187 140.331 226.359 141.055 225.332 140.899C224.305 140.742 223.711 139.806 223.901 138.558H223.923ZM226.832 138.991C226.979 138.007 226.615 137.335 225.891 137.227C225.167 137.118 224.621 137.634 224.469 138.627C224.318 139.62 224.699 140.287 225.41 140.396C226.121 140.504 226.659 139.971 226.81 139.004L226.832 138.991Z" fill="#F5F5F5"/>
<path d="M37.1139 173L35.5273 179.776L33.9753 179.42L35.2758 173.902L33.9189 173.585L34.2137 172.324L37.1139 173Z" fill="#F5F5F5"/>
<path d="M37.5042 176.667C38.0244 174.431 39.5634 173.451 41.2281 173.841C42.8928 174.231 43.8291 175.792 43.3089 178.024C42.7887 180.257 41.2628 181.241 39.5851 180.851C37.9074 180.461 36.9796 178.904 37.5042 176.667ZM41.7353 177.656C42.0951 176.117 41.7006 175.35 40.9159 175.168C40.1313 174.985 39.4507 175.497 39.0909 177.036C38.731 178.575 39.1212 179.342 39.8972 179.524C40.6732 179.706 41.3711 179.195 41.7353 177.656Z" fill="#F5F5F5"/>
<path d="M50.5311 176.143L51.1033 176.278L44.8867 181.97L44.3188 181.835L50.5311 176.143ZM44.4619 176.616C44.722 175.51 45.5153 174.921 46.4257 175.133C47.3361 175.346 47.7826 176.217 47.5225 177.331C47.2624 178.445 46.4647 179.022 45.563 178.814C44.6613 178.606 44.2191 177.717 44.4749 176.616H44.4619ZM47.037 177.218C47.2451 176.351 46.9503 175.718 46.3217 175.571C45.6931 175.424 45.1512 175.857 44.9474 176.729C44.7437 177.6 45.0255 178.228 45.6671 178.376C46.3087 178.523 46.8462 178.12 47.05 177.218H47.037ZM47.8693 180.782C48.1251 179.676 48.9271 179.091 49.8288 179.299C50.7305 179.507 51.1857 180.396 50.9299 181.497C50.6741 182.598 49.8765 183.192 48.9661 182.98C48.0557 182.767 47.6222 181.883 47.8823 180.782H47.8693ZM50.4487 181.384C50.6525 180.517 50.3707 179.885 49.7334 179.737C49.0962 179.59 48.5629 180.015 48.3592 180.895C48.1554 181.775 48.4459 182.395 49.0745 182.542C49.7031 182.689 50.2536 182.256 50.4487 181.384Z" fill="#F5F5F5"/>
<path d="M293.714 247.816L264.812 215.346C263.674 214.067 262.28 213.042 260.721 212.336C259.162 211.629 257.472 211.258 255.76 211.245L160.608 210.556C158.992 210.543 157.389 210.852 155.892 211.463C154.395 212.075 153.034 212.977 151.888 214.117C150.742 215.257 149.834 216.614 149.215 218.107C148.596 219.601 148.28 221.203 148.284 222.82L148.444 290.196C148.448 291.805 148.768 293.397 149.388 294.882C150.007 296.366 150.914 297.714 152.055 298.848C153.196 299.982 154.55 300.88 156.038 301.49C157.527 302.1 159.121 302.411 160.73 302.404L255.552 302.005C257.303 302.001 259.033 301.62 260.625 300.89C262.216 300.159 263.632 299.095 264.777 297.77L293.853 263.956C295.791 261.706 296.845 258.829 296.82 255.86C296.794 252.89 295.691 250.032 293.714 247.816ZM277.631 259.521C276.879 261.37 275.596 262.955 273.944 264.075C272.292 265.195 270.345 265.8 268.349 265.813C266.353 265.827 264.397 265.248 262.73 264.15C261.063 263.052 259.759 261.484 258.983 259.645C258.207 257.806 257.994 255.779 258.37 253.818C258.746 251.858 259.696 250.053 261.098 248.633C262.5 247.212 264.292 246.239 266.247 245.836C268.202 245.434 270.233 245.621 272.082 246.372C274.557 247.38 276.531 249.329 277.571 251.791C278.612 254.252 278.633 257.026 277.631 259.503V259.521Z" fill="#DE7A4A"/>
<g opacity="0.4">
<path d="M293.714 247.816L264.812 215.346C263.674 214.067 262.28 213.042 260.721 212.336C259.162 211.629 257.472 211.258 255.76 211.245L160.608 210.556C158.992 210.543 157.389 210.852 155.892 211.463C154.395 212.075 153.034 212.977 151.888 214.117C150.742 215.257 149.834 216.614 149.215 218.107C148.596 219.601 148.28 221.203 148.284 222.82L148.444 290.196C148.448 291.805 148.768 293.397 149.388 294.882C150.007 296.366 150.914 297.714 152.055 298.848C153.196 299.982 154.55 300.88 156.038 301.49C157.527 302.1 159.121 302.411 160.73 302.404L255.552 302.005C257.303 302.001 259.033 301.62 260.625 300.89C262.216 300.159 263.632 299.095 264.777 297.77L293.853 263.956C295.791 261.706 296.845 258.829 296.82 255.86C296.794 252.89 295.691 250.032 293.714 247.816ZM277.631 259.521C276.879 261.37 275.596 262.955 273.944 264.075C272.292 265.195 270.345 265.8 268.349 265.813C266.353 265.827 264.397 265.248 262.73 264.15C261.063 263.052 259.759 261.484 258.983 259.645C258.207 257.806 257.994 255.779 258.37 253.818C258.746 251.858 259.696 250.053 261.098 248.633C262.5 247.212 264.292 246.239 266.247 245.836C268.202 245.434 270.233 245.621 272.082 246.372C274.557 247.38 276.531 249.329 277.571 251.791C278.612 254.252 278.633 257.026 277.631 259.503V259.521Z" fill="black"/>
</g>
<path d="M298.721 247.816L269.806 215.346C268.667 214.068 267.274 213.043 265.715 212.336C264.156 211.63 262.466 211.258 260.754 211.245L165.603 210.556C163.986 210.543 162.382 210.851 160.885 211.462C159.388 212.073 158.027 212.975 156.881 214.116C155.735 215.256 154.826 216.613 154.208 218.107C153.589 219.601 153.273 221.203 153.278 222.82L153.434 290.196C153.438 291.808 153.76 293.404 154.383 294.891C155.005 296.378 155.916 297.728 157.061 298.862C158.207 299.997 159.565 300.894 161.059 301.501C162.552 302.109 164.151 302.416 165.763 302.404L260.581 302.005C262.332 302 264.062 301.62 265.653 300.889C267.245 300.158 268.661 299.094 269.806 297.77L298.877 263.956C300.814 261.704 301.866 258.826 301.837 255.856C301.808 252.887 300.701 250.029 298.721 247.816ZM282.642 259.521C281.891 261.37 280.608 262.955 278.956 264.075C277.303 265.195 275.356 265.8 273.36 265.813C271.364 265.827 269.409 265.248 267.742 264.15C266.075 263.052 264.771 261.485 263.995 259.645C263.218 257.806 263.005 255.779 263.382 253.818C263.758 251.858 264.707 250.053 266.109 248.633C267.511 247.212 269.303 246.239 271.259 245.836C273.214 245.434 275.244 245.621 277.093 246.372C279.568 247.38 281.543 249.329 282.583 251.791C283.623 254.252 283.644 257.026 282.642 259.503V259.521Z" fill="#DE7A4A"/>
<path d="M184.942 245.557C185.015 237.39 190.048 232.244 197.106 232.314C204.164 232.383 209.032 237.546 208.958 245.779C208.884 254.011 203.912 259.092 196.859 259.027C189.806 258.962 184.864 253.725 184.942 245.557ZM202.035 245.718C202.083 240.516 200.102 238.014 197.054 237.988C194.08 237.958 191.977 240.498 191.93 245.623C191.882 250.747 193.937 253.322 196.911 253.352C199.958 253.378 201.987 250.907 202.035 245.718ZM225.961 233.146L234.197 233.224L200.665 281.344L192.428 281.266L225.961 233.146ZM217.672 268.724C217.75 260.557 222.779 255.411 229.771 255.476C236.829 255.546 241.762 260.782 241.688 268.945C241.615 277.109 236.582 282.237 229.52 282.163C222.553 282.107 217.598 276.87 217.672 268.724ZM234.696 268.88C234.744 263.761 232.762 261.181 229.715 261.155C226.741 261.125 224.643 263.596 224.595 268.789C224.547 273.983 226.598 276.489 229.572 276.519C232.619 276.528 234.648 273.983 234.691 268.859L234.696 268.88Z" fill="white"/>
<path d="M295.556 267.857C295.902 268.041 296.221 268.27 296.506 268.538C297.1 269.01 297.967 269.721 299.064 270.662C300.16 271.603 301.496 272.765 302.996 274.165C304.496 275.565 306.178 277.199 307.916 279.137C309.827 281.237 311.557 283.495 313.088 285.887L313.703 286.871L314.284 287.898C314.69 288.601 315.058 289.324 315.385 290.066C316.115 291.639 316.535 293.337 316.625 295.069C316.653 295.994 316.518 296.917 316.226 297.796C315.922 298.704 315.435 299.54 314.796 300.254C313.484 301.7 311.748 302.692 309.836 303.089C307.898 303.472 305.898 303.425 303.98 302.95C302.053 302.484 300.186 301.796 298.418 300.899C294.942 299.127 291.79 296.782 289.093 293.963C287.807 292.643 286.604 291.244 285.49 289.776C284.404 288.351 283.369 286.933 282.386 285.523C278.485 279.887 275.45 274.468 273.543 269.622C273.066 268.412 272.654 267.25 272.299 266.132C272.125 265.573 271.96 265.026 271.826 264.484C271.678 263.96 271.572 263.426 271.51 262.885C271.359 261.859 271.615 260.815 272.225 259.976C272.75 259.303 273.466 258.804 274.28 258.545C274.616 258.434 274.961 258.355 275.311 258.307C275.62 258.274 275.93 258.267 276.239 258.285C276.724 258.308 277.202 258.412 277.652 258.593C277.926 258.708 278.181 258.864 278.407 259.057C278.554 259.191 278.619 259.265 278.606 259.282C278.593 259.3 278.502 259.252 278.337 259.152C278.098 259.007 277.842 258.891 277.574 258.81C277.139 258.678 276.686 258.614 276.231 258.619C275.94 258.622 275.651 258.645 275.363 258.688C275.043 258.751 274.728 258.84 274.423 258.957C273.714 259.218 273.099 259.682 272.654 260.292C272.158 261.03 271.971 261.933 272.134 262.807C272.206 263.317 272.319 263.82 272.472 264.311C272.615 264.831 272.793 265.36 272.975 265.906C273.353 266.999 273.787 268.138 274.275 269.322C276.239 274.048 279.308 279.384 283.227 284.929C284.21 286.316 285.246 287.713 286.336 289.121C287.432 290.55 288.615 291.911 289.877 293.196C292.497 295.918 295.55 298.185 298.912 299.907C300.608 300.765 302.397 301.425 304.244 301.875C306.004 302.316 307.838 302.368 309.62 302.027C311.305 301.683 312.839 300.819 314.007 299.556C315.089 298.332 315.66 296.74 315.602 295.108C315.52 293.501 315.131 291.925 314.458 290.465C314.15 289.748 313.804 289.047 313.422 288.367L312.88 287.365L312.29 286.385C310.816 284.015 309.15 281.769 307.309 279.67C305.636 277.728 304.01 276.064 302.54 274.624C301.071 273.185 299.801 271.98 298.747 270.996L296.354 268.724C296.053 268.469 295.786 268.178 295.556 267.857Z" fill="#263238"/>
<path d="M250.398 200.572C250.337 200.572 249.123 192.096 247.684 181.623C246.245 171.149 245.131 162.652 245.196 162.644C245.261 162.635 246.47 171.119 247.909 181.592C249.349 192.066 250.463 200.563 250.398 200.572Z" fill="#263238"/>
<path d="M286.141 154.173C286.133 154.218 286.12 154.261 286.102 154.303L285.963 154.68L285.412 156.124L283.349 161.421C281.615 165.895 279.239 172.086 276.716 178.965C274.193 185.845 272.004 192.101 270.443 196.64C269.667 198.898 269.039 200.732 268.601 202.02C268.384 202.64 268.215 203.129 268.094 203.481C268.037 203.637 267.99 203.758 267.955 203.858C267.942 203.901 267.925 203.943 267.903 203.983C267.906 203.937 267.916 203.892 267.933 203.849L268.05 203.463C268.159 203.112 268.315 202.596 268.514 201.989C268.922 200.71 269.529 198.864 270.291 196.588C271.817 192.036 273.985 185.75 276.508 178.887C279.031 172.025 281.42 165.821 283.197 161.36C284.064 159.132 284.818 157.329 285.334 156.089L285.928 154.663C285.993 154.511 286.05 154.39 286.089 154.294L286.141 154.173Z" fill="#263238"/>
<path d="M311.753 187.536C311.792 187.584 305.588 192.443 297.88 198.374C290.172 204.304 283.921 209.099 283.882 209.047C283.843 208.995 290.051 204.14 297.754 198.209C305.458 192.279 311.718 187.484 311.753 187.536Z" fill="#263238"/>
<path d="M235.35 202.154C235.298 202.193 232.901 199.119 229.992 195.322C227.083 191.524 224.76 188.386 224.79 188.355C224.82 188.325 227.239 191.39 230.148 195.187C233.057 198.985 235.398 202.115 235.35 202.154Z" fill="#263238"/>
<path d="M308.822 226.049C308.822 226.11 305.003 225.052 300.33 223.691C295.656 222.33 291.885 221.176 291.902 221.116C291.919 221.055 295.721 222.113 300.395 223.474C305.068 224.835 308.844 225.988 308.822 226.049Z" fill="#263238"/>
<path d="M254.195 225.91L257.013 224.289L258.509 221.402L260.134 224.22L263.022 225.72L260.204 227.341L258.704 230.228L257.083 227.41L254.195 225.91Z" fill="white"/>
<path d="M238.962 221.437L239.95 220.869L240.475 219.859L241.043 220.843L242.053 221.368L241.064 221.935L240.54 222.945L239.972 221.961L238.962 221.437Z" fill="white"/>
<path d="M248.69 241.348L250.597 240.251L251.612 238.296L252.708 240.203L254.664 241.218L252.756 242.315L251.742 244.27L250.645 242.362L248.69 241.348Z" fill="white"/>
<path d="M328.681 302.447C328.681 302.507 261.812 302.559 179.345 302.559C96.878 302.559 30 302.507 30 302.447C30 302.386 96.852 302.334 179.345 302.334C261.838 302.334 328.681 302.382 328.681 302.447Z" fill="#263238"/>
<path d="M117.084 294.761C117.084 294.761 99.0021 299.772 98.2521 300.028C97.164 300.409 97.3461 304.406 99.0454 304.363C99.8474 304.333 112.948 304.849 114.604 304.745C116.26 304.64 120.717 302.885 120.717 302.885L117.084 294.761Z" fill="#455A64"/>
<path d="M109.541 301.671C109.45 301.671 109.329 300.726 108.743 299.729C108.158 298.732 107.408 298.133 107.464 298.064C107.521 297.995 108.396 298.497 109.008 299.577C109.619 300.656 109.619 301.671 109.541 301.671Z" fill="#263238"/>
<path d="M111.431 300.804C111.34 300.804 111.158 299.963 110.677 299.018C110.196 298.072 109.623 297.409 109.688 297.348C109.753 297.288 110.447 297.882 110.946 298.883C111.444 299.885 111.509 300.804 111.431 300.804Z" fill="#263238"/>
<path d="M113.2 300.34C113.109 300.34 113.178 299.43 112.766 298.424C112.354 297.418 111.713 296.798 111.778 296.733C111.843 296.668 112.645 297.223 113.048 298.315C113.451 299.408 113.273 300.37 113.2 300.34Z" fill="#263238"/>
<path d="M112.875 297.999C112.716 297.57 112.65 297.112 112.68 296.655C112.687 296.154 112.752 295.655 112.875 295.168C112.942 294.881 113.032 294.6 113.143 294.327C113.2 294.159 113.3 294.01 113.434 293.894C113.524 293.825 113.636 293.79 113.749 293.795C113.863 293.801 113.971 293.847 114.054 293.924C114.193 294.06 114.279 294.241 114.297 294.436C114.307 294.594 114.307 294.754 114.297 294.912C114.292 295.205 114.254 295.496 114.184 295.779C114.063 296.264 113.877 296.729 113.629 297.162C113.427 297.573 113.151 297.942 112.814 298.25C112.775 298.224 113.078 297.817 113.438 297.063C113.65 296.636 113.809 296.184 113.911 295.719C113.97 295.447 114.001 295.169 114.002 294.891C114.002 294.613 114.002 294.266 113.833 294.132C113.803 294.098 113.762 294.078 113.718 294.073C113.673 294.069 113.629 294.083 113.594 294.11C113.502 294.197 113.433 294.306 113.395 294.427C113.286 294.686 113.195 294.953 113.122 295.225C112.995 295.686 112.915 296.16 112.883 296.638C112.844 297.479 112.927 297.995 112.875 297.999Z" fill="#263238"/>
<path d="M112.901 297.817C113.27 297.662 113.671 297.597 114.071 297.626C114.51 297.625 114.947 297.679 115.372 297.786C115.631 297.84 115.881 297.932 116.113 298.059C116.262 298.133 116.382 298.254 116.456 298.403C116.529 298.551 116.552 298.72 116.52 298.883C116.479 299.039 116.396 299.182 116.281 299.295C116.166 299.409 116.023 299.49 115.866 299.529C115.6 299.596 115.321 299.596 115.055 299.529C114.248 299.292 113.54 298.797 113.039 298.12C113.375 298.315 113.697 298.534 114.002 298.775C114.338 299.004 114.715 299.167 115.112 299.256C115.332 299.31 115.563 299.31 115.783 299.256C115.887 299.227 115.982 299.173 116.058 299.097C116.134 299.021 116.189 298.926 116.217 298.822C116.235 298.721 116.218 298.616 116.169 298.525C116.12 298.434 116.043 298.361 115.948 298.32C115.741 298.205 115.519 298.119 115.289 298.064C114.892 297.951 114.483 297.879 114.071 297.851C113.351 297.791 112.909 297.864 112.901 297.817Z" fill="#263238"/>
<path d="M106.762 301.862C106.671 301.862 106.762 301.077 106.402 300.232C106.042 299.386 105.461 298.883 105.535 298.814C105.609 298.745 106.32 299.169 106.701 300.114C107.083 301.06 106.836 301.896 106.762 301.862Z" fill="#263238"/>
<path d="M119.377 302.698C119.154 302.829 118.919 302.939 118.675 303.028C118.018 303.28 117.344 303.489 116.659 303.652C114.391 304.15 112.07 304.37 109.749 304.307C107.035 304.276 104.59 304.155 102.813 304.081L100.715 303.973C100.457 303.971 100.2 303.943 99.9473 303.89C100.207 303.843 100.472 303.826 100.736 303.838H102.839L109.775 303.973C112.076 304.031 114.376 303.844 116.637 303.414C118.363 303.088 119.377 302.642 119.377 302.698Z" fill="#263238"/>
<path d="M119.928 303.11C119.465 302.928 119.012 302.723 118.571 302.495C117.504 301.991 116.318 301.794 115.146 301.927C113.78 302.135 112.814 303.054 112.185 303.687C111.864 304.067 111.514 304.424 111.14 304.753C111.382 304.312 111.681 303.906 112.029 303.544C112.385 303.124 112.788 302.747 113.23 302.421C113.78 302.011 114.421 301.739 115.098 301.628C116.328 301.479 117.572 301.716 118.662 302.304C119.123 302.504 119.551 302.777 119.928 303.11Z" fill="#263238"/>
<path d="M101.768 303.895C101.843 303.662 101.931 303.433 102.032 303.21C102.222 302.664 102.267 302.078 102.162 301.509C102.057 300.941 101.806 300.409 101.434 299.967C101.148 299.62 100.918 299.456 100.94 299.421C100.962 299.386 101.226 299.516 101.56 299.854C101.998 300.295 102.293 300.858 102.405 301.469C102.518 302.08 102.444 302.711 102.193 303.279C101.998 303.704 101.79 303.912 101.768 303.895Z" fill="#263238"/>
<path d="M135.972 295.298C135.972 295.298 154.544 298.121 155.294 298.29C156.425 298.541 156.716 302.529 155.025 302.668C154.223 302.733 141.274 304.805 139.618 304.901C137.962 304.996 132.769 303.635 132.769 303.635L135.972 295.298Z" fill="#455A64"/>
<path d="M144.283 301.259C144.374 301.259 144.382 300.297 144.842 299.235C145.301 298.172 145.982 297.5 145.917 297.427C145.852 297.353 145.05 297.977 144.564 299.117C144.079 300.258 144.209 301.276 144.283 301.259Z" fill="#263238"/>
<path d="M142.306 300.634C142.397 300.634 142.475 299.767 142.843 298.77C143.212 297.773 143.71 297.036 143.624 296.997C143.537 296.958 142.934 297.613 142.557 298.666C142.18 299.72 142.228 300.639 142.306 300.634Z" fill="#263238"/>
<path d="M140.494 300.37C140.58 300.37 140.407 299.464 140.684 298.419C140.962 297.374 141.551 296.685 141.465 296.62C141.378 296.555 140.68 297.21 140.394 298.354C140.108 299.499 140.424 300.409 140.494 300.37Z" fill="#263238"/>
<path d="M140.533 298.012C140.643 297.568 140.655 297.104 140.567 296.655C140.505 296.161 140.385 295.677 140.208 295.211C140.105 294.934 139.982 294.664 139.839 294.405C139.764 294.243 139.648 294.104 139.501 294.002C139.402 293.944 139.287 293.923 139.174 293.942C139.062 293.961 138.959 294.019 138.885 294.106C138.763 294.258 138.7 294.449 138.708 294.643C138.708 294.803 138.72 294.962 138.742 295.12C138.781 295.417 138.854 295.708 138.959 295.987C139.137 296.452 139.378 296.889 139.674 297.288C139.924 297.672 140.241 298.007 140.611 298.276C140.65 298.242 140.299 297.843 139.852 297.171C139.589 296.764 139.377 296.328 139.219 295.87C139.13 295.607 139.069 295.336 139.037 295.06C139.011 294.782 138.968 294.44 139.111 294.288C139.136 294.252 139.175 294.226 139.218 294.217C139.262 294.209 139.307 294.217 139.345 294.24C139.448 294.315 139.53 294.415 139.583 294.531C139.722 294.775 139.844 295.028 139.947 295.289C140.128 295.733 140.264 296.193 140.355 296.664C140.502 297.496 140.485 298.012 140.533 298.012Z" fill="#263238"/>
<path d="M140.489 297.834C140.11 297.721 139.709 297.699 139.319 297.769C138.889 297.821 138.467 297.924 138.062 298.077C137.812 298.163 137.576 298.285 137.359 298.437C137.221 298.528 137.116 298.662 137.06 298.818C137.005 298.975 137.002 299.145 137.052 299.304C137.112 299.454 137.211 299.586 137.339 299.686C137.467 299.785 137.619 299.85 137.78 299.871C138.053 299.904 138.329 299.87 138.586 299.772C139.358 299.438 140.001 298.863 140.42 298.133C140.113 298.367 139.824 298.622 139.553 298.896C139.247 299.164 138.892 299.372 138.508 299.507C138.294 299.582 138.065 299.606 137.841 299.577C137.734 299.562 137.633 299.52 137.547 299.454C137.461 299.389 137.394 299.303 137.351 299.204C137.322 299.104 137.327 298.997 137.364 298.9C137.402 298.803 137.47 298.721 137.559 298.666C137.751 298.531 137.959 298.42 138.179 298.337C138.561 298.176 138.959 298.057 139.367 297.981C140.038 297.864 140.489 297.882 140.489 297.834Z" fill="#263238"/>
<path d="M147.066 301.12C147.157 301.099 146.975 300.344 147.226 299.456C147.477 298.567 148.006 298.008 147.941 297.947C147.876 297.886 147.2 298.38 146.936 299.377C146.671 300.375 147.001 301.164 147.066 301.12Z" fill="#263238"/>
<path d="M134.624 303.452C134.861 303.558 135.108 303.64 135.361 303.695C136.042 303.869 136.735 303.997 137.433 304.077C139.744 304.302 142.073 304.245 144.369 303.908C147.061 303.552 149.472 303.14 151.223 302.858L153.295 302.499C153.551 302.468 153.802 302.41 154.045 302.325C153.788 302.317 153.531 302.336 153.278 302.382L151.193 302.646L144.33 303.604C142.053 303.936 139.747 304.023 137.451 303.864C135.695 303.717 134.637 303.405 134.624 303.452Z" fill="#263238"/>
<path d="M134.143 303.925C134.173 303.964 134.628 303.617 135.417 303.153C136.415 302.523 137.57 302.186 138.751 302.182C140.129 302.226 141.196 303.023 141.898 303.578C142.264 303.916 142.652 304.229 143.06 304.515C142.771 304.104 142.427 303.735 142.037 303.418C141.634 303.043 141.189 302.715 140.71 302.442C140.114 302.103 139.445 301.91 138.759 301.879C137.518 301.875 136.306 302.257 135.291 302.971C134.861 303.227 134.473 303.549 134.143 303.925Z" fill="#263238"/>
<path d="M193.729 218.996C193.615 218.761 193.423 218.573 193.187 218.462L193.621 217.595C193.591 217.284 193.504 216.982 193.365 216.702C193.148 216.329 192.389 216.36 192.389 216.36L192.507 216.113C192.586 215.938 192.619 215.745 192.602 215.554C192.585 215.363 192.52 215.179 192.411 215.02C192.376 214.973 192.342 214.925 192.298 214.873C192.036 214.618 191.702 214.448 191.34 214.387C191.34 214.387 191.774 213.555 191.579 213.204C191.376 212.915 191.093 212.692 190.765 212.563C190.436 212.433 190.077 212.403 189.732 212.476C188.576 212.93 187.453 213.466 186.372 214.08C186.271 214.134 186.16 214.167 186.045 214.174C185.931 214.182 185.816 214.164 185.709 214.123C185.602 214.082 185.505 214.018 185.425 213.935C185.345 213.853 185.283 213.754 185.245 213.646C184.859 212.539 184.305 211.498 183.602 210.559C182.787 209.58 182.024 209.658 181.578 209.831C181.528 209.851 181.483 209.881 181.445 209.919C181.408 209.958 181.38 210.005 181.363 210.055C181.345 210.106 181.339 210.16 181.345 210.213C181.351 210.267 181.368 210.318 181.396 210.364C181.833 211.062 182.227 211.786 182.575 212.532C182.787 213.1 183.008 217.374 183.008 217.374L181.838 219.602L170.033 238.248C170.033 238.248 152.194 226.227 152.259 225.927L151.418 239.713L164.857 248.643C166.008 249.408 167.313 249.911 168.679 250.118C170.046 250.324 171.441 250.229 172.766 249.839C174.092 249.449 175.316 248.774 176.353 247.86C177.39 246.947 178.215 245.817 178.769 244.551L187.816 224.913L188.913 223.309L193.174 220.578C193.174 220.578 193.881 219.355 193.729 218.996Z" fill="#FFBE9D"/>
<path d="M191.774 214.392C191.774 214.392 191.748 214.422 191.691 214.47L191.436 214.678C191.197 214.86 190.872 215.111 190.482 215.419L189.056 216.503C188.787 216.702 188.518 216.936 188.189 217.127C188.026 217.24 187.838 217.313 187.641 217.339C187.444 217.366 187.244 217.345 187.057 217.279C186.865 217.192 186.711 217.038 186.624 216.845C186.546 216.667 186.512 216.472 186.524 216.278C186.557 215.915 186.709 215.573 186.957 215.306C187.177 215.071 187.415 214.854 187.668 214.656L188.31 214.123L189.246 213.356L189.502 213.152C189.563 213.109 189.593 213.083 189.598 213.087L189.515 213.169L189.272 213.39L188.362 214.179L187.729 214.721C187.481 214.919 187.249 215.137 187.036 215.372C186.792 215.617 186.639 215.938 186.602 216.282C186.58 216.46 186.611 216.64 186.692 216.8C186.773 216.96 186.9 217.092 187.057 217.179C187.226 217.248 187.411 217.266 187.59 217.231C187.768 217.197 187.939 217.131 188.093 217.036C188.397 216.85 188.674 216.603 188.96 216.425L190.395 215.354L191.371 214.643L191.639 214.452L191.774 214.392Z" fill="#EB996E"/>
<path d="M192.719 216.399C192.659 216.461 192.592 216.517 192.519 216.564C192.389 216.663 192.194 216.806 191.951 216.975C191.47 217.309 190.79 217.76 190.014 218.215C189.819 218.328 189.632 218.445 189.433 218.536C189.239 218.627 189.026 218.667 188.813 218.653C188.632 218.632 188.461 218.559 188.319 218.445C188.177 218.331 188.071 218.179 188.011 218.007C187.938 217.775 187.957 217.524 188.063 217.305C188.093 217.248 188.129 217.194 188.171 217.145C188.202 217.11 188.219 217.097 188.223 217.097C188.228 217.097 188.167 217.175 188.102 217.322C188.023 217.535 188.023 217.769 188.102 217.981C188.157 218.137 188.256 218.274 188.387 218.375C188.517 218.476 188.674 218.538 188.839 218.553C189.035 218.563 189.23 218.522 189.407 218.436C189.601 218.342 189.791 218.238 189.975 218.124C190.751 217.669 191.436 217.231 191.93 216.91L192.511 216.529C192.576 216.48 192.646 216.437 192.719 216.399Z" fill="#EB996E"/>
<path d="M193.269 218.358C193.206 218.405 193.138 218.444 193.066 218.475L192.489 218.766C191.999 219.009 191.319 219.334 190.569 219.689C190.386 219.781 190.197 219.862 190.005 219.932C189.818 220.001 189.616 220.018 189.42 219.98C189.329 219.963 189.243 219.926 189.168 219.872C189.093 219.818 189.031 219.748 188.986 219.668C188.914 219.526 188.89 219.365 188.917 219.208C188.964 218.988 189.085 218.791 189.259 218.649C189.376 218.549 189.454 218.51 189.459 218.519C189.463 218.527 189.394 218.575 189.285 218.679C189.135 218.825 189.033 219.015 188.995 219.221C188.973 219.359 188.998 219.501 189.064 219.624C189.105 219.692 189.159 219.751 189.225 219.795C189.29 219.84 189.364 219.871 189.441 219.884C189.619 219.916 189.802 219.898 189.97 219.832C190.159 219.763 190.342 219.682 190.521 219.59C191.275 219.238 191.956 218.922 192.454 218.697L193.048 218.441C193.118 218.402 193.192 218.375 193.269 218.358Z" fill="#EB996E"/>
<path d="M193.577 220.171C193.357 220.247 193.131 220.307 192.901 220.348C192.467 220.444 191.895 220.569 191.249 220.699L190.777 220.795C190.628 220.831 190.475 220.849 190.322 220.847C190.175 220.847 190.032 220.796 189.918 220.704C189.868 220.662 189.828 220.61 189.801 220.55C189.774 220.491 189.761 220.426 189.762 220.361C189.77 220.271 189.797 220.184 189.842 220.105C189.887 220.026 189.948 219.958 190.022 219.906C190.071 219.863 190.132 219.836 190.196 219.828C190.196 219.828 190.135 219.863 190.048 219.941C189.985 219.994 189.934 220.061 189.898 220.135C189.862 220.21 189.843 220.292 189.84 220.374C189.841 220.427 189.853 220.479 189.876 220.526C189.899 220.574 189.933 220.615 189.975 220.647C190.074 220.723 190.197 220.763 190.322 220.76C190.468 220.758 190.613 220.739 190.755 220.704L191.228 220.604C191.874 220.474 192.459 220.361 192.884 220.283C193.112 220.229 193.344 220.192 193.577 220.171Z" fill="#EB996E"/>
<path d="M188.952 219.303C188.552 219.223 188.145 219.183 187.738 219.182C187.333 219.22 186.934 219.299 186.546 219.42C186.901 219.195 187.313 219.074 187.733 219.073C188.153 219.036 188.575 219.116 188.952 219.303Z" fill="#EB996E"/>
<path d="M125.256 215.22C125.256 215.22 119.256 210.161 120.643 206.675C122.03 203.19 125.884 201.473 127.779 195.122C129.292 190.059 138.304 180.287 148.986 187.657C148.986 187.657 152.602 187.089 154.656 188.736C156.711 190.384 157.21 193.67 158.081 197.463C159.425 203.311 160.162 207.807 157.561 210.668C154.96 213.529 154.006 214.296 154.145 217.548C154.327 221.792 156.2 221.224 154.578 224.319L145.622 221.397L145.527 218.931L144.621 221.25L139.418 219.377L125.256 215.22Z" fill="#263238"/>
<path d="M155.086 193.882C154.505 195.218 154.982 196.761 155.519 198.113C156.057 199.466 156.711 200.892 156.434 202.323C155.94 204.859 152.788 206.272 152.441 208.826C152.255 210.195 152.94 211.591 152.675 212.953C152.411 214.314 151.319 215.259 150.152 215.918C148.986 216.577 147.699 217.019 146.602 217.791C146.602 217.791 144.192 219.767 140.039 216.512" fill="#263238"/>
<path d="M138.07 190.566C137.531 190.441 136.965 190.523 136.484 190.795C136.002 191.067 135.64 191.509 135.469 192.035L126.864 220.604C125.75 223.946 129.955 227.514 133.54 228.676C137.164 229.851 137.897 228.13 139.046 224.982C140.97 219.728 141.647 217.743 141.647 217.773C141.647 217.803 146.45 218.597 149.45 213.004C150.941 210.217 152.485 205.331 153.599 201.3C154.613 197.667 153.772 192.482 150.1 191.628L138.07 190.566Z" fill="#FFBE9D"/>
<path d="M150.564 204.282C150.498 204.482 150.355 204.647 150.168 204.743C149.981 204.838 149.763 204.857 149.563 204.794C149.463 204.767 149.37 204.722 149.289 204.659C149.207 204.597 149.139 204.519 149.088 204.429C149.037 204.34 149.005 204.242 148.992 204.14C148.98 204.038 148.988 203.934 149.016 203.835C149.084 203.637 149.226 203.472 149.413 203.376C149.6 203.281 149.817 203.262 150.018 203.324C150.117 203.35 150.21 203.396 150.292 203.458C150.373 203.521 150.441 203.599 150.492 203.688C150.543 203.777 150.576 203.876 150.588 203.978C150.6 204.08 150.592 204.183 150.564 204.282Z" fill="#263238"/>
<path d="M151.752 203.263C151.626 203.328 151.197 202.704 150.378 202.422C149.558 202.14 148.817 202.34 148.765 202.21C148.735 202.149 148.895 202.002 149.199 201.902C149.638 201.781 150.104 201.797 150.534 201.95C150.96 202.098 151.329 202.377 151.587 202.747C151.791 203.007 151.817 203.22 151.752 203.263Z" fill="#263238"/>
<path d="M142.449 201.69C142.382 201.888 142.241 202.053 142.055 202.15C141.869 202.246 141.652 202.266 141.452 202.205C141.352 202.179 141.259 202.134 141.178 202.071C141.096 202.009 141.028 201.931 140.977 201.841C140.926 201.752 140.894 201.654 140.882 201.552C140.869 201.45 140.877 201.346 140.906 201.247C140.972 201.049 141.113 200.884 141.3 200.787C141.486 200.691 141.702 200.671 141.903 200.732C142.002 200.758 142.095 200.803 142.177 200.866C142.258 200.928 142.326 201.006 142.377 201.096C142.428 201.185 142.461 201.283 142.473 201.385C142.485 201.487 142.477 201.591 142.449 201.69Z" fill="#263238"/>
<path d="M143.593 200.797C143.463 200.866 143.034 200.237 142.215 199.956C141.395 199.674 140.654 199.873 140.602 199.743C140.572 199.683 140.732 199.54 141.057 199.44C141.496 199.316 141.963 199.333 142.392 199.487C142.819 199.633 143.188 199.911 143.446 200.281C143.628 200.558 143.654 200.771 143.593 200.797Z" fill="#263238"/>
<path d="M144.452 207.897C144.93 207.911 145.405 207.985 145.865 208.119C146.082 208.171 146.298 208.197 146.376 208.067C146.468 207.856 146.493 207.624 146.45 207.399C146.45 206.827 146.411 206.224 146.389 205.596C146.316 203.029 146.342 200.953 146.446 200.948C146.55 200.944 146.693 203.025 146.762 205.587C146.762 206.215 146.784 206.818 146.797 207.395C146.844 207.696 146.781 208.003 146.619 208.262C146.566 208.323 146.499 208.372 146.424 208.404C146.349 208.437 146.267 208.452 146.186 208.448C146.06 208.44 145.936 208.416 145.817 208.374C145.344 208.274 144.885 208.114 144.452 207.897Z" fill="#263238"/>
<path d="M141.651 217.773C138.845 216.847 136.352 215.158 134.45 212.896C134.45 212.896 135.036 217.665 141.161 219.178L141.651 217.773Z" fill="#EB996E"/>
<path d="M143.42 209.766C143.333 209.516 143.184 209.291 142.986 209.115C142.787 208.939 142.547 208.817 142.288 208.76C142.103 208.714 141.909 208.705 141.72 208.735C141.531 208.764 141.35 208.832 141.187 208.934C141.029 209.031 140.906 209.175 140.833 209.346C140.761 209.517 140.744 209.706 140.784 209.887C140.864 210.08 141 210.244 141.173 210.358C141.347 210.472 141.551 210.532 141.76 210.529C142.193 210.528 142.622 210.44 143.021 210.269C143.137 210.236 143.246 210.181 143.342 210.109C143.387 210.073 143.42 210.026 143.439 209.972C143.457 209.918 143.46 209.86 143.446 209.805" fill="#EB996E"/>
<path d="M144.2 198.456C144.075 198.673 143.247 198.4 142.224 198.33C141.2 198.261 140.346 198.378 140.251 198.148C140.212 198.035 140.394 197.845 140.763 197.684C141.247 197.485 141.772 197.407 142.293 197.455C142.816 197.489 143.322 197.648 143.771 197.918C144.109 198.135 144.261 198.352 144.2 198.456Z" fill="#263238"/>
<path d="M152.931 200.532C152.706 200.671 152.064 200.281 151.245 200.038C150.426 199.796 149.68 199.735 149.571 199.492C149.528 199.375 149.693 199.215 150.048 199.124C150.534 199.028 151.036 199.054 151.509 199.2C151.982 199.346 152.411 199.607 152.758 199.96C152.996 200.229 153.035 200.459 152.931 200.532Z" fill="#263238"/>
<path d="M128.048 209.333C129.66 203.931 131.274 198.526 132.89 193.119C133.219 192.009 133.601 190.826 134.524 190.128C135.448 189.43 136.566 189.391 137.659 189.369C142.379 189.271 147.094 189.737 151.704 190.757C151.921 191.853 150.972 192.898 149.905 193.258C148.839 193.618 147.686 193.488 146.567 193.501C145.449 193.514 144.222 193.713 143.463 194.541C142.705 195.369 142.575 196.778 141.812 197.697C140.511 199.275 137.75 198.941 136.445 200.528C135.461 201.729 135.725 203.484 135.4 205.002C135.031 206.736 135.031 206.736 133.666 209.259C132.838 210.811 134.919 213.776 132.847 217.621L128.824 216.477L130.588 210.538L128.195 216.108L128.048 209.333Z" fill="#263238"/>
<path d="M142.024 207.798C142.106 207.845 142.063 208.062 142.059 208.374C142.032 208.761 142.114 209.147 142.293 209.489C142.473 209.832 142.745 210.119 143.077 210.316C143.333 210.49 143.537 210.577 143.511 210.672C143.485 210.767 143.264 210.85 142.878 210.759C142.623 210.691 142.384 210.571 142.178 210.406C141.972 210.241 141.802 210.035 141.68 209.801C141.558 209.567 141.485 209.31 141.468 209.046C141.45 208.783 141.487 208.519 141.577 208.27C141.738 207.897 141.95 207.75 142.024 207.798Z" fill="#263238"/>
<path d="M140.828 194.767C140.759 194.82 140.683 194.862 140.602 194.892C140.383 194.999 140.171 195.118 139.965 195.248C139.023 195.832 138.218 196.613 137.605 197.537C136.993 198.461 136.586 199.506 136.414 200.602C136.311 201.374 136.311 202.157 136.414 202.93C136.543 203.773 136.593 204.626 136.566 205.479C136.538 205.923 136.446 206.361 136.293 206.779C136.131 207.171 135.938 207.549 135.716 207.911C135.27 208.547 134.96 209.269 134.806 210.031C134.722 210.729 134.741 211.436 134.862 212.129C134.953 212.792 135.07 213.429 135.114 213.98C135.235 214.889 135.099 215.815 134.719 216.65C134.602 216.87 134.456 217.072 134.286 217.253C134.16 217.37 134.091 217.426 134.086 217.418C134.303 217.173 134.488 216.902 134.637 216.611C134.971 215.788 135.08 214.89 134.953 214.01C134.897 213.447 134.771 212.835 134.672 212.172C134.539 211.457 134.514 210.727 134.598 210.005C134.767 208.409 136.306 207.239 136.332 205.487C136.359 204.648 136.311 203.808 136.189 202.977C136.081 202.186 136.081 201.384 136.189 200.593C136.402 199.252 136.97 197.992 137.832 196.943C138.406 196.24 139.108 195.652 139.9 195.209C140.112 195.086 140.334 194.98 140.563 194.892C140.644 194.837 140.733 194.794 140.828 194.767Z" fill="#263238"/>
<path d="M160.257 219.143L160.184 219.204C160.132 219.238 160.058 219.299 159.954 219.36C159.647 219.54 159.316 219.674 158.97 219.758C158.418 219.896 157.844 219.916 157.284 219.819C156.533 219.7 155.837 219.353 155.289 218.826C154.629 218.181 154.208 217.329 154.097 216.412C154.025 215.903 154.059 215.385 154.197 214.89C154.349 214.37 154.589 213.88 154.908 213.442C155.633 212.558 156.435 211.739 157.305 210.997C157.741 210.593 158.136 210.147 158.484 209.666C158.829 209.163 159.102 208.615 159.295 208.036C159.65 206.879 159.804 205.669 159.75 204.46C159.707 203.328 159.59 202.199 159.399 201.083C159.089 199.189 158.608 197.327 157.96 195.521C157.524 194.3 157.017 193.106 156.443 191.944C156.239 191.532 156.074 191.216 155.961 191.004C155.896 190.905 155.839 190.8 155.792 190.691C155.867 190.79 155.934 190.894 155.992 191.004C156.117 191.207 156.295 191.519 156.512 191.927C157.121 193.077 157.652 194.266 158.103 195.486C158.778 197.296 159.28 199.165 159.603 201.07C159.802 202.196 159.925 203.334 159.971 204.477C160.03 205.712 159.873 206.947 159.507 208.127C159.311 208.727 159.029 209.294 158.671 209.814C158.311 210.307 157.905 210.764 157.457 211.179C156.595 211.91 155.799 212.715 155.077 213.585C154.769 214.001 154.536 214.468 154.388 214.964C154.255 215.434 154.219 215.927 154.279 216.412C154.382 217.29 154.778 218.109 155.402 218.735C155.924 219.246 156.587 219.589 157.305 219.719C157.849 219.824 158.408 219.815 158.948 219.693C159.41 219.578 159.852 219.392 160.257 219.143Z" fill="#263238"/>
<path d="M123.378 213.264C123.886 213.133 124.36 212.897 124.77 212.571C125.845 211.616 126.507 210.281 126.617 208.847C126.71 207.863 126.736 206.874 126.695 205.886C126.632 204.738 126.721 203.586 126.959 202.461C127.106 201.852 127.341 201.268 127.657 200.727C127.994 200.156 128.464 199.674 129.027 199.323C130.202 198.603 131.628 198.638 132.929 198.191C133.563 197.969 134.132 197.596 134.589 197.103C135.029 196.614 135.42 196.084 135.76 195.521C136.453 194.428 137.121 193.28 138.179 192.599C138.687 192.276 139.259 192.067 139.856 191.988C140.409 191.913 140.968 191.89 141.525 191.918C142.511 191.995 143.502 191.986 144.486 191.892C145.906 191.697 147.258 191.159 148.422 190.323C148.736 190.094 149.037 189.848 149.324 189.586L149.545 189.378L149.628 189.309C149.292 189.719 148.904 190.083 148.474 190.392C147.311 191.267 145.948 191.838 144.508 192.053C143.516 192.156 142.516 192.173 141.521 192.105C140.472 192.105 139.28 192.105 138.291 192.777C137.303 193.449 136.64 194.537 135.946 195.638C135.6 196.216 135.199 196.758 134.749 197.259C134.273 197.776 133.678 198.168 133.015 198.404C131.68 198.863 130.258 198.837 129.161 199.513C128.131 200.213 127.419 201.291 127.18 202.513C126.94 203.619 126.845 204.751 126.899 205.882C126.936 206.879 126.901 207.877 126.794 208.869C126.667 210.334 125.966 211.689 124.844 212.64C124.533 212.885 124.178 213.069 123.799 213.182C123.701 213.211 123.601 213.234 123.5 213.251C123.461 213.264 123.419 213.268 123.378 213.264Z" fill="#455A64"/>
<path d="M127.722 195.309C128.005 195.408 128.295 195.485 128.589 195.538C129.391 195.636 130.203 195.502 130.93 195.153C131.991 194.595 132.94 193.847 133.731 192.946C134.208 192.46 134.706 191.94 135.27 191.45C135.848 190.929 136.509 190.507 137.225 190.202C137.953 189.918 138.728 189.771 139.51 189.768C140.227 189.766 140.943 189.806 141.656 189.885C142.332 189.95 142.956 190.02 143.572 190.024C144.128 190.033 144.684 189.988 145.232 189.89C146.027 189.765 146.774 189.433 147.4 188.927C147.614 188.726 147.818 188.513 148.011 188.29C147.979 188.361 147.94 188.428 147.894 188.489C147.843 188.569 147.787 188.644 147.725 188.715C147.643 188.815 147.553 188.908 147.456 188.992C146.831 189.54 146.068 189.905 145.249 190.046C144.693 190.157 144.126 190.212 143.559 190.21C142.947 190.21 142.301 190.15 141.621 190.093C140.917 190.018 140.209 189.984 139.501 189.989C138.747 189.988 137.999 190.127 137.294 190.397C135.859 190.991 134.828 192.131 133.865 193.08C133.054 193.992 132.075 194.739 130.982 195.283C130.227 195.632 129.385 195.747 128.563 195.612C128.342 195.57 128.127 195.502 127.922 195.408C127.852 195.382 127.785 195.348 127.722 195.309Z" fill="#455A64"/>
<path d="M159.087 207.464C159.194 207.199 159.265 206.92 159.299 206.636C159.339 205.859 159.123 205.09 158.684 204.447C158.181 203.58 157.249 202.852 156.304 201.928C155.795 201.446 155.369 200.884 155.042 200.264C154.726 199.582 154.543 198.846 154.505 198.096C154.405 196.557 154.669 195.118 154.635 193.813C154.685 192.659 154.349 191.521 153.681 190.579C153.215 189.956 152.539 189.524 151.778 189.361C151.491 189.319 151.2 189.312 150.911 189.339C150.981 189.308 151.056 189.287 151.132 189.278C151.346 189.249 151.564 189.249 151.778 189.278C152.577 189.413 153.297 189.843 153.794 190.484C154.466 191.26 154.813 192.491 154.83 193.813C154.847 195.135 154.617 196.583 154.717 198.083C154.752 198.809 154.926 199.521 155.229 200.181C155.54 200.783 155.949 201.33 156.438 201.798C157.357 202.717 158.307 203.489 158.805 204.399C159.249 205.074 159.45 205.88 159.373 206.684C159.345 206.899 159.284 207.108 159.191 207.304C159.163 207.361 159.128 207.415 159.087 207.464Z" fill="#455A64"/>
<path d="M120.721 210.061C120.626 210.016 120.533 209.965 120.444 209.909C120.192 209.739 119.966 209.535 119.772 209.302C119.414 208.865 119.154 208.357 119.01 207.811C118.867 207.264 118.842 206.694 118.939 206.137C119.009 205.767 119.133 205.409 119.308 205.075C119.515 204.725 119.772 204.407 120.071 204.13C120.756 203.567 121.514 203.101 122.325 202.743C123.207 202.366 124.021 201.848 124.735 201.208C125.426 200.449 125.898 199.518 126.101 198.512C126.361 197.484 126.535 196.444 126.877 195.477C127.198 194.553 127.621 193.668 128.139 192.837C129.007 191.428 130.124 190.187 131.433 189.174C132.313 188.491 133.278 187.926 134.303 187.492C134.579 187.371 134.861 187.265 135.148 187.176C135.246 187.135 135.348 187.106 135.452 187.089C135.452 187.115 135.044 187.245 134.338 187.574C133.334 188.034 132.392 188.616 131.533 189.308C130.254 190.324 129.165 191.559 128.316 192.954C127.812 193.773 127.401 194.645 127.089 195.555C126.76 196.5 126.587 197.528 126.318 198.59C126.106 199.635 125.613 200.602 124.892 201.386C124.159 202.04 123.325 202.569 122.42 202.951C121.623 203.296 120.875 203.747 120.197 204.291C119.91 204.553 119.662 204.853 119.46 205.184C119.289 205.499 119.166 205.838 119.095 206.189C118.988 206.8 119.022 207.428 119.195 208.023C119.328 208.475 119.546 208.897 119.837 209.267C120.096 209.569 120.394 209.835 120.721 210.061Z" fill="#263238"/>
<path d="M160.309 207.868C160.288 207.868 160.491 207.659 160.769 207.248C161.151 206.665 161.413 206.012 161.541 205.327C161.722 204.311 161.685 203.267 161.432 202.267C161.095 201.045 160.572 199.882 159.88 198.82C159.165 197.671 158.393 196.631 157.743 195.647C157.154 194.78 156.642 193.863 156.213 192.907C155.924 192.259 155.713 191.58 155.584 190.882C155.55 190.693 155.527 190.502 155.515 190.31C155.505 190.244 155.505 190.177 155.515 190.111C155.515 190.111 155.567 190.384 155.675 190.865C155.833 191.552 156.061 192.22 156.356 192.859C156.804 193.795 157.326 194.694 157.916 195.547C158.571 196.522 159.351 197.559 160.084 198.72C160.788 199.802 161.316 200.989 161.649 202.236C161.897 203.267 161.918 204.34 161.71 205.379C161.562 206.079 161.266 206.74 160.843 207.317C160.728 207.472 160.6 207.617 160.461 207.75C160.416 207.796 160.365 207.835 160.309 207.868Z" fill="#263238"/>
<path d="M115.281 268.29L111.721 274.485C111.721 274.485 94.0298 268.013 83.6732 269.899C79.7325 270.614 75.5188 279.549 81.2585 285.288C86.8552 290.885 96.865 298.801 115.649 301.363C116.117 301.424 123.812 303.075 123.335 303.019C122.858 302.963 134.121 304.753 134.121 304.753L136.765 294.756L157.743 298.047C170.107 297.205 176.159 283.983 168.711 279.726C161.775 275.76 148.709 275.439 148.709 275.439L143.975 268.017L115.281 268.29Z" fill="#263238"/>
<path d="M134.55 305.139C134.602 304.801 134.754 303.891 135.057 302.022C135.226 301.025 135.43 299.811 135.695 298.415C135.829 297.713 135.976 296.972 136.154 296.187C136.245 295.792 136.341 295.394 136.458 294.982C136.514 294.778 136.575 294.574 136.648 294.366C136.715 294.142 136.824 293.933 136.969 293.751L136.999 293.902C132.534 292.316 126.951 290.222 121.003 287.712C117.344 286.155 113.893 284.586 110.854 282.943C109.405 282.188 108.014 281.326 106.693 280.364C105.461 279.453 104.36 278.543 103.329 277.763C101.291 276.15 99.4269 275.11 98.0527 274.667C97.75 274.56 97.4418 274.469 97.1293 274.394C96.9029 274.331 96.6727 274.281 96.44 274.247L96.0065 274.169L95.8591 274.134C95.9095 274.128 95.9605 274.128 96.0109 274.134L96.4444 274.191C96.6811 274.216 96.9158 274.258 97.1467 274.316C97.4637 274.382 97.7764 274.468 98.0831 274.572C98.9279 274.846 99.7416 275.208 100.511 275.652C101.528 276.24 102.503 276.899 103.428 277.624C104.469 278.409 105.57 279.31 106.805 280.225C108.123 281.176 109.51 282.028 110.954 282.774C113.989 284.395 117.435 285.96 121.09 287.512C127.033 290.018 132.608 292.129 137.06 293.738L137.186 293.785L137.09 293.889C136.969 294.054 136.876 294.239 136.817 294.436C136.744 294.635 136.683 294.839 136.622 295.038C136.505 295.441 136.406 295.845 136.315 296.23C136.132 297.011 135.976 297.752 135.838 298.45C135.56 299.846 135.343 301.051 135.161 302.048C134.979 303.045 134.832 303.804 134.728 304.346C134.676 304.61 134.637 304.814 134.602 304.948C134.589 305.013 134.572 305.077 134.55 305.139Z" fill="#455A64"/>
<path d="M164.645 280.94H164.528L164.203 280.888C163.916 280.849 163.5 280.745 162.95 280.689C161.408 280.486 159.85 280.43 158.298 280.524C155.995 280.672 153.712 281.05 151.483 281.651C150.226 281.985 148.917 282.384 147.582 282.848C146.246 283.311 144.877 283.845 143.476 284.404C142.11 284.946 140.713 285.408 139.293 285.787C137.919 286.164 136.579 286.459 135.296 286.706C132.73 287.209 130.393 287.516 128.433 287.755C126.474 287.993 124.883 288.154 123.786 288.266L122.52 288.392L122.191 288.418C122.153 288.424 122.115 288.424 122.078 288.418H122.187L122.516 288.37L123.773 288.201L128.412 287.621C130.371 287.36 132.699 287.035 135.253 286.524C136.531 286.272 137.854 285.973 139.232 285.592C140.644 285.212 142.034 284.753 143.394 284.217C144.79 283.658 146.164 283.121 147.512 282.661C148.861 282.202 150.17 281.794 151.436 281.469C153.679 280.875 155.977 280.513 158.294 280.39C159.855 280.308 161.421 280.387 162.967 280.624C163.518 280.693 163.929 280.814 164.216 280.866L164.541 280.94C164.575 280.935 164.61 280.935 164.645 280.94Z" fill="#455A64"/>
<path d="M132.322 277.342C132.322 277.489 131.386 277.728 129.812 277.875C125.703 278.211 121.567 277.77 117.622 276.575C116.117 276.098 115.237 275.66 115.281 275.517C115.38 275.205 119.095 276.193 123.777 276.679C128.459 277.164 132.292 277.012 132.322 277.342Z" fill="#263238"/>
<path d="M148.908 275.586C148.682 275.666 148.45 275.728 148.214 275.773C147.941 275.828 147.67 275.898 147.404 275.981C147.092 276.072 146.732 276.167 146.346 276.306C145.434 276.611 144.54 276.966 143.667 277.368C142.687 277.836 141.629 278.391 140.55 279.033C138.722 280.148 136.968 281.382 135.3 282.726C134.659 283.238 134.143 283.663 133.792 283.958C133.615 284.118 133.425 284.263 133.224 284.391C133.38 284.21 133.549 284.04 133.731 283.884C134.069 283.567 134.568 283.125 135.2 282.583C136.846 281.194 138.597 279.935 140.437 278.816C141.455 278.209 142.504 277.656 143.58 277.16C144.464 276.76 145.371 276.417 146.298 276.133C146.689 276.003 147.053 275.916 147.373 275.838C147.644 275.764 147.919 275.706 148.197 275.664C148.431 275.618 148.669 275.592 148.908 275.586Z" fill="#455A64"/>
<path d="M129.24 284.4C128.811 284.335 128.393 284.216 127.996 284.044C127.025 283.673 126.077 283.246 125.156 282.765L122.412 281.322C122.022 281.142 121.644 280.936 121.281 280.706C121.697 280.822 122.101 280.98 122.486 281.179C123.21 281.508 124.189 282.011 125.269 282.561C126.348 283.112 127.332 283.589 128.065 283.897C128.798 284.204 129.248 284.365 129.24 284.4Z" fill="#455A64"/>
<path d="M131.151 269.036C131.186 269.036 131.125 269.686 131.06 270.731C130.995 271.776 130.935 273.22 130.965 274.815C130.995 276.41 131.112 277.849 131.216 278.899C131.298 279.459 131.352 280.023 131.377 280.589C131.32 280.451 131.282 280.305 131.264 280.156C131.203 279.87 131.134 279.449 131.06 278.929C130.872 277.571 130.765 276.203 130.74 274.832C130.714 273.463 130.768 272.094 130.9 270.731C130.956 270.207 131.008 269.786 131.056 269.496C131.069 269.339 131.101 269.185 131.151 269.036Z" fill="#455A64"/>
<path d="M133.124 269.678C133.124 269.678 133.046 269.747 132.938 269.877C132.786 270.058 132.69 270.28 132.66 270.514C132.636 270.683 132.647 270.855 132.695 271.018C132.742 271.182 132.823 271.334 132.933 271.464C133.085 271.598 133.27 271.689 133.469 271.727C133.669 271.764 133.874 271.747 134.064 271.677C134.254 271.606 134.422 271.486 134.549 271.327C134.675 271.169 134.757 270.98 134.784 270.779C134.78 270.607 134.739 270.438 134.664 270.283C134.59 270.129 134.483 269.992 134.351 269.881C134.176 269.722 133.96 269.617 133.727 269.578C133.558 269.552 133.462 269.578 133.458 269.548C133.453 269.517 133.549 269.491 133.735 269.491C133.998 269.499 134.251 269.593 134.455 269.76C134.613 269.88 134.742 270.034 134.832 270.212C134.921 270.389 134.969 270.584 134.971 270.783C134.951 271.03 134.861 271.266 134.711 271.463C134.561 271.661 134.359 271.811 134.126 271.897C133.894 271.983 133.642 272.001 133.4 271.949C133.158 271.897 132.936 271.777 132.76 271.602C132.634 271.449 132.544 271.269 132.497 271.076C132.449 270.884 132.446 270.683 132.487 270.488C132.533 270.228 132.664 269.99 132.86 269.812C133.016 269.695 133.12 269.669 133.124 269.678Z" fill="#455A64"/>
<path d="M138.508 262.537C138.412 262.694 138.299 262.839 138.17 262.971C137.845 263.358 137.497 263.725 137.13 264.072C136.585 264.59 136.006 265.069 135.396 265.507C134.644 266.04 133.854 266.516 133.033 266.933C132.207 267.339 131.352 267.683 130.475 267.961C129.757 268.184 129.024 268.358 128.282 268.481C127.784 268.568 127.282 268.624 126.777 268.65C126.593 268.668 126.407 268.668 126.222 268.65C126.222 268.607 127.007 268.563 128.256 268.32C128.988 268.175 129.712 267.987 130.423 267.757C132.862 266.96 135.109 265.665 137.021 263.955C137.966 263.114 138.473 262.511 138.508 262.537Z" fill="#263238"/>
<path d="M146.42 267.349C146.42 267.414 145.639 267.414 144.72 267.648C143.801 267.883 143.108 268.229 143.073 268.173C144.035 267.466 145.239 267.169 146.42 267.349Z" fill="#263238"/>
<g opacity="0.3">
<path d="M128.225 268.433C131.994 267.743 135.408 265.77 137.888 262.85C138.114 263.536 138.145 264.271 137.977 264.974C137.809 265.676 137.45 266.319 136.939 266.829C138.04 267.349 139.332 267.003 140.537 266.829C141.742 266.656 143.216 266.829 143.793 267.9C138.401 268.399 132.982 268.554 127.571 268.364" fill="black"/>
</g>
<path d="M117.461 259.937C116.918 259.422 116.284 259.012 115.593 258.727C114.837 258.434 114.031 258.297 113.221 258.324C112.232 258.36 111.264 258.621 110.391 259.087C108.5 260.067 107.356 261.74 106.524 262.811C106.201 263.261 105.911 263.733 105.657 264.224C105.572 264.409 105.472 264.586 105.357 264.753C105.412 264.557 105.486 264.367 105.579 264.185C105.801 263.674 106.068 263.184 106.376 262.72C106.779 262.139 107.3 261.489 107.898 260.778C108.569 260.008 109.374 259.366 110.273 258.883C111.179 258.402 112.184 258.139 113.208 258.116C114.044 258.099 114.874 258.257 115.645 258.58C116.163 258.792 116.639 259.096 117.049 259.477C117.163 259.577 117.268 259.687 117.361 259.807C117.435 259.889 117.47 259.932 117.461 259.937Z" fill="#263238"/>
<path d="M128.811 218.354L122.759 219.642L125.785 230.969L136.501 233.271L143.854 228.056L144.864 221.809L138.56 219.425L128.811 218.354Z" fill="#FFBE9D"/>
<path d="M124.549 219.178C124.549 219.178 128.646 231.073 136.215 229.972C143.784 228.871 143.151 221.163 143.151 221.163C143.151 221.163 151.05 223.574 153.49 226.136C155.931 228.698 154.492 234.268 154.492 234.268L152.446 244.334L147.989 263.617C147.989 263.617 149.693 268.88 145.336 270.18L143.962 268.013L117.834 268.75C117.834 268.75 112.246 275.192 110.503 272.972C108.761 270.753 107.087 266.418 107.087 266.418L119.091 220.604L124.549 219.178Z" fill="#455A64"/>
<path d="M151.427 224.614C151.639 224.735 169.977 238.053 169.977 238.053C169.977 238.053 168.538 249.012 177.347 247.269C177.347 247.269 173.792 256.434 168.98 254.509C167.61 253.963 150.707 243.268 150.707 243.268L147.122 235.634L151.427 224.614Z" fill="#455A64"/>
<path d="M124.549 219.763C124.549 219.763 124.116 219.763 123.435 219.841C119.846 220.188 106.597 222.932 105.371 232.283C104.729 237.173 104.547 251.474 103.853 257.47C103.853 257.47 104.959 265.802 105.371 267.345C106.103 270.094 119.377 265.689 119.377 265.689L119.403 239.245L124.146 219.776" fill="#455A64"/>
<path d="M116.165 243.788C116.177 243.858 116.177 243.93 116.165 244.001C116.168 244.206 116.183 244.412 116.208 244.616C116.302 245.359 116.49 246.088 116.767 246.784C117.106 247.677 117.634 248.691 118.137 249.853C118.414 250.463 118.645 251.091 118.831 251.734C119.017 252.428 119.137 253.138 119.191 253.854C119.268 255.233 119.232 256.617 119.082 257.99C118.974 259.256 118.87 260.396 118.714 261.345C118.596 262.096 118.42 262.837 118.189 263.561C118.103 263.816 118.029 263.994 117.973 264.141C117.951 264.211 117.918 264.277 117.877 264.337C117.877 264.337 117.96 264.05 118.107 263.535C118.301 262.807 118.446 262.067 118.541 261.319C118.679 260.374 118.766 259.238 118.866 257.977C118.998 256.613 119.027 255.24 118.952 253.872C118.901 253.169 118.785 252.472 118.606 251.791C118.425 251.157 118.2 250.537 117.934 249.935C117.431 248.778 116.928 247.746 116.603 246.84C116.333 246.124 116.167 245.374 116.109 244.612C116.091 244.405 116.091 244.198 116.109 243.992C116.121 243.922 116.14 243.854 116.165 243.788Z" fill="#263238"/>
<path d="M116.776 240.45C116.815 240.45 116.846 241.122 116.997 242.184C117.194 243.582 117.518 244.959 117.964 246.298C118.098 246.693 118.237 247.07 118.398 247.434C118.429 247.518 118.465 247.601 118.506 247.681L118.662 247.92C118.763 248.078 118.855 248.242 118.94 248.409C119.25 248.986 119.418 249.628 119.429 250.282C119.432 250.728 119.345 251.171 119.174 251.583C119.114 251.737 119.034 251.883 118.935 252.016C119.154 251.479 119.268 250.905 119.269 250.326C119.237 249.7 119.062 249.091 118.757 248.544C118.675 248.388 118.58 248.232 118.48 248.076L118.324 247.837C118.271 247.748 118.228 247.653 118.194 247.555C118.042 247.191 117.903 246.805 117.76 246.411C117.305 245.058 117 243.66 116.85 242.241C116.789 241.699 116.772 241.252 116.768 240.94C116.751 240.777 116.754 240.613 116.776 240.45Z" fill="#263238"/>
<path d="M117.305 236.479C117.27 236.479 117.071 235.937 116.681 235.083C116.17 233.968 115.556 232.902 114.847 231.901C114.132 230.906 113.327 229.979 112.441 229.131C111.76 228.481 111.301 228.112 111.327 228.082C111.452 228.141 111.569 228.217 111.674 228.307C111.975 228.528 112.264 228.764 112.541 229.014C114.404 230.665 115.867 232.718 116.82 235.018C116.997 235.452 117.127 235.82 117.201 236.076C117.252 236.206 117.287 236.341 117.305 236.479Z" fill="#263238"/>
<path d="M154.878 228.71C154.886 229.062 154.857 229.414 154.791 229.76C154.713 230.405 154.6 231.294 154.5 232.278C154.401 233.262 154.318 234.155 154.262 234.806C154.255 235.157 154.212 235.508 154.132 235.85C154.082 235.501 154.072 235.148 154.102 234.797C154.102 234.142 154.171 233.245 154.275 232.257C154.379 231.268 154.513 230.375 154.63 229.738C154.674 229.387 154.757 229.043 154.878 228.71Z" fill="#263238"/>
<path d="M158.649 239.843C158.649 239.882 158.077 239.939 157.188 240.19C156.031 240.511 154.978 241.128 154.132 241.981C153.683 242.462 153.291 242.995 152.966 243.567C152.711 244.043 152.488 244.536 152.298 245.041L152.086 245.631C152.034 245.791 151.99 245.943 151.947 246.064C151.916 246.197 151.868 246.325 151.804 246.446C151.801 246.309 151.822 246.173 151.865 246.043L151.964 245.579L152.146 244.972C152.319 244.449 152.532 243.94 152.784 243.45C153.111 242.868 153.51 242.329 153.971 241.846C154.84 240.963 155.94 240.344 157.145 240.06C157.35 240.004 157.558 239.962 157.769 239.934C157.925 239.905 158.083 239.884 158.242 239.874C158.375 239.842 158.513 239.832 158.649 239.843Z" fill="#263238"/>
<path d="M170.792 251.908C170.678 251.757 170.58 251.594 170.501 251.422C170.41 251.266 170.306 251.067 170.198 250.828C170.09 250.59 169.959 250.33 169.847 250.022C169.561 249.31 169.328 248.579 169.149 247.833C168.931 246.917 168.786 245.984 168.715 245.045C168.656 244.108 168.672 243.167 168.763 242.232C168.842 241.469 168.975 240.713 169.162 239.969C169.231 239.648 169.331 239.366 169.405 239.102C169.464 238.888 169.536 238.678 169.621 238.473C169.678 238.293 169.754 238.118 169.847 237.953C169.89 237.953 169.6 238.72 169.318 239.986C169.156 240.727 169.04 241.477 168.971 242.232C168.894 243.158 168.882 244.088 168.936 245.015C169.006 245.941 169.142 246.861 169.344 247.768C169.513 248.503 169.727 249.227 169.985 249.935C170.445 251.18 170.831 251.891 170.792 251.908Z" fill="#263238"/>
<path d="M166.027 248.652C165.949 248.506 165.891 248.35 165.854 248.188C165.733 247.762 165.643 247.327 165.585 246.888C165.399 245.408 165.538 243.905 165.993 242.483C166.435 241.056 167.192 239.747 168.208 238.651C168.513 238.298 168.937 238.07 169.4 238.01C169.527 238.006 169.653 238.031 169.769 238.083C169.842 238.122 169.881 238.148 169.877 238.157C169.725 238.108 169.564 238.087 169.404 238.096C168.98 238.19 168.6 238.423 168.325 238.76C167.365 239.862 166.644 241.153 166.21 242.548C165.767 243.948 165.608 245.422 165.741 246.884C165.854 247.967 166.066 248.639 166.027 248.652Z" fill="#263238"/>
<path d="M136.215 246.493C136.201 246.669 136.165 246.843 136.107 247.009C136.061 247.209 136.003 247.406 135.933 247.599C135.849 247.858 135.752 248.113 135.643 248.362C135.369 249.017 135.038 249.646 134.654 250.243C133.71 251.714 132.475 252.977 131.026 253.954C130.437 254.353 129.815 254.7 129.166 254.99C128.919 255.106 128.666 255.207 128.407 255.294C128.218 255.372 128.022 255.436 127.822 255.484C127.656 255.542 127.485 255.583 127.311 255.606C127.311 255.562 128.022 255.367 129.097 254.847C129.727 254.54 130.333 254.185 130.909 253.785C131.607 253.288 132.262 252.734 132.868 252.129C133.46 251.51 133.998 250.841 134.477 250.13C134.864 249.547 135.204 248.934 135.495 248.297C135.994 247.209 136.172 246.48 136.215 246.493Z" fill="#263238"/>
<g opacity="0.3">
<path d="M121.202 250.785L118.705 241.681C118.584 241.248 118.38 240.715 117.925 240.632C117.711 240.625 117.502 240.697 117.338 240.835C117.173 240.972 117.066 241.166 117.036 241.378C116.976 241.82 116.976 242.267 117.036 242.709C117.231 244.69 117.387 246.034 118.311 247.569C120.11 250.56 118.926 252.012 118.926 252.012C119.069 255.654 118.762 260.622 117.626 264.363L118.697 268.876C119.711 265.52 122.03 262.724 122.42 259.239C122.72 256.382 121.978 253.551 121.202 250.785Z" fill="black"/>
</g>
<g opacity="0.3">
<path d="M152.454 244.395C155.424 245.938 158.064 248.071 160.955 249.723C159.824 247.36 157.921 245.024 155.632 243.771C155.034 243.385 154.33 243.198 153.62 243.237C152.918 243.337 152.415 243.732 152.523 244.43" fill="black"/>
</g>
<g opacity="0.3">
<path d="M169.47 237.862C168.455 237.836 167.692 238.759 167.194 239.644C165.792 242.16 165.218 245.054 165.555 247.915C165.616 248.427 165.806 249.042 166.314 249.142C166.501 249.163 166.69 249.122 166.851 249.025C167.013 248.929 167.14 248.783 167.211 248.609C167.35 248.261 167.408 247.886 167.38 247.512C167.38 245.778 167.259 244.022 167.51 242.31C167.761 240.597 168.407 238.863 169.678 237.688" fill="black"/>
</g>
<path d="M123.617 241.118H123.721L124.02 241.096L125.195 241.035L129.634 240.832L145.358 240.164H145.462V240.264C145.592 245.553 145.743 251.639 145.895 258.081V258.727V258.84H145.821C139.344 258.915 132.877 259.398 126.461 260.288H126.378L126.357 260.205C125.113 255.649 124.339 250.977 124.046 246.264C123.942 244.556 123.925 243.229 123.925 242.301C123.925 241.868 123.925 241.495 123.925 241.257V240.992C123.925 240.931 123.925 240.901 123.925 240.901C123.929 240.931 123.929 240.962 123.925 240.992V241.261C123.925 241.504 123.925 241.855 123.925 242.301C123.925 243.216 123.981 244.556 124.098 246.255C124.431 250.957 125.229 255.614 126.482 260.158L126.374 260.084C132.818 259.169 139.314 258.672 145.821 258.597L145.709 258.714V258.068C145.557 251.626 145.418 245.54 145.275 240.251L145.379 240.35L129.651 240.936L125.208 241.083L124.033 241.118H123.63H123.617Z" fill="white"/>
<path d="M129.348 254.258C129.287 254.258 128.745 251.34 128.139 247.716C127.532 244.092 127.089 241.148 127.15 241.135C127.211 241.122 127.753 244.053 128.36 247.681C128.967 251.31 129.391 254.249 129.348 254.258Z" fill="white"/>
<path d="M129.981 259.85C129.748 259.079 129.587 258.288 129.5 257.487C129.34 256.696 129.253 255.892 129.24 255.085C129.473 255.858 129.634 256.65 129.721 257.452C129.886 258.241 129.973 259.044 129.981 259.85Z" fill="white"/>
<path d="M133.718 251.357C133.656 251.23 133.615 251.094 133.597 250.954C133.532 250.694 133.449 250.308 133.358 249.836C133.176 248.886 132.972 247.568 132.825 246.103C132.677 244.638 132.621 243.303 132.608 242.34C132.608 241.855 132.608 241.473 132.608 241.196C132.604 241.05 132.617 240.905 132.647 240.762C132.717 241.278 132.753 241.798 132.756 242.319C132.808 243.281 132.89 244.607 133.037 246.068C133.185 247.529 133.362 248.843 133.501 249.797C133.604 250.312 133.677 250.833 133.718 251.357Z" fill="white"/>
<path d="M133.223 259.269C132.987 258.261 132.823 257.236 132.734 256.204C132.566 255.182 132.476 254.149 132.465 253.113C132.701 254.122 132.865 255.146 132.955 256.178C133.122 257.2 133.212 258.234 133.223 259.269Z" fill="white"/>
<path d="M138.122 258.918C138.077 258.682 138.048 258.443 138.036 258.203L137.867 256.252C137.723 254.609 137.511 252.35 137.225 249.831C136.939 247.313 136.627 245.063 136.393 243.428C136.28 242.639 136.185 241.985 136.115 241.491C136.071 241.255 136.045 241.015 136.037 240.775C136.113 241.004 136.168 241.239 136.202 241.478C136.293 241.911 136.41 242.587 136.549 243.402C136.826 245.037 137.16 247.304 137.45 249.805C137.741 252.307 137.923 254.574 138.027 256.243C138.075 257.067 138.109 257.734 138.122 258.198C138.145 258.438 138.145 258.679 138.122 258.918Z" fill="white"/>
<path d="M142.293 259.152C142.261 258.911 142.25 258.667 142.258 258.424C142.258 257.917 142.258 257.245 142.258 256.438C142.258 254.765 142.197 252.45 142.08 249.901C141.963 247.352 141.781 245.041 141.647 243.372C141.577 242.57 141.521 241.903 141.478 241.4C141.447 241.158 141.434 240.915 141.439 240.671C141.502 240.905 141.544 241.145 141.564 241.387C141.634 241.851 141.716 242.527 141.807 243.359C141.989 245.024 142.189 247.334 142.314 249.888C142.44 252.441 142.453 254.761 142.427 256.438C142.427 257.275 142.397 257.956 142.375 258.424C142.365 258.668 142.338 258.912 142.293 259.152Z" fill="white"/>
<g opacity="0.3">
<path d="M127.653 255.636C128.332 256.069 129.136 256.264 129.938 256.191C130.734 256.119 131.514 255.915 132.244 255.589C133.239 255.218 134.136 254.625 134.867 253.855C135.577 252.972 136.027 251.909 136.167 250.785C136.311 249.663 136.349 248.529 136.28 247.4C136.284 247.351 136.272 247.302 136.245 247.261C136.229 247.245 136.211 247.232 136.19 247.223C136.169 247.214 136.146 247.209 136.124 247.209C136.101 247.209 136.079 247.214 136.058 247.223C136.037 247.232 136.018 247.245 136.002 247.261C135.938 247.328 135.892 247.41 135.868 247.499C135.204 249.388 134.099 251.091 132.645 252.466C131.19 253.841 129.428 254.85 127.506 255.407" fill="black"/>
</g>
<path d="M124.97 291.947L122.321 286.979L116.364 259.1C116.364 259.1 110.885 255.953 106.394 262.85C106.216 263.127 112.567 283.095 114.34 288.648L114.587 293.963C114.587 293.963 114.275 300.253 114.587 300.804C114.866 301.19 115.247 301.49 115.688 301.671C115.688 301.671 115.454 303.244 117.262 303.405C117.262 303.405 117.418 305.139 118.753 304.9C119.116 304.856 119.465 304.735 119.778 304.545C120.09 304.356 120.359 304.101 120.565 303.799C120.565 303.799 120.565 305.997 121.744 305.763C122.923 305.529 123.114 304.584 123.331 304.272C123.548 303.96 123.799 300.73 123.799 300.73L123.777 295.407L126.847 297.895C127.714 298.328 129.036 298.883 129.773 298.22L124.97 291.947Z" fill="#FFBE9D"/>
<path d="M123.782 295.133C123.984 296.076 124.042 297.043 123.955 298.003C123.92 298.74 123.89 299.412 123.86 300.028C123.869 300.309 123.843 300.59 123.782 300.864C123.661 299.912 123.643 298.95 123.73 297.994C123.808 296.416 123.712 295.142 123.782 295.133Z" fill="#EB996E"/>
<path d="M120.4 298.844C120.574 300.595 120.597 302.357 120.47 304.111C120.296 302.361 120.273 300.599 120.4 298.844Z" fill="#EB996E"/>
<path d="M117.565 299.811C117.765 301.035 117.644 302.289 117.214 303.453C117.153 303.453 117.309 302.633 117.401 301.632C117.422 301.022 117.477 300.414 117.565 299.811Z" fill="#EB996E"/>
<path d="M115.74 299.195C115.813 299.993 115.734 300.798 115.506 301.567C115.43 301.171 115.43 300.765 115.506 300.37C115.512 299.968 115.591 299.569 115.74 299.195Z" fill="#EB996E"/>
<path d="M175.006 195.972L175.829 197.476L177.334 198.3L175.829 199.124L175.006 200.628L174.182 199.124L172.678 198.3L174.182 197.476L175.006 195.972Z" fill="#DE7A4A"/>
<path d="M180.503 175.372L181.357 175.315L182.046 174.804L182.102 175.662L182.614 176.351L181.756 176.408L181.066 176.915L181.01 176.061L180.503 175.372Z" fill="#DE7A4A"/>
<path d="M319.166 243.78L320.02 243.723L320.709 243.212L320.765 244.07L321.277 244.76L320.419 244.816L319.729 245.323L319.673 244.469L319.166 243.78Z" fill="#DE7A4A"/>
<path d="M221.491 200.979L222.345 200.923L223.039 200.416L223.095 201.27L223.602 201.959L222.748 202.015L222.055 202.522L222.003 201.668L221.491 200.979Z" fill="#DE7A4A"/>
<path d="M226.702 164.347L227.556 164.291L228.245 163.784L228.302 164.638L228.809 165.327L227.955 165.383L227.265 165.895L227.209 165.037L226.702 164.347Z" fill="#DE7A4A"/>
<path d="M200.453 187.081L201.753 186.331L202.442 185L203.192 186.301L204.528 186.994L203.227 187.74L202.534 189.075L201.784 187.774L200.453 187.081Z" fill="#DE7A4A"/>
<path d="M309.72 260.999L311.02 260.249L311.71 258.918L312.46 260.219L313.79 260.908L312.49 261.658L311.801 262.989L311.051 261.688L309.72 260.999Z" fill="#DE7A4A"/>
<path d="M303.187 237.221L304.487 236.471L305.181 235.14L305.931 236.44L307.262 237.129L305.961 237.879L305.267 239.215L304.522 237.91L303.187 237.221Z" fill="#DE7A4A"/>
</svg>
