<svg xmlns="http://www.w3.org/2000/svg" width="350" height="308" fill="none"><path stroke="#F7DFD4" stroke-width=".75" d="M333.62 104.151v.007c2.61 38.176-.868 63.923-9.079 81.168-8.198 17.216-21.129 25.992-37.541 30.196-16.439 4.211-36.358 3.832-58.502 2.717-3.553-.179-7.163-.377-10.825-.578-19.082-1.046-39.557-2.168-60.632-1.087-28.212-31.003-53.858-48.829-76.514-59.006-22.69-10.193-42.361-12.705-58.575-13.115-6.409-.162-12.28.004-17.577.154-1.399.04-2.758.079-4.076.11-6.32.149-11.681.124-16.07-.755-4.375-.877-7.746-2.597-10.12-5.817-2.377-3.222-3.793-7.995-4.15-15.06C-19.666 91.298-.6 64.491 28.406 44.973c29.03-19.534 68.042-31.782 118.307-34.39 72.741-3.773 118.77 5.438 146.955 22.666 28.153 17.209 38.55 42.448 39.953 70.902Z"/><path fill="#F7DFD4" fill-opacity=".3" d="M-7.262 167.705c-2.063-66.967 174.207-109.289 255.444-112.83 97.666-4.258 96.172 30.445 98.235 97.411 2.063 66.966-93.69 82.357-178.759 106.405-85.262-94.895-172.857-24.02-174.92-90.986Z"/><path fill="#EBEBEB" d="M330 280.44H30v.15h300v-.15ZM299.94 290.094h-19.872v.15h19.872v-.15ZM228.732 291.726h-5.214v.15h5.214v-.15ZM279.468 284.526h-11.514v.15h11.514v-.15ZM87.39 285.534H61.476v.15H87.39v-.15ZM96.534 285.534h-3.798v.15h3.798v-.15ZM165.09 288.066h-56.208v.15h56.208v-.15ZM172.2 253.68H56.346a3.425 3.425 0 0 1-3.42-3.426V87.396A3.426 3.426 0 0 1 56.346 84H172.2a3.427 3.427 0 0 1 3.426 3.426v162.828c0 .909-.361 1.78-1.003 2.423a3.429 3.429 0 0 1-2.423 1.003ZM56.346 84.12a3.276 3.276 0 0 0-3.27 3.276v162.858a3.275 3.275 0 0 0 3.27 3.276H172.2a3.285 3.285 0 0 0 3.276-3.276V87.396a3.283 3.283 0 0 0-3.276-3.276H56.346ZM301.986 253.68h-115.86a3.435 3.435 0 0 1-3.426-3.426V87.396A3.43 3.43 0 0 1 186.126 84h115.86a3.426 3.426 0 0 1 3.414 3.396v162.858a3.424 3.424 0 0 1-3.414 3.426ZM186.126 84.12a3.283 3.283 0 0 0-3.276 3.276v162.858a3.285 3.285 0 0 0 3.276 3.276h115.86a3.285 3.285 0 0 0 3.276-3.276V87.396a3.283 3.283 0 0 0-3.276-3.276h-115.86Z"/><path fill="#F0F0F0" d="M177.372 147.6a36.308 36.308 0 0 0-5.226-12.57l4.5-5.436-9.6-9.6-5.436 4.494a36.397 36.397 0 0 0-12.57-5.22l-.66-7.008h-13.626l-.66 7.008a36.321 36.321 0 0 0-12.564 5.22L116.094 120l-9.6 9.6 4.5 5.436a36.408 36.408 0 0 0-5.25 12.564l-7.002.66v13.608l7.002.66A36.385 36.385 0 0 0 111 175.11l-4.5 5.436 9.6 9.6 5.436-4.5a36.356 36.356 0 0 0 12.564 5.226l.66 7.002h13.608l.66-7.002a36.44 36.44 0 0 0 12.57-5.226l5.436 4.5 9.6-9.6-4.5-5.436a36.279 36.279 0 0 0 5.226-12.564l7.008-.66v-13.608l-6.996-.678Zm-17.4 7.464a18.418 18.418 0 0 1-22.014 18.066 18.421 18.421 0 0 1-6.64-33.382 18.421 18.421 0 0 1 10.234-3.104 18.407 18.407 0 0 1 13.035 5.399 18.434 18.434 0 0 1 5.391 13.039l-.006-.018ZM216.396 212.916l.474 5.034h9.78l.474-5.028a26.211 26.211 0 0 0 9-3.756l3.936 3.234 6.912-6.912-3.234-3.888a26.195 26.195 0 0 0 3.756-9.03l5.028-.474v-9.78l-5.028-.474a26.203 26.203 0 0 0-3.756-9l3.234-3.906L240.06 162l-3.906 3.234a26.211 26.211 0 0 0-9-3.756l-.474-5.034h-9.78l-.474 5.034a26.195 26.195 0 0 0-9.03 3.756L203.46 162l-6.912 6.912 3.252 3.888a26.203 26.203 0 0 0-3.756 9l-5.034.474v9.78l5.034.474a26.219 26.219 0 0 0 3.756 9.072l-3.234 3.906 6.894 6.894 3.906-3.234a26.098 26.098 0 0 0 9.03 3.75Zm5.364-12.516a13.235 13.235 0 0 1-9.346-22.608 13.224 13.224 0 0 1 6.786-3.614 13.23 13.23 0 0 1 15.796 13.022 13.24 13.24 0 0 1-3.889 9.336 13.24 13.24 0 0 1-9.347 3.864ZM164.484 281.4h11.64l.564-6a31.209 31.209 0 0 0 10.752-4.47l4.65 3.846 8.226-8.226-3.846-4.65a31.209 31.209 0 0 0 4.47-10.752l6-.564v-11.64l-6-.564a31.123 31.123 0 0 0-4.47-10.752l3.846-4.65-8.226-8.232-4.65 3.852a31.05 31.05 0 0 0-10.752-4.47l-.564-6h-11.64l-.564 6a31.05 31.05 0 0 0-10.752 4.47l-4.65-3.852-8.232 8.232 3.852 4.65a31.123 31.123 0 0 0-4.47 10.752l-6 .564v11.64l6 .564a31.094 31.094 0 0 0 4.47 10.746l-3.852 4.656 8.232 8.226 4.65-3.846a31.209 31.209 0 0 0 10.752 4.47l.564 6Zm5.82-20.868a15.76 15.76 0 0 1-14.557-9.727 15.759 15.759 0 0 1 11.483-21.482 15.763 15.763 0 0 1 9.104.896 15.76 15.76 0 0 1 9.726 14.557 15.755 15.755 0 0 1-15.756 15.732v.024ZM225.63 139.944a4.796 4.796 0 0 1-2.604 6.955 4.803 4.803 0 0 1-5.157-1.381 4.804 4.804 0 0 1-.691-5.294 4.8 4.8 0 0 1 8.452-.28Z"/><path fill="#E0E0E0" d="M220.278 141.918c.144.258.444.246.804.156l-.546-.948c-.336.276-.396.558-.258.792ZM221.958 142.578l.546.948c.354-.288.414-.564.282-.792-.132-.228-.456-.252-.828-.156Z"/><path fill="#E0E0E0" d="M219.438 138.798a4.095 4.095 0 0 0-2.015 4.077 4.093 4.093 0 1 0 2.015-4.077Zm3.402 5.304.342.6-.438.252-.342-.6c-.476.261-1.02.37-1.56.312L220.8 144c.445.057.897-.016 1.302-.21l-.6-1.062c-.672.198-1.422.372-1.848-.372-.312-.546-.192-1.248.6-1.8l-.348-.6.438-.252.342.6c.393-.202.83-.305 1.272-.3l.09.666a2.477 2.477 0 0 0-1.032.21l.6 1.08c.672-.198 1.428-.384 1.854.354.288.522.156 1.224-.63 1.788Z"/><path fill="#F0F0F0" d="M100.648 267.82a7.794 7.794 0 1 0-12.04-9.9 7.794 7.794 0 0 0 12.04 9.9Z"/><path fill="#E0E0E0" d="M93.822 260.94c-.15.456.192.798.696 1.14l.546-1.698c-.714-.114-1.11.138-1.242.558ZM94.866 263.688l-.54 1.686c.732.12 1.128-.108 1.26-.522.132-.414-.186-.822-.72-1.164Z"/><path fill="#E0E0E0" d="M96.666 256.518a6.656 6.656 0 0 0-8.646 5.578 6.656 6.656 0 0 0 7.16 7.389 6.652 6.652 0 0 0 5.788-4.603 6.65 6.65 0 0 0-4.302-8.364ZM93.99 266.4l-.342 1.068-.78-.252.336-1.056a4.406 4.406 0 0 1-2.082-1.542l.738-.828a3.861 3.861 0 0 0 1.674 1.338l.6-1.908c-.978-.6-2.004-1.308-1.578-2.634.312-.978 1.29-1.596 2.826-1.266l.348-1.08.786.252-.342 1.062a4.286 4.286 0 0 1 1.752 1.2l-.702.84a4.098 4.098 0 0 0-1.38-1.008l-.6 1.926c.978.6 2.022 1.302 1.596 2.628-.318.996-1.302 1.602-2.85 1.26Z"/><path fill="#F0F0F0" d="M280.416 227.96a7.794 7.794 0 1 0-4.848-14.815 7.794 7.794 0 0 0 4.848 14.815Z"/><path fill="#E0E0E0" d="M276 219.876c.246.414.732.384 1.32.234l-.918-1.536c-.528.462-.606.924-.402 1.302ZM278.778 220.914l.906 1.524c.6-.474.666-.924.444-1.296-.222-.372-.75-.39-1.35-.228Z"/><path fill="#E0E0E0" d="M274.59 214.8a6.653 6.653 0 0 0 5.634 11.985 6.658 6.658 0 0 0 3.492-9.675 6.66 6.66 0 0 0-9.126-2.31Zm5.658 8.556.57.966-.702.42-.57-.954a4.403 4.403 0 0 1-2.538.54l-.132-1.098a3.86 3.86 0 0 0 2.112-.372l-1.026-1.722c-1.092.336-2.304.636-3-.564-.522-.876-.342-2.022.924-2.952l-.6-.972.708-.42.57.954a4.273 4.273 0 0 1 2.058-.516l.168 1.08a4.148 4.148 0 0 0-1.674.366l1.038 1.74c1.098-.336 2.316-.66 3.03.54.522.894.33 2.04-.936 2.982v-.018Z"/><path fill="#F0F0F0" d="M202.716 121.914a7.8 7.8 0 1 1-12.47-9.373 7.8 7.8 0 0 1 12.47 9.373Z"/><path fill="#E0E0E0" d="M196.344 115.152c-.288.384-.078.822.282 1.308l1.074-1.428c-.636-.342-1.092-.234-1.356.12ZM196.428 118.092l-1.062 1.416c.648.354 1.104.264 1.362-.078s.072-.846-.3-1.338Z"/><path fill="#E0E0E0" d="M200.484 111.906a6.653 6.653 0 0 0-10.586 6.252 6.652 6.652 0 0 0 11.906 3.066 6.642 6.642 0 0 0 .411-7.383 6.645 6.645 0 0 0-1.731-1.935Zm-5.778 8.472-.672.9-.66-.492.672-.894a4.356 4.356 0 0 1-1.464-2.136l.966-.54a3.898 3.898 0 0 0 1.146 1.8l1.2-1.602c-.726-.882-1.464-1.89-.6-3 .6-.816 1.74-1.08 3.084-.264l.678-.906.66.498-.672.888c.556.455.99 1.043 1.26 1.71l-.936.564a4.205 4.205 0 0 0-.972-1.41l-1.2 1.62c.726.882 1.482 1.896.648 3-.654.834-1.782 1.086-3.138.264Z"/><path fill="#F0F0F0" d="M84.78 146.55a5.226 5.226 0 0 1 2.765 5.115 5.233 5.233 0 1 1-2.765-5.115Z"/><path fill="#E0E0E0" d="M81 151.482c.288.156.552-.03.84-.324l-1.092-.558c-.156.456-.036.744.252.882ZM82.908 151.116l1.056.558c.162-.468.06-.762-.198-.894s-.564.036-.858.336Z"/><path fill="#E0E0E0" d="M78.384 149.082a4.47 4.47 0 1 0 7.895 4.196 4.47 4.47 0 0 0-7.895-4.196Zm6.216 2.934.666.354-.258.486-.66-.348a2.964 2.964 0 0 1-1.266 1.2l-.456-.6a2.618 2.618 0 0 0 1.08-.954l-1.2-.63c-.51.6-1.104 1.17-1.926.732-.6-.318-.906-1.038-.504-2.016l-.672-.354.258-.486.66.348a2.896 2.896 0 0 1 1.002-1.014l.474.564c-.32.209-.592.483-.798.804l1.2.636c.51-.6 1.098-1.2 1.92-.75.6.324.888 1.044.48 2.028Z"/><path fill="#F0F0F0" d="M178.53 193.584a4.986 4.986 0 0 1 2.625 4.869 4.976 4.976 0 0 1-3.492 4.29 4.983 4.983 0 0 1-6.42-4.245 4.981 4.981 0 0 1 3.488-5.271 4.988 4.988 0 0 1 3.799.357Z"/><path fill="#E0E0E0" d="M174.9 198.288c.276.144.528-.036.798-.312l-1.008-.534c-.15.432-.036.714.21.846ZM176.748 197.934l1.002.534c.156-.45.054-.726-.186-.852s-.564.03-.816.318Z"/><path fill="#E0E0E0" d="M172.44 195.996a4.25 4.25 0 0 0 .477 4.704 4.251 4.251 0 0 0 4.528 1.358 4.257 4.257 0 0 0 2.987-3.665 4.254 4.254 0 0 0-7.992-2.397Zm5.928 2.796.636.336-.246.468-.63-.336a2.838 2.838 0 0 1-1.2 1.14l-.438-.558c.422-.199.78-.513 1.032-.906l-1.134-.6c-.486.552-1.044 1.116-1.836.696-.6-.306-.858-.99-.474-1.92l-.642-.336.246-.468.6.336c.231-.398.56-.73.954-.966l.45.534a2.656 2.656 0 0 0-.792.756l1.146.6c.486-.546 1.044-1.128 1.83-.714.606.312.876 1.002.498 1.938Z"/><path fill="#F0F0F0" d="M252.21 257.91a11.356 11.356 0 0 1-9.889 7.829 11.347 11.347 0 0 1-6.44-1.395 11.35 11.35 0 0 1-5.763-11.219 11.36 11.36 0 0 1 14.742-9.525 11.364 11.364 0 0 1 7.35 14.31Z"/><path fill="#E0E0E0" d="M240.204 251.652c-.21.666.288 1.164 1.02 1.662l.792-2.478c-1.038-.162-1.614.204-1.812.816ZM241.734 255.654l-.792 2.46c1.062.174 1.65-.162 1.842-.756.192-.594-.294-1.2-1.05-1.704Z"/><path fill="#E0E0E0" d="M244.35 245.208a9.696 9.696 0 1 0-5.915 18.468 9.696 9.696 0 0 0 5.915-18.468Zm-3.894 14.4-.498 1.56-1.14-.366.492-1.548a6.341 6.341 0 0 1-3.036-2.244l1.074-1.2a5.622 5.622 0 0 0 2.442 1.95l.894-2.784c-1.422-.87-2.916-1.902-2.298-3.834.456-1.416 1.878-2.328 4.116-1.842l.504-1.572 1.14.366-.492 1.548c.983.362 1.86.964 2.55 1.752l-1.02 1.2a6.005 6.005 0 0 0-2.01-1.476l-.906 2.808c1.428.876 2.952 1.902 2.334 3.834-.456 1.44-1.89 2.352-4.146 1.872v-.024Z"/><path fill="#F0F0F0" d="M81.088 219.71c5.91-2.102 8.998-8.598 6.895-14.508-2.102-5.91-8.597-8.997-14.507-6.895-5.91 2.103-8.997 8.598-6.895 14.508 2.102 5.91 8.597 8.997 14.507 6.895Z"/><path fill="#E0E0E0" d="M78.348 206.166c-.6.342-.6 1.044-.408 1.908l2.28-1.254c-.642-.834-1.308-.96-1.872-.654ZM76.704 210.12l-2.268 1.248c.654.858 1.308 1.014 1.86.708.552-.306.612-1.068.408-1.956Z"/><path fill="#E0E0E0" d="M85.8 204.336a9.69 9.69 0 0 0-9.56-4.965 9.698 9.698 0 0 0-8.247 6.931 9.695 9.695 0 1 0 18.619 5.412 9.704 9.704 0 0 0-.812-7.378Zm-12.75 7.8-1.434.786-.6-1.05 1.422-.78a6.402 6.402 0 0 1-.66-3.72l1.608-.138a5.563 5.563 0 0 0 .438 3.096l2.556-1.404c-.432-1.614-.81-3.39.972-4.368 1.302-.72 2.964-.396 4.254 1.494l1.446-.792.6 1.05-1.452.78c.465.94.688 1.982.648 3.03l-1.578.18a6.109 6.109 0 0 0-.45-2.454l-2.586 1.422c.432 1.614.84 3.408-.942 4.386-1.29.72-2.94.378-4.254-1.518h.012Z"/><path fill="#F5F5F5" d="M180 307.536c64.249 0 116.334-3.041 116.334-6.792s-52.085-6.792-116.334-6.792-116.334 3.041-116.334 6.792 52.085 6.792 116.334 6.792Z"/><path fill="#D75F26" d="M260.526 115.074h-2.4c-6.6 0-11.958 6.462-11.958 14.436s5.352 14.436 11.958 14.436h2.4c6.6 0 11.964-6.462 11.964-14.436s-5.358-14.436-11.964-14.436Z"/><path fill="#000" d="M260.526 115.074h-2.4c-6.6 0-11.958 6.462-11.958 14.436s5.352 14.436 11.958 14.436h2.4c6.6 0 11.964-6.462 11.964-14.436s-5.358-14.436-11.964-14.436Z" opacity=".2"/><path fill="#D75F26" d="M258.12 143.946c6.608 0 11.964-6.463 11.964-14.436s-5.356-14.436-11.964-14.436c-6.608 0-11.964 6.463-11.964 14.436s5.356 14.436 11.964 14.436Z"/><path fill="#fff" d="M258.12 141.834c5.64 0 10.212-5.518 10.212-12.324s-4.572-12.324-10.212-12.324-10.212 5.518-10.212 12.324 4.572 12.324 10.212 12.324Z" opacity=".3"/><path fill="#D75F26" d="M258.852 136.152v2.082h-1.26V136.2a6.062 6.062 0 0 1-3.768-1.542l.69-1.878a5.344 5.344 0 0 0 3.078 1.41v-3.708c-1.71-.504-3.54-1.2-3.54-3.75 0-1.896 1.14-3.546 3.54-3.828v-2.094h1.26v2.058c1.13.066 2.216.46 3.126 1.134l-.63 1.872a5.702 5.702 0 0 0-2.496-1.002v3.75c1.71.504 3.57 1.152 3.57 3.732 0 1.872-1.152 3.504-3.57 3.798Zm-1.26-7.944v-3.306a1.666 1.666 0 0 0-1.554 1.692c0 .894.66 1.302 1.554 1.614Zm2.862 4.29c0-.912-.678-1.338-1.602-1.65v3.282c1.122-.204 1.602-.834 1.602-1.632ZM277.02 153.126H244.2c-.738 0-1.446.293-1.969.815a2.787 2.787 0 0 0-.815 1.969V300.6h38.4V155.91a2.78 2.78 0 0 0-1.726-2.577 2.781 2.781 0 0 0-1.07-.207Z"/><path fill="#fff" d="M277.02 153.126H244.2c-.738 0-1.446.293-1.969.815a2.787 2.787 0 0 0-.815 1.969V300.6h38.4V155.91a2.78 2.78 0 0 0-1.726-2.577 2.781 2.781 0 0 0-1.07-.207Z" opacity=".1"/><path fill="#fff" d="M244.2 153.126h31.044a2.785 2.785 0 0 1 2.784 2.784V300.6h-36.6V155.91a2.784 2.784 0 0 1 2.772-2.784Z" opacity=".3"/><path fill="#D75F26" d="M221.604 201.156H188.76a2.78 2.78 0 0 0-2.76 2.784v25.482h17.04a4.627 4.627 0 0 1-1.008-1.508 4.628 4.628 0 0 1-.348-1.78 4.534 4.534 0 0 1 3.522-4.47 4.523 4.523 0 0 1 3.516 4.47 4.615 4.615 0 0 1-1.35 3.288H224.4V203.94a2.78 2.78 0 0 0-1.726-2.577 2.766 2.766 0 0 0-1.07-.207ZM209.148 257.07h-1.8c.431.431.773.944 1.004 1.509.232.564.35 1.169.346 1.779a4.524 4.524 0 0 1-3.516 4.47 4.536 4.536 0 0 1-2.551-1.613 4.536 4.536 0 0 1-.971-2.857 4.62 4.62 0 0 1 1.356-3.288H186v43.53h38.4v-43.53h-15.252Z"/><path fill="#fff" d="M221.604 201.156H188.76a2.78 2.78 0 0 0-2.76 2.784v25.482h17.04a4.627 4.627 0 0 1-1.008-1.508 4.628 4.628 0 0 1-.348-1.78 4.534 4.534 0 0 1 3.522-4.47 4.523 4.523 0 0 1 3.516 4.47 4.615 4.615 0 0 1-1.35 3.288H224.4V203.94a2.78 2.78 0 0 0-1.726-2.577 2.766 2.766 0 0 0-1.07-.207ZM209.148 257.07h-1.8c.431.431.773.944 1.004 1.509.232.564.35 1.169.346 1.779a4.524 4.524 0 0 1-3.516 4.47 4.536 4.536 0 0 1-2.551-1.613 4.536 4.536 0 0 1-.971-2.857 4.62 4.62 0 0 1 1.356-3.288H186v43.53h38.4v-43.53h-15.252Z" opacity=".1"/><path fill="#fff" d="M207.348 257.07c.431.431.773.944 1.004 1.509.232.564.35 1.169.346 1.779a4.42 4.42 0 0 1-6.149 4.232 4.42 4.42 0 0 1-2.689-4.232 4.62 4.62 0 0 1 1.356-3.288H186v43.53h36.6v-43.53h-15.252ZM186 203.94v25.482h15.24a4.616 4.616 0 0 1-1.356-3.288 4.42 4.42 0 0 1 6.149-4.232 4.42 4.42 0 0 1 2.689 4.232 4.599 4.599 0 0 1-.346 1.779 4.594 4.594 0 0 1-1.004 1.509H222.6V203.94a2.763 2.763 0 0 0-.812-1.968 2.766 2.766 0 0 0-1.966-.816H188.76a2.785 2.785 0 0 0-2.76 2.784Z" opacity=".3"/><path fill="#D75F26" d="M139.092 145.32H123.84a4.693 4.693 0 0 0-4.698 4.692v15.402a4.697 4.697 0 0 0 4.692 4.698h6.036l1.596 4.2 1.59-4.2h6.036a4.7 4.7 0 0 0 4.692-4.698V150a4.69 4.69 0 0 0-4.692-4.68Z"/><path fill="#fff" d="M139.092 145.32H123.84a4.693 4.693 0 0 0-4.698 4.692v15.402a4.697 4.697 0 0 0 4.692 4.698h6.036l1.596 4.2 1.59-4.2h6.036a4.7 4.7 0 0 0 4.692-4.698V150a4.69 4.69 0 0 0-4.692-4.68Z" opacity=".4"/><path fill="#3E5543" d="M131.542 167.325c1.402-.011 2.533-.691 2.527-1.519-.006-.828-1.147-1.492-2.549-1.481-1.402.01-2.533.69-2.527 1.518.006.829 1.147 1.492 2.549 1.482Z"/><path fill="#fff" d="M131.542 167.325c1.402-.011 2.533-.691 2.527-1.519-.006-.828-1.147-1.492-2.549-1.481-1.402.01-2.533.69-2.527 1.518.006.829 1.147 1.492 2.549 1.482Z" opacity=".4"/><path fill="#3E5543" d="M135.15 163.044a.74.74 0 0 0 .222-.498c0-.81-1.74-1.458-3.87-1.44-2.13.018-3.852.684-3.846 1.5.01.187.092.363.228.492a.641.641 0 0 0-.06.258.692.692 0 0 0 .234.486.593.593 0 0 0-.066.264.706.706 0 0 0 .24.486.533.533 0 0 0-.072.27.678.678 0 0 0 .246.48.55.55 0 0 0-.078.27c0 .678 1.446 1.2 3.216 1.2 1.77 0 3.204-.6 3.198-1.248a.509.509 0 0 0-.084-.27.656.656 0 0 0 .24-.48.486.486 0 0 0-.078-.27.602.602 0 0 0 .18-.744.733.733 0 0 0 .228-.492.6.6 0 0 0-.078-.264Z"/><path fill="#D75F26" d="M138.294 155.808a6.828 6.828 0 1 0-11.094 5.358 1.132 1.132 0 0 1 .426.972.163.163 0 0 0 0 .054c0 .822 1.764 1.482 3.93 1.464 2.166-.018 3.912-.696 3.906-1.524v-.054a1.139 1.139 0 0 1 .414-.978 6.832 6.832 0 0 0 2.418-5.292Z"/><path fill="#fff" d="M138.294 155.808a6.828 6.828 0 1 0-11.094 5.358 1.132 1.132 0 0 1 .426.972.163.163 0 0 0 0 .054c0 .822 1.764 1.482 3.93 1.464 2.166-.018 3.912-.696 3.906-1.524v-.054a1.139 1.139 0 0 1 .414-.978 6.832 6.832 0 0 0 2.418-5.292Z" opacity=".9"/><path fill="#000" d="M130.11 162.714a.247.247 0 0 1-.246-.246c0-2.352-1.926-4.152-1.944-4.17a.247.247 0 0 1 .168-.42h1.122l.342-.816a.234.234 0 0 1 .21-.15.236.236 0 0 1 .228.126l.642 1.158.6-1.17a.267.267 0 0 1 .095-.094.269.269 0 0 1 .127-.038.27.27 0 0 1 .216.138l.636 1.308.6-1.314a.258.258 0 0 1 .222-.144.247.247 0 0 1 .222.15l.354.816h1.122a.245.245 0 0 1 .226.336.24.24 0 0 1-.1.12c-1.602.948-2.052 4.17-2.058 4.2a.247.247 0 0 1-.274.191.242.242 0 0 1-.156-.087.24.24 0 0 1-.056-.17c0-.126.384-2.748 1.716-4.092h-.6a.24.24 0 0 1-.228-.144l-.204-.468-.6 1.29a.253.253 0 0 1-.091.101.252.252 0 0 1-.131.037.26.26 0 0 1-.222-.138l-.654-1.332-.6 1.146a.25.25 0 0 1-.216.126.245.245 0 0 1-.216-.126l-.6-1.11-.204.498a.254.254 0 0 1-.228.15h-.72a6.604 6.604 0 0 1 1.698 4.11.246.246 0 0 1-.24.246l.042-.018Z" opacity=".2"/><path fill="#D75F26" d="M110.772 288.21H77.934a2.775 2.775 0 0 0-2.575 1.722A2.78 2.78 0 0 0 75.15 291v9.6h38.4V291a2.77 2.77 0 0 0-.809-1.972 2.773 2.773 0 0 0-1.969-.818Z"/><path fill="#fff" d="M110.772 288.21H77.934a2.775 2.775 0 0 0-2.575 1.722A2.78 2.78 0 0 0 75.15 291v9.6h38.4V291a2.77 2.77 0 0 0-.809-1.972 2.773 2.773 0 0 0-1.969-.818Z" opacity=".1"/><path fill="#fff" d="M77.934 288.21h31.044a2.785 2.785 0 0 1 2.784 2.784v9.606h-36.6V291a2.784 2.784 0 0 1 2.772-2.79Z" opacity=".3"/><path fill="#D75F26" d="M166.2 258.54h-32.856a2.775 2.775 0 0 0-2.568 1.719c-.139.338-.211.7-.21 1.065V300.6h38.4v-39.3a2.786 2.786 0 0 0-2.766-2.76Z"/><path fill="#fff" d="M166.2 258.54h-32.856a2.775 2.775 0 0 0-2.568 1.719c-.139.338-.211.7-.21 1.065V300.6h38.4v-39.3a2.786 2.786 0 0 0-2.766-2.76Z" opacity=".1"/><path fill="#fff" d="M133.344 258.54H164.4a2.785 2.785 0 0 1 2.784 2.784V300.6h-36.6v-39.3a2.786 2.786 0 0 1 2.76-2.76Z" opacity=".3"/><path fill="#3E5543" d="M140.946 203.868c2.268 1.422 6.54 9.972 6.54 9.972l-3.762 2.916-5.124-5.784 2.346-7.104Z"/><path fill="#fff" d="m147.486 213.84-3.762 2.916-2.832-3.156-2.292-2.628.84-2.514 1.536-4.59c2.238 1.422 6.51 9.972 6.51 9.972Z" opacity=".4"/><path fill="#000" d="m140.892 213.6-2.292-2.628.84-2.514a19.215 19.215 0 0 1 1.452 5.142Z" opacity=".2"/><path fill="#3E5543" d="m136.662 231.72-15.546-2.256 1.668-16.98 15.78 1.728-1.902 17.508Z"/><path fill="#fff" d="m136.662 231.72-15.546-2.256 1.668-16.98 15.78 1.728-1.902 17.508Z" opacity=".3"/><path fill="#FFC2BC" d="m114.528 256.962 12.222.846-.276-4.746-13.206 1.35"/><path fill="#3E5543" d="m111.462 252.654-.186.666.768.414a14.472 14.472 0 0 0-2.208 3.228 11.4 11.4 0 0 0-.996 4.236s.636 1.134 2.1-1.308a1.98 1.98 0 0 1 .246-.33c1.068-1.2 3.87-2.592 3.87-2.592l.876-3.048a4.081 4.081 0 0 0-.372-.372 4.03 4.03 0 0 0-4.098-.894Z"/><path fill="#FFC2BC" d="M115.56 253.548c.33.534-2.16 1.8-3.216 2.952-.936 1.026-1.584 2.292-1.152 3.066 1.068-1.2 4.584-2.616 4.584-2.616l.702-2.448s-.678-.702-.918-.954Z"/><path fill="#3E5543" d="m133.746 222.93 1.722 7.95s15.822 15.336 15.756 21.3c0 1.236 1.26 4.992-8.358 6.162-4.854.6-24.45-.852-24.45-.852v-4.29s13.602-2.094 20.904-2.232l-16.122-14.364-5.436-6.918 4.2-9.666 11.784 2.91Z"/><path fill="#fff" d="M142.866 258.342a62.245 62.245 0 0 1-7.506.072c-7.416-.222-16.944-.924-16.944-.924v-4.29s9.48-1.458 16.86-2.022a77.355 77.355 0 0 1 4.044-.21l-5.49-4.89-10.632-9.474-2.082-2.652-3.354-4.266 4.2-9.666 11.802 2.922 1.722 7.95s15.822 15.336 15.756 21.3c-.042 1.224 1.242 4.98-8.376 6.15Z" opacity=".2"/><path fill="#000" d="m123.198 236.592-2.082-2.652 3.978-2.46s5.184 4.65 8.736 14.586l-10.632-9.474ZM135.36 258.414c-7.416-.222-16.944-.924-16.944-.924v-4.29s9.48-1.458 16.86-2.022c.363 2.396.392 4.831.084 7.236Z" opacity=".2"/><path fill="#3E5543" d="M101.292 287.892h.69l.216-.846 2.25 1.098 5.772.168s.942-.894-1.8-1.71a2.606 2.606 0 0 1-.39-.162c-1.446-.732-3.462-3.114-3.462-3.114l-3.168-.09a4.272 4.272 0 0 0-.126 4.638l.018.018Z"/><path fill="#FFC2BC" d="M101.148 283.704c.432-.456 2.274 1.65 3.648 2.4 1.2.654 2.616.972 3.252.36-1.446-.732-3.66-3.798-3.66-3.798l-2.55-.078s-.534.822-.69 1.116Z"/><path fill="#FFC2BC" d="m104.586 283.344 8.766-8.55-3.72-2.958-7.794 10.746"/><path fill="#3E5543" d="M132.9 254.4c-1.056-7.14-3.216-16.302-5.016-23.4l-.81-9-8.658-1.494s-4.2 7.434-2.262 14.454c1.488 5.46 4.8 12.096 9.162 19.902-9.522 7.584-17.358 17.364-21.804 24.042a6.535 6.535 0 0 0 1.344 1.614 6.237 6.237 0 0 0 2.13 1.35c6.99-6.684 16.56-15 23.304-21.306 2.256-2.034 3.174-3.726 2.61-6.162Z"/><path fill="#fff" d="M132.9 254.4c-1.056-7.14-3.216-16.302-5.016-23.4l-.81-9-8.658-1.494s-4.2 7.434-2.262 14.454c1.488 5.46 4.8 12.096 9.162 19.902-9.522 7.584-17.358 17.364-21.804 24.042a6.535 6.535 0 0 0 1.344 1.614 6.237 6.237 0 0 0 2.13 1.35c6.99-6.684 16.56-15 23.304-21.306 2.256-2.034 3.174-3.726 2.61-6.162Z" opacity=".2"/><path fill="#D75F26" d="M140.946 203.868s-1.32 10.65-7.2 19.062c0 0-12.54-1.578-15.33-2.4 1.734-5.136 2.772-8.568 3.492-18.204.174-2.322 2.28-3.66 4.578-3.246 2.261.154 4.494.598 6.642 1.32a72.482 72.482 0 0 1 7.818 3.468Z"/><path fill="#fff" d="M140.946 203.868a48.679 48.679 0 0 1-1.836 7.848 42.092 42.092 0 0 1-5.364 11.214s-12.54-1.578-15.336-2.4c.33-.966.636-1.872.912-2.772a49.951 49.951 0 0 0 1.992-9.36c.198-1.5.36-3.198.528-5.16 0-.294.042-.6.066-.906.174-2.328 2.28-3.666 4.578-3.252.324.06 1.014.072 2.1.228.102 0 .198 0 .294.036a27.68 27.68 0 0 1 4.248 1.038c.696.222 1.518.546 2.4.912 2.58 1.116 5.418 2.574 5.418 2.574Z" opacity=".8"/><path fill="#3E5543" d="M128.334 211.002a112.457 112.457 0 0 1-.57 4.236c-.036.216-.06.336-.06.336a98.951 98.951 0 0 1-.882 4.8 106.562 106.562 0 0 1-2.91 11.088l-9.636-2.76s4.614-11.4 5.73-15.162c.128-.434.232-.875.312-1.32.408-2.16.564-5.004.804-7.41.204-2.04.474-3.774 1.008-4.518.972-1.35 4.2-1.2 5.814-1.068h.06c.27 0 .492.054.642.078h.234a74.516 74.516 0 0 1-.546 11.7ZM135.504 201.306s3.306 7.152.45 30.9l2.064-.552 1.182-15.918s1.752-8.778 1.764-11.868c-.018 0-4.038-2.466-5.46-2.562Z"/><path fill="#fff" d="M128.334 211.002a112.457 112.457 0 0 1-.57 4.236c-.036.216-.06.336-.06.336a98.951 98.951 0 0 1-.882 4.8 106.562 106.562 0 0 1-2.91 11.088l-9.636-2.76s4.614-11.4 5.73-15.162c.128-.434.232-.875.312-1.32.408-2.16.564-5.004.804-7.41.204-2.04.474-3.774 1.008-4.518.972-1.35 4.2-1.2 5.814-1.068h.06c.27 0 .492.054.642.078h.234a74.516 74.516 0 0 1-.546 11.7ZM135.504 201.306s3.306 7.152.45 30.9l2.064-.552 1.182-15.918s1.752-8.778 1.764-11.868c-.018 0-4.038-2.466-5.46-2.562Z" opacity=".4"/><path fill="#3E5543" d="M128.4 211.2c-.252 1.902-.51 3.42-.6 4.068-.036.216-.06.336-.06.336l-1.488-9.204-.444-2.832 2.136.504-3.144-2.766 3.144-2.064h.06l.642.078h.234c.522 3.006.012 8.154-.48 11.88ZM135.504 201.306l-.426-.564s3 1.902 4.158 4.2l-1.836.786 1.494.534-1.758 10.05s-.6-11.148-1.602-14.604"/><path fill="#fff" d="M128.4 211.2c-.252 1.902-.51 3.42-.6 4.068-.036.216-.06.336-.06.336l-1.488-9.204-.444-2.832 2.136.504-3.144-2.766 3.144-2.064h.06l.642.078h.234c.522 3.006.012 8.154-.48 11.88ZM135.504 201.306l-.426-.564s3 1.902 4.158 4.2l-1.836.786 1.494.534-1.758 10.05s-.6-11.148-1.602-14.604" opacity=".2"/><path fill="#000" d="M128.4 211.2c-.252 1.902-.51 3.42-.6 4.068-.036.216-.06.336-.06.336a98.951 98.951 0 0 1-.882 4.8c-2.82-.87-5.034-4.71-6.504-8.154.408-2.16.564-5.004.804-7.41 1.41-.6 3-.948 3.936-.168a6.722 6.722 0 0 1 1.2 1.704 33.566 33.566 0 0 1 2.082 4.632l.024.192Z" opacity=".2"/><path fill="#D75F26" d="M127.8 204.6s-1.464-8.34 5.136-5.604c4.164 1.722 4.2 7.932 4.2 7.932l-1.842-1.89a39.131 39.131 0 0 1-1.968 5.346 18.152 18.152 0 0 1-3.366-6.69l-2.16.906Z"/><path fill="#fff" d="M127.8 204.6s-1.464-8.34 5.136-5.604c4.164 1.722 4.2 7.932 4.2 7.932l-1.842-1.89a39.131 39.131 0 0 1-1.968 5.346 18.152 18.152 0 0 1-3.366-6.69l-2.16.906Z" opacity=".7"/><path fill="#FFC2BC" d="M134.778 202.602c.21 2.49-1.482 7.638-1.482 7.638-2.562-2.502-3.366-10.56-3.366-10.56.756-.084 1.104-1.386 1.266-2.64.096-.785.142-1.574.138-2.364l4.128 1.404a11.9 11.9 0 0 0-1.062 4.32c-.023.441.013.883.108 1.314.074.3.164.597.27.888Z"/><path fill="#000" d="M135.462 196.08a11.905 11.905 0 0 0-1.062 4.32 7.797 7.797 0 0 1-3.222-3.354c.096-.784.142-1.574.138-2.364l4.146 1.398Z" opacity=".2"/><path fill="#3E5543" d="M128.604 185.676s-1.2-2.514-3.774-1.422c-2.574 1.092-2.454 6.462 1.746 4.8s2.028-3.378 2.028-3.378Z"/><path fill="#D75F26" d="M130.11 185.466s-1.458-.63-3 1.164-.492 3.882-.09 3.66c.402-.222 3.294-3.69 3.09-4.824Z"/><path fill="#3E5543" d="M133.338 196.332s-4.296 2.466-6.696-3.72c-2.4-6.186 6.468-11.4 9.246-6.132 2.778 5.268-2.55 9.852-2.55 9.852Z"/><path fill="#FFC2BC" d="M128.4 191.19c1.2 3.534 1.644 5.052 3.966 6.498 3.498 2.172 7.584.162 7.458-3.6-.114-3.39-2.07-8.598-6-9.258a4.798 4.798 0 0 0-5.424 6.36Z"/><path fill="#3E5543" d="M131.118 188.118c-1.632 2.874 2.916 5.256-1.2 5.676-4.116.42-3.312-5.634-1.056-7.308 2.256-1.674 2.256 1.632 2.256 1.632Z"/><path fill="#3E5543" d="M128.856 186.528c.87 2.4 1.362 3 3.468 1.998a2.597 2.597 0 0 1-.654-1.626 2.464 2.464 0 0 0 1.434 1.2 9.023 9.023 0 0 1 1.752-.828 2.398 2.398 0 0 1-.264-1.056c.232.387.572.697.978.894a6.265 6.265 0 0 1 2.04.06c-.39-2.628-5.22-4.77-8.754-.642ZM134.214 190.968c.09.3.318.51.516.462.198-.048.282-.318.192-.6-.09-.282-.318-.51-.516-.468-.198.042-.276.3-.192.606ZM137.898 190.2c.084.3.318.51.51.462.192-.048.282-.318.192-.6-.09-.282-.318-.51-.51-.468-.192.042-.282.312-.192.606Z"/><path fill="#3E5543" d="m138 189.6.654-.366s-.192.666-.654.366Z"/><path fill="#D4827D" d="M137.022 190.926a9.082 9.082 0 0 0 1.626 1.692 1.252 1.252 0 0 1-1.002.432l-.624-2.124Z"/><path fill="#3E5543" d="M136.26 194.544c.172-.008.342-.031.51-.066a.09.09 0 0 0 .054-.041.09.09 0 0 0 .01-.033.08.08 0 0 0-.004-.034.083.083 0 0 0-.014-.035.087.087 0 0 0-.062-.04.081.081 0 0 0-.038.003 2.633 2.633 0 0 1-2.196-.504.08.08 0 0 0-.029-.029.083.083 0 0 0-.079-.008.083.083 0 0 0-.034.022.094.094 0 0 0-.02.035.081.081 0 0 0-.004.041.114.114 0 0 0 .016.038 2.76 2.76 0 0 0 1.89.651Z"/><path fill="#FFC2BC" d="M128.526 194.748a2.562 2.562 0 0 0 1.74 1.128c.882.102 1.104-.918.684-1.848-.378-.834-1.29-1.89-2.088-1.56-.798.33-.882 1.488-.336 2.28Z"/><path fill="#3E5543" d="M132.942 189.462a.183.183 0 0 0 .068-.023.174.174 0 0 0 .052-.049 1.354 1.354 0 0 1 1.11-.6.17.17 0 0 0 .166-.101.171.171 0 0 0 .014-.067.204.204 0 0 0-.186-.192 1.689 1.689 0 0 0-1.416.768.188.188 0 0 0 .006.208c.015.02.033.037.054.05a.22.22 0 0 0 .132.006ZM138.474 188.322a.174.174 0 0 0 .12-.054.187.187 0 0 0 .038-.135.189.189 0 0 0-.068-.123 1.896 1.896 0 0 0-1.638-.462.16.16 0 0 0-.062.032.177.177 0 0 0-.063.121.179.179 0 0 0 .011.069.194.194 0 0 0 .089.108c.043.023.092.03.139.018a1.567 1.567 0 0 1 1.296.378.19.19 0 0 0 .064.039.186.186 0 0 0 .074.009ZM134.328 190.38l.654-.366s-.204.642-.654.366Z"/><path fill="#D75F26" d="m164.112 246.822 10.584-25.542-13.848-5.736a4.704 4.704 0 0 0 2.748-3.366 4.445 4.445 0 0 0-1.758-4.632 4.187 4.187 0 0 0-3.36-.6 4.546 4.546 0 0 0-4.374 2.862 4.693 4.693 0 0 0-.24 2.85l-12.438-5.154-1.2.114-10.584 25.536 13.848 5.742a4.698 4.698 0 0 0-2.754 3.36 4.445 4.445 0 0 0 1.764 4.632 4.203 4.203 0 0 0 3.36.6 4.544 4.544 0 0 0 4.374-2.862 4.686 4.686 0 0 0 .24-2.85l12.438 5.154 1.2-.108Z"/><path fill="#000" d="m164.112 246.822 10.584-25.542-13.848-5.736a4.704 4.704 0 0 0 2.748-3.366 4.445 4.445 0 0 0-1.758-4.632 4.187 4.187 0 0 0-3.36-.6 4.546 4.546 0 0 0-4.374 2.862 4.693 4.693 0 0 0-.24 2.85l-12.438-5.154-1.2.114-10.584 25.536 13.848 5.742a4.698 4.698 0 0 0-2.754 3.36 4.445 4.445 0 0 0 1.764 4.632 4.203 4.203 0 0 0 3.36.6 4.544 4.544 0 0 0 4.374-2.862 4.686 4.686 0 0 0 .24-2.85l12.438 5.154 1.2-.108Z" opacity=".3"/><path fill="#D75F26" d="m174.696 221.28-13.848-5.736a4.704 4.704 0 0 0 2.748-3.366 4.335 4.335 0 0 0-2.937-5.263 4.336 4.336 0 0 0-5.355 2.767 4.669 4.669 0 0 0-.03 3.552l-13.848-5.742-10.584 25.536 13.848 5.772a4.7 4.7 0 0 0-2.754 3.366 4.332 4.332 0 0 0 .453 3.18 4.334 4.334 0 0 0 5.716 1.716 4.34 4.34 0 0 0 2.129-2.406 4.653 4.653 0 0 0 0-3.546l13.854 5.742 10.608-25.572Z"/><path fill="#FFC2BC" d="m162.15 216.87-1.26-1.26a.556.556 0 0 1 0-.81l.6-.516c.121-.111.265-.194.421-.245.155-.052.32-.069.483-.052a1.164 1.164 0 0 1 .824.477l1.512 2.082.174.6-.924-.384-1.14.27a.743.743 0 0 1-.69-.162Z"/><path fill="#EBC0BB" d="M125.208 204.792c.948 3.552 1.668 7.392 3.324 10.668 0 .054.18.222.6.396 1.746.696 4.17.744 6.174.798 2.28.03 4.62-.102 6.894-.252a1.165 1.165 0 0 1 1.064 1.791 1.16 1.16 0 0 1-.68.495 48.225 48.225 0 0 1-7.098 1.356c-2.64.258-5.028.45-7.758-.348a5.2 5.2 0 0 1-2.796-2.034l-.318-.474c-1.482-2.484-2.292-5.166-3.102-7.866-.312-1.2-.6-2.31-.858-3.528a2.339 2.339 0 0 1 3.548-2.472c.523.335.891.864 1.024 1.47h-.018Z"/><path fill="#FFC2BC" d="m141.48 216.6 2.76-1.83.516 3.84a4.439 4.439 0 0 1-1.985.085 4.437 4.437 0 0 1-1.825-.787l.534-1.308ZM147.486 215.04l-.15 2.928-2.58.63-.516-3.84 3.246.282Z"/><path fill="#3E5543" d="M122.922 199.68c-3.324 1.2-3.036 5.928-1.32 11.628s4.386 9.228 6.99 9.6l2.364-4.656a11.15 11.15 0 0 1-2.028-1.428c-.972-1.2-4.128-13.092-4.128-13.092l-1.878-2.052Z"/><path fill="#fff" d="M122.922 199.68c-3.324 1.2-3.036 5.928-1.32 11.628s4.386 9.228 6.99 9.6l2.364-4.656a11.15 11.15 0 0 1-2.028-1.428c-.972-1.2-4.128-13.092-4.128-13.092l-1.878-2.052Z" opacity=".4"/><path fill="#3E5543" d="m131.268 215.976-1.338-.66-3.882 5.568 2.88.27 2.34-5.178Z"/><path fill="#fff" d="m131.268 215.976-1.338-.66-3.882 5.568 2.88.27 2.34-5.178Z" opacity=".2"/></svg>