<svg width="350" height="308" viewBox="0 0 350 308" fill="none" xmlns="http://www.w3.org/2000/svg">
<path d="M333.62 104.151L333.62 104.158C336.23 142.334 332.752 168.081 324.541 185.326C316.343 202.542 303.412 211.318 287 215.522C270.561 219.733 250.642 219.354 228.498 218.239C224.945 218.06 221.335 217.862 217.673 217.661C198.591 216.615 178.116 215.493 157.041 216.574C128.829 185.571 103.183 167.745 80.5274 157.568C57.8378 147.375 38.166 144.863 21.9516 144.453C15.5433 144.291 9.67121 144.457 4.37542 144.607C2.97612 144.647 1.61706 144.686 0.29897 144.717C-6.02022 144.866 -11.3824 144.841 -15.7706 143.962C-20.1461 143.085 -23.5172 141.365 -25.8919 138.145C-28.2681 134.923 -29.6843 130.15 -30.0401 123.085C-19.6669 91.2978 -0.601758 64.4911 28.405 44.973C57.4358 25.4387 96.4468 13.1907 146.712 10.5832C219.453 6.80977 265.482 16.0209 293.667 33.2495C321.82 50.458 332.217 75.6969 333.62 104.151Z" stroke="#F7DFD4" stroke-width="0.75"/>
<path d="M-7.26204 167.705C-9.32481 100.738 166.945 58.4164 248.182 54.8748C345.848 50.617 344.354 85.3195 346.417 152.286C348.48 219.252 252.727 234.643 167.658 258.691C82.3961 163.796 -5.19927 234.671 -7.26204 167.705Z" fill="#F7DFD4" fill-opacity="0.3"/>
<path d="M330 280.44H30V280.59H330V280.44Z" fill="#EBEBEB"/>
<path d="M299.94 290.094H280.068V290.244H299.94V290.094Z" fill="#EBEBEB"/>
<path d="M228.732 291.726H223.518V291.876H228.732V291.726Z" fill="#EBEBEB"/>
<path d="M279.468 284.526H267.954V284.676H279.468V284.526Z" fill="#EBEBEB"/>
<path d="M87.39 285.534H61.476V285.684H87.39V285.534Z" fill="#EBEBEB"/>
<path d="M96.534 285.534H92.736V285.684H96.534V285.534Z" fill="#EBEBEB"/>
<path d="M165.09 288.066H108.882V288.216H165.09V288.066Z" fill="#EBEBEB"/>
<path d="M172.2 253.68H56.346C55.4384 253.678 54.5686 253.317 53.9274 252.674C53.2862 252.032 52.926 251.162 52.926 250.254V87.396C52.9339 86.4936 53.2975 85.6308 53.9379 84.9949C54.5782 84.3591 55.4436 84.0015 56.346 84H172.2C173.109 84 173.98 84.361 174.623 85.0035C175.265 85.646 175.626 86.5174 175.626 87.426V250.254C175.626 251.163 175.265 252.034 174.623 252.677C173.98 253.319 173.109 253.68 172.2 253.68ZM56.346 84.12C55.4782 84.1216 54.6465 84.4674 54.0334 85.0816C53.4204 85.6958 53.076 86.5282 53.076 87.396V250.254C53.076 251.122 53.4204 251.954 54.0334 252.568C54.6465 253.183 55.4782 253.528 56.346 253.53H172.2C173.068 253.528 173.901 253.183 174.515 252.569C175.129 251.955 175.474 251.122 175.476 250.254V87.396C175.474 86.5276 175.129 85.6953 174.515 85.0813C173.901 84.4672 173.068 84.1216 172.2 84.12H56.346Z" fill="#EBEBEB"/>
<path d="M301.986 253.68H186.126C185.218 253.678 184.347 253.317 183.705 252.675C183.063 252.033 182.702 251.162 182.7 250.254V87.396C182.709 86.4931 183.074 85.6302 183.716 84.9946C184.357 84.3589 185.223 84.0015 186.126 84H301.986C302.887 84.0031 303.751 84.3613 304.39 84.997C305.029 85.6327 305.392 86.4947 305.4 87.396V250.254C305.4 251.161 305.041 252.03 304.401 252.672C303.761 253.314 302.892 253.677 301.986 253.68ZM186.126 84.12C185.258 84.1216 184.425 84.4672 183.811 85.0813C183.197 85.6953 182.852 86.5276 182.85 87.396V250.254C182.852 251.122 183.197 251.955 183.811 252.569C184.425 253.183 185.258 253.528 186.126 253.53H301.986C302.854 253.528 303.687 253.183 304.301 252.569C304.915 251.955 305.26 251.122 305.262 250.254V87.396C305.26 86.5276 304.915 85.6953 304.301 85.0813C303.687 84.4672 302.854 84.1216 301.986 84.12H186.126Z" fill="#EBEBEB"/>
<path d="M177.372 147.6C176.438 143.118 174.665 138.853 172.146 135.03L176.646 129.594L167.046 119.994L161.61 124.488C157.785 121.973 153.521 120.202 149.04 119.268L148.38 112.26H134.754L134.094 119.268C129.615 120.201 125.352 121.972 121.53 124.488L116.094 120L106.494 129.6L110.994 135.036C108.47 138.856 106.688 143.119 105.744 147.6L98.7419 148.26V161.868L105.744 162.528C106.687 167.016 108.471 171.284 111 175.11L106.5 180.546L116.1 190.146L121.536 185.646C125.357 188.163 129.62 189.936 134.1 190.872L134.76 197.874H148.368L149.028 190.872C153.509 189.935 157.774 188.162 161.598 185.646L167.034 190.146L176.634 180.546L172.134 175.11C174.653 171.289 176.426 167.026 177.36 162.546L184.368 161.886V148.278L177.372 147.6ZM159.972 155.064C159.972 158.707 158.892 162.268 156.868 165.297C154.844 168.327 151.967 170.687 148.601 172.082C145.235 173.476 141.532 173.841 137.958 173.13C134.385 172.419 131.103 170.665 128.527 168.089C125.951 165.513 124.197 162.23 123.486 158.657C122.775 155.084 123.14 151.381 124.534 148.015C125.928 144.649 128.289 141.772 131.318 139.748C134.347 137.724 137.909 136.644 141.552 136.644C143.973 136.643 146.37 137.119 148.607 138.046C150.844 138.972 152.876 140.331 154.587 142.043C156.298 143.756 157.655 145.789 158.58 148.026C159.505 150.263 159.98 152.661 159.978 155.082L159.972 155.064Z" fill="#F0F0F0"/>
<path d="M216.396 212.916L216.87 217.95H226.65L227.124 212.922C230.333 212.244 233.385 210.97 236.124 209.166L240.06 212.4L246.972 205.488L243.738 201.6C245.546 198.852 246.82 195.789 247.494 192.57L252.522 192.096V182.316L247.494 181.842C246.816 178.633 245.542 175.58 243.738 172.842L246.972 168.936L240.06 162L236.154 165.234C233.415 163.43 230.363 162.156 227.154 161.478L226.68 156.444H216.9L216.426 161.478C213.207 162.152 210.144 163.426 207.396 165.234L203.46 162L196.548 168.912L199.8 172.8C197.996 175.538 196.722 178.591 196.044 181.8L191.01 182.274V192.054L196.044 192.528C196.713 195.761 197.988 198.839 199.8 201.6L196.566 205.506L203.46 212.4L207.366 209.166C210.113 210.974 213.177 212.246 216.396 212.916ZM221.76 200.4C219.141 200.4 216.58 199.623 214.403 198.167C212.225 196.711 210.529 194.641 209.528 192.221C208.527 189.8 208.267 187.137 208.781 184.568C209.295 182 210.559 179.641 212.414 177.792C214.268 175.942 216.63 174.684 219.2 174.178C221.77 173.671 224.432 173.938 226.85 174.946C229.268 175.953 231.333 177.655 232.783 179.837C234.233 182.018 235.003 184.58 234.996 187.2C234.986 190.704 233.588 194.061 231.107 196.536C228.625 199.01 225.264 200.4 221.76 200.4Z" fill="#F0F0F0"/>
<path d="M164.484 281.4H176.124L176.688 275.4C180.521 274.598 184.168 273.081 187.44 270.93L192.09 274.776L200.316 266.55L196.47 261.9C198.621 258.628 200.138 254.981 200.94 251.148L206.94 250.584V238.944L200.94 238.38C200.14 234.547 198.623 230.899 196.47 227.628L200.316 222.978L192.09 214.746L187.44 218.598C184.17 216.443 180.522 214.927 176.688 214.128L176.124 208.128H164.484L163.92 214.128C160.086 214.927 156.438 216.443 153.168 218.598L148.518 214.746L140.286 222.978L144.138 227.628C141.985 230.899 140.468 234.547 139.668 238.38L133.668 238.944V250.584L139.668 251.148C140.468 254.979 141.985 258.625 144.138 261.894L140.286 266.55L148.518 274.776L153.168 270.93C156.44 273.081 160.087 274.598 163.92 275.4L164.484 281.4ZM170.304 260.532C167.188 260.532 164.141 259.608 161.55 257.877C158.959 256.145 156.94 253.685 155.747 250.805C154.555 247.926 154.243 244.758 154.851 241.702C155.459 238.646 156.959 235.838 159.163 233.635C161.366 231.431 164.174 229.931 167.23 229.323C170.286 228.715 173.454 229.027 176.334 230.219C179.213 231.412 181.673 233.431 183.405 236.022C185.136 238.613 186.06 241.66 186.06 244.776C186.054 248.951 184.391 252.952 181.437 255.902C178.483 258.851 174.479 260.508 170.304 260.508V260.532Z" fill="#F0F0F0"/>
<path d="M225.63 139.944C226.107 140.766 226.33 141.711 226.27 142.66C226.21 143.608 225.869 144.517 225.291 145.272C224.714 146.027 223.925 146.593 223.026 146.899C222.126 147.205 221.155 147.238 220.237 146.992C219.319 146.746 218.495 146.233 217.869 145.518C217.243 144.803 216.843 143.918 216.72 142.976C216.597 142.033 216.757 141.076 217.178 140.224C217.6 139.372 218.266 138.665 219.09 138.192C220.19 137.561 221.496 137.39 222.722 137.719C223.947 138.047 224.993 138.847 225.63 139.944Z" fill="#F0F0F0"/>
<path d="M220.278 141.918C220.422 142.176 220.722 142.164 221.082 142.074L220.536 141.126C220.2 141.402 220.14 141.684 220.278 141.918Z" fill="#E0E0E0"/>
<path d="M221.958 142.578L222.504 143.526C222.858 143.238 222.918 142.962 222.786 142.734C222.654 142.506 222.33 142.482 221.958 142.578Z" fill="#E0E0E0"/>
<path d="M219.438 138.798C218.737 139.202 218.171 139.805 217.812 140.531C217.453 141.257 217.318 142.072 217.423 142.875C217.528 143.678 217.869 144.431 218.402 145.04C218.935 145.649 219.637 146.086 220.419 146.296C221.201 146.506 222.027 146.479 222.794 146.22C223.561 145.96 224.233 145.478 224.726 144.836C225.219 144.194 225.51 143.42 225.563 142.612C225.616 141.805 225.429 140.999 225.024 140.298C224.756 139.833 224.399 139.424 223.973 139.097C223.547 138.769 223.061 138.529 222.542 138.39C222.023 138.25 221.482 138.215 220.949 138.285C220.417 138.355 219.903 138.529 219.438 138.798ZM222.84 144.102L223.182 144.702L222.744 144.954L222.402 144.354C221.926 144.615 221.382 144.724 220.842 144.666L220.8 144C221.245 144.057 221.697 143.984 222.102 143.79L221.502 142.728C220.83 142.926 220.08 143.1 219.654 142.356C219.342 141.81 219.462 141.108 220.254 140.556L219.906 139.956L220.344 139.704L220.686 140.304C221.079 140.102 221.516 139.999 221.958 140.004L222.048 140.67C221.693 140.665 221.341 140.737 221.016 140.88L221.616 141.96C222.288 141.762 223.044 141.576 223.47 142.314C223.758 142.836 223.626 143.538 222.84 144.102Z" fill="#E0E0E0"/>
<path d="M100.648 267.82C103.382 264.496 102.903 259.584 99.5785 256.85C96.2537 254.116 91.3421 254.595 88.6082 257.92C85.8743 261.245 86.3532 266.156 89.678 268.89C93.0029 271.624 97.9144 271.145 100.648 267.82Z" fill="#F0F0F0"/>
<path d="M93.8219 260.94C93.6719 261.396 94.0139 261.738 94.5179 262.08L95.0639 260.382C94.3499 260.268 93.9539 260.52 93.8219 260.94Z" fill="#E0E0E0"/>
<path d="M94.8661 263.688L94.326 265.374C95.058 265.494 95.454 265.266 95.586 264.852C95.718 264.438 95.4001 264.03 94.8661 263.688Z" fill="#E0E0E0"/>
<path d="M96.666 256.518C95.4127 256.115 94.0682 256.094 92.8026 256.455C91.5369 256.817 90.407 257.546 89.5557 258.55C88.7044 259.554 88.17 260.788 88.0201 262.096C87.8702 263.403 88.1116 264.726 88.7136 265.897C89.3157 267.067 90.2514 268.033 91.4024 268.672C92.5535 269.31 93.868 269.593 95.1799 269.485C96.4917 269.376 97.7418 268.881 98.7721 268.061C99.8024 267.242 100.567 266.136 100.968 264.882C101.506 263.202 101.355 261.378 100.548 259.81C99.7413 258.241 98.3451 257.057 96.666 256.518ZM93.99 266.4L93.648 267.468L92.868 267.216L93.204 266.16C92.371 265.866 91.6456 265.329 91.122 264.618L91.86 263.79C92.2806 264.385 92.861 264.849 93.534 265.128L94.134 263.22C93.156 262.62 92.13 261.912 92.556 260.586C92.868 259.608 93.846 258.99 95.382 259.32L95.73 258.24L96.516 258.492L96.174 259.554C96.8494 259.801 97.4519 260.213 97.926 260.754L97.224 261.594C96.8399 261.165 96.3697 260.821 95.844 260.586L95.244 262.512C96.222 263.112 97.266 263.814 96.84 265.14C96.522 266.136 95.538 266.742 93.99 266.4Z" fill="#E0E0E0"/>
<path d="M280.416 227.96C284.507 226.622 286.738 222.22 285.4 218.129C284.061 214.038 279.659 211.807 275.568 213.145C271.477 214.484 269.246 218.886 270.585 222.977C271.923 227.068 276.325 229.299 280.416 227.96Z" fill="#F0F0F0"/>
<path d="M276 219.876C276.246 220.29 276.732 220.26 277.32 220.11L276.402 218.574C275.874 219.036 275.796 219.498 276 219.876Z" fill="#E0E0E0"/>
<path d="M278.778 220.914L279.684 222.438C280.284 221.964 280.35 221.514 280.128 221.142C279.906 220.77 279.378 220.752 278.778 220.914Z" fill="#E0E0E0"/>
<path d="M274.59 214.8C273.46 215.474 272.555 216.468 271.99 217.656C271.425 218.845 271.225 220.174 271.415 221.476C271.605 222.778 272.177 223.994 273.058 224.971C273.939 225.948 275.09 226.642 276.366 226.965C277.642 227.288 278.984 227.225 280.224 226.785C281.464 226.345 282.546 225.547 283.333 224.493C284.119 223.438 284.576 222.174 284.644 220.859C284.712 219.545 284.389 218.241 283.716 217.11C282.811 215.594 281.342 214.5 279.631 214.066C277.92 213.633 276.107 213.897 274.59 214.8ZM280.248 223.356L280.818 224.322L280.116 224.742L279.546 223.788C278.773 224.219 277.889 224.407 277.008 224.328L276.876 223.23C277.601 223.308 278.333 223.179 278.988 222.858L277.962 221.136C276.87 221.472 275.658 221.772 274.962 220.572C274.44 219.696 274.62 218.55 275.886 217.62L275.286 216.648L275.994 216.228L276.564 217.182C277.196 216.84 277.903 216.662 278.622 216.666L278.79 217.746C278.213 217.75 277.642 217.875 277.116 218.112L278.154 219.852C279.252 219.516 280.47 219.192 281.184 220.392C281.706 221.286 281.514 222.432 280.248 223.374V223.356Z" fill="#E0E0E0"/>
<path d="M202.716 121.914C201.789 123.147 200.517 124.078 199.062 124.589C197.606 125.099 196.031 125.167 194.537 124.782C193.043 124.398 191.696 123.579 190.667 122.429C189.639 121.28 188.974 119.851 188.758 118.323C188.541 116.795 188.782 115.238 189.451 113.848C190.12 112.457 191.186 111.296 192.514 110.512C193.842 109.727 195.374 109.354 196.914 109.44C198.455 109.526 199.935 110.067 201.168 110.994C202.821 112.237 203.913 114.086 204.203 116.133C204.493 118.181 203.958 120.261 202.716 121.914Z" fill="#F0F0F0"/>
<path d="M196.344 115.152C196.056 115.536 196.266 115.974 196.626 116.46L197.7 115.032C197.064 114.69 196.608 114.798 196.344 115.152Z" fill="#E0E0E0"/>
<path d="M196.428 118.092L195.366 119.508C196.014 119.862 196.47 119.772 196.728 119.43C196.986 119.088 196.8 118.584 196.428 118.092Z" fill="#E0E0E0"/>
<path d="M200.484 111.906C199.432 111.115 198.169 110.654 196.855 110.581C195.541 110.508 194.235 110.826 193.102 111.495C191.969 112.165 191.06 113.155 190.489 114.341C189.919 115.527 189.713 116.855 189.898 118.158C190.082 119.461 190.649 120.68 191.526 121.661C192.404 122.642 193.552 123.34 194.827 123.669C196.101 123.997 197.444 123.94 198.686 123.505C199.928 123.069 201.013 122.276 201.804 121.224C202.329 120.525 202.712 119.73 202.93 118.884C203.148 118.038 203.197 117.157 203.074 116.292C202.951 115.426 202.66 114.594 202.215 113.841C201.771 113.089 201.183 112.431 200.484 111.906ZM194.706 120.378L194.034 121.278L193.374 120.786L194.046 119.892C193.353 119.345 192.842 118.6 192.582 117.756L193.548 117.216C193.755 117.911 194.152 118.534 194.694 119.016L195.894 117.414C195.168 116.532 194.43 115.524 195.294 114.414C195.894 113.598 197.034 113.334 198.378 114.15L199.056 113.244L199.716 113.742L199.044 114.63C199.6 115.085 200.034 115.673 200.304 116.34L199.368 116.904C199.144 116.372 198.813 115.892 198.396 115.494L197.196 117.114C197.922 117.996 198.678 119.01 197.844 120.114C197.19 120.948 196.062 121.2 194.706 120.378Z" fill="#E0E0E0"/>
<path d="M84.7799 146.55C85.6951 147.033 86.4462 147.777 86.9384 148.688C87.4306 149.598 87.6417 150.634 87.545 151.665C87.4483 152.695 87.0482 153.674 86.3952 154.477C85.7422 155.28 84.8657 155.871 83.8766 156.176C82.8875 156.481 81.8303 156.485 80.8386 156.189C79.8469 155.893 78.9653 155.309 78.3054 154.512C77.6455 153.715 77.2368 152.739 77.1312 151.71C77.0256 150.68 77.2277 149.643 77.7119 148.728C78.3608 147.502 79.4698 146.584 80.7951 146.176C82.1205 145.767 83.5537 145.902 84.7799 146.55Z" fill="#F0F0F0"/>
<path d="M81 151.482C81.288 151.638 81.552 151.452 81.84 151.158L80.748 150.6C80.592 151.056 80.712 151.344 81 151.482Z" fill="#E0E0E0"/>
<path d="M82.908 151.116L83.964 151.674C84.126 151.206 84.024 150.912 83.766 150.78C83.508 150.648 83.202 150.816 82.908 151.116Z" fill="#E0E0E0"/>
<path d="M78.384 149.082C77.9688 149.863 77.7948 150.75 77.8838 151.63C77.9728 152.51 78.3209 153.344 78.884 154.026C79.4471 154.708 80.2 155.208 81.0472 155.462C81.8945 155.716 82.798 155.713 83.6436 155.453C84.4891 155.193 85.2386 154.689 85.7971 154.003C86.3557 153.317 86.6982 152.481 86.7813 151.6C86.8644 150.719 86.6844 149.834 86.2641 149.056C85.8438 148.277 85.202 147.641 84.42 147.228C83.3734 146.675 82.1502 146.559 81.0186 146.907C79.887 147.255 78.9395 148.037 78.384 149.082ZM84.6 152.016L85.266 152.37L85.008 152.856L84.348 152.508C84.0559 153.026 83.6148 153.444 83.082 153.708L82.626 153.108C83.0682 152.897 83.4424 152.567 83.706 152.154L82.506 151.524C81.996 152.124 81.402 152.694 80.58 152.256C79.98 151.938 79.674 151.218 80.076 150.24L79.404 149.886L79.662 149.4L80.322 149.748C80.5663 149.332 80.9107 148.983 81.324 148.734L81.798 149.298C81.4783 149.507 81.2064 149.781 81 150.102L82.2 150.738C82.71 150.138 83.298 149.538 84.12 149.988C84.72 150.312 85.008 151.032 84.6 152.016Z" fill="#E0E0E0"/>
<path d="M178.53 193.584C179.4 194.045 180.113 194.754 180.58 195.621C181.047 196.487 181.247 197.473 181.155 198.453C181.062 199.433 180.681 200.364 180.059 201.127C179.438 201.891 178.604 202.453 177.663 202.743C176.722 203.033 175.717 203.037 174.773 202.756C173.83 202.475 172.991 201.92 172.363 201.162C171.734 200.404 171.345 199.477 171.243 198.498C171.142 197.518 171.333 196.531 171.792 195.66C172.41 194.491 173.467 193.616 174.731 193.227C175.995 192.838 177.361 192.966 178.53 193.584Z" fill="#F0F0F0"/>
<path d="M174.9 198.288C175.176 198.432 175.428 198.252 175.698 197.976L174.69 197.442C174.54 197.874 174.654 198.156 174.9 198.288Z" fill="#E0E0E0"/>
<path d="M176.748 197.934L177.75 198.468C177.906 198.018 177.804 197.742 177.564 197.616C177.324 197.49 177 197.646 176.748 197.934Z" fill="#E0E0E0"/>
<path d="M172.44 195.996C172.045 196.739 171.88 197.583 171.965 198.42C172.05 199.257 172.381 200.051 172.917 200.7C173.452 201.349 174.169 201.824 174.975 202.066C175.781 202.308 176.641 202.305 177.445 202.058C178.25 201.811 178.963 201.331 179.495 200.679C180.026 200.026 180.352 199.231 180.432 198.393C180.511 197.555 180.341 196.713 179.941 195.972C179.542 195.231 178.932 194.626 178.188 194.232C177.191 193.706 176.027 193.596 174.95 193.927C173.872 194.257 172.97 195.001 172.44 195.996ZM178.368 198.792L179.004 199.128L178.758 199.596L178.128 199.26C177.85 199.751 177.432 200.148 176.928 200.4L176.49 199.842C176.912 199.643 177.27 199.329 177.522 198.936L176.388 198.336C175.902 198.888 175.344 199.452 174.552 199.032C173.952 198.726 173.694 198.042 174.078 197.112L173.436 196.776L173.682 196.308L174.282 196.644C174.513 196.246 174.842 195.914 175.236 195.678L175.686 196.212C175.372 196.406 175.103 196.664 174.894 196.968L176.04 197.568C176.526 197.022 177.084 196.44 177.87 196.854C178.476 197.166 178.746 197.856 178.368 198.792Z" fill="#E0E0E0"/>
<path d="M252.21 257.91C251.52 260.046 250.212 261.93 248.452 263.323C246.692 264.717 244.559 265.558 242.321 265.739C240.084 265.921 237.842 265.436 235.881 264.344C233.919 263.253 232.324 261.605 231.299 259.608C230.273 257.611 229.862 255.355 230.118 253.125C230.374 250.894 231.285 248.79 232.736 247.077C234.187 245.364 236.113 244.12 238.271 243.501C240.429 242.882 242.722 242.916 244.86 243.6C246.283 244.055 247.602 244.787 248.742 245.754C249.882 246.72 250.82 247.901 251.503 249.23C252.186 250.56 252.6 252.01 252.721 253.5C252.842 254.989 252.669 256.488 252.21 257.91Z" fill="#F0F0F0"/>
<path d="M240.204 251.652C239.994 252.318 240.492 252.816 241.224 253.314L242.016 250.836C240.978 250.674 240.402 251.04 240.204 251.652Z" fill="#E0E0E0"/>
<path d="M241.734 255.654L240.942 258.114C242.004 258.288 242.592 257.952 242.784 257.358C242.976 256.764 242.49 256.158 241.734 255.654Z" fill="#E0E0E0"/>
<path d="M244.35 245.208C242.524 244.623 240.565 244.593 238.722 245.121C236.878 245.649 235.233 246.712 233.993 248.176C232.754 249.639 231.976 251.437 231.759 253.342C231.541 255.248 231.894 257.175 232.771 258.88C233.649 260.585 235.013 261.991 236.69 262.921C238.367 263.851 240.282 264.263 242.193 264.105C244.104 263.947 245.925 263.225 247.426 262.032C248.928 260.838 250.041 259.226 250.626 257.4C251.015 256.188 251.162 254.91 251.057 253.641C250.952 252.372 250.598 251.136 250.015 250.003C249.432 248.871 248.632 247.865 247.66 247.042C246.688 246.219 245.563 245.596 244.35 245.208ZM240.456 259.608L239.958 261.168L238.818 260.802L239.31 259.254C238.094 258.832 237.035 258.049 236.274 257.01L237.348 255.81C237.962 256.678 238.808 257.354 239.79 257.76L240.684 254.976C239.262 254.106 237.768 253.074 238.386 251.142C238.842 249.726 240.264 248.814 242.502 249.3L243.006 247.728L244.146 248.094L243.654 249.642C244.637 250.004 245.514 250.606 246.204 251.394L245.184 252.594C244.625 251.967 243.94 251.464 243.174 251.118L242.268 253.926C243.696 254.802 245.22 255.828 244.602 257.76C244.146 259.2 242.712 260.112 240.456 259.632V259.608Z" fill="#E0E0E0"/>
<path d="M81.0884 219.71C86.9985 217.608 90.0855 211.112 87.9833 205.202C85.8811 199.292 79.3859 196.205 73.4758 198.307C67.5656 200.41 64.4787 206.905 66.5809 212.815C68.683 218.725 75.1783 221.812 81.0884 219.71Z" fill="#F0F0F0"/>
<path d="M78.348 206.166C77.748 206.508 77.748 207.21 77.94 208.074L80.22 206.82C79.578 205.986 78.912 205.86 78.348 206.166Z" fill="#E0E0E0"/>
<path d="M76.704 210.12L74.436 211.368C75.09 212.226 75.744 212.382 76.296 212.076C76.848 211.77 76.908 211.008 76.704 210.12Z" fill="#E0E0E0"/>
<path d="M85.7999 204.336C84.876 202.656 83.4747 201.287 81.773 200.404C80.0713 199.52 78.1458 199.16 76.2399 199.371C74.3339 199.581 72.5332 200.352 71.0652 201.585C69.5973 202.819 68.5282 204.46 67.993 206.302C67.4578 208.143 67.4806 210.102 68.0585 211.93C68.6363 213.758 69.7434 215.374 71.2396 216.574C72.7358 217.773 74.554 218.502 76.4643 218.668C78.3747 218.834 80.2913 218.429 81.9719 217.506C84.2252 216.267 85.8942 214.183 86.612 211.714C87.3298 209.244 87.0377 206.591 85.7999 204.336ZM73.0499 212.136L71.6159 212.922L71.0159 211.872L72.4379 211.092C71.8487 209.947 71.6187 208.65 71.7779 207.372L73.3859 207.234C73.2329 208.287 73.3849 209.361 73.8239 210.33L76.3799 208.926C75.9479 207.312 75.5699 205.536 77.3519 204.558C78.6539 203.838 80.3159 204.162 81.6059 206.052L83.0519 205.26L83.6519 206.31L82.1999 207.09C82.6651 208.03 82.8878 209.072 82.8479 210.12L81.2699 210.3C81.2904 209.46 81.1372 208.625 80.8199 207.846L78.2339 209.268C78.6659 210.882 79.0739 212.676 77.2919 213.654C76.0019 214.374 74.3519 214.032 73.0379 212.136H73.0499Z" fill="#E0E0E0"/>
<path d="M180 307.536C244.249 307.536 296.334 304.495 296.334 300.744C296.334 296.993 244.249 293.952 180 293.952C115.751 293.952 63.666 296.993 63.666 300.744C63.666 304.495 115.751 307.536 180 307.536Z" fill="#F5F5F5"/>
<path d="M260.526 115.074H258.126C251.526 115.074 246.168 121.536 246.168 129.51C246.168 137.484 251.52 143.946 258.126 143.946H260.526C267.126 143.946 272.49 137.484 272.49 129.51C272.49 121.536 267.132 115.074 260.526 115.074Z" fill="#D75F26"/>
<path opacity="0.2" d="M260.526 115.074H258.126C251.526 115.074 246.168 121.536 246.168 129.51C246.168 137.484 251.52 143.946 258.126 143.946H260.526C267.126 143.946 272.49 137.484 272.49 129.51C272.49 121.536 267.132 115.074 260.526 115.074Z" fill="black"/>
<path d="M258.12 143.946C264.728 143.946 270.084 137.483 270.084 129.51C270.084 121.537 264.728 115.074 258.12 115.074C251.512 115.074 246.156 121.537 246.156 129.51C246.156 137.483 251.512 143.946 258.12 143.946Z" fill="#D75F26"/>
<path opacity="0.3" d="M258.12 141.834C263.76 141.834 268.332 136.316 268.332 129.51C268.332 122.704 263.76 117.186 258.12 117.186C252.48 117.186 247.908 122.704 247.908 129.51C247.908 136.316 252.48 141.834 258.12 141.834Z" fill="white"/>
<path d="M258.852 136.152V138.234H257.592V136.2C256.196 136.136 254.865 135.591 253.824 134.658L254.514 132.78C255.36 133.571 256.44 134.066 257.592 134.19V130.482C255.882 129.978 254.052 129.282 254.052 126.732C254.052 124.836 255.192 123.186 257.592 122.904V120.81H258.852V122.868C259.982 122.934 261.068 123.328 261.978 124.002L261.348 125.874C260.608 125.346 259.752 125.002 258.852 124.872V128.622C260.562 129.126 262.422 129.774 262.422 132.354C262.422 134.226 261.27 135.858 258.852 136.152ZM257.592 128.208V124.902C257.165 124.931 256.766 125.123 256.477 125.438C256.188 125.753 256.031 126.167 256.038 126.594C256.038 127.488 256.698 127.896 257.592 128.208ZM260.454 132.498C260.454 131.586 259.776 131.16 258.852 130.848V134.13C259.974 133.926 260.454 133.296 260.454 132.498Z" fill="#D75F26"/>
<path d="M277.02 153.126H244.2C243.462 153.126 242.754 153.419 242.231 153.941C241.709 154.464 241.416 155.172 241.416 155.91V300.6H279.816V155.91C279.817 155.543 279.745 155.18 279.605 154.841C279.464 154.502 279.258 154.194 278.998 153.935C278.738 153.677 278.43 153.472 278.09 153.333C277.751 153.194 277.387 153.124 277.02 153.126Z" fill="#D75F26"/>
<path opacity="0.1" d="M277.02 153.126H244.2C243.462 153.126 242.754 153.419 242.231 153.941C241.709 154.464 241.416 155.172 241.416 155.91V300.6H279.816V155.91C279.817 155.543 279.745 155.18 279.605 154.841C279.464 154.502 279.258 154.194 278.998 153.935C278.738 153.677 278.43 153.472 278.09 153.333C277.751 153.194 277.387 153.124 277.02 153.126Z" fill="white"/>
<path opacity="0.3" d="M244.2 153.126H275.244C275.982 153.126 276.69 153.419 277.213 153.941C277.735 154.463 278.028 155.172 278.028 155.91V300.6H241.428V155.91C241.428 155.174 241.72 154.467 242.239 153.946C242.759 153.424 243.464 153.129 244.2 153.126Z" fill="white"/>
<path d="M221.604 201.156H188.76C188.026 201.162 187.324 201.458 186.807 201.98C186.29 202.501 186 203.206 186 203.94V229.422H203.04C202.608 228.991 202.265 228.478 202.032 227.914C201.8 227.349 201.681 226.744 201.684 226.134C201.672 225.098 202.015 224.09 202.655 223.277C203.296 222.463 204.196 221.894 205.206 221.664C206.215 221.894 207.114 222.464 207.754 223.277C208.394 224.091 208.736 225.099 208.722 226.134C208.726 226.744 208.608 227.349 208.376 227.913C208.145 228.477 207.803 228.99 207.372 229.422H224.4V203.94C224.401 203.573 224.329 203.21 224.189 202.871C224.048 202.532 223.842 202.224 223.582 201.965C223.322 201.706 223.014 201.502 222.674 201.363C222.334 201.224 221.971 201.153 221.604 201.156Z" fill="#D75F26"/>
<path d="M209.148 257.07H207.348C207.779 257.501 208.121 258.014 208.352 258.579C208.584 259.143 208.702 259.748 208.698 260.358C208.712 261.393 208.37 262.401 207.73 263.214C207.09 264.028 206.191 264.597 205.182 264.828C204.172 264.597 203.272 264.028 202.631 263.215C201.991 262.402 201.648 261.393 201.66 260.358C201.657 259.747 201.776 259.142 202.008 258.578C202.241 258.014 202.584 257.501 203.016 257.07H186V300.6H224.4V257.07H209.148Z" fill="#D75F26"/>
<path opacity="0.1" d="M221.604 201.156H188.76C188.026 201.162 187.324 201.458 186.807 201.98C186.29 202.501 186 203.206 186 203.94V229.422H203.04C202.608 228.991 202.265 228.478 202.032 227.914C201.8 227.349 201.681 226.744 201.684 226.134C201.672 225.098 202.015 224.09 202.655 223.277C203.296 222.463 204.196 221.894 205.206 221.664C206.215 221.894 207.114 222.464 207.754 223.277C208.394 224.091 208.736 225.099 208.722 226.134C208.726 226.744 208.608 227.349 208.376 227.913C208.145 228.477 207.803 228.99 207.372 229.422H224.4V203.94C224.401 203.573 224.329 203.21 224.189 202.871C224.048 202.532 223.842 202.224 223.582 201.965C223.322 201.706 223.014 201.502 222.674 201.363C222.334 201.224 221.971 201.153 221.604 201.156Z" fill="white"/>
<path opacity="0.1" d="M209.148 257.07H207.348C207.779 257.501 208.121 258.014 208.352 258.579C208.584 259.143 208.702 259.748 208.698 260.358C208.712 261.393 208.37 262.401 207.73 263.214C207.09 264.028 206.191 264.597 205.182 264.828C204.172 264.597 203.272 264.028 202.631 263.215C201.991 262.402 201.648 261.393 201.66 260.358C201.657 259.747 201.776 259.142 202.008 258.578C202.241 258.014 202.584 257.501 203.016 257.07H186V300.6H224.4V257.07H209.148Z" fill="white"/>
<path opacity="0.3" d="M207.348 257.07C207.779 257.501 208.121 258.014 208.352 258.579C208.584 259.143 208.702 259.748 208.698 260.358C208.72 260.952 208.622 261.544 208.41 262.099C208.197 262.655 207.875 263.161 207.463 263.589C207.05 264.017 206.556 264.358 206.009 264.59C205.462 264.823 204.873 264.943 204.279 264.943C203.685 264.943 203.096 264.823 202.549 264.59C202.002 264.358 201.508 264.017 201.095 263.589C200.683 263.161 200.361 262.655 200.148 262.099C199.936 261.544 199.838 260.952 199.86 260.358C199.857 259.747 199.976 259.142 200.208 258.578C200.441 258.014 200.784 257.501 201.216 257.07H186V300.6H222.6V257.07H207.348Z" fill="white"/>
<path opacity="0.3" d="M186 203.94V229.422H201.24C200.808 228.991 200.465 228.479 200.232 227.914C200 227.35 199.881 226.745 199.884 226.134C199.862 225.54 199.96 224.948 200.172 224.393C200.385 223.837 200.707 223.331 201.119 222.903C201.532 222.475 202.026 222.134 202.573 221.902C203.12 221.669 203.709 221.549 204.303 221.549C204.897 221.549 205.486 221.669 206.033 221.902C206.58 222.134 207.074 222.475 207.487 222.903C207.899 223.331 208.221 223.837 208.434 224.393C208.646 224.948 208.744 225.54 208.722 226.134C208.726 226.744 208.608 227.349 208.376 227.913C208.145 228.478 207.803 228.991 207.372 229.422H222.6V203.94C222.601 203.575 222.53 203.213 222.39 202.875C222.251 202.538 222.046 202.231 221.788 201.972C221.53 201.713 221.224 201.508 220.886 201.368C220.549 201.228 220.187 201.156 219.822 201.156H188.76C188.026 201.163 187.324 201.459 186.807 201.98C186.29 202.502 186 203.206 186 203.94Z" fill="white"/>
<path d="M139.092 145.32H123.84C123.223 145.319 122.613 145.44 122.043 145.675C121.473 145.911 120.955 146.256 120.518 146.692C120.082 147.128 119.736 147.645 119.5 148.215C119.264 148.785 119.142 149.395 119.142 150.012V165.414C119.142 166.659 119.636 167.853 120.516 168.734C121.396 169.615 122.589 170.11 123.834 170.112H129.87L131.466 174.312L133.056 170.112H139.092C140.337 170.11 141.53 169.615 142.41 168.734C143.29 167.853 143.784 166.659 143.784 165.414V150C143.781 148.758 143.285 147.567 142.405 146.69C141.526 145.813 140.334 145.32 139.092 145.32Z" fill="#D75F26"/>
<path opacity="0.4" d="M139.092 145.32H123.84C123.223 145.319 122.613 145.44 122.043 145.675C121.473 145.911 120.955 146.256 120.518 146.692C120.082 147.128 119.736 147.645 119.5 148.215C119.264 148.785 119.142 149.395 119.142 150.012V165.414C119.142 166.659 119.636 167.853 120.516 168.734C121.396 169.615 122.589 170.11 123.834 170.112H129.87L131.466 174.312L133.056 170.112H139.092C140.337 170.11 141.53 169.615 142.41 168.734C143.29 167.853 143.784 166.659 143.784 165.414V150C143.781 148.758 143.285 147.567 142.405 146.69C141.526 145.813 140.334 145.32 139.092 145.32Z" fill="white"/>
<path d="M131.542 167.325C132.944 167.314 134.075 166.634 134.069 165.806C134.063 164.978 132.922 164.314 131.52 164.325C130.118 164.335 128.987 165.015 128.993 165.843C128.999 166.672 130.14 167.335 131.542 167.325Z" fill="#3E5543"/>
<path opacity="0.4" d="M131.542 167.325C132.944 167.314 134.075 166.634 134.069 165.806C134.063 164.978 132.922 164.314 131.52 164.325C130.118 164.335 128.987 165.015 128.993 165.843C128.999 166.672 130.14 167.335 131.542 167.325Z" fill="white"/>
<path d="M135.15 163.044C135.285 162.912 135.364 162.734 135.372 162.546C135.372 161.736 133.632 161.088 131.502 161.106C129.372 161.124 127.65 161.79 127.656 162.606C127.666 162.793 127.748 162.969 127.884 163.098C127.846 163.179 127.826 163.267 127.824 163.356C127.828 163.448 127.851 163.539 127.891 163.623C127.932 163.706 127.988 163.781 128.058 163.842C128.016 163.924 127.993 164.014 127.992 164.106C127.998 164.199 128.022 164.29 128.063 164.373C128.104 164.456 128.162 164.531 128.232 164.592C128.184 164.674 128.16 164.767 128.16 164.862C128.166 164.954 128.191 165.045 128.234 165.127C128.276 165.21 128.335 165.283 128.406 165.342C128.357 165.424 128.33 165.517 128.328 165.612C128.328 166.29 129.774 166.812 131.544 166.812C133.314 166.812 134.748 166.212 134.742 165.564C134.74 165.468 134.711 165.374 134.658 165.294C134.73 165.235 134.788 165.162 134.829 165.08C134.871 164.997 134.894 164.906 134.898 164.814C134.899 164.718 134.872 164.624 134.82 164.544C134.932 164.46 135.011 164.34 135.044 164.204C135.077 164.068 135.061 163.925 135 163.8C135.136 163.671 135.218 163.495 135.228 163.308C135.223 163.215 135.196 163.125 135.15 163.044Z" fill="#3E5543"/>
<path d="M138.294 155.808C138.289 154.654 137.993 153.52 137.431 152.512C136.87 151.504 136.063 150.655 135.084 150.044C134.106 149.432 132.988 149.079 131.836 149.016C130.684 148.954 129.535 149.184 128.497 149.686C127.458 150.188 126.563 150.944 125.896 151.886C125.229 152.827 124.811 153.922 124.681 155.068C124.552 156.214 124.715 157.375 125.155 158.441C125.596 159.508 126.299 160.445 127.2 161.166C127.345 161.281 127.459 161.43 127.533 161.599C127.607 161.768 127.639 161.953 127.626 162.138C127.623 162.155 127.623 162.174 127.626 162.192C127.626 163.014 129.39 163.674 131.556 163.656C133.722 163.638 135.468 162.96 135.462 162.132V162.078C135.446 161.893 135.475 161.708 135.547 161.537C135.62 161.367 135.732 161.216 135.876 161.1C136.644 160.45 137.259 159.639 137.677 158.724C138.095 157.809 138.306 156.813 138.294 155.808Z" fill="#D75F26"/>
<path opacity="0.9" d="M138.294 155.808C138.289 154.654 137.993 153.52 137.431 152.512C136.87 151.504 136.063 150.655 135.084 150.044C134.106 149.432 132.988 149.079 131.836 149.016C130.684 148.954 129.535 149.184 128.497 149.686C127.458 150.188 126.563 150.944 125.896 151.886C125.229 152.827 124.811 153.922 124.681 155.068C124.552 156.214 124.715 157.375 125.155 158.441C125.596 159.508 126.299 160.445 127.2 161.166C127.345 161.281 127.459 161.43 127.533 161.599C127.607 161.768 127.639 161.953 127.626 162.138C127.623 162.155 127.623 162.174 127.626 162.192C127.626 163.014 129.39 163.674 131.556 163.656C133.722 163.638 135.468 162.96 135.462 162.132V162.078C135.446 161.893 135.475 161.708 135.547 161.537C135.62 161.367 135.732 161.216 135.876 161.1C136.644 160.45 137.259 159.639 137.677 158.724C138.095 157.809 138.306 156.813 138.294 155.808Z" fill="white"/>
<g opacity="0.2">
<path d="M130.11 162.714C130.045 162.714 129.982 162.688 129.936 162.642C129.89 162.596 129.864 162.533 129.864 162.468C129.864 160.116 127.938 158.316 127.92 158.298C127.886 158.264 127.863 158.221 127.853 158.173C127.843 158.126 127.847 158.077 127.865 158.032C127.883 157.988 127.914 157.949 127.953 157.922C127.993 157.894 128.04 157.879 128.088 157.878H129.21L129.552 157.062C129.568 157.019 129.597 156.982 129.634 156.955C129.672 156.929 129.716 156.913 129.762 156.912C129.808 156.908 129.855 156.918 129.895 156.94C129.936 156.963 129.969 156.997 129.99 157.038L130.632 158.196L131.232 157.026C131.255 156.987 131.288 156.955 131.327 156.932C131.365 156.909 131.409 156.896 131.454 156.894C131.499 156.897 131.542 156.911 131.579 156.936C131.617 156.96 131.648 156.993 131.67 157.032L132.306 158.34L132.906 157.026C132.926 156.984 132.958 156.949 132.997 156.923C133.036 156.898 133.081 156.884 133.128 156.882C133.175 156.883 133.221 156.898 133.261 156.925C133.3 156.951 133.331 156.988 133.35 157.032L133.704 157.848H134.826C134.879 157.848 134.931 157.866 134.973 157.899C135.015 157.931 135.046 157.977 135.06 158.028C135.074 158.079 135.072 158.134 135.052 158.184C135.033 158.234 134.998 158.276 134.952 158.304C133.35 159.252 132.9 162.474 132.894 162.504C132.881 162.564 132.845 162.618 132.795 162.653C132.744 162.689 132.682 162.704 132.62 162.695C132.559 162.687 132.503 162.656 132.464 162.608C132.424 162.56 132.404 162.5 132.408 162.438C132.408 162.312 132.792 159.69 134.124 158.346H133.524C133.476 158.347 133.428 158.335 133.388 158.309C133.347 158.283 133.315 158.246 133.296 158.202L133.092 157.734L132.492 159.024C132.472 159.065 132.44 159.1 132.401 159.125C132.362 159.149 132.316 159.162 132.27 159.162C132.224 159.161 132.179 159.147 132.14 159.123C132.101 159.099 132.069 159.065 132.048 159.024L131.394 157.692L130.794 158.838C130.772 158.876 130.741 158.908 130.703 158.93C130.665 158.952 130.622 158.964 130.578 158.964C130.488 158.964 130.404 158.916 130.362 158.838L129.762 157.728L129.558 158.226C129.538 158.27 129.506 158.308 129.466 158.334C129.426 158.361 129.378 158.375 129.33 158.376H128.61C129.634 159.508 130.234 160.961 130.308 162.486C130.308 162.55 130.283 162.612 130.238 162.658C130.193 162.704 130.132 162.73 130.068 162.732L130.11 162.714Z" fill="black"/>
</g>
<path d="M110.772 288.21H77.9341C77.5677 288.209 77.2049 288.281 76.8663 288.421C76.5278 288.561 76.2203 288.766 75.9616 289.026C75.7028 289.285 75.4979 289.593 75.3586 289.932C75.2194 290.271 75.1485 290.634 75.1501 291V300.6H113.55V291C113.552 290.634 113.481 290.272 113.342 289.933C113.203 289.595 112.999 289.287 112.741 289.028C112.483 288.769 112.176 288.563 111.838 288.423C111.5 288.282 111.138 288.21 110.772 288.21Z" fill="#D75F26"/>
<path opacity="0.1" d="M110.772 288.21H77.9341C77.5677 288.209 77.2049 288.281 76.8663 288.421C76.5278 288.561 76.2203 288.766 75.9616 289.026C75.7028 289.285 75.4979 289.593 75.3586 289.932C75.2194 290.271 75.1485 290.634 75.1501 291V300.6H113.55V291C113.552 290.634 113.481 290.272 113.342 289.933C113.203 289.595 112.999 289.287 112.741 289.028C112.483 288.769 112.176 288.563 111.838 288.423C111.5 288.282 111.138 288.21 110.772 288.21Z" fill="white"/>
<path opacity="0.3" d="M77.934 288.21H108.978C109.716 288.21 110.424 288.503 110.947 289.025C111.469 289.547 111.762 290.256 111.762 290.994V300.6H75.162V291C75.1604 290.263 75.4514 289.555 75.971 289.032C76.4907 288.509 77.1967 288.213 77.934 288.21Z" fill="white"/>
<path d="M166.2 258.54H133.344C132.979 258.54 132.617 258.612 132.28 258.752C131.942 258.892 131.636 259.097 131.378 259.356C131.12 259.614 130.915 259.921 130.776 260.259C130.637 260.597 130.565 260.959 130.566 261.324V300.6H168.966V261.3C168.96 260.569 168.666 259.87 168.149 259.353C167.631 258.837 166.931 258.545 166.2 258.54Z" fill="#D75F26"/>
<path opacity="0.1" d="M166.2 258.54H133.344C132.979 258.54 132.617 258.612 132.28 258.752C131.942 258.892 131.636 259.097 131.378 259.356C131.12 259.614 130.915 259.921 130.776 260.259C130.637 260.597 130.565 260.959 130.566 261.324V300.6H168.966V261.3C168.96 260.569 168.666 259.87 168.149 259.353C167.631 258.837 166.931 258.545 166.2 258.54Z" fill="white"/>
<path opacity="0.3" d="M133.344 258.54H164.4C165.138 258.54 165.847 258.833 166.369 259.355C166.891 259.878 167.184 260.586 167.184 261.324V300.6H130.584V261.3C130.59 260.57 130.883 259.872 131.399 259.355C131.916 258.839 132.614 258.546 133.344 258.54Z" fill="white"/>
<path d="M140.946 203.868C143.214 205.29 147.486 213.84 147.486 213.84L143.724 216.756L138.6 210.972L140.946 203.868Z" fill="#3E5543"/>
<path opacity="0.4" d="M147.486 213.84L143.724 216.756L140.892 213.6L138.6 210.972L139.44 208.458L140.976 203.868C143.214 205.29 147.486 213.84 147.486 213.84Z" fill="white"/>
<path opacity="0.2" d="M140.892 213.6L138.6 210.972L139.44 208.458C140.161 210.096 140.65 211.827 140.892 213.6Z" fill="black"/>
<path d="M136.662 231.72L121.116 229.464L122.784 212.484L138.564 214.212L136.662 231.72Z" fill="#3E5543"/>
<path opacity="0.3" d="M136.662 231.72L121.116 229.464L122.784 212.484L138.564 214.212L136.662 231.72Z" fill="white"/>
<path d="M114.528 256.962L126.75 257.808L126.474 253.062L113.268 254.412" fill="#FFC2BC"/>
<path d="M111.462 252.654L111.276 253.32L112.044 253.734C111.165 254.705 110.423 255.791 109.836 256.962C109.235 258.297 108.897 259.735 108.84 261.198C108.84 261.198 109.476 262.332 110.94 259.89C111.01 259.772 111.093 259.661 111.186 259.56C112.254 258.36 115.056 256.968 115.056 256.968L115.932 253.92C115.816 253.788 115.692 253.664 115.56 253.548C115.025 253.037 114.36 252.683 113.637 252.525C112.914 252.367 112.161 252.412 111.462 252.654Z" fill="#3E5543"/>
<path d="M115.56 253.548C115.89 254.082 113.4 255.348 112.344 256.5C111.408 257.526 110.76 258.792 111.192 259.566C112.26 258.366 115.776 256.95 115.776 256.95L116.478 254.502C116.478 254.502 115.8 253.8 115.56 253.548Z" fill="#FFC2BC"/>
<path d="M133.746 222.93L135.468 230.88C135.468 230.88 151.29 246.216 151.224 252.18C151.224 253.416 152.484 257.172 142.866 258.342C138.012 258.942 118.416 257.49 118.416 257.49V253.2C118.416 253.2 132.018 251.106 139.32 250.968L123.198 236.604L117.762 229.686L121.962 220.02L133.746 222.93Z" fill="#3E5543"/>
<path opacity="0.2" d="M142.866 258.342C140.368 258.517 137.861 258.541 135.36 258.414C127.944 258.192 118.416 257.49 118.416 257.49V253.2C118.416 253.2 127.896 251.742 135.276 251.178C136.74 251.07 138.114 250.992 139.32 250.968L133.83 246.078L123.198 236.604L121.116 233.952L117.762 229.686L121.962 220.02L133.764 222.942L135.486 230.892C135.486 230.892 151.308 246.228 151.242 252.192C151.2 253.416 152.484 257.172 142.866 258.342Z" fill="white"/>
<path opacity="0.2" d="M123.198 236.592L121.116 233.94L125.094 231.48C125.094 231.48 130.278 236.13 133.83 246.066L123.198 236.592Z" fill="black"/>
<path opacity="0.2" d="M135.36 258.414C127.944 258.192 118.416 257.49 118.416 257.49V253.2C118.416 253.2 127.896 251.742 135.276 251.178C135.639 253.574 135.668 256.009 135.36 258.414Z" fill="black"/>
<path d="M101.292 287.892H101.982L102.198 287.046L104.448 288.144L110.22 288.312C110.22 288.312 111.162 287.418 108.42 286.602C108.286 286.559 108.155 286.504 108.03 286.44C106.584 285.708 104.568 283.326 104.568 283.326L101.4 283.236C100.934 283.914 100.674 284.713 100.651 285.536C100.629 286.359 100.845 287.171 101.274 287.874L101.292 287.892Z" fill="#3E5543"/>
<path d="M101.148 283.704C101.58 283.248 103.422 285.354 104.796 286.104C105.996 286.758 107.412 287.076 108.048 286.464C106.602 285.732 104.388 282.666 104.388 282.666L101.838 282.588C101.838 282.588 101.304 283.41 101.148 283.704Z" fill="#FFC2BC"/>
<path d="M104.586 283.344L113.352 274.794L109.632 271.836L101.838 282.582" fill="#FFC2BC"/>
<path d="M132.9 254.4C131.844 247.26 129.684 238.098 127.884 231L127.074 222L118.416 220.506C118.416 220.506 114.216 227.94 116.154 234.96C117.642 240.42 120.954 247.056 125.316 254.862C115.794 262.446 107.958 272.226 103.512 278.904C103.87 279.511 104.324 280.056 104.856 280.518C105.467 281.108 106.191 281.568 106.986 281.868C113.976 275.184 123.546 266.868 130.29 260.562C132.546 258.528 133.464 256.836 132.9 254.4Z" fill="#3E5543"/>
<path opacity="0.2" d="M132.9 254.4C131.844 247.26 129.684 238.098 127.884 231L127.074 222L118.416 220.506C118.416 220.506 114.216 227.94 116.154 234.96C117.642 240.42 120.954 247.056 125.316 254.862C115.794 262.446 107.958 272.226 103.512 278.904C103.87 279.511 104.324 280.056 104.856 280.518C105.467 281.108 106.191 281.568 106.986 281.868C113.976 275.184 123.546 266.868 130.29 260.562C132.546 258.528 133.464 256.836 132.9 254.4Z" fill="white"/>
<path d="M140.946 203.868C140.946 203.868 139.626 214.518 133.746 222.93C133.746 222.93 121.206 221.352 118.416 220.53C120.15 215.394 121.188 211.962 121.908 202.326C122.082 200.004 124.188 198.666 126.486 199.08C128.747 199.234 130.98 199.678 133.128 200.4C135.8 201.401 138.41 202.559 140.946 203.868Z" fill="#D75F26"/>
<path opacity="0.8" d="M140.946 203.868C140.552 206.53 139.938 209.155 139.11 211.716C137.887 215.699 136.079 219.478 133.746 222.93C133.746 222.93 121.206 221.352 118.41 220.53C118.74 219.564 119.046 218.658 119.322 217.758C120.284 214.709 120.951 211.575 121.314 208.398C121.512 206.898 121.674 205.2 121.842 203.238C121.842 202.944 121.884 202.638 121.908 202.332C122.082 200.004 124.188 198.666 126.486 199.08C126.81 199.14 127.5 199.152 128.586 199.308C128.688 199.308 128.784 199.308 128.88 199.344C130.321 199.577 131.742 199.925 133.128 200.382C133.824 200.604 134.646 200.928 135.528 201.294C138.108 202.41 140.946 203.868 140.946 203.868Z" fill="white"/>
<path d="M128.334 211.002C128.178 212.328 127.998 213.738 127.764 215.238C127.728 215.454 127.704 215.574 127.704 215.574C127.464 217.098 127.17 218.706 126.822 220.374C126.052 224.119 125.08 227.821 123.912 231.462L114.276 228.702C114.276 228.702 118.89 217.302 120.006 213.54C120.134 213.106 120.238 212.665 120.318 212.22C120.726 210.06 120.882 207.216 121.122 204.81C121.326 202.77 121.596 201.036 122.13 200.292C123.102 198.942 126.33 199.092 127.944 199.224H128.004C128.274 199.224 128.496 199.278 128.646 199.302H128.88C129.005 203.21 128.823 207.122 128.334 211.002Z" fill="#3E5543"/>
<path d="M135.504 201.306C135.504 201.306 138.81 208.458 135.954 232.206L138.018 231.654L139.2 215.736C139.2 215.736 140.952 206.958 140.964 203.868C140.946 203.868 136.926 201.402 135.504 201.306Z" fill="#3E5543"/>
<path opacity="0.4" d="M128.334 211.002C128.178 212.328 127.998 213.738 127.764 215.238C127.728 215.454 127.704 215.574 127.704 215.574C127.464 217.098 127.17 218.706 126.822 220.374C126.052 224.119 125.08 227.821 123.912 231.462L114.276 228.702C114.276 228.702 118.89 217.302 120.006 213.54C120.134 213.106 120.238 212.665 120.318 212.22C120.726 210.06 120.882 207.216 121.122 204.81C121.326 202.77 121.596 201.036 122.13 200.292C123.102 198.942 126.33 199.092 127.944 199.224H128.004C128.274 199.224 128.496 199.278 128.646 199.302H128.88C129.005 203.21 128.823 207.122 128.334 211.002Z" fill="white"/>
<path opacity="0.4" d="M135.504 201.306C135.504 201.306 138.81 208.458 135.954 232.206L138.018 231.654L139.2 215.736C139.2 215.736 140.952 206.958 140.964 203.868C140.946 203.868 136.926 201.402 135.504 201.306Z" fill="white"/>
<path d="M128.4 211.2C128.148 213.102 127.89 214.62 127.8 215.268C127.764 215.484 127.74 215.604 127.74 215.604L126.252 206.4L125.808 203.568L127.944 204.072L124.8 201.306L127.944 199.242H128.004L128.646 199.32H128.88C129.402 202.326 128.892 207.474 128.4 211.2Z" fill="#3E5543"/>
<path d="M135.504 201.306L135.078 200.742C135.078 200.742 138.078 202.644 139.236 204.942L137.4 205.728L138.894 206.262L137.136 216.312C137.136 216.312 136.536 205.164 135.534 201.708" fill="#3E5543"/>
<path opacity="0.2" d="M128.4 211.2C128.148 213.102 127.89 214.62 127.8 215.268C127.764 215.484 127.74 215.604 127.74 215.604L126.252 206.4L125.808 203.568L127.944 204.072L124.8 201.306L127.944 199.242H128.004L128.646 199.32H128.88C129.402 202.326 128.892 207.474 128.4 211.2Z" fill="white"/>
<path opacity="0.2" d="M135.504 201.306L135.078 200.742C135.078 200.742 138.078 202.644 139.236 204.942L137.4 205.728L138.894 206.262L137.136 216.312C137.136 216.312 136.536 205.164 135.534 201.708" fill="white"/>
<path opacity="0.2" d="M128.4 211.2C128.148 213.102 127.89 214.62 127.8 215.268C127.764 215.484 127.74 215.604 127.74 215.604C127.5 217.128 127.206 218.736 126.858 220.404C124.038 219.534 121.824 215.694 120.354 212.25C120.762 210.09 120.918 207.246 121.158 204.84C122.568 204.24 124.158 203.892 125.094 204.672C125.58 205.174 125.985 205.749 126.294 206.376C127.104 207.865 127.8 209.414 128.376 211.008L128.4 211.2Z" fill="black"/>
<path d="M127.8 204.6C127.8 204.6 126.336 196.26 132.936 198.996C137.1 200.718 137.136 206.928 137.136 206.928L135.294 205.038C134.769 206.865 134.111 208.652 133.326 210.384C131.751 208.412 130.605 206.134 129.96 203.694L127.8 204.6Z" fill="#D75F26"/>
<path opacity="0.7" d="M127.8 204.6C127.8 204.6 126.336 196.26 132.936 198.996C137.1 200.718 137.136 206.928 137.136 206.928L135.294 205.038C134.769 206.865 134.111 208.652 133.326 210.384C131.751 208.412 130.605 206.134 129.96 203.694L127.8 204.6Z" fill="white"/>
<path d="M134.778 202.602C134.988 205.092 133.296 210.24 133.296 210.24C130.734 207.738 129.93 199.68 129.93 199.68C130.686 199.596 131.034 198.294 131.196 197.04C131.292 196.255 131.338 195.466 131.334 194.676L135.462 196.08C134.84 197.44 134.479 198.906 134.4 200.4C134.377 200.841 134.413 201.283 134.508 201.714C134.582 202.014 134.672 202.311 134.778 202.602Z" fill="#FFC2BC"/>
<path opacity="0.2" d="M135.462 196.08C134.84 197.441 134.479 198.906 134.4 200.4C133.01 199.636 131.886 198.466 131.178 197.046C131.274 196.262 131.32 195.472 131.316 194.682L135.462 196.08Z" fill="black"/>
<path d="M128.604 185.676C128.604 185.676 127.404 183.162 124.83 184.254C122.256 185.346 122.376 190.716 126.576 189.054C130.776 187.392 128.604 185.676 128.604 185.676Z" fill="#3E5543"/>
<path d="M130.11 185.466C130.11 185.466 128.652 184.836 127.11 186.63C125.568 188.424 126.618 190.512 127.02 190.29C127.422 190.068 130.314 186.6 130.11 185.466Z" fill="#D75F26"/>
<path d="M133.338 196.332C133.338 196.332 129.042 198.798 126.642 192.612C124.242 186.426 133.11 181.212 135.888 186.48C138.666 191.748 133.338 196.332 133.338 196.332Z" fill="#3E5543"/>
<path d="M128.4 191.19C129.6 194.724 130.044 196.242 132.366 197.688C135.864 199.86 139.95 197.85 139.824 194.088C139.71 190.698 137.754 185.49 133.824 184.83C132.989 184.668 132.127 184.73 131.324 185.011C130.521 185.291 129.808 185.78 129.256 186.427C128.704 187.074 128.334 187.856 128.184 188.693C128.033 189.53 128.108 190.391 128.4 191.19Z" fill="#FFC2BC"/>
<path d="M131.118 188.118C129.486 190.992 134.034 193.374 129.918 193.794C125.802 194.214 126.606 188.16 128.862 186.486C131.118 184.812 131.118 188.118 131.118 188.118Z" fill="#3E5543"/>
<path d="M128.856 186.528C129.726 188.928 130.218 189.528 132.324 188.526C131.924 188.076 131.693 187.501 131.67 186.9C131.972 187.473 132.487 187.904 133.104 188.1C133.657 187.762 134.244 187.484 134.856 187.272C134.688 186.945 134.598 186.583 134.592 186.216C134.824 186.603 135.164 186.913 135.57 187.11C136.249 187.018 136.938 187.039 137.61 187.17C137.22 184.542 132.39 182.4 128.856 186.528Z" fill="#3E5543"/>
<path d="M134.214 190.968C134.304 191.268 134.532 191.478 134.73 191.43C134.928 191.382 135.012 191.112 134.922 190.83C134.832 190.548 134.604 190.32 134.406 190.362C134.208 190.404 134.13 190.662 134.214 190.968Z" fill="#3E5543"/>
<path d="M137.898 190.2C137.982 190.5 138.216 190.71 138.408 190.662C138.6 190.614 138.69 190.344 138.6 190.062C138.51 189.78 138.282 189.552 138.09 189.594C137.898 189.636 137.808 189.906 137.898 190.2Z" fill="#3E5543"/>
<path d="M138 189.6L138.654 189.234C138.654 189.234 138.462 189.9 138 189.6Z" fill="#3E5543"/>
<path d="M137.022 190.926C137.489 191.558 138.035 192.127 138.648 192.618C138.525 192.761 138.37 192.874 138.197 192.949C138.023 193.024 137.835 193.058 137.646 193.05L137.022 190.926Z" fill="#D4827D"/>
<path d="M136.26 194.544C136.432 194.536 136.602 194.513 136.77 194.478C136.781 194.475 136.792 194.47 136.801 194.463C136.81 194.456 136.818 194.447 136.824 194.437C136.829 194.427 136.833 194.416 136.834 194.404C136.835 194.393 136.834 194.381 136.83 194.37C136.828 194.357 136.823 194.345 136.816 194.335C136.809 194.324 136.8 194.315 136.789 194.308C136.779 194.301 136.766 194.297 136.754 194.295C136.741 194.293 136.728 194.294 136.716 194.298C136.336 194.382 135.941 194.38 135.561 194.293C135.182 194.206 134.826 194.035 134.52 193.794C134.513 193.782 134.503 193.772 134.491 193.765C134.48 193.757 134.467 193.753 134.453 193.751C134.439 193.75 134.425 193.752 134.412 193.757C134.399 193.761 134.388 193.769 134.378 193.779C134.369 193.789 134.362 193.801 134.358 193.814C134.353 193.827 134.352 193.841 134.354 193.855C134.357 193.868 134.362 193.881 134.37 193.893C134.378 193.904 134.388 193.913 134.4 193.92C134.923 194.349 135.585 194.571 136.26 194.544Z" fill="#3E5543"/>
<path d="M128.526 194.748C128.721 195.047 128.977 195.301 129.277 195.496C129.576 195.69 129.913 195.819 130.266 195.876C131.148 195.978 131.37 194.958 130.95 194.028C130.572 193.194 129.66 192.138 128.862 192.468C128.064 192.798 127.98 193.956 128.526 194.748Z" fill="#FFC2BC"/>
<path d="M132.942 189.462C132.966 189.459 132.989 189.451 133.01 189.439C133.031 189.426 133.048 189.41 133.062 189.39C133.185 189.207 133.35 189.057 133.543 188.953C133.736 188.848 133.952 188.792 134.172 188.79C134.195 188.791 134.218 188.788 134.24 188.781C134.262 188.773 134.282 188.761 134.299 188.745C134.316 188.729 134.329 188.71 134.338 188.689C134.347 188.668 134.352 188.645 134.352 188.622C134.349 188.573 134.329 188.526 134.295 188.491C134.261 188.456 134.215 188.434 134.166 188.43C133.885 188.43 133.608 188.5 133.361 188.634C133.113 188.768 132.904 188.962 132.75 189.198C132.737 189.219 132.728 189.242 132.724 189.266C132.72 189.29 132.72 189.315 132.726 189.339C132.732 189.363 132.742 189.386 132.756 189.406C132.771 189.426 132.789 189.443 132.81 189.456C132.852 189.471 132.898 189.474 132.942 189.462Z" fill="#3E5543"/>
<path d="M138.474 188.322C138.52 188.32 138.563 188.301 138.594 188.268C138.624 188.23 138.637 188.181 138.632 188.133C138.626 188.085 138.602 188.041 138.564 188.01C138.346 187.811 138.084 187.666 137.8 187.586C137.515 187.505 137.216 187.493 136.926 187.548C136.903 187.554 136.882 187.565 136.864 187.58C136.845 187.594 136.83 187.613 136.82 187.634C136.809 187.655 136.803 187.678 136.801 187.701C136.8 187.725 136.804 187.748 136.812 187.77C136.827 187.816 136.859 187.854 136.901 187.878C136.944 187.901 136.993 187.908 137.04 187.896C137.271 187.858 137.507 187.873 137.731 187.938C137.955 188.004 138.162 188.118 138.336 188.274C138.354 188.291 138.376 188.304 138.4 188.313C138.424 188.321 138.449 188.324 138.474 188.322Z" fill="#3E5543"/>
<path d="M134.328 190.38L134.982 190.014C134.982 190.014 134.778 190.656 134.328 190.38Z" fill="#3E5543"/>
<path d="M164.112 246.822L174.696 221.28L160.848 215.544C161.543 215.245 162.156 214.783 162.634 214.197C163.112 213.611 163.442 212.919 163.596 212.178C163.796 211.318 163.735 210.419 163.422 209.594C163.109 208.769 162.558 208.056 161.838 207.546C161.351 207.216 160.801 206.992 160.222 206.889C159.643 206.786 159.049 206.805 158.478 206.946C157.543 206.915 156.622 207.174 155.839 207.686C155.056 208.198 154.45 208.939 154.104 209.808C153.729 210.71 153.646 211.706 153.864 212.658L141.426 207.504L140.226 207.618L129.642 233.154L143.49 238.896C142.795 239.193 142.181 239.654 141.702 240.239C141.223 240.824 140.891 241.516 140.736 242.256C140.537 243.116 140.599 244.016 140.913 244.84C141.227 245.665 141.779 246.378 142.5 246.888C142.987 247.217 143.538 247.441 144.116 247.545C144.695 247.648 145.289 247.629 145.86 247.488C146.795 247.519 147.717 247.26 148.499 246.748C149.282 246.236 149.888 245.495 150.234 244.626C150.609 243.724 150.693 242.728 150.474 241.776L162.912 246.93L164.112 246.822Z" fill="#D75F26"/>
<path opacity="0.3" d="M164.112 246.822L174.696 221.28L160.848 215.544C161.543 215.245 162.156 214.783 162.634 214.197C163.112 213.611 163.442 212.919 163.596 212.178C163.796 211.318 163.735 210.419 163.422 209.594C163.109 208.769 162.558 208.056 161.838 207.546C161.351 207.216 160.801 206.992 160.222 206.889C159.643 206.786 159.049 206.805 158.478 206.946C157.543 206.915 156.622 207.174 155.839 207.686C155.056 208.198 154.45 208.939 154.104 209.808C153.729 210.71 153.646 211.706 153.864 212.658L141.426 207.504L140.226 207.618L129.642 233.154L143.49 238.896C142.795 239.193 142.181 239.654 141.702 240.239C141.223 240.824 140.891 241.516 140.736 242.256C140.537 243.116 140.599 244.016 140.913 244.84C141.227 245.665 141.779 246.378 142.5 246.888C142.987 247.217 143.538 247.441 144.116 247.545C144.695 247.648 145.289 247.629 145.86 247.488C146.795 247.519 147.717 247.26 148.499 246.748C149.282 246.236 149.888 245.495 150.234 244.626C150.609 243.724 150.693 242.728 150.474 241.776L162.912 246.93L164.112 246.822Z" fill="black"/>
<path d="M174.696 221.28L160.848 215.544C161.543 215.245 162.156 214.783 162.634 214.197C163.112 213.611 163.442 212.919 163.596 212.178C163.885 211.091 163.741 209.934 163.193 208.952C162.644 207.97 161.736 207.24 160.659 206.915C159.581 206.591 158.421 206.699 157.421 207.215C156.422 207.731 155.663 208.616 155.304 209.682C154.826 210.816 154.816 212.092 155.274 213.234L141.426 207.492L130.842 233.028L144.69 238.8C143.994 239.098 143.38 239.56 142.901 240.146C142.421 240.732 142.09 241.425 141.936 242.166C141.674 243.245 141.836 244.383 142.389 245.346C142.941 246.31 143.842 247.024 144.905 247.343C145.968 247.663 147.114 247.562 148.105 247.062C149.096 246.562 149.858 245.701 150.234 244.656C150.702 243.52 150.702 242.246 150.234 241.11L164.088 246.852L174.696 221.28Z" fill="#D75F26"/>
<path d="M162.15 216.87L160.89 215.61C160.835 215.558 160.791 215.495 160.761 215.425C160.731 215.356 160.716 215.281 160.716 215.205C160.716 215.129 160.731 215.054 160.761 214.984C160.791 214.915 160.835 214.852 160.89 214.8L161.49 214.284C161.611 214.173 161.755 214.09 161.911 214.039C162.066 213.987 162.231 213.97 162.394 213.987C162.558 214.004 162.715 214.055 162.857 214.137C162.999 214.219 163.122 214.331 163.218 214.464L164.73 216.546L164.904 217.146L163.98 216.762L162.84 217.032C162.721 217.065 162.595 217.067 162.474 217.039C162.354 217.011 162.242 216.953 162.15 216.87Z" fill="#FFC2BC"/>
<path d="M125.208 204.792C126.156 208.344 126.876 212.184 128.532 215.46C128.532 215.514 128.712 215.682 129.132 215.856C130.878 216.552 133.302 216.6 135.306 216.654C137.586 216.684 139.926 216.552 142.2 216.402C142.489 216.381 142.776 216.468 143.004 216.647C143.233 216.826 143.386 217.084 143.434 217.37C143.482 217.656 143.421 217.95 143.264 218.193C143.107 218.437 142.865 218.614 142.584 218.688C140.255 219.317 137.883 219.77 135.486 220.044C132.846 220.302 130.458 220.494 127.728 219.696C126.591 219.357 125.605 218.639 124.932 217.662L124.614 217.188C123.132 214.704 122.322 212.022 121.512 209.322C121.2 208.122 120.912 207.012 120.654 205.794C120.588 205.494 120.582 205.183 120.636 204.881C120.69 204.578 120.804 204.29 120.969 204.031C121.304 203.508 121.833 203.14 122.439 203.007C122.739 202.941 123.05 202.935 123.352 202.989C123.655 203.043 123.943 203.156 124.202 203.322C124.725 203.657 125.093 204.186 125.226 204.792H125.208Z" fill="#EBC0BB"/>
<path d="M141.48 216.6L144.24 214.77L144.756 218.61C144.109 218.788 143.43 218.817 142.771 218.695C142.111 218.574 141.487 218.305 140.946 217.908L141.48 216.6Z" fill="#FFC2BC"/>
<path d="M147.486 215.04L147.336 217.968L144.756 218.598L144.24 214.758L147.486 215.04Z" fill="#FFC2BC"/>
<path d="M122.922 199.68C119.598 200.88 119.886 205.608 121.602 211.308C123.318 217.008 125.988 220.536 128.592 220.908L130.956 216.252C130.229 215.853 129.549 215.374 128.928 214.824C127.956 213.624 124.8 201.732 124.8 201.732L122.922 199.68Z" fill="#3E5543"/>
<path opacity="0.4" d="M122.922 199.68C119.598 200.88 119.886 205.608 121.602 211.308C123.318 217.008 125.988 220.536 128.592 220.908L130.956 216.252C130.229 215.853 129.549 215.374 128.928 214.824C127.956 213.624 124.8 201.732 124.8 201.732L122.922 199.68Z" fill="white"/>
<path d="M131.268 215.976L129.93 215.316L126.048 220.884L128.928 221.154L131.268 215.976Z" fill="#3E5543"/>
<path opacity="0.2" d="M131.268 215.976L129.93 215.316L126.048 220.884L128.928 221.154L131.268 215.976Z" fill="white"/>
</svg>
