<svg width="131" height="141" viewBox="0 0 131 141" fill="none" xmlns="http://www.w3.org/2000/svg">
<path d="M65.1579 116.091C93.3307 116.091 116.169 93.1745 116.169 64.9057C116.169 36.6369 93.3307 13.7205 65.1579 13.7205C36.9851 13.7205 14.1465 36.6369 14.1465 64.9057C14.1465 93.1745 36.9851 116.091 65.1579 116.091Z" fill="#EAEEF9"/>
<path d="M123.256 21.9438C123.926 21.3298 123.972 20.2875 123.361 19.6157C122.749 18.9439 121.71 18.897 121.04 19.5109C120.371 20.1249 120.324 21.1672 120.936 21.839C121.548 22.5108 122.587 22.5577 123.256 21.9438Z" fill="#EAEEF9"/>
<path opacity="0.3" d="M96.011 41.2399C97.8249 41.2399 99.2954 39.7644 99.2954 37.9443C99.2954 36.1242 97.8249 34.6487 96.011 34.6487C94.1971 34.6487 92.7266 36.1242 92.7266 37.9443C92.7266 39.7644 94.1971 41.2399 96.011 41.2399Z" fill="#AAB2C5"/>
<g filter="url(#filter0_d_601_12051)">
<path d="M73.8729 45.569C73.4631 47.7548 71.6871 49.804 69.3646 50.3505C67.5886 50.7603 65.8126 50.3505 64.5831 49.3942V65.2415H49.8287C50.3752 64.1486 50.5118 63.0557 50.3752 61.8261C50.1019 59.0939 47.7795 56.908 45.1838 56.6348C41.6318 56.2249 38.4897 58.9572 38.4897 62.5092C38.4897 63.4655 38.6263 64.4218 39.0361 65.1049H22.3691V34.6398C22.3691 28.3555 27.4239 23.3008 33.8448 23.3008H64.4465V39.1481C65.5394 38.465 66.6323 38.0552 67.8619 38.0552C71.5505 38.6016 74.556 41.7438 73.8729 45.569Z" fill="url(#paint0_linear_601_12051)"/>
</g>
<g filter="url(#filter1_d_601_12051)">
<path d="M54.6103 85.187C54.0639 88.8756 56.9328 92.0177 60.6214 92.0177C62.1241 92.0177 63.4903 91.4713 64.5832 90.6516V107.045H33.9815C27.6972 107.045 22.5059 101.854 22.5059 95.7063V65.1046H39.0362C38.6264 64.2849 38.4898 63.4653 38.4898 62.3723C38.6264 59.5034 40.8122 57.0444 43.5445 56.6345C47.2331 56.2247 50.3753 58.957 50.3753 62.5089C50.3753 63.4652 50.2387 64.2849 49.8288 65.1046H64.31V81.4984C63.0804 80.4055 61.4411 79.859 59.6651 80.1323C57.0694 80.4055 55.0202 82.5913 54.6103 85.187Z" fill="url(#paint1_linear_601_12051)"/>
</g>
<g filter="url(#filter2_d_601_12051)">
<path d="M106.661 65.1049V95.4334C106.661 101.718 101.47 106.772 95.1852 106.772H64.5835V90.3787C63.4906 91.335 62.1244 91.7448 60.6217 91.7448C57.0697 91.7448 54.3374 88.6027 54.6106 84.9141C55.0205 82.1818 57.2063 80.1325 59.6654 79.7227C61.4414 79.5861 63.2174 80.1325 64.3103 81.0888V64.6951H81.9336C81.3871 65.5148 81.2505 66.4711 81.2505 67.4274C81.2505 70.8427 84.256 73.7116 87.9446 73.3018C90.6769 73.0286 92.9994 70.7061 93.2726 68.1104C93.4092 66.8809 93.136 65.788 92.7262 64.6951L106.661 65.1049Z" fill="url(#paint2_linear_601_12051)"/>
</g>
<path d="M119.502 52.6728L105.977 50.3503C106.25 51.4432 106.387 52.5362 105.977 53.6291C105.157 56.2248 102.698 58.0007 99.9657 57.8641C96.4137 57.5909 93.818 54.4488 94.3645 51.0334C94.5011 50.0771 94.9109 49.2574 95.4574 48.5743L77.9707 45.4322L80.703 29.7215C81.7959 30.8144 83.4353 31.4975 85.3479 31.4975C87.807 31.3609 89.8562 29.8581 90.5393 27.6723C91.9054 24.1203 89.583 20.2951 85.8944 19.7486C84.6648 19.4754 83.4353 19.7486 82.3424 20.1585L85.0747 4.44775L115.13 9.63912C121.414 10.732 125.513 16.6065 124.42 22.7541L119.502 52.6728Z" fill="url(#paint3_linear_601_12051)"/>
<path d="M126.064 64.1927L130.606 62.8237C130.935 62.7282 130.935 62.2506 130.606 62.1551L126.064 60.7861C125.947 60.7543 125.862 60.6694 125.83 60.5526L124.461 56.0212C124.366 55.6922 123.888 55.6922 123.793 56.0212L122.424 60.5526C122.392 60.6694 122.307 60.7543 122.19 60.7861L117.659 62.1551C117.33 62.2506 117.33 62.7282 117.659 62.8237L122.201 64.1927C122.318 64.2245 122.403 64.3094 122.434 64.4261L123.803 68.9682C123.899 69.2972 124.376 69.2972 124.472 68.9682L125.841 64.4261C125.862 64.3094 125.947 64.2245 126.064 64.1927Z" fill="#AAB2C5"/>
<path d="M116.015 24.4521L121.664 22.7494C122.073 22.6306 122.073 22.0366 121.664 21.9178L116.015 20.2151C115.87 20.1755 115.764 20.0699 115.724 19.9247L114.022 14.2886C113.903 13.8794 113.309 13.8794 113.19 14.2886L111.487 19.9247C111.448 20.0699 111.342 20.1755 111.197 20.2151L105.561 21.9178C105.152 22.0366 105.152 22.6306 105.561 22.7494L111.21 24.4521C111.355 24.4917 111.461 24.5973 111.501 24.7425L113.203 30.3918C113.322 30.801 113.916 30.801 114.035 30.3918L115.738 24.7425C115.764 24.5973 115.87 24.4917 116.015 24.4521Z" fill="white"/>
<path d="M74.9483 5.26099L77.7871 4.40544C77.9928 4.34575 77.9928 4.0473 77.7871 3.98761L74.9483 3.13205C74.8754 3.11216 74.8223 3.0591 74.8024 2.98615L73.9468 0.154199C73.8871 -0.0513995 73.5886 -0.0513995 73.5289 0.154199L72.6733 2.98615C72.6534 3.0591 72.6004 3.11216 72.5274 3.13205L69.6952 3.98761C69.4896 4.0473 69.4896 4.34575 69.6952 4.40544L72.534 5.26099C72.607 5.28088 72.6601 5.33394 72.68 5.4069L73.5356 8.24547C73.5953 8.45107 73.8937 8.45107 73.9534 8.24547L74.8091 5.4069C74.8223 5.33394 74.8754 5.28088 74.9483 5.26099Z" fill="#AAB2C5"/>
<defs>
<filter id="filter0_d_601_12051" x="0.369141" y="12.3008" width="95.6016" height="85.9407" filterUnits="userSpaceOnUse" color-interpolation-filters="sRGB">
<feFlood flood-opacity="0" result="BackgroundImageFix"/>
<feColorMatrix in="SourceAlpha" type="matrix" values="0 0 0 0 0 0 0 0 0 0 0 0 0 0 0 0 0 0 127 0" result="hardAlpha"/>
<feOffset dy="11"/>
<feGaussianBlur stdDeviation="11"/>
<feColorMatrix type="matrix" values="0 0 0 0 0.397708 0 0 0 0 0.47749 0 0 0 0 0.575 0 0 0 0.27 0"/>
<feBlend mode="normal" in2="BackgroundImageFix" result="effect1_dropShadow_601_12051"/>
<feBlend mode="normal" in="SourceGraphic" in2="effect1_dropShadow_601_12051" result="shape"/>
</filter>
<filter id="filter1_d_601_12051" x="0.505859" y="45.5938" width="86.0781" height="94.4517" filterUnits="userSpaceOnUse" color-interpolation-filters="sRGB">
<feFlood flood-opacity="0" result="BackgroundImageFix"/>
<feColorMatrix in="SourceAlpha" type="matrix" values="0 0 0 0 0 0 0 0 0 0 0 0 0 0 0 0 0 0 127 0" result="hardAlpha"/>
<feOffset dy="11"/>
<feGaussianBlur stdDeviation="11"/>
<feColorMatrix type="matrix" values="0 0 0 0 0.397708 0 0 0 0 0.47749 0 0 0 0 0.575 0 0 0 0.27 0"/>
<feBlend mode="normal" in2="BackgroundImageFix" result="effect1_dropShadow_601_12051"/>
<feBlend mode="normal" in="SourceGraphic" in2="effect1_dropShadow_601_12051" result="shape"/>
</filter>
<filter id="filter2_d_601_12051" x="32.5918" y="53.6951" width="96.0684" height="86.0774" filterUnits="userSpaceOnUse" color-interpolation-filters="sRGB">
<feFlood flood-opacity="0" result="BackgroundImageFix"/>
<feColorMatrix in="SourceAlpha" type="matrix" values="0 0 0 0 0 0 0 0 0 0 0 0 0 0 0 0 0 0 127 0" result="hardAlpha"/>
<feOffset dy="11"/>
<feGaussianBlur stdDeviation="11"/>
<feColorMatrix type="matrix" values="0 0 0 0 0.397708 0 0 0 0 0.47749 0 0 0 0 0.575 0 0 0 0.27 0"/>
<feBlend mode="normal" in2="BackgroundImageFix" result="effect1_dropShadow_601_12051"/>
<feBlend mode="normal" in="SourceGraphic" in2="effect1_dropShadow_601_12051" result="shape"/>
</filter>
<linearGradient id="paint0_linear_601_12051" x1="48.1529" y1="22.3307" x2="48.1529" y2="65.6937" gradientUnits="userSpaceOnUse">
<stop stop-color="#FDFEFF"/>
<stop offset="0.9964" stop-color="#ECF0F5"/>
</linearGradient>
<linearGradient id="paint1_linear_601_12051" x1="43.5308" y1="55.4268" x2="43.5308" y2="107.589" gradientUnits="userSpaceOnUse">
<stop stop-color="#FDFEFF"/>
<stop offset="0.9964" stop-color="#ECF0F5"/>
</linearGradient>
<linearGradient id="paint2_linear_601_12051" x1="80.6094" y1="63.7218" x2="80.6094" y2="107.226" gradientUnits="userSpaceOnUse">
<stop stop-color="#FDFEFF"/>
<stop offset="0.9964" stop-color="#ECF0F5"/>
</linearGradient>
<linearGradient id="paint3_linear_601_12051" x1="77.9493" y1="31.1654" x2="124.604" y2="31.1654" gradientUnits="userSpaceOnUse">
<stop stop-color="#EBAF92"/>
<stop offset="1" stop-color="#D75F26"/>
</linearGradient>
</defs>
</svg>
