<svg width="335" height="576" viewBox="0 0 335 576" fill="none" xmlns="http://www.w3.org/2000/svg">
<g clip-path="url(#clip0_686_7221)">
<path opacity="0.5" d="M376.903 -1.64417C233.242 -72.9155 263.253 -256.761 302.531 -327.235L-138.977 39.5323L118.923 1194.23C213.575 1097.96 511.729 683.634 570.824 480.022C671.131 134.416 500.559 59.7025 376.903 -1.64417Z" stroke="#EBAF92" stroke-width="2"/>
<path opacity="0.5" d="M364.619 10.4079C220.958 -60.8635 250.969 -244.709 290.247 -315.183L-151.26 51.5843L106.639 1206.29C201.292 1110.01 499.445 695.686 558.54 492.075C658.847 146.468 488.276 71.7546 364.619 10.4079Z" stroke="#EBAF92" stroke-width="2"/>
<path opacity="0.5" d="M352.335 22.4613C208.674 -48.8101 238.685 -232.655 277.963 -303.13L-163.545 63.6377L94.355 1218.34C189.007 1122.06 487.161 707.739 546.256 504.128C646.563 158.522 475.991 83.808 352.335 22.4613Z" stroke="#EBAF92" stroke-width="2"/>
<path opacity="0.5" d="M340.051 34.5133C196.39 -36.758 226.401 -220.603 265.679 -291.078L-175.828 75.6898L82.0711 1230.39C176.724 1134.11 474.877 719.791 533.973 516.18C634.28 170.574 463.708 95.86 340.051 34.5133Z" stroke="#EBAF92" stroke-width="2"/>
<path opacity="0.5" d="M327.769 46.5658C184.107 -24.7056 214.118 -208.551 253.396 -279.025L-188.111 87.7422L69.7882 1242.44C164.441 1146.17 462.595 731.844 521.69 528.232C621.997 182.626 451.425 107.912 327.769 46.5658Z" stroke="#EBAF92" stroke-width="2"/>
<path opacity="0.5" d="M315.484 58.6177C171.823 -12.6536 201.834 -196.499 241.112 -266.973L-200.396 99.7943L57.5033 1254.5C152.155 1158.22 450.31 743.896 509.405 540.284C609.712 194.678 439.14 119.965 315.484 58.6177Z" stroke="#EBAF92" stroke-width="2"/>
<path opacity="0.5" d="M303.199 70.6708C159.538 -0.600616 189.549 -184.446 228.827 -254.92L-212.68 111.847L45.2194 1266.55C139.872 1170.27 438.025 755.949 497.12 552.337C597.427 206.731 426.856 132.017 303.199 70.6708Z" stroke="#EBAF92" stroke-width="2"/>
<path opacity="0.5" d="M290.917 82.7227C147.255 11.4514 177.266 -172.394 216.544 -242.868L-224.963 123.899L32.9366 1278.6C127.589 1182.32 425.743 768.001 484.838 564.389C585.145 218.783 414.573 144.07 290.917 82.7227Z" stroke="#EBAF92" stroke-width="2"/>
</g>
<defs>
<clipPath id="clip0_686_7221">
<rect width="335" height="576" fill="white"/>
</clipPath>
</defs>
</svg>
