<svg width="8" height="8" viewBox="0 0 8 8" fill="none" xmlns="http://www.w3.org/2000/svg">
<path fill-rule="evenodd" clip-rule="evenodd" d="M7.81501 0.184985C8.06166 0.431632 8.06166 0.831526 7.81501 1.07817L1.07817 7.81501C0.831526 8.06166 0.431632 8.06166 0.184985 7.81501C-0.0616617 7.56837 -0.0616617 7.16847 0.184985 6.92183L6.92183 0.184985C7.16847 -0.0616617 7.56837 -0.0616617 7.81501 0.184985Z" fill="white"/>
<path fill-rule="evenodd" clip-rule="evenodd" d="M1.26367 0.631579C1.26367 0.282768 1.54644 0 1.89525 0H7.36893C7.71775 0 8.00051 0.282768 8.00051 0.631579V6.10526C8.00051 6.45407 7.71775 6.73684 7.36893 6.73684C7.02012 6.73684 6.73736 6.45407 6.73736 6.10526V1.26316H1.89525C1.54644 1.26316 1.26367 0.98039 1.26367 0.631579Z" fill="white"/>
</svg>
