<svg width="24" height="24" viewBox="0 0 24 24" fill="none" xmlns="http://www.w3.org/2000/svg">
<path d="M15.22 6.54999H5.78C5.5 6.54999 5.24 6.55999 5 6.56999C2.63 6.70999 2 7.57999 2 10.28V10.86C2 11.41 2.45 11.86 3 11.86H18C18.55 11.86 19 11.41 19 10.86V10.28C19 7.29999 18.24 6.54999 15.22 6.54999Z" fill="#292D32"/>
<path d="M3 13.36C2.45 13.36 2 13.81 2 14.36V17.27C2 20.25 2.76 21 5.78 21H15.22C18.19 21 18.97 20.28 19 17.43V14.36C19 13.81 18.55 13.36 18 13.36H3ZM6.96 18.56H5.25C4.84 18.56 4.5 18.22 4.5 17.81C4.5 17.4 4.84 17.06 5.25 17.06H6.97C7.38 17.06 7.72 17.4 7.72 17.81C7.72 18.22 7.38 18.56 6.96 18.56ZM12.55 18.56H9.11C8.7 18.56 8.36 18.22 8.36 17.81C8.36 17.4 8.7 17.06 9.11 17.06H12.55C12.96 17.06 13.3 17.4 13.3 17.81C13.3 18.22 12.97 18.56 12.55 18.56Z" fill="#292D32"/>
<path d="M21.9996 13.33V8.09001C21.9996 4.96001 20.2096 3.60001 17.5096 3.60001H8.57962C7.81962 3.60001 7.13962 3.71001 6.53962 3.94001C6.06962 4.11001 5.64962 4.36001 5.30962 4.69001C5.12962 4.86001 5.26962 5.14001 5.52962 5.14001H16.3996C18.6496 5.14001 20.4696 6.96001 20.4696 9.21001V16.38C20.4696 16.63 20.7396 16.77 20.9196 16.59C21.6096 15.86 21.9996 14.79 21.9996 13.33Z" fill="#292D32"/>
</svg>
