<svg width="22" height="24" viewBox="0 0 22 24" fill="none" xmlns="http://www.w3.org/2000/svg">
<path opacity="0.3" fill-rule="evenodd" clip-rule="evenodd" d="M10.9908 22C6.43844 22 2.74805 17.9706 2.74805 13C2.74805 8.02944 6.43844 4 10.9908 4C15.5431 4 19.2335 8.02944 19.2335 13C19.2335 17.9706 15.5431 22 10.9908 22Z" fill="#D75F26"/>
<path fill-rule="evenodd" clip-rule="evenodd" d="M10.4993 7.96161C10.5176 7.70158 10.7339 7.5 10.9946 7.5C11.2512 7.5 11.4656 7.69562 11.489 7.95122L11.9056 12.5L14.8758 14.3532C15.0222 14.4445 15.1111 14.6048 15.1111 14.7774V14.8294C15.1111 15.1639 14.789 15.4041 14.4684 15.3086L10.4581 14.1144C10.2336 14.0476 10.0856 13.8338 10.1021 13.6001L10.4993 7.96161Z" fill="#D75F26"/>
</svg>
