<svg width="24" height="24" viewBox="0 0 24 24" fill="none" xmlns="http://www.w3.org/2000/svg">
<path fill-rule="evenodd" clip-rule="evenodd" d="M10.4636 7.96165C10.4836 7.70115 10.7008 7.5 10.9621 7.5H11.0466C11.3035 7.5 11.5186 7.69465 11.5441 7.95025L11.9991 12.5L15.2472 14.356C15.4029 14.4451 15.4991 14.6107 15.4991 14.7902V14.8454C15.4991 15.1751 15.1856 15.4145 14.8675 15.3278L10.3978 14.1087C10.1664 14.0456 10.0124 13.8271 10.0308 13.588L10.4636 7.96165Z" fill="#D75F26"/>
<path opacity="0.3" fill-rule="evenodd" clip-rule="evenodd" d="M6.20102 1.41824C5.93691 1.10349 5.42697 1.22396 5.33164 1.62363L4.20314 6.35476C4.12546 6.68041 4.38353 6.98891 4.71778 6.96997L9.58475 6.69417C9.99566 6.67088 10.204 6.18885 9.93948 5.87357L8.74872 4.45448C9.62236 4.15594 10.5488 4.00002 11.5 4.00002C16.1944 4.00002 20 7.8056 20 12.5C20 17.1944 16.1944 21 11.5 21C6.80558 21 3 17.1944 3 12.5C3 11.7119 3.10672 10.9401 3.31481 10.1982L1.38913 9.65807C1.13559 10.562 1 11.5151 1 12.5C1 18.299 5.70101 23 11.5 23C17.299 23 22 18.299 22 12.5C22 6.70103 17.299 2.00002 11.5 2.00002C10.0413 2.00002 8.65217 2.29745 7.3898 2.83497L6.20102 1.41824Z" fill="#D75F26"/>
</svg>
