<svg width="23" height="24" viewBox="0 0 23 24" fill="none" xmlns="http://www.w3.org/2000/svg">
<path opacity="0.3" fill-rule="evenodd" clip-rule="evenodd" d="M19.5867 14C20.3454 14 20.9605 13.3284 20.9605 12.5C20.9605 11.6716 20.3454 11 19.5867 11C18.828 11 18.2129 11.6716 18.2129 12.5C18.2129 13.3284 18.828 14 19.5867 14Z" fill="#D75F26"/>
<rect opacity="0.3" width="16.5912" height="6.9621" rx="1" transform="matrix(0.959768 -0.280796 0.238332 0.971184 3.01172 5.44861)" fill="#D75F26"/>
<path fill-rule="evenodd" clip-rule="evenodd" d="M4.64453 4C3.53996 4 2.64453 4.89543 2.64453 6V18C2.64453 19.1046 3.53996 20 4.64453 20H18.9617C20.0663 20 20.9617 19.1046 20.9617 18V15.6632C20.5453 15.8792 20.0795 16 19.5879 16C17.8175 16 16.3824 14.433 16.3824 12.5C16.3824 10.567 17.8175 9 19.5879 9C20.0795 9 20.5453 9.12085 20.9617 9.33682V6C20.9617 4.89543 20.0663 4 18.9617 4H4.64453Z" fill="#D75F26"/>
</svg>
